<svg width="19" height="22" viewBox="0 0 19 22" fill="none" xmlns="http://www.w3.org/2000/svg">
<path d="M0.67394 12.1255C0.493642 12.3733 0.540798 12.7254 0.780271 12.9119C1.01974 13.0985 1.35999 13.0497 1.54121 12.8019L9.7821 1.4939L18.023 12.8019C18.2033 13.0497 18.5445 13.0985 18.7839 12.9119C19.0234 12.7254 19.0706 12.3724 18.8893 12.1255L10.2222 0.232933C10.1907 0.18797 10.1537 0.147789 10.1084 0.11335C9.86896 -0.0732036 9.5287 -0.0244136 9.34841 0.222409L0.67394 12.1255ZM1.10665 17.8342L4.49357 17.8342L4.49357 21.4375C4.49357 21.7484 4.73673 22 5.03724 22L14.5265 22C14.827 22 15.0702 21.7484 15.0702 21.4375L15.0702 17.8342L18.4571 17.8342C18.5717 17.8342 18.6855 17.7968 18.7844 17.7203C19.0238 17.5338 19.071 17.1817 18.8898 16.9339L10.2226 5.04132C10.1912 4.99636 10.1542 4.95618 10.1089 4.92174C9.8694 4.73518 9.52915 4.78398 9.34886 5.0308L0.691845 16.909C0.611404 17.0065 0.563326 17.1338 0.563326 17.2715C0.563326 17.5825 0.806135 17.8342 1.10665 17.8342Z" fill="#396EF5"/>
</svg>
