<svg width="554" height="217" viewBox="0 0 554 217" fill="none" xmlns="http://www.w3.org/2000/svg">
<g style="mix-blend-mode:hard-light" filter="url(#filter0_ddi_41_8)">
<mask id="path-1-outside-1_41_8" maskUnits="userSpaceOnUse" x="47.137" y="11.6716" width="459" height="121" fill="black">
<rect fill="white" x="47.137" y="11.6716" width="459" height="121"/>
<path d="M67.8772 110.672V33.2691H107.463C117.636 33.2691 125.229 35.1488 130.242 38.9084C135.254 42.5942 137.761 47.4595 137.761 53.5043C137.761 57.485 136.692 60.9865 134.554 64.0089C132.49 66.9576 129.541 69.3165 125.708 71.0857C121.948 72.7812 117.452 73.6289 112.218 73.6289L114.429 68.3213C119.884 68.3213 124.639 69.1691 128.693 70.8646C132.748 72.4863 135.881 74.8821 138.092 78.0519C140.378 81.148 141.52 84.9444 141.52 89.4412C141.52 96.1494 138.793 101.383 133.338 105.143C127.956 108.829 120.069 110.672 109.675 110.672H67.8772ZM89.5499 94.8593H107.905C111.665 94.8593 114.503 94.2327 116.42 92.9796C118.41 91.6527 119.405 89.6623 119.405 87.0085C119.405 84.3547 118.41 82.4012 116.42 81.148C114.503 79.8211 111.665 79.1577 107.905 79.1577H88.0019V64.0089H104.588C108.274 64.0089 111.038 63.3823 112.881 62.1291C114.724 60.8759 115.646 58.9962 115.646 56.4898C115.646 53.9834 114.724 52.1405 112.881 50.9611C111.038 49.7079 108.274 49.0813 104.588 49.0813H89.5499V94.8593ZM191.893 112.22C185.701 112.22 179.988 111.224 174.754 109.234C169.52 107.244 164.95 104.443 161.043 100.83C157.209 97.1446 154.224 92.869 152.086 88.0037C149.948 83.1384 148.879 77.7939 148.879 71.9703C148.879 66.1467 149.948 60.8022 152.086 55.9369C154.224 51.0716 157.209 46.8329 161.043 43.2208C164.95 39.535 169.52 36.6969 174.754 34.7065C179.988 32.7162 185.701 31.721 191.893 31.721C198.159 31.721 203.872 32.7162 209.032 34.7065C214.266 36.6969 218.8 39.535 222.633 43.2208C226.466 46.8329 229.452 51.0716 231.59 55.9369C233.801 60.8022 234.907 66.1467 234.907 71.9703C234.907 77.7939 233.801 83.1752 231.59 88.1143C229.452 92.9796 226.466 97.2183 222.633 100.83C218.8 104.443 214.266 107.244 209.032 109.234C203.872 111.224 198.159 112.22 191.893 112.22ZM191.893 94.0853C194.842 94.0853 197.569 93.5693 200.076 92.5373C202.656 91.5052 204.867 90.0309 206.71 88.1143C208.627 86.1239 210.101 83.765 211.133 81.0375C212.239 78.3099 212.792 75.2876 212.792 71.9703C212.792 68.5793 212.239 65.557 211.133 62.9032C210.101 60.1756 208.627 57.8536 206.71 55.9369C204.867 53.9466 202.656 52.4354 200.076 51.4034C197.569 50.3713 194.842 49.8553 191.893 49.8553C188.944 49.8553 186.18 50.3713 183.6 51.4034C181.094 52.4354 178.882 53.9466 176.966 55.9369C175.123 57.8536 173.648 60.1756 172.543 62.9032C171.51 65.557 170.994 68.5793 170.994 71.9703C170.994 75.2876 171.51 78.3099 172.543 81.0375C173.648 83.765 175.123 86.1239 176.966 88.1143C178.882 90.0309 181.094 91.5052 183.6 92.5373C186.18 93.5693 188.944 94.0853 191.893 94.0853ZM246.374 110.672V33.2691H264.398L307.079 84.797H298.565V33.2691H320.017V110.672H301.993L259.311 59.1436H267.825V110.672H246.374ZM371.176 112.22C359.75 112.22 350.83 109.087 344.417 102.821C338.003 96.5548 334.797 87.672 334.797 76.1722V33.2691H356.691V75.5087C356.691 82.1432 357.981 86.8979 360.561 89.7729C363.214 92.6478 366.827 94.0853 371.397 94.0853C375.967 94.0853 379.543 92.6478 382.123 89.7729C384.703 86.8979 385.993 82.1432 385.993 75.5087V33.2691H407.555V76.1722C407.555 87.672 404.348 96.5548 397.935 102.821C391.522 109.087 382.602 112.22 371.176 112.22ZM449.588 112.22C443.249 112.22 437.13 111.446 431.233 109.898C425.409 108.276 420.654 106.212 416.969 103.705L424.156 87.5614C427.621 89.7729 431.601 91.6158 436.098 93.0901C440.669 94.4908 445.202 95.1911 449.699 95.1911C452.721 95.1911 455.154 94.9331 456.997 94.417C458.84 93.8273 460.167 93.0901 460.977 92.2055C461.862 91.2472 462.304 90.1415 462.304 88.8883C462.304 87.1191 461.493 85.7185 459.872 84.6864C458.25 83.6544 456.149 82.8067 453.569 82.1432C450.989 81.4798 448.114 80.8163 444.944 80.1529C441.848 79.4894 438.715 78.6417 435.545 77.6096C432.449 76.5776 429.611 75.2507 427.031 73.6289C424.451 71.9335 422.35 69.7588 420.728 67.105C419.106 64.3775 418.295 60.9497 418.295 56.8215C418.295 52.1774 419.549 47.9755 422.055 44.216C424.635 40.4564 428.468 37.434 433.555 35.1488C438.641 32.8636 444.981 31.721 452.574 31.721C457.66 31.721 462.636 32.3107 467.501 33.4902C472.44 34.596 476.827 36.2546 480.66 38.4661L473.915 54.7206C470.229 52.7303 466.58 51.2559 462.968 50.2976C459.356 49.2656 455.854 48.7496 452.463 48.7496C449.441 48.7496 447.008 49.0813 445.165 49.7447C443.322 50.3345 441.995 51.1453 441.185 52.1774C440.374 53.2094 439.968 54.3889 439.968 55.7158C439.968 57.4113 440.742 58.775 442.29 59.8071C443.912 60.7654 446.013 61.5763 448.593 62.2397C451.247 62.8294 454.122 63.456 457.218 64.1195C460.388 64.7829 463.521 65.6307 466.617 66.6627C469.787 67.621 472.662 68.9479 475.242 70.6434C477.822 72.2652 479.886 74.4398 481.434 77.1673C483.056 79.8211 483.866 83.1752 483.866 87.2297C483.866 91.7264 482.576 95.8914 479.996 99.7246C477.49 103.484 473.694 106.507 468.607 108.792C463.594 111.077 457.255 112.22 449.588 112.22Z"/>
</mask>
<path d="M67.8772 110.672H47.9836V130.565H67.8772V110.672ZM67.8772 33.2691V13.3754H47.9836V33.2691H67.8772ZM130.242 38.9084L118.305 54.8233L118.381 54.8798L118.457 54.9357L130.242 38.9084ZM134.554 64.0089L118.312 52.521L118.284 52.5608L118.256 52.6007L134.554 64.0089ZM125.708 71.0857L133.886 89.2205L133.966 89.1847L134.045 89.1483L125.708 71.0857ZM112.218 73.6289L93.8544 65.9775L82.3773 93.5226H112.218V73.6289ZM114.429 68.3213V48.4277H101.167L96.0659 60.6699L114.429 68.3213ZM128.693 70.8646L121.018 89.218L121.161 89.2778L121.305 89.3353L128.693 70.8646ZM138.092 78.0519L121.777 89.4347L121.929 89.6523L122.086 89.8658L138.092 78.0519ZM133.338 105.143L144.579 121.556L144.603 121.539L144.627 121.523L133.338 105.143ZM89.5499 94.8593H69.6563V114.753H89.5499V94.8593ZM116.42 92.9796L127.306 109.63L127.381 109.581L127.455 109.532L116.42 92.9796ZM116.42 81.148L105.096 97.5044L105.453 97.7514L105.82 97.9827L116.42 81.148ZM88.0019 79.1577H68.1082V99.0513H88.0019V79.1577ZM88.0019 64.0089V44.1153H68.1082V64.0089H88.0019ZM112.881 62.1291L124.068 78.5797L124.068 78.5797L112.881 62.1291ZM112.881 50.9611L101.695 67.4116L101.924 67.5675L102.158 67.7169L112.881 50.9611ZM89.5499 49.0813V29.1876H69.6563V49.0813H89.5499ZM87.7708 110.672V33.2691H47.9836V110.672H87.7708ZM67.8772 53.1627H107.463V13.3754H67.8772V53.1627ZM107.463 53.1627C111.392 53.1627 114.16 53.5325 116.007 53.9895C117.836 54.4425 118.391 54.8877 118.305 54.8233L142.178 22.9935C132.165 15.4836 119.47 13.3754 107.463 13.3754V53.1627ZM118.457 54.9357C118.663 55.0873 118.679 55.1297 118.592 55.0304C118.498 54.9242 118.346 54.7226 118.196 54.4321C118.046 54.1402 117.952 53.8624 117.902 53.646C117.854 53.4376 117.867 53.3735 117.867 53.5043H157.654C157.654 40.9158 151.961 30.1859 142.026 22.8811L118.457 54.9357ZM117.867 53.5043C117.867 53.6973 117.844 53.5963 117.932 53.3078C118.024 53.0059 118.17 52.7227 118.312 52.521L150.795 75.4968C155.491 68.8577 157.654 61.2731 157.654 53.5043H117.867ZM118.256 52.6007C118.364 52.4476 118.434 52.4015 118.367 52.4553C118.287 52.5196 117.996 52.7346 117.371 53.0231L134.045 89.1483C140.516 86.1616 146.444 81.7137 150.851 75.4172L118.256 52.6007ZM117.53 52.9509C116.934 53.2196 115.364 53.7353 112.218 53.7353V93.5226C119.539 93.5226 126.963 92.3428 133.886 89.2205L117.53 52.9509ZM130.581 81.2803L132.793 75.9727L96.0659 60.6699L93.8544 65.9775L130.581 81.2803ZM114.429 88.215C117.865 88.215 119.905 88.7525 121.018 89.218L136.369 52.5111C129.373 49.5857 121.904 48.4277 114.429 48.4277V88.215ZM121.305 89.3353C121.831 89.5455 122.014 89.6917 122 89.6804C121.995 89.6772 121.961 89.6503 121.912 89.5987C121.862 89.5466 121.815 89.4894 121.777 89.4347L154.408 66.6692C149.696 59.9154 143.257 55.2638 136.082 52.3938L121.305 89.3353ZM122.086 89.8658C121.971 89.7089 121.866 89.5379 121.78 89.3639C121.694 89.1908 121.642 89.0481 121.614 88.9547C121.556 88.763 121.627 88.8789 121.627 89.4412H161.414C161.414 81.4339 159.316 73.3075 154.098 66.2381L122.086 89.8658ZM121.627 89.4412C121.627 89.7676 121.594 89.8571 121.615 89.7663C121.638 89.6655 121.7 89.4583 121.833 89.2041C121.966 88.9492 122.108 88.7627 122.203 88.6588C122.291 88.5623 122.271 88.6094 122.049 88.7626L144.627 121.523C155.55 113.995 161.414 102.594 161.414 89.4412H121.627ZM122.096 88.73C121.459 89.166 118.243 90.7779 109.675 90.7779V130.565C121.894 130.565 134.453 128.491 144.579 121.556L122.096 88.73ZM109.675 90.7779H67.8772V130.565H109.675V90.7779ZM89.5499 114.753H107.905V74.9657H89.5499V114.753ZM107.905 114.753C113.292 114.753 120.684 113.96 127.306 109.63L105.533 76.3292C107.048 75.3382 108.24 75.0353 108.565 74.9636C108.895 74.8908 108.739 74.9657 107.905 74.9657V114.753ZM127.455 109.532C135.656 104.065 139.299 95.4575 139.299 87.0085H99.5115C99.5115 85.8368 99.7402 83.8452 100.865 81.5949C102.032 79.2623 103.722 77.5353 105.385 76.4271L127.455 109.532ZM139.299 87.0085C139.299 78.5573 135.621 69.7295 127.019 64.3134L105.82 97.9827C104.009 96.8423 102.182 95.0361 100.933 92.5833C99.7361 90.2342 99.5115 88.1676 99.5115 87.0085H139.299ZM127.743 64.7917C121.026 60.1411 113.443 59.2641 107.905 59.2641V99.0513C108.675 99.0513 108.746 99.1251 108.325 99.0267C107.897 98.9265 106.637 98.571 105.096 97.5044L127.743 64.7917ZM107.905 59.2641H88.0019V99.0513H107.905V59.2641ZM107.896 79.1577V64.0089H68.1082V79.1577H107.896ZM88.0019 83.9025H104.588V44.1153H88.0019V83.9025ZM104.588 83.9025C109.907 83.9025 117.404 83.1112 124.068 78.5797L101.695 45.6786C103.307 44.5822 104.615 44.2312 105.028 44.1375C105.444 44.0431 105.367 44.1153 104.588 44.1153V83.9025ZM124.068 78.5797C132.105 73.1143 135.539 64.6245 135.539 56.4898H95.752C95.752 55.2996 95.978 53.2948 97.0916 51.0231C98.2493 48.6613 99.9516 46.864 101.695 45.6786L124.068 78.5797ZM135.539 56.4898C135.539 48.3594 132.074 39.6253 123.605 34.2052L102.158 67.7169C100.251 66.497 98.4054 64.613 97.1611 62.1245C95.9735 59.7493 95.752 57.6663 95.752 56.4898H135.539ZM124.068 34.5105C117.404 29.979 109.907 29.1876 104.588 29.1876V68.9749C105.367 68.9749 105.444 69.0471 105.028 68.9527C104.615 68.859 103.307 68.508 101.695 67.4116L124.068 34.5105ZM104.588 29.1876H89.5499V68.9749H104.588V29.1876ZM69.6563 49.0813V94.8593H109.444V49.0813H69.6563ZM174.754 109.234L167.683 127.829V127.829L174.754 109.234ZM161.043 100.83L147.254 115.17L147.395 115.305L147.538 115.438L161.043 100.83ZM152.086 88.0037L133.873 96.0064V96.0064L152.086 88.0037ZM152.086 55.9369L133.873 47.9342V47.9342L152.086 55.9369ZM161.043 43.2208L174.686 57.6992L174.694 57.6913L161.043 43.2208ZM174.754 34.7065L167.683 16.112L174.754 34.7065ZM209.032 34.7065L201.873 53.2673L201.917 53.2843L201.961 53.301L209.032 34.7065ZM222.633 43.2208L208.845 57.5608L208.917 57.6303L208.99 57.6992L222.633 43.2208ZM231.59 55.9369L213.377 63.9396L213.427 64.0546L213.479 64.169L231.59 55.9369ZM231.59 88.1143L213.433 79.9844L213.405 80.0479L213.377 80.1116L231.59 88.1143ZM222.633 100.83L236.276 115.309L222.633 100.83ZM209.032 109.234L201.961 90.6396L201.917 90.6563L201.873 90.6733L209.032 109.234ZM200.076 92.5373L192.687 74.0665L192.594 74.1038L192.501 74.1421L200.076 92.5373ZM206.71 88.1143L192.38 74.3152L192.375 74.3205L192.37 74.3258L206.71 88.1143ZM211.133 81.0375L192.697 73.5633L192.609 73.7793L192.527 73.9973L211.133 81.0375ZM211.133 62.9032L192.527 69.9434L192.643 70.251L192.77 70.5546L211.133 62.9032ZM206.71 55.9369L192.113 69.4528L192.373 69.7334L192.643 70.0038L206.71 55.9369ZM200.076 51.4034L192.501 69.7986L192.594 69.8368L192.687 69.8741L200.076 51.4034ZM183.6 51.4034L176.212 32.9326L176.118 32.9699L176.026 33.0082L183.6 51.4034ZM176.966 55.9369L162.636 42.1379L162.631 42.1432L162.626 42.1485L176.966 55.9369ZM172.543 62.9032L154.106 55.429L154.053 55.5605L154.002 55.6928L172.543 62.9032ZM172.543 81.0375L153.936 88.0777L154.019 88.2956L154.106 88.5116L172.543 81.0375ZM176.966 88.1143L162.368 101.63L162.628 101.911L162.899 102.181L176.966 88.1143ZM183.6 92.5373L176.026 110.932L176.118 110.971L176.212 111.008L183.6 92.5373ZM191.893 92.326C187.862 92.326 184.574 91.6848 181.825 90.6396L167.683 127.829C175.402 130.764 183.54 132.113 191.893 132.113V92.326ZM181.825 90.6396C178.845 89.5062 176.488 88.0171 174.548 86.2231L147.538 115.438C153.411 120.868 160.195 124.981 167.683 127.829L181.825 90.6396ZM174.831 86.4904C172.872 84.6062 171.39 82.4833 170.299 80.001L133.873 96.0064C137.058 103.255 141.547 109.683 147.254 115.17L174.831 86.4904ZM170.299 80.001C169.372 77.891 168.773 75.305 168.773 71.9703H128.986C128.986 80.2828 130.525 88.3858 133.873 96.0064L170.299 80.001ZM168.773 71.9703C168.773 68.6356 169.372 66.0497 170.299 63.9396L133.873 47.9342C130.525 55.5548 128.986 63.6578 128.986 71.9703H168.773ZM170.299 63.9396C171.373 61.495 172.813 59.4643 174.686 57.6992L147.4 28.7424C141.606 34.2016 137.075 40.6483 133.873 47.9342L170.299 63.9396ZM174.694 57.6913C176.619 55.8751 178.929 54.4026 181.825 53.301L167.683 16.112C160.112 18.9912 153.28 23.1948 147.391 28.7503L174.694 57.6913ZM181.825 53.301C184.574 52.2559 187.862 51.6146 191.893 51.6146V11.8274C183.54 11.8274 175.402 13.1765 167.683 16.112L181.825 53.301ZM191.893 51.6146C196.034 51.6146 199.28 52.2671 201.873 53.2673L216.191 16.1457C208.464 13.1653 200.284 11.8274 191.893 11.8274V51.6146ZM201.961 53.301C204.827 54.391 207.043 55.8282 208.845 57.5608L236.421 28.8808C230.557 23.2418 223.705 19.0028 216.103 16.112L201.961 53.301ZM208.99 57.6992C210.863 59.4643 212.302 61.495 213.377 63.9396L249.803 47.9342C246.601 40.6483 242.069 34.2016 236.276 28.7424L208.99 57.6992ZM213.479 64.169C214.413 66.2242 215.013 68.7288 215.013 71.9703H254.8C254.8 63.5646 253.189 55.3802 249.7 47.7049L213.479 64.169ZM215.013 71.9703C215.013 75.2084 214.414 77.7932 213.433 79.9844L249.746 96.2441C253.188 88.5573 254.8 80.3795 254.8 71.9703H215.013ZM213.377 80.1116C212.302 82.5562 210.863 84.5869 208.99 86.352L236.276 115.309C242.069 109.85 246.601 103.403 249.803 96.117L213.377 80.1116ZM208.99 86.352C207.174 88.0632 204.912 89.5176 201.961 90.6396L216.103 127.829C223.621 124.97 230.426 120.822 236.276 115.309L208.99 86.352ZM201.873 90.6733C199.28 91.6735 196.034 92.326 191.893 92.326V132.113C200.284 132.113 208.464 130.775 216.191 127.795L201.873 90.6733ZM191.893 113.979C197.21 113.979 202.537 113.038 207.65 110.932L192.501 74.1421C192.528 74.1312 192.52 74.1386 192.452 74.1514C192.381 74.165 192.203 74.1917 191.893 74.1917V113.979ZM207.464 111.008C212.546 108.975 217.16 105.948 221.05 101.903L192.37 74.3258C192.447 74.2462 192.541 74.1671 192.634 74.105C192.725 74.0443 192.757 74.0388 192.687 74.0665L207.464 111.008ZM221.04 101.913C224.927 97.8763 227.808 93.1824 229.739 88.0777L192.527 73.9973C192.451 74.1978 192.396 74.2892 192.384 74.3087C192.376 74.3208 192.374 74.3236 192.376 74.3205C192.378 74.3174 192.381 74.315 192.38 74.3152L221.04 101.913ZM229.569 88.5116C231.752 83.1267 232.685 77.5253 232.685 71.9703H192.898C192.898 73.0499 192.725 73.4932 192.697 73.5633L229.569 88.5116ZM232.685 71.9703C232.685 66.4167 231.777 60.7243 229.497 55.2517L192.77 70.5546C192.701 70.3897 192.898 70.742 192.898 71.9703H232.685ZM229.739 55.863C227.786 50.7011 224.836 45.9288 220.777 41.87L192.643 70.0038C192.603 69.9633 192.564 69.9204 192.53 69.8779C192.496 69.8354 192.473 69.801 192.459 69.7791C192.445 69.7575 192.446 69.7553 192.457 69.7782C192.468 69.8014 192.493 69.8545 192.527 69.9434L229.739 55.863ZM221.307 42.421C217.409 38.2107 212.716 35.0333 207.464 32.9326L192.687 69.8741C192.688 69.8742 192.681 69.8715 192.668 69.8656C192.655 69.8598 192.638 69.851 192.615 69.8391C192.569 69.8147 192.511 69.7805 192.446 69.7359C192.306 69.6404 192.191 69.5367 192.113 69.4528L221.307 42.421ZM207.65 33.0082C202.537 30.9029 197.21 29.9617 191.893 29.9617V69.7489C192.203 69.7489 192.381 69.7757 192.452 69.7892C192.52 69.8021 192.528 69.8094 192.501 69.7986L207.65 33.0082ZM191.893 29.9617C186.57 29.9617 181.283 30.9042 176.212 32.9326L190.988 69.8741C191.077 69.8385 191.319 69.7489 191.893 69.7489V29.9617ZM176.026 33.0082C170.923 35.1091 166.424 38.2041 162.636 42.1379L191.295 69.736C191.32 69.71 191.331 69.7014 191.327 69.7051C191.322 69.709 191.308 69.7204 191.285 69.7358C191.263 69.7513 191.239 69.7661 191.215 69.7786C191.192 69.7911 191.177 69.7974 191.175 69.7986L176.026 33.0082ZM162.626 42.1485C158.85 46.0755 156.062 50.6061 154.106 55.429L190.979 70.3773C191.113 70.047 191.22 69.8611 191.272 69.7791C191.322 69.7005 191.336 69.6941 191.306 69.7254L162.626 42.1485ZM154.002 55.6928C151.923 61.0386 151.101 66.5731 151.101 71.9703H190.888C190.888 70.5856 191.098 70.0753 191.083 70.1135L154.002 55.6928ZM151.101 71.9703C151.101 77.3654 151.944 82.8134 153.936 88.0777L191.149 73.9973C191.077 73.8065 190.888 73.2097 190.888 71.9703H151.101ZM154.106 88.5116C156.039 93.2785 158.757 97.73 162.368 101.63L191.563 74.5984C191.488 74.5178 191.258 74.2515 190.979 73.5633L154.106 88.5116ZM162.899 102.181C166.672 105.955 171.091 108.9 176.026 110.932L191.175 74.1421C191.138 74.1272 191.118 74.1167 191.109 74.1119C191.1 74.1072 191.097 74.1051 191.097 74.105C191.097 74.1049 191.093 74.1028 191.086 74.0965C191.078 74.09 191.06 74.0749 191.032 74.0473L162.899 102.181ZM176.212 111.008C181.283 113.036 186.57 113.979 191.893 113.979V74.1917C191.319 74.1917 191.077 74.1021 190.988 74.0665L176.212 111.008ZM246.374 110.672H226.48V130.565H246.374V110.672ZM246.374 33.2691V13.3754H226.48V33.2691H246.374ZM264.398 33.2691L279.718 20.5788L273.751 13.3754H264.398V33.2691ZM307.079 84.797V104.691H349.39L322.4 72.1068L307.079 84.797ZM298.565 84.797H278.672V104.691H298.565V84.797ZM298.565 33.2691V13.3754H278.672V33.2691H298.565ZM320.017 33.2691H339.91V13.3754H320.017V33.2691ZM320.017 110.672V130.565H339.91V110.672H320.017ZM301.993 110.672L286.673 123.362L292.639 130.565H301.993V110.672ZM259.311 59.1436V39.25H217.001L243.991 71.8339L259.311 59.1436ZM267.825 59.1436H287.719V39.25H267.825V59.1436ZM267.825 110.672V130.565H287.719V110.672H267.825ZM266.267 110.672V33.2691H226.48V110.672H266.267ZM246.374 53.1627H264.398V13.3754H246.374V53.1627ZM249.077 45.9593L291.759 97.4873L322.4 72.1068L279.718 20.5788L249.077 45.9593ZM307.079 64.9034H298.565V104.691H307.079V64.9034ZM318.459 84.797V33.2691H278.672V84.797H318.459ZM298.565 53.1627H320.017V13.3754H298.565V53.1627ZM300.123 33.2691V110.672H339.91V33.2691H300.123ZM320.017 90.7779H301.993V130.565H320.017V90.7779ZM317.313 97.9813L274.631 46.4533L243.991 71.8339L286.673 123.362L317.313 97.9813ZM259.311 79.0372H267.825V39.25H259.311V79.0372ZM247.932 59.1436V110.672H287.719V59.1436H247.932ZM267.825 90.7779H246.374V130.565H267.825V90.7779ZM344.417 102.821L358.319 88.5912L344.417 102.821ZM334.797 33.2691V13.3754H314.903V33.2691H334.797ZM356.691 33.2691H376.584V13.3754H356.691V33.2691ZM360.561 89.7729L345.755 103.06L345.848 103.164L345.943 103.266L360.561 89.7729ZM382.123 89.7729L367.317 76.4857L382.123 89.7729ZM385.993 33.2691V13.3754H366.099V33.2691H385.993ZM407.555 33.2691H427.449V13.3754H407.555V33.2691ZM397.935 102.821L384.033 88.5912L397.935 102.821ZM371.176 92.326C363.455 92.326 360.071 90.3027 358.319 88.5912L330.514 117.05C341.589 127.871 356.044 132.113 371.176 132.113V92.326ZM358.319 88.5912C356.742 87.0506 354.69 83.9064 354.69 76.1722H314.903C314.903 91.4376 319.264 106.059 330.514 117.05L358.319 88.5912ZM354.69 76.1722V33.2691H314.903V76.1722H354.69ZM334.797 53.1627H356.691V13.3754H334.797V53.1627ZM336.797 33.2691V75.5087H376.584V33.2691H336.797ZM336.797 75.5087C336.797 83.8148 338.242 94.6884 345.755 103.06L375.366 76.4857C376.643 77.9086 376.907 79.0218 376.858 78.8415C376.838 78.7691 376.765 78.4716 376.7 77.8931C376.634 77.3177 376.584 76.5328 376.584 75.5087H336.797ZM345.943 103.266C353.003 110.915 362.295 113.979 371.397 113.979V74.1917C371.196 74.1917 371.709 74.1625 372.616 74.5235C373.591 74.9117 374.502 75.5461 375.179 76.2794L345.943 103.266ZM371.397 113.979C380.485 113.979 389.88 110.914 396.928 103.06L367.317 76.4857C368.055 75.6632 369.041 74.9695 370.085 74.5496C371.052 74.1609 371.603 74.1917 371.397 74.1917V113.979ZM396.928 103.06C404.441 94.6884 405.887 83.8148 405.887 75.5087H366.099C366.099 76.5328 366.049 77.3177 365.984 77.8931C365.918 78.4716 365.845 78.7691 365.826 78.8415C365.777 79.0218 366.04 77.9086 367.317 76.4857L396.928 103.06ZM405.887 75.5087V33.2691H366.099V75.5087H405.887ZM385.993 53.1627H407.555V13.3754H385.993V53.1627ZM387.661 33.2691V76.1722H427.449V33.2691H387.661ZM387.661 76.1722C387.661 83.9064 385.609 87.0506 384.033 88.5912L411.837 117.05C423.087 106.059 427.449 91.4376 427.449 76.1722H387.661ZM384.033 88.5912C382.281 90.3027 378.897 92.326 371.176 92.326V132.113C386.307 132.113 400.762 127.871 411.837 117.05L384.033 88.5912ZM431.233 109.898L425.896 129.062L426.039 129.102L426.182 129.139L431.233 109.898ZM416.969 103.705L398.795 95.6142L392.031 110.805L405.782 120.156L416.969 103.705ZM424.156 87.5614L434.859 70.7926L415.381 58.3594L405.982 79.4703L424.156 87.5614ZM436.098 93.0901L429.9 111.994L430.084 112.054L430.269 112.111L436.098 93.0901ZM456.997 94.417L462.361 113.574L462.712 113.475L463.06 113.364L456.997 94.417ZM460.977 92.2055L446.36 78.7121L446.336 78.7375L446.313 78.7629L460.977 92.2055ZM459.872 84.6864L449.191 101.47L449.191 101.47L459.872 84.6864ZM453.569 82.1432L458.523 62.8764L453.569 82.1432ZM444.944 80.1529L440.776 99.6049L440.822 99.6148L440.869 99.6246L444.944 80.1529ZM435.545 77.6096L429.254 96.4824L429.32 96.5044L429.386 96.5259L435.545 77.6096ZM427.031 73.6289L416.106 90.2542L416.274 90.3646L416.444 90.4716L427.031 73.6289ZM420.728 67.105L403.629 77.2722L403.69 77.3757L403.753 77.4785L420.728 67.105ZM422.055 44.216L405.652 32.9593L405.577 33.0696L405.503 33.181L422.055 44.216ZM433.555 35.1488L425.402 17.0025L433.555 35.1488ZM467.501 33.4902L462.814 52.8238L462.984 52.865L463.155 52.9033L467.501 33.4902ZM480.66 38.4661L499.034 46.0908L505.727 29.9612L490.601 21.2345L480.66 38.4661ZM473.915 54.7206L464.462 72.2251L483.846 82.6923L492.289 62.3454L473.915 54.7206ZM462.968 50.2976L457.503 69.4258L457.684 69.4776L457.866 69.526L462.968 50.2976ZM445.165 49.7447L451.228 68.6919L451.568 68.5832L451.904 68.4624L445.165 49.7447ZM441.185 52.1774L425.542 39.8867L425.542 39.8867L441.185 52.1774ZM442.29 59.8071L431.255 76.3596L431.705 76.6592L432.17 76.934L442.29 59.8071ZM448.593 62.2397L443.639 81.5065L443.957 81.5884L444.277 81.6596L448.593 62.2397ZM457.218 64.1195L453.05 83.5715L453.096 83.5815L453.142 83.5912L457.218 64.1195ZM466.617 66.6627L460.326 85.5355L460.592 85.624L460.86 85.7051L466.617 66.6627ZM475.242 70.6434L464.316 87.2686L464.485 87.3791L464.655 87.4861L475.242 70.6434ZM481.434 77.1673L464.133 86.987L464.291 87.2666L464.459 87.5409L481.434 77.1673ZM479.996 99.7246L463.493 88.6165L463.468 88.653L463.444 88.6896L479.996 99.7246ZM468.607 108.792L460.454 90.6454L460.405 90.6678L460.355 90.6904L468.607 108.792ZM449.588 92.326C444.885 92.326 440.468 91.7541 436.284 90.6558L426.182 129.139C433.792 131.137 441.612 132.113 449.588 132.113V92.326ZM436.57 90.7332C432.139 89.4993 429.541 88.1976 428.155 87.2548L405.782 120.156C411.767 124.226 418.679 127.052 425.896 129.062L436.57 90.7332ZM435.142 111.796L442.33 95.6525L405.982 79.4703L398.795 95.6142L435.142 111.796ZM413.452 104.33C418.517 107.563 424.052 110.076 429.9 111.994L442.296 74.1866C439.151 73.1555 436.725 71.9831 434.859 70.7926L413.452 104.33ZM430.269 112.111C436.609 114.054 443.106 115.085 449.699 115.085V75.2974C447.299 75.2974 444.728 74.9279 441.927 74.0696L430.269 112.111ZM449.699 115.085C453.616 115.085 458.066 114.776 462.361 113.574L451.633 75.2602C452.027 75.1498 452.092 75.1725 451.692 75.2149C451.312 75.2552 450.665 75.2974 449.699 75.2974V115.085ZM463.06 113.364C466.386 112.3 471.474 110.195 475.642 105.648L446.313 78.7629C447.677 77.2751 448.979 76.4394 449.713 76.0317C450.456 75.6186 450.929 75.4712 450.934 75.4699L463.06 113.364ZM475.595 105.699C479.72 101.231 482.198 95.3624 482.198 88.8883H442.411C442.411 87.1182 442.734 85.1876 443.502 83.2692C444.264 81.3641 445.313 79.8462 446.36 78.7121L475.595 105.699ZM482.198 88.8883C482.198 79.643 477.319 72.2092 470.552 67.9029L449.191 101.47C447.812 100.592 445.949 99.0159 444.48 96.4784C442.971 93.8717 442.411 91.1682 442.411 88.8883H482.198ZM470.552 67.903C466.629 65.4067 462.409 63.8755 458.523 62.8764L448.615 101.41C449.201 101.561 449.522 101.679 449.636 101.725C449.752 101.772 449.568 101.71 449.191 101.47L470.552 67.903ZM458.523 62.8764C455.598 62.1241 452.424 61.3937 449.02 60.6812L440.869 99.6246C443.804 100.239 446.38 100.835 448.615 101.41L458.523 62.8764ZM449.112 60.7008C446.723 60.1888 444.254 59.5236 441.704 58.6934L429.386 96.5259C433.176 97.7597 436.973 98.7901 440.776 99.6049L449.112 60.7008ZM441.836 58.7369C440.142 58.1721 438.761 57.5046 437.618 56.7863L416.444 90.4716C420.461 92.9968 424.756 94.9831 429.254 96.4824L441.836 58.7369ZM437.956 57.0037C437.868 56.9455 437.836 56.913 437.827 56.904C437.818 56.8947 437.776 56.8501 437.703 56.7315L403.753 77.4785C406.894 82.6179 411.054 86.9343 416.106 90.2542L437.956 57.0037ZM437.827 56.9379C437.987 57.2069 438.095 57.4401 438.165 57.6162C438.234 57.7906 438.26 57.8948 438.263 57.9089C438.267 57.9262 438.189 57.5999 438.189 56.8215H398.402C398.402 63.4756 399.706 70.6748 403.629 77.2722L437.827 56.9379ZM438.189 56.8215C438.189 55.9889 438.343 55.6475 438.608 55.251L405.503 33.181C400.754 40.3036 398.402 48.3658 398.402 56.8215H438.189ZM438.458 55.4726C438.556 55.33 439.209 54.4178 441.708 53.2952L425.402 17.0025C417.728 20.4503 410.715 25.5829 405.652 32.9593L438.458 55.4726ZM441.708 53.2952C443.481 52.4985 446.833 51.6146 452.574 51.6146V11.8274C443.128 11.8274 433.802 13.2287 425.402 17.0025L441.708 53.2952ZM452.574 51.6146C456.107 51.6146 459.508 52.0223 462.814 52.8238L472.188 14.1566C465.764 12.5991 459.214 11.8274 452.574 11.8274V51.6146ZM463.155 52.9033C466.406 53.6312 468.859 54.6249 470.719 55.6977L490.601 21.2345C484.794 17.8843 478.474 15.5607 471.848 14.0771L463.155 52.9033ZM462.285 30.8413L455.54 47.0958L492.289 62.3454L499.034 46.0908L462.285 30.8413ZM483.367 37.2161C478.467 34.57 473.364 32.4739 468.069 31.0692L457.866 69.526C459.796 70.038 461.991 70.8905 464.462 72.2251L483.367 37.2161ZM468.433 31.1694C463.233 29.6836 457.89 28.8559 452.463 28.8559V68.6432C453.819 68.6432 455.479 68.8475 457.503 69.4258L468.433 31.1694ZM452.463 28.8559C448.253 28.8559 443.274 29.2821 438.427 31.0271L451.904 68.4624C451.554 68.5882 451.3 68.6543 451.168 68.685C451.035 68.716 450.993 68.7186 451.06 68.7096C451.125 68.7006 451.273 68.6834 451.514 68.6687C451.755 68.6541 452.069 68.6432 452.463 68.6432V28.8559ZM439.102 30.7976C435.172 32.0553 429.719 34.5708 425.542 39.8867L456.827 64.4681C454.272 67.7199 451.473 68.6136 451.228 68.6919L439.102 30.7976ZM425.542 39.8867C421.944 44.4652 420.075 49.9846 420.075 55.7158H459.862C459.862 57.1117 459.643 58.6822 459.085 60.303C458.527 61.9265 457.724 63.3262 456.827 64.4681L425.542 39.8867ZM420.075 55.7158C420.075 64.7925 424.809 72.0619 431.255 76.3596L453.325 43.2546C454.658 44.1431 456.442 45.7096 457.85 48.1906C459.299 50.7435 459.862 53.4093 459.862 55.7158H420.075ZM432.17 76.934C435.918 79.1487 439.93 80.553 443.639 81.5065L453.547 42.9729C452.876 42.8001 452.458 42.6567 452.245 42.5747C452.027 42.4905 452.116 42.5056 452.411 42.6801L432.17 76.934ZM444.277 81.6596C446.988 82.2618 449.912 82.8992 453.05 83.5715L461.386 44.6674C458.331 44.0129 455.506 43.397 452.909 42.8198L444.277 81.6596ZM453.142 83.5912C455.557 84.0966 457.95 84.7437 460.326 85.5355L472.908 47.79C469.091 46.5177 465.218 45.4693 461.293 44.6478L453.142 83.5912ZM460.86 85.7051C462.332 86.1503 463.446 86.6964 464.316 87.2686L486.167 54.0182C481.877 51.1994 477.241 49.0918 472.374 47.6203L460.86 85.7051ZM464.655 87.4861C464.561 87.4271 464.427 87.324 464.296 87.186C464.167 87.0501 464.119 86.9623 464.133 86.987L498.735 67.3477C495.613 61.8468 491.276 57.2248 485.828 53.8007L464.655 87.4861ZM464.459 87.5409C464.08 86.9207 463.95 86.4637 463.922 86.348C463.899 86.2555 463.973 86.5109 463.973 87.2297H503.76C503.76 80.6032 502.437 73.385 498.409 66.7938L464.459 87.5409ZM463.973 87.2297C463.973 87.6546 463.928 87.9702 463.493 88.6165L496.5 110.833C501.225 103.813 503.76 95.7982 503.76 87.2297H463.973ZM463.444 88.6896C463.416 88.7308 463.283 88.9259 462.879 89.2473C462.456 89.5839 461.703 90.0846 460.454 90.6454L476.76 126.938C484.46 123.478 491.53 118.289 496.549 110.76L463.444 88.6896ZM460.355 90.6904C458.739 91.4271 455.451 92.326 449.588 92.326V132.113C459.058 132.113 468.45 130.727 476.859 126.893L460.355 90.6904Z" fill="#FFC940" fill-opacity="0.2" mask="url(#path-1-outside-1_41_8)"/>
</g>
<mask id="path-3-outside-2_41_8" maskUnits="userSpaceOnUse" x="58.6113" y="18.6716" width="441" height="106" fill="black">
<rect fill="white" x="58.6113" y="18.6716" width="441" height="106"/>
<path d="M71.3516 110.672V33.2691H110.937C121.11 33.2691 128.703 35.1488 133.716 38.9084C138.729 42.5942 141.235 47.4595 141.235 53.5043C141.235 57.485 140.166 60.9865 138.028 64.0089C135.964 66.9576 133.016 69.3165 129.182 71.0857C125.423 72.7812 120.926 73.6289 115.692 73.6289L117.904 68.3213C123.359 68.3213 128.113 69.1691 132.168 70.8646C136.222 72.4863 139.355 74.8821 141.567 78.0519C143.852 81.148 144.995 84.9444 144.995 89.4412C144.995 96.1494 142.267 101.383 136.812 105.143C131.431 108.829 123.543 110.672 113.149 110.672H71.3516ZM93.0243 94.8593H111.38C115.139 94.8593 117.977 94.2327 119.894 92.9796C121.884 91.6527 122.88 89.6623 122.88 87.0085C122.88 84.3547 121.884 82.4012 119.894 81.148C117.977 79.8211 115.139 79.1577 111.38 79.1577H91.4762V64.0089H108.062C111.748 64.0089 114.513 63.3823 116.356 62.1291C118.199 60.8759 119.12 58.9962 119.12 56.4898C119.12 53.9834 118.199 52.1405 116.356 50.9611C114.513 49.7079 111.748 49.0813 108.062 49.0813H93.0243V94.8593ZM195.368 112.22C189.175 112.22 183.462 111.224 178.228 109.234C172.994 107.244 168.424 104.443 164.517 100.83C160.684 97.1446 157.698 92.869 155.561 88.0037C153.423 83.1384 152.354 77.7939 152.354 71.9703C152.354 66.1467 153.423 60.8022 155.561 55.9369C157.698 51.0716 160.684 46.8329 164.517 43.2208C168.424 39.535 172.994 36.6969 178.228 34.7065C183.462 32.7162 189.175 31.721 195.368 31.721C201.633 31.721 207.346 32.7162 212.507 34.7065C217.741 36.6969 222.274 39.535 226.107 43.2208C229.941 46.8329 232.926 51.0716 235.064 55.9369C237.275 60.8022 238.381 66.1467 238.381 71.9703C238.381 77.7939 237.275 83.1752 235.064 88.1143C232.926 92.9796 229.941 97.2183 226.107 100.83C222.274 104.443 217.741 107.244 212.507 109.234C207.346 111.224 201.633 112.22 195.368 112.22ZM195.368 94.0853C198.316 94.0853 201.044 93.5693 203.55 92.5373C206.13 91.5052 208.342 90.0309 210.185 88.1143C212.101 86.1239 213.576 83.765 214.608 81.0375C215.713 78.3099 216.266 75.2876 216.266 71.9703C216.266 68.5793 215.713 65.557 214.608 62.9032C213.576 60.1756 212.101 57.8536 210.185 55.9369C208.342 53.9466 206.13 52.4354 203.55 51.4034C201.044 50.3713 198.316 49.8553 195.368 49.8553C192.419 49.8553 189.654 50.3713 187.074 51.4034C184.568 52.4354 182.357 53.9466 180.44 55.9369C178.597 57.8536 177.123 60.1756 176.017 62.9032C174.985 65.557 174.469 68.5793 174.469 71.9703C174.469 75.2876 174.985 78.3099 176.017 81.0375C177.123 83.765 178.597 86.1239 180.44 88.1143C182.357 90.0309 184.568 91.5052 187.074 92.5373C189.654 93.5693 192.419 94.0853 195.368 94.0853ZM249.848 110.672V33.2691H267.872L310.554 84.797H302.04V33.2691H323.491V110.672H305.467L262.785 59.1436H271.3V110.672H249.848ZM374.65 112.22C363.224 112.22 354.304 109.087 347.891 102.821C341.478 96.5548 338.271 87.672 338.271 76.1722V33.2691H360.165V75.5087C360.165 82.1432 361.455 86.8979 364.035 89.7729C366.689 92.6478 370.301 94.0853 374.871 94.0853C379.442 94.0853 383.017 92.6478 385.597 89.7729C388.177 86.8979 389.467 82.1432 389.467 75.5087V33.2691H411.029V76.1722C411.029 87.672 407.823 96.5548 401.409 102.821C394.996 109.087 386.076 112.22 374.65 112.22ZM453.063 112.22C446.723 112.22 440.604 111.446 434.707 109.898C428.884 108.276 424.129 106.212 420.443 103.705L427.63 87.5614C431.095 89.7729 435.076 91.6158 439.572 93.0901C444.143 94.4908 448.676 95.1911 453.173 95.1911C456.196 95.1911 458.628 94.9331 460.471 94.417C462.314 93.8273 463.641 93.0901 464.452 92.2055C465.336 91.2472 465.779 90.1415 465.779 88.8883C465.779 87.1191 464.968 85.7185 463.346 84.6864C461.724 83.6544 459.623 82.8067 457.043 82.1432C454.463 81.4798 451.588 80.8163 448.418 80.1529C445.322 79.4894 442.189 78.6417 439.02 77.6096C435.923 76.5776 433.085 75.2507 430.505 73.6289C427.925 71.9335 425.824 69.7588 424.203 67.105C422.581 64.3775 421.77 60.9497 421.77 56.8215C421.77 52.1774 423.023 47.9755 425.529 44.216C428.109 40.4564 431.943 37.434 437.029 35.1488C442.116 32.8636 448.455 31.721 456.048 31.721C461.135 31.721 466.11 32.3107 470.976 33.4902C475.915 34.596 480.301 36.2546 484.134 38.4661L477.389 54.7206C473.703 52.7303 470.054 51.2559 466.442 50.2976C462.83 49.2656 459.329 48.7496 455.938 48.7496C452.915 48.7496 450.483 49.0813 448.64 49.7447C446.797 50.3345 445.47 51.1453 444.659 52.1774C443.848 53.2094 443.443 54.3889 443.443 55.7158C443.443 57.4113 444.217 58.775 445.765 59.8071C447.386 60.7654 449.487 61.5763 452.067 62.2397C454.721 62.8294 457.596 63.456 460.692 64.1195C463.862 64.7829 466.995 65.6307 470.091 66.6627C473.261 67.621 476.136 68.9479 478.716 70.6434C481.296 72.2652 483.36 74.4398 484.908 77.1673C486.53 79.8211 487.341 83.1752 487.341 87.2297C487.341 91.7264 486.051 95.8914 483.471 99.7246C480.964 103.484 477.168 106.507 472.081 108.792C467.069 111.077 460.729 112.22 453.063 112.22Z"/>
</mask>
<path d="M71.3516 110.672V33.2691H110.937C121.11 33.2691 128.703 35.1488 133.716 38.9084C138.729 42.5942 141.235 47.4595 141.235 53.5043C141.235 57.485 140.166 60.9865 138.028 64.0089C135.964 66.9576 133.016 69.3165 129.182 71.0857C125.423 72.7812 120.926 73.6289 115.692 73.6289L117.904 68.3213C123.359 68.3213 128.113 69.1691 132.168 70.8646C136.222 72.4863 139.355 74.8821 141.567 78.0519C143.852 81.148 144.995 84.9444 144.995 89.4412C144.995 96.1494 142.267 101.383 136.812 105.143C131.431 108.829 123.543 110.672 113.149 110.672H71.3516ZM93.0243 94.8593H111.38C115.139 94.8593 117.977 94.2327 119.894 92.9796C121.884 91.6527 122.88 89.6623 122.88 87.0085C122.88 84.3547 121.884 82.4012 119.894 81.148C117.977 79.8211 115.139 79.1577 111.38 79.1577H91.4762V64.0089H108.062C111.748 64.0089 114.513 63.3823 116.356 62.1291C118.199 60.8759 119.12 58.9962 119.12 56.4898C119.12 53.9834 118.199 52.1405 116.356 50.9611C114.513 49.7079 111.748 49.0813 108.062 49.0813H93.0243V94.8593ZM195.368 112.22C189.175 112.22 183.462 111.224 178.228 109.234C172.994 107.244 168.424 104.443 164.517 100.83C160.684 97.1446 157.698 92.869 155.561 88.0037C153.423 83.1384 152.354 77.7939 152.354 71.9703C152.354 66.1467 153.423 60.8022 155.561 55.9369C157.698 51.0716 160.684 46.8329 164.517 43.2208C168.424 39.535 172.994 36.6969 178.228 34.7065C183.462 32.7162 189.175 31.721 195.368 31.721C201.633 31.721 207.346 32.7162 212.507 34.7065C217.741 36.6969 222.274 39.535 226.107 43.2208C229.941 46.8329 232.926 51.0716 235.064 55.9369C237.275 60.8022 238.381 66.1467 238.381 71.9703C238.381 77.7939 237.275 83.1752 235.064 88.1143C232.926 92.9796 229.941 97.2183 226.107 100.83C222.274 104.443 217.741 107.244 212.507 109.234C207.346 111.224 201.633 112.22 195.368 112.22ZM195.368 94.0853C198.316 94.0853 201.044 93.5693 203.55 92.5373C206.13 91.5052 208.342 90.0309 210.185 88.1143C212.101 86.1239 213.576 83.765 214.608 81.0375C215.713 78.3099 216.266 75.2876 216.266 71.9703C216.266 68.5793 215.713 65.557 214.608 62.9032C213.576 60.1756 212.101 57.8536 210.185 55.9369C208.342 53.9466 206.13 52.4354 203.55 51.4034C201.044 50.3713 198.316 49.8553 195.368 49.8553C192.419 49.8553 189.654 50.3713 187.074 51.4034C184.568 52.4354 182.357 53.9466 180.44 55.9369C178.597 57.8536 177.123 60.1756 176.017 62.9032C174.985 65.557 174.469 68.5793 174.469 71.9703C174.469 75.2876 174.985 78.3099 176.017 81.0375C177.123 83.765 178.597 86.1239 180.44 88.1143C182.357 90.0309 184.568 91.5052 187.074 92.5373C189.654 93.5693 192.419 94.0853 195.368 94.0853ZM249.848 110.672V33.2691H267.872L310.554 84.797H302.04V33.2691H323.491V110.672H305.467L262.785 59.1436H271.3V110.672H249.848ZM374.65 112.22C363.224 112.22 354.304 109.087 347.891 102.821C341.478 96.5548 338.271 87.672 338.271 76.1722V33.2691H360.165V75.5087C360.165 82.1432 361.455 86.8979 364.035 89.7729C366.689 92.6478 370.301 94.0853 374.871 94.0853C379.442 94.0853 383.017 92.6478 385.597 89.7729C388.177 86.8979 389.467 82.1432 389.467 75.5087V33.2691H411.029V76.1722C411.029 87.672 407.823 96.5548 401.409 102.821C394.996 109.087 386.076 112.22 374.65 112.22ZM453.063 112.22C446.723 112.22 440.604 111.446 434.707 109.898C428.884 108.276 424.129 106.212 420.443 103.705L427.63 87.5614C431.095 89.7729 435.076 91.6158 439.572 93.0901C444.143 94.4908 448.676 95.1911 453.173 95.1911C456.196 95.1911 458.628 94.9331 460.471 94.417C462.314 93.8273 463.641 93.0901 464.452 92.2055C465.336 91.2472 465.779 90.1415 465.779 88.8883C465.779 87.1191 464.968 85.7185 463.346 84.6864C461.724 83.6544 459.623 82.8067 457.043 82.1432C454.463 81.4798 451.588 80.8163 448.418 80.1529C445.322 79.4894 442.189 78.6417 439.02 77.6096C435.923 76.5776 433.085 75.2507 430.505 73.6289C427.925 71.9335 425.824 69.7588 424.203 67.105C422.581 64.3775 421.77 60.9497 421.77 56.8215C421.77 52.1774 423.023 47.9755 425.529 44.216C428.109 40.4564 431.943 37.434 437.029 35.1488C442.116 32.8636 448.455 31.721 456.048 31.721C461.135 31.721 466.11 32.3107 470.976 33.4902C475.915 34.596 480.301 36.2546 484.134 38.4661L477.389 54.7206C473.703 52.7303 470.054 51.2559 466.442 50.2976C462.83 49.2656 459.329 48.7496 455.938 48.7496C452.915 48.7496 450.483 49.0813 448.64 49.7447C446.797 50.3345 445.47 51.1453 444.659 52.1774C443.848 53.2094 443.443 54.3889 443.443 55.7158C443.443 57.4113 444.217 58.775 445.765 59.8071C447.386 60.7654 449.487 61.5763 452.067 62.2397C454.721 62.8294 457.596 63.456 460.692 64.1195C463.862 64.7829 466.995 65.6307 470.091 66.6627C473.261 67.621 476.136 68.9479 478.716 70.6434C481.296 72.2652 483.36 74.4398 484.908 77.1673C486.53 79.8211 487.341 83.1752 487.341 87.2297C487.341 91.7264 486.051 95.8914 483.471 99.7246C480.964 103.484 477.168 106.507 472.081 108.792C467.069 111.077 460.729 112.22 453.063 112.22Z" fill="black"/>
<path d="M71.3516 110.672H59.1093V122.914H71.3516V110.672ZM71.3516 33.2691V21.0268H59.1093V33.2691H71.3516ZM133.716 38.9084L126.371 48.7022L126.417 48.737L126.464 48.7713L133.716 38.9084ZM138.028 64.0089L128.034 56.9395L128.016 56.9639L127.999 56.9884L138.028 64.0089ZM129.182 71.0857L134.215 82.2456L134.264 82.2236L134.313 82.2012L129.182 71.0857ZM115.692 73.6289L104.392 68.9204L97.3288 85.8712H115.692V73.6289ZM117.904 68.3213V56.0791H109.742L106.603 63.6128L117.904 68.3213ZM132.168 70.8646L127.445 82.159L127.533 82.1958L127.621 82.2312L132.168 70.8646ZM141.567 78.0519L131.527 85.0567L131.62 85.1906L131.717 85.322L141.567 78.0519ZM136.812 105.143L143.73 115.243L143.745 115.233L143.759 115.223L136.812 105.143ZM93.0243 94.8593H80.782V107.102H93.0243V94.8593ZM119.894 92.9796L126.594 103.226L126.639 103.196L126.685 103.166L119.894 92.9796ZM119.894 81.148L112.926 91.2135L113.145 91.3655L113.371 91.5078L119.894 81.148ZM91.4762 79.1577H79.234V91.3999H91.4762V79.1577ZM91.4762 64.0089V51.7667H79.234V64.0089H91.4762ZM116.356 62.1291L123.24 72.2526H123.24L116.356 62.1291ZM116.356 50.9611L109.472 61.0845L109.613 61.1804L109.756 61.2723L116.356 50.9611ZM93.0243 49.0813V36.839H80.782V49.0813H93.0243ZM83.5938 110.672V33.2691H59.1093V110.672H83.5938ZM71.3516 45.5113H110.937V21.0268H71.3516V45.5113ZM110.937 45.5113C119.982 45.5113 124.435 47.2505 126.371 48.7022L141.061 29.1146C132.971 23.0472 122.239 21.0268 110.937 21.0268V45.5113ZM126.464 48.7713C128.448 50.2301 128.993 51.4864 128.993 53.5043H153.477C153.477 43.4326 149.01 34.9584 140.968 29.0454L126.464 48.7713ZM128.993 53.5043C128.993 55.1539 128.597 56.1427 128.034 56.9395L148.023 71.0784C151.735 65.8303 153.477 59.8161 153.477 53.5043H128.993ZM127.999 56.9884C127.377 57.8769 126.262 58.9503 124.052 59.9703L134.313 82.2012C139.769 79.6827 144.551 76.0383 148.058 71.0294L127.999 56.9884ZM124.149 59.9259C122.337 60.7433 119.642 61.3867 115.692 61.3867V85.8712C122.211 85.8712 128.509 84.8191 134.215 82.2456L124.149 59.9259ZM126.993 78.3375L129.204 73.0299L106.603 63.6128L104.392 68.9204L126.993 78.3375ZM117.904 80.5636C122.116 80.5636 125.2 81.2204 127.445 82.159L136.891 59.5701C131.027 57.1177 124.601 56.0791 117.904 56.0791V80.5636ZM127.621 82.2312C129.755 83.0848 130.854 84.0924 131.527 85.0567L151.607 71.0471C147.857 65.6718 142.689 61.8879 136.714 59.4979L127.621 82.2312ZM131.717 85.322C132.197 85.973 132.752 87.1048 132.752 89.4412H157.237C157.237 82.7841 155.506 76.3231 151.417 70.7819L131.717 85.322ZM132.752 89.4412C132.752 92.1836 131.955 93.6221 129.865 95.0627L143.759 115.223C152.579 109.144 157.237 100.115 157.237 89.4412H132.752ZM129.894 95.0426C127.433 96.7286 122.42 98.4293 113.149 98.4293V122.914C124.666 122.914 135.429 120.929 143.73 115.243L129.894 95.0426ZM113.149 98.4293H71.3516V122.914H113.149V98.4293ZM93.0243 107.102H111.38V82.6171H93.0243V107.102ZM111.38 107.102C116.14 107.102 121.781 106.373 126.594 103.226L113.194 82.7332C113.759 82.3643 114.035 82.3587 113.689 82.435C113.346 82.5107 112.616 82.6171 111.38 82.6171V107.102ZM126.685 103.166C132.497 99.2908 135.122 93.2286 135.122 87.0085H110.637C110.637 86.7978 110.682 86.0188 111.183 85.0167C111.71 83.964 112.463 83.2202 113.103 82.7934L126.685 103.166ZM135.122 87.0085C135.122 80.7871 132.476 74.6033 126.417 70.7883L113.371 91.5078C112.639 91.047 111.802 90.2438 111.225 89.1101C110.68 88.0402 110.637 87.2114 110.637 87.0085H135.122ZM126.862 71.0826C121.991 67.7103 116.234 66.9155 111.38 66.9155V91.3999C112.576 91.3999 113.255 91.5091 113.541 91.5761C113.823 91.6421 113.505 91.6147 112.926 91.2135L126.862 71.0826ZM111.38 66.9155H91.4762V91.3999H111.38V66.9155ZM103.718 79.1577V64.0089H79.234V79.1577H103.718ZM91.4762 76.2511H108.062V51.7667H91.4762V76.2511ZM108.062 76.2511C112.753 76.2511 118.43 75.5232 123.24 72.2526L109.472 52.0057C110.109 51.572 110.471 51.5368 110.194 51.5996C109.918 51.662 109.251 51.7667 108.062 51.7667V76.2511ZM123.24 72.2526C128.894 68.4073 131.362 62.4597 131.362 56.4898H106.878C106.878 56.2394 106.928 55.4274 107.436 54.3909C107.972 53.299 108.753 52.4942 109.472 52.0057L123.24 72.2526ZM131.362 56.4898C131.362 50.5225 128.875 44.4388 122.955 40.6498L109.756 61.2723C108.938 60.7485 108.068 59.8797 107.479 58.7027C106.925 57.5955 106.878 56.7318 106.878 56.4898H131.362ZM123.24 40.8376C118.43 37.567 112.753 36.839 108.062 36.839V61.3235C109.251 61.3235 109.918 61.4282 110.194 61.4906C110.471 61.5534 110.109 61.5182 109.472 61.0845L123.24 40.8376ZM108.062 36.839H93.0243V61.3235H108.062V36.839ZM80.782 49.0813V94.8593H105.267V49.0813H80.782ZM178.228 109.234L173.877 120.677L178.228 109.234ZM164.517 100.83L156.032 109.655L156.118 109.738L156.206 109.82L164.517 100.83ZM155.561 88.0037L144.353 92.9284V92.9284L155.561 88.0037ZM155.561 55.9369L144.353 51.0122L155.561 55.9369ZM164.517 43.2208L172.913 52.1306L172.918 52.1257L164.517 43.2208ZM178.228 34.7065L173.877 23.2638V23.2638L178.228 34.7065ZM212.507 34.7065L208.101 46.1286L208.128 46.139L208.155 46.1493L212.507 34.7065ZM226.107 43.2208L217.622 52.0454L217.667 52.0882L217.712 52.1306L226.107 43.2208ZM235.064 55.9369L223.856 60.8617L223.887 60.9324L223.919 61.0028L235.064 55.9369ZM235.064 88.1143L223.891 83.1113L223.873 83.1504L223.856 83.1895L235.064 88.1143ZM226.107 100.83L234.503 109.74V109.74L226.107 100.83ZM212.507 109.234L208.155 97.7913L208.128 97.8016L208.101 97.8121L212.507 109.234ZM203.55 92.5373L199.003 81.1706L198.946 81.1936L198.889 81.2171L203.55 92.5373ZM210.185 88.1143L201.366 79.6225L201.36 79.6291L210.185 88.1143ZM214.608 81.0375L203.262 76.438L203.208 76.5709L203.158 76.705L214.608 81.0375ZM214.608 62.9032L203.158 67.2356L203.229 67.4249L203.307 67.6117L214.608 62.9032ZM210.185 55.9369L201.202 64.2544L201.362 64.4271L201.528 64.5935L210.185 55.9369ZM203.55 51.4034L198.889 62.7235L198.946 62.747L199.003 62.77L203.55 51.4034ZM187.074 51.4034L182.528 40.0367L182.47 40.0597L182.413 40.0832L187.074 51.4034ZM180.44 55.9369L171.622 47.4452L171.615 47.4517L180.44 55.9369ZM176.017 62.9032L164.672 58.3037L164.639 58.3846L164.607 58.466L176.017 62.9032ZM176.017 81.0375L164.567 85.3699L164.618 85.504L164.672 85.6369L176.017 81.0375ZM180.44 88.1143L171.457 96.4317L171.617 96.6044L171.783 96.7708L180.44 88.1143ZM187.074 92.5373L182.413 103.857L182.47 103.881L182.528 103.904L187.074 92.5373ZM195.368 99.9774C190.505 99.9774 186.284 99.2 182.58 97.7913L173.877 120.677C180.64 123.249 187.845 124.462 195.368 124.462V99.9774ZM182.58 97.7913C178.733 96.3283 175.525 94.3346 172.828 91.8413L156.206 109.82C161.324 114.55 167.256 118.159 173.877 120.677L182.58 97.7913ZM173.002 92.0058C170.322 89.4286 168.262 86.4778 166.769 83.079L144.353 92.9284C147.135 99.2602 151.046 104.86 156.032 109.655L173.002 92.0058ZM166.769 83.079C165.376 79.9092 164.596 76.2623 164.596 71.9703H140.112C140.112 79.3256 141.47 86.3676 144.353 92.9284L166.769 83.079ZM164.596 71.9703C164.596 67.6783 165.376 64.0314 166.769 60.8617L144.353 51.0122C141.47 57.573 140.112 64.6151 140.112 71.9703H164.596ZM166.769 60.8617C168.252 57.486 170.286 54.6061 172.913 52.1306L156.121 34.311C151.082 39.0598 147.145 44.6572 144.353 51.0122L166.769 60.8617ZM172.918 52.1257C175.605 49.5905 178.784 47.5927 182.58 46.1493L173.877 23.2638C167.205 25.8011 161.243 29.4795 156.116 34.3159L172.918 52.1257ZM182.58 46.1493C186.284 44.7406 190.505 43.9632 195.368 43.9632V19.4788C187.845 19.4788 180.64 20.6918 173.877 23.2638L182.58 46.1493ZM195.368 43.9632C200.326 43.9632 204.521 44.7475 208.101 46.1286L216.912 23.2845C210.172 20.6848 202.941 19.4788 195.368 19.4788V43.9632ZM208.155 46.1493C211.932 47.5856 215.039 49.5616 217.622 52.0454L234.593 34.3962C229.509 29.5084 223.549 25.8082 216.858 23.2638L208.155 46.1493ZM217.712 52.1306C220.339 54.6061 222.373 57.486 223.856 60.8617L246.272 51.0122C243.48 44.6572 239.543 39.0598 234.503 34.311L217.712 52.1306ZM223.919 61.0028C225.344 64.1389 226.139 67.7357 226.139 71.9703H250.623C250.623 64.5577 249.206 57.4656 246.209 50.8711L223.919 61.0028ZM226.139 71.9703C226.139 76.2028 225.345 79.8632 223.891 83.1113L246.237 93.1172C249.206 86.4873 250.623 79.385 250.623 71.9703H226.139ZM223.856 83.1895C222.373 86.5652 220.339 89.4451 217.712 91.9206L234.503 109.74C239.543 104.991 243.48 99.394 246.272 93.039L223.856 83.1895ZM217.712 91.9206C215.12 94.363 211.984 96.3353 208.155 97.7913L216.858 120.677C223.497 118.152 229.428 114.522 234.503 109.74L217.712 91.9206ZM208.101 97.8121C204.521 99.1931 200.326 99.9774 195.368 99.9774V124.462C202.941 124.462 210.172 123.256 216.912 120.656L208.101 97.8121ZM195.368 106.328C199.774 106.328 204.101 105.55 208.211 103.857L198.889 81.2171C197.986 81.5887 196.859 81.8431 195.368 81.8431V106.328ZM208.097 103.904C212.217 102.256 215.907 99.826 219.009 96.5995L201.36 79.6291C200.777 80.2357 200.044 80.7546 199.003 81.1706L208.097 103.904ZM219.003 96.606C222.132 93.3562 224.472 89.5603 226.058 85.3699L203.158 76.705C202.679 77.9696 202.07 78.8917 201.366 79.6225L219.003 96.606ZM225.953 85.6369C227.722 81.2741 228.508 76.6646 228.508 71.9703H204.024C204.024 73.9105 203.705 75.3458 203.262 76.438L225.953 85.6369ZM228.508 71.9703C228.508 67.2485 227.737 62.583 225.908 58.1946L203.307 67.6117C203.69 68.5309 204.024 69.9102 204.024 71.9703H228.508ZM226.058 58.5707C224.459 54.3452 222.076 50.5152 218.841 47.2804L201.528 64.5935C202.126 65.1919 202.692 66.0061 203.158 67.2356L226.058 58.5707ZM219.167 47.6194C216.06 44.263 212.321 41.7264 208.097 40.0367L199.003 62.77C199.939 63.1444 200.624 63.6302 201.202 64.2544L219.167 47.6194ZM208.211 40.0832C204.101 38.3907 199.774 37.6131 195.368 37.6131V62.0975C196.859 62.0975 197.986 62.3519 198.889 62.7235L208.211 40.0832ZM195.368 37.6131C190.958 37.6131 186.641 38.3915 182.528 40.0367L191.621 62.77C192.668 62.3511 193.88 62.0975 195.368 62.0975V37.6131ZM182.413 40.0832C178.309 41.773 174.69 44.2589 171.622 47.4452L189.258 64.4287C190.023 63.6342 190.827 63.0978 191.736 62.7235L182.413 40.0832ZM171.615 47.4517C168.583 50.6056 166.3 54.2867 164.672 58.3037L187.362 67.5026C187.945 66.0646 188.611 65.1016 189.264 64.4221L171.615 47.4517ZM164.607 58.466C162.931 62.7764 162.227 67.3447 162.227 71.9703H186.711C186.711 69.8139 187.039 68.3375 187.427 67.3403L164.607 58.466ZM162.227 71.9703C162.227 76.5663 162.944 81.0813 164.567 85.3699L187.467 76.705C187.026 75.5386 186.711 74.0089 186.711 71.9703H162.227ZM164.672 85.6369C166.286 89.6194 168.526 93.2662 171.457 96.4317L189.423 79.7968C188.668 78.9817 187.959 77.9105 187.362 76.438L164.672 85.6369ZM171.783 96.7708C174.843 99.8304 178.412 102.21 182.413 103.857L191.736 81.2171C190.724 80.8005 189.87 80.2314 189.096 79.4577L171.783 96.7708ZM182.528 103.904C186.641 105.549 190.958 106.328 195.368 106.328V81.8431C193.88 81.8431 192.668 81.5895 191.621 81.1706L182.528 103.904ZM249.848 110.672H237.606V122.914H249.848V110.672ZM249.848 33.2691V21.0268H237.606V33.2691H249.848ZM267.872 33.2691L277.3 25.4597L273.628 21.0268H267.872V33.2691ZM310.554 84.797V97.0392H336.591L319.982 76.9876L310.554 84.797ZM302.04 84.797H289.797V97.0392H302.04V84.797ZM302.04 33.2691V21.0268H289.797V33.2691H302.04ZM323.491 33.2691H335.733V21.0268H323.491V33.2691ZM323.491 110.672V122.914H335.733V110.672H323.491ZM305.467 110.672L296.039 118.481L299.711 122.914H305.467V110.672ZM262.785 59.1436V46.9014H236.748L253.358 66.953L262.785 59.1436ZM271.3 59.1436H283.542V46.9014H271.3V59.1436ZM271.3 110.672V122.914H283.542V110.672H271.3ZM262.09 110.672V33.2691H237.606V110.672H262.09ZM249.848 45.5113H267.872V21.0268H249.848V45.5113ZM258.444 41.0784L301.126 92.6064L319.982 76.9876L277.3 25.4597L258.444 41.0784ZM310.554 72.5548H302.04V97.0392H310.554V72.5548ZM314.282 84.797V33.2691H289.797V84.797H314.282ZM302.04 45.5113H323.491V21.0268H302.04V45.5113ZM311.249 33.2691V110.672H335.733V33.2691H311.249ZM323.491 98.4293H305.467V122.914H323.491V98.4293ZM314.895 102.862L272.213 51.3342L253.358 66.953L296.039 118.481L314.895 102.862ZM262.785 71.3858H271.3V46.9014H262.785V71.3858ZM259.057 59.1436V110.672H283.542V59.1436H259.057ZM271.3 98.4293H249.848V122.914H271.3V98.4293ZM347.891 102.821L356.446 94.0641L347.891 102.821ZM338.271 33.2691V21.0268H326.029V33.2691H338.271ZM360.165 33.2691H372.407V21.0268H360.165V33.2691ZM364.035 89.7729L354.924 97.9496L354.981 98.0135L355.039 98.0766L364.035 89.7729ZM385.597 89.7729L376.486 81.5962L385.597 89.7729ZM389.467 33.2691V21.0268H377.225V33.2691H389.467ZM411.029 33.2691H423.272V21.0268H411.029V33.2691ZM401.409 102.821L392.854 94.0641L401.409 102.821ZM374.65 99.9774C365.504 99.9774 359.991 97.5273 356.446 94.0641L339.336 111.577C348.618 120.646 360.944 124.462 374.65 124.462V99.9774ZM356.446 94.0641C353.009 90.7061 350.513 85.3547 350.513 76.1722H326.029C326.029 89.9893 329.946 102.404 339.336 111.577L356.446 94.0641ZM350.513 76.1722V33.2691H326.029V76.1722H350.513ZM338.271 45.5113H360.165V21.0268H338.271V45.5113ZM347.923 33.2691V75.5087H372.407V33.2691H347.923ZM347.923 75.5087C347.923 83.1719 349.308 91.6921 354.924 97.9496L373.146 81.5962C373.436 81.9189 373.226 81.8703 372.948 80.845C372.665 79.8023 372.407 78.0912 372.407 75.5087H347.923ZM355.039 98.0766C360.405 103.889 367.512 106.328 374.871 106.328V81.8431C373.869 81.8431 373.398 81.6869 373.261 81.6326C373.167 81.5951 373.124 81.5708 373.031 81.4692L355.039 98.0766ZM374.871 106.328C382.222 106.328 389.378 103.889 394.708 97.9496L376.486 81.5962C376.446 81.6404 376.436 81.644 376.451 81.6332C376.467 81.6223 376.462 81.6292 376.414 81.6487C376.321 81.6859 375.877 81.8431 374.871 81.8431V106.328ZM394.708 97.9496C400.324 91.6921 401.71 83.1719 401.71 75.5087H377.225C377.225 78.0912 376.968 79.8023 376.685 80.845C376.406 81.8703 376.196 81.9189 376.486 81.5962L394.708 97.9496ZM401.71 75.5087V33.2691H377.225V75.5087H401.71ZM389.467 45.5113H411.029V21.0268H389.467V45.5113ZM398.787 33.2691V76.1722H423.272V33.2691H398.787ZM398.787 76.1722C398.787 85.3547 396.291 90.7061 392.854 94.0641L409.965 111.577C419.354 102.404 423.272 89.9893 423.272 76.1722H398.787ZM392.854 94.0641C389.309 97.5273 383.796 99.9774 374.65 99.9774V124.462C388.357 124.462 400.683 120.646 409.965 111.577L392.854 94.0641ZM434.707 109.898L431.423 121.691L431.511 121.715L431.599 121.739L434.707 109.898ZM420.443 103.705L409.259 98.7262L405.097 108.075L413.559 113.829L420.443 103.705ZM427.63 87.5614L434.217 77.2421L422.23 69.5909L416.446 82.5822L427.63 87.5614ZM439.572 93.0901L435.758 104.723L435.872 104.76L435.985 104.795L439.572 93.0901ZM460.471 94.417L463.772 106.206L463.988 106.145L464.202 106.077L460.471 94.417ZM464.452 92.2055L455.456 83.9019L455.442 83.9175L455.427 83.9332L464.452 92.2055ZM463.346 84.6864L456.773 95.0147L463.346 84.6864ZM457.043 82.1432L460.092 70.2867L457.043 82.1432ZM448.418 80.1529L445.853 92.1233L445.882 92.1295L445.91 92.1354L448.418 80.1529ZM439.02 77.6096L435.148 89.2236L435.189 89.2372L435.23 89.2504L439.02 77.6096ZM430.505 73.6289L423.782 83.8598L423.886 83.9278L423.99 83.9937L430.505 73.6289ZM424.203 67.105L413.68 73.3617L413.718 73.4255L413.756 73.4887L424.203 67.105ZM425.529 44.216L415.436 37.2888L415.389 37.3567L415.343 37.4252L425.529 44.216ZM437.029 35.1488L432.012 23.9818L437.029 35.1488ZM470.976 33.4902L468.091 45.3878L468.196 45.4132L468.301 45.4367L470.976 33.4902ZM484.134 38.4661L495.441 43.1582L499.56 33.2323L490.252 27.862L484.134 38.4661ZM477.389 54.7206L471.572 65.4926L483.501 71.9339L488.696 59.4128L477.389 54.7206ZM466.442 50.2976L463.079 62.0688L463.191 62.1007L463.303 62.1305L466.442 50.2976ZM448.64 49.7447L452.371 61.4045L452.58 61.3376L452.786 61.2633L448.64 49.7447ZM444.659 52.1774L435.033 44.6139V44.6139L444.659 52.1774ZM445.765 59.8071L438.974 69.9932L439.25 70.1776L439.537 70.3467L445.765 59.8071ZM452.067 62.2397L449.019 74.0962L449.214 74.1466L449.412 74.1904L452.067 62.2397ZM460.692 64.1195L458.127 76.09L458.156 76.0961L458.184 76.1021L460.692 64.1195ZM470.091 66.6627L466.22 78.2767L466.383 78.3312L466.548 78.3811L470.091 66.6627ZM478.716 70.6434L471.993 80.8743L472.096 80.9423L472.201 81.0081L478.716 70.6434ZM484.908 77.1673L474.261 83.2102L474.359 83.3822L474.462 83.5511L484.908 77.1673ZM483.471 99.7246L473.315 92.8889L473.3 92.9113L473.285 92.9339L483.471 99.7246ZM472.081 108.792L467.064 97.6248L467.034 97.6386L467.003 97.6525L472.081 108.792ZM453.063 99.9774C447.73 99.9774 442.658 99.3278 437.815 98.0565L431.599 121.739C438.55 123.563 445.716 124.462 453.063 124.462V99.9774ZM437.991 98.1041C433.025 96.721 429.598 95.1261 427.327 93.5819L413.559 113.829C418.66 117.297 424.742 119.831 431.423 121.691L437.991 98.1041ZM431.627 108.684L438.814 92.5405L416.446 82.5822L409.259 98.7262L431.627 108.684ZM421.044 97.8806C425.493 100.72 430.43 102.976 435.758 104.723L443.387 81.4572C439.722 80.2556 436.697 78.8253 434.217 77.2421L421.044 97.8806ZM435.985 104.795C441.645 106.529 447.386 107.433 453.173 107.433V82.9488C449.967 82.9488 446.641 82.4521 443.159 81.3852L435.985 104.795ZM453.173 107.433C456.746 107.433 460.42 107.144 463.772 106.206L457.17 82.6282C456.836 82.7218 455.645 82.9488 453.173 82.9488V107.433ZM464.202 106.077C466.958 105.195 470.6 103.616 473.476 100.478L455.427 83.9332C456.111 83.1877 456.707 82.8294 456.903 82.7202C457.106 82.6078 457.092 82.6447 456.74 82.7572L464.202 106.077ZM473.447 100.509C476.326 97.3909 478.021 93.3543 478.021 88.8883H453.536C453.536 88.04 453.693 87.0788 454.08 86.1108C454.464 85.1511 454.982 84.4155 455.456 83.9019L473.447 100.509ZM478.021 88.8883C478.021 82.5184 474.707 77.4051 469.919 74.3581L456.773 95.0147C456.236 94.6729 455.324 93.937 454.576 92.6447C453.803 91.31 453.536 89.9511 453.536 88.8883H478.021ZM469.919 74.3581C466.881 72.425 463.476 71.1567 460.092 70.2867L453.994 93.9997C455.771 94.4566 456.568 94.8838 456.773 95.0147L469.919 74.3581ZM460.092 70.2867C457.299 69.5686 454.24 68.8639 450.926 68.1703L445.91 92.1354C448.936 92.7687 451.627 93.3909 453.994 93.9997L460.092 70.2867ZM450.984 68.1824C448.322 67.6121 445.598 66.8767 442.81 65.9688L435.23 89.2504C438.781 90.4066 442.322 91.3667 445.853 92.1233L450.984 68.1824ZM442.891 65.9956C440.657 65.2511 438.716 64.33 437.02 63.2642L423.99 83.9937C427.455 86.1714 431.19 87.9041 435.148 89.2236L442.891 65.9956ZM437.228 63.398C436.169 62.7021 435.336 61.8455 434.649 60.7213L413.756 73.4887C416.313 77.6721 419.681 81.1648 423.782 83.8598L437.228 63.398ZM434.725 60.8483C434.519 60.5022 434.012 59.3952 434.012 56.8215H409.528C409.528 62.5041 410.642 68.2528 413.68 73.3617L434.725 60.8483ZM434.012 56.8215C434.012 54.523 434.589 52.6967 435.716 51.0068L415.343 37.4252C411.457 43.2543 409.528 49.8318 409.528 56.8215H434.012ZM435.623 51.1432C436.676 49.6094 438.552 47.8856 442.046 46.3158L432.012 23.9818C425.333 26.9825 419.543 31.3035 415.436 37.2888L435.623 51.1432ZM442.046 46.3158C445.094 44.9466 449.595 43.9632 456.048 43.9632V19.4788C447.315 19.4788 439.137 20.7806 432.012 23.9818L442.046 46.3158ZM456.048 43.9632C460.179 43.9632 464.186 44.4409 468.091 45.3878L473.86 21.5926C468.035 20.1805 462.091 19.4788 456.048 19.4788V43.9632ZM468.301 45.4367C472.202 46.3099 475.398 47.5594 478.016 49.0701L490.252 27.862C485.204 24.9498 479.628 22.882 473.65 21.5437L468.301 45.4367ZM472.827 33.7739L466.082 50.0284L488.696 59.4128L495.441 43.1582L472.827 33.7739ZM483.206 43.9486C478.773 41.5547 474.229 39.6977 469.581 38.4647L463.303 62.1305C465.88 62.8141 468.634 63.9058 471.572 65.4926L483.206 43.9486ZM469.805 38.5264C465.216 37.2152 460.581 36.5073 455.938 36.5073V60.9918C458.076 60.9918 460.444 61.316 463.079 62.0688L469.805 38.5264ZM455.938 36.5073C452.184 36.5073 448.185 36.8972 444.493 38.2262L452.786 61.2633C452.728 61.2843 452.93 61.2061 453.5 61.1283C454.06 61.0519 454.859 60.9918 455.938 60.9918V36.5073ZM444.908 38.0849C441.781 39.0857 437.915 40.9456 435.033 44.6139L454.285 59.7409C453.641 60.5613 453.002 61.0239 452.646 61.2413C452.303 61.4506 452.163 61.471 452.371 61.4045L444.908 38.0849ZM435.033 44.6139C432.507 47.8284 431.2 51.6786 431.2 55.7158H455.685C455.685 56.3196 455.589 57.0451 455.324 57.8157C455.059 58.5879 454.681 59.2367 454.285 59.7409L435.033 44.6139ZM431.2 55.7158C431.2 61.9535 434.411 66.9516 438.974 69.9932L452.555 49.6209C453.078 49.9692 453.952 50.7029 454.67 51.9674C455.413 53.2762 455.685 54.6225 455.685 55.7158H431.2ZM439.537 70.3467C442.467 72.0782 445.744 73.2542 449.019 74.0962L455.116 50.3832C453.23 49.8983 452.306 49.4526 451.993 49.2674L439.537 70.3467ZM449.412 74.1904C452.1 74.7878 455.006 75.4211 458.127 76.09L463.257 52.149C460.187 51.491 457.342 50.871 454.723 50.289L449.412 74.1904ZM458.184 76.1021C460.889 76.6683 463.567 77.3925 466.22 78.2767L473.962 55.0487C470.423 53.8688 466.835 52.8976 463.2 52.1369L458.184 76.1021ZM466.548 78.3811C468.674 79.0236 470.465 79.8701 471.993 80.8743L485.439 60.4125C481.807 58.0258 477.848 56.2184 473.634 54.9443L466.548 78.3811ZM472.201 81.0081C473.017 81.5208 473.682 82.1894 474.261 83.2102L495.555 71.1245C493.038 66.6903 489.576 63.0096 485.231 60.2787L472.201 81.0081ZM474.462 83.5511C474.603 83.7818 475.099 84.7581 475.099 87.2297H499.583C499.583 81.5924 498.457 75.8604 495.354 70.7836L474.462 83.5511ZM475.099 87.2297C475.099 89.2207 474.575 91.0168 473.315 92.8889L493.627 106.56C497.527 100.766 499.583 94.2321 499.583 87.2297H475.099ZM473.285 92.9339C472.325 94.3738 470.542 96.0623 467.064 97.6248L477.099 119.959C483.794 116.951 489.604 112.595 493.657 106.515L473.285 92.9339ZM467.003 97.6525C464.081 98.9848 459.619 99.9774 453.063 99.9774V124.462C461.839 124.462 470.057 123.169 477.16 119.931L467.003 97.6525Z" fill="#FFF438" mask="url(#path-3-outside-2_41_8)"/>
<defs>
<filter id="filter0_ddi_41_8" x="0.238922" y="0.809345" width="553.233" height="215.775" filterUnits="userSpaceOnUse" color-interpolation-filters="sRGB">
<feFlood flood-opacity="0" result="BackgroundImageFix"/>
<feColorMatrix in="SourceAlpha" type="matrix" values="0 0 0 0 0 0 0 0 0 0 0 0 0 0 0 0 0 0 127 0" result="hardAlpha"/>
<feOffset dy="19.8936"/>
<feGaussianBlur stdDeviation="7.6514"/>
<feColorMatrix type="matrix" values="0 0 0 0 0.224 0 0 0 0 0.15 0 0 0 0 0 0 0 0 0.7 0"/>
<feBlend mode="multiply" in2="BackgroundImageFix" result="effect1_dropShadow_41_8"/>
<feColorMatrix in="SourceAlpha" type="matrix" values="0 0 0 0 0 0 0 0 0 0 0 0 0 0 0 0 0 0 127 0" result="hardAlpha"/>
<feOffset dy="36.7267"/>
<feGaussianBlur stdDeviation="23.8724"/>
<feColorMatrix type="matrix" values="0 0 0 0 0.56 0 0 0 0 0.44 0 0 0 0 0 0 0 0 1 0"/>
<feBlend mode="color-dodge" in2="effect1_dropShadow_41_8" result="effect2_dropShadow_41_8"/>
<feBlend mode="normal" in="SourceGraphic" in2="effect2_dropShadow_41_8" result="shape"/>
<feColorMatrix in="SourceAlpha" type="matrix" values="0 0 0 0 0 0 0 0 0 0 0 0 0 0 0 0 0 0 127 0" result="hardAlpha"/>
<feOffset dx="-1.98936" dy="3.97873"/>
<feGaussianBlur stdDeviation="0.994682"/>
<feComposite in2="hardAlpha" operator="arithmetic" k2="-1" k3="1"/>
<feColorMatrix type="matrix" values="0 0 0 0 1 0 0 0 0 1 0 0 0 0 1 0 0 0 0.5 0"/>
<feBlend mode="normal" in2="shape" result="effect3_innerShadow_41_8"/>
</filter>
</defs>
</svg>
