<svg width="360" height="141" viewBox="0 0 360 141" fill="none" xmlns="http://www.w3.org/2000/svg">
<g style="mix-blend-mode:hard-light" filter="url(#filter0_ddi_41_5)">
<mask id="path-1-outside-1_41_5" maskUnits="userSpaceOnUse" x="31.2258" y="6.44855" width="298" height="79" fill="black">
<rect fill="white" x="31.2258" y="6.44855" width="298" height="79"/>
<path d="M44.246 71.4485V21.2469H69.9205C76.5185 21.2469 81.443 22.4661 84.6942 24.9045C87.9453 27.295 89.5709 30.4505 89.5709 34.3711C89.5709 36.9529 88.8776 39.2239 87.4911 41.1841C86.1524 43.0966 84.24 44.6265 81.7538 45.774C79.3154 46.8737 76.3989 47.4235 73.0044 47.4235L74.4387 43.9811C77.9767 43.9811 81.0605 44.5309 83.6901 45.6306C86.3197 46.6824 88.3517 48.2363 89.786 50.2921C91.2682 52.3002 92.0093 54.7625 92.0093 57.679C92.0093 62.0298 90.2403 65.4244 86.7022 67.8627C83.212 70.2533 78.0962 71.4485 71.3549 71.4485H44.246ZM58.3024 61.1931H70.2074C72.6458 61.1931 74.4865 60.7867 75.7296 59.9739C77.0205 59.1133 77.6659 57.8224 77.6659 56.1012C77.6659 54.38 77.0205 53.113 75.7296 52.3002C74.4865 51.4396 72.6458 51.0093 70.2074 51.0093H57.2984V41.1841H68.0559C70.4465 41.1841 72.2394 40.7777 73.4347 39.965C74.6299 39.1522 75.2276 37.933 75.2276 36.3074C75.2276 34.6818 74.6299 33.4866 73.4347 32.7216C72.2394 31.9088 70.4465 31.5024 68.0559 31.5024H58.3024V61.1931ZM124.68 72.4526C120.664 72.4526 116.959 71.8071 113.564 70.5162C110.169 69.2253 107.205 67.4085 104.671 65.0658C102.185 62.6752 100.249 59.9022 98.8621 56.7466C97.4756 53.5911 96.7823 50.1248 96.7823 46.3477C96.7823 42.5707 97.4756 39.1044 98.8621 35.9488C100.249 32.7933 102.185 30.0442 104.671 27.7014C107.205 25.3109 110.169 23.4701 113.564 22.1792C116.959 20.8883 120.664 20.2429 124.68 20.2429C128.744 20.2429 132.449 20.8883 135.796 22.1792C139.191 23.4701 142.131 25.3109 144.617 27.7014C147.103 30.0442 149.04 32.7933 150.426 35.9488C151.861 39.1044 152.578 42.5707 152.578 46.3477C152.578 50.1248 151.861 53.615 150.426 56.8184C149.04 59.9739 147.103 62.723 144.617 65.0658C142.131 67.4085 139.191 69.2253 135.796 70.5162C132.449 71.8071 128.744 72.4526 124.68 72.4526ZM124.68 60.6911C126.593 60.6911 128.362 60.3564 129.987 59.687C131.661 59.0177 133.095 58.0614 134.29 56.8184C135.533 55.5275 136.489 53.9975 137.159 52.2285C137.876 50.4595 138.235 48.4992 138.235 46.3477C138.235 44.1484 137.876 42.1882 137.159 40.467C136.489 38.698 135.533 37.1919 134.29 35.9488C133.095 34.6579 131.661 33.6778 129.987 33.0084C128.362 32.3391 126.593 32.0044 124.68 32.0044C122.768 32.0044 120.975 32.3391 119.301 33.0084C117.676 33.6778 116.241 34.6579 114.998 35.9488C113.803 37.1919 112.847 38.698 112.13 40.467C111.46 42.1882 111.126 44.1484 111.126 46.3477C111.126 48.4992 111.46 50.4595 112.13 52.2285C112.847 53.9975 113.803 55.5275 114.998 56.8184C116.241 58.0614 117.676 59.0177 119.301 59.687C120.975 60.3564 122.768 60.6911 124.68 60.6911ZM160.015 71.4485V21.2469H171.705L199.388 54.6669H193.865V21.2469H207.778V71.4485H196.089L168.406 38.0286H173.928V71.4485H160.015ZM240.959 72.4526C233.548 72.4526 227.763 70.4206 223.604 66.3567C219.444 62.2927 217.364 56.5315 217.364 49.073V21.2469H231.564V48.6427C231.564 52.9457 232.401 56.0295 234.074 57.8941C235.795 59.7587 238.138 60.6911 241.102 60.6911C244.067 60.6911 246.386 59.7587 248.059 57.8941C249.732 56.0295 250.569 52.9457 250.569 48.6427V21.2469H264.554V49.073C264.554 56.5315 262.474 62.2927 258.314 66.3567C254.155 70.4206 248.37 72.4526 240.959 72.4526ZM291.816 72.4526C287.704 72.4526 283.736 71.9506 279.911 70.9465C276.134 69.8947 273.05 68.556 270.659 66.9304L275.321 56.4598C277.568 57.8941 280.15 59.0894 283.066 60.0456C286.031 60.954 288.971 61.4082 291.887 61.4082C293.848 61.4082 295.425 61.2409 296.621 60.9062C297.816 60.5237 298.677 60.0456 299.202 59.4719C299.776 58.8503 300.063 58.1332 300.063 57.3204C300.063 56.1729 299.537 55.2645 298.485 54.5951C297.433 53.9258 296.071 53.376 294.397 52.9457C292.724 52.5154 290.859 52.0851 288.804 51.6548C286.796 51.2245 284.764 50.6746 282.708 50.0053C280.7 49.3359 278.859 48.4753 277.185 47.4235C275.512 46.3238 274.149 44.9134 273.098 43.1922C272.046 41.4232 271.52 39.2 271.52 36.5226C271.52 33.5105 272.333 30.7852 273.958 28.3469C275.632 25.9085 278.118 23.9482 281.417 22.4661C284.716 20.984 288.827 20.2429 293.752 20.2429C297.051 20.2429 300.278 20.6254 303.434 21.3903C306.637 22.1075 309.482 23.1833 311.968 24.6176L307.593 35.1599C305.203 33.869 302.836 32.9128 300.493 32.2913C298.151 31.6219 295.88 31.2872 293.68 31.2872C291.72 31.2872 290.142 31.5024 288.947 31.9327C287.752 32.3152 286.891 32.8411 286.365 33.5105C285.839 34.1798 285.576 34.9448 285.576 35.8054C285.576 36.905 286.078 37.7895 287.082 38.4589C288.134 39.0804 289.497 39.6064 291.17 40.0367C292.891 40.4192 294.756 40.8256 296.764 41.2559C298.82 41.6862 300.852 42.236 302.86 42.9053C304.916 43.5269 306.781 44.3875 308.454 45.4871C310.127 46.539 311.466 47.9494 312.47 49.7184C313.522 51.4396 314.048 53.615 314.048 56.2446C314.048 59.1611 313.211 61.8624 311.538 64.3486C309.912 66.787 307.45 68.7472 304.151 70.2294C300.9 71.7115 296.788 72.4526 291.816 72.4526Z"/>
</mask>
<path d="M44.246 71.4485H31.3434V84.3511H44.246V71.4485ZM44.246 21.2469V8.34433H31.3434V21.2469H44.246ZM84.6942 24.9045L76.9526 35.2265L77.0015 35.2632L77.0508 35.2994L84.6942 24.9045ZM87.4911 41.1841L76.9572 33.7333L76.939 33.7591L76.9209 33.785L87.4911 41.1841ZM81.7538 45.774L87.0581 57.5358L87.1095 57.5126L87.1607 57.489L81.7538 45.774ZM73.0044 47.4235L61.0943 42.4609L53.6505 60.3261H73.0044V47.4235ZM74.4387 43.9811V31.0785H65.837L62.5286 39.0185L74.4387 43.9811ZM83.6901 45.6306L78.7122 57.5342L78.8049 57.573L78.8982 57.6103L83.6901 45.6306ZM89.786 50.2921L79.2043 57.6748L79.3028 57.8159L79.405 57.9544L89.786 50.2921ZM86.7022 67.8627L93.9933 78.5077L94.0087 78.4972L94.0241 78.4866L86.7022 67.8627ZM58.3025 61.1931H45.3999V74.0957H58.3025V61.1931ZM75.7296 59.9739L82.7905 70.773L82.8387 70.7414L82.8867 70.7095L75.7296 59.9739ZM75.7296 52.3002L68.3853 62.9086L68.6167 63.0688L68.8549 63.2188L75.7296 52.3002ZM57.2984 51.0093H44.3958V63.9119H57.2984V51.0093ZM57.2984 41.1841V28.2815H44.3958V41.1841H57.2984ZM73.4347 39.965L80.6899 50.6344L80.6899 50.6344L73.4347 39.965ZM73.4347 32.7216L66.1794 43.3911L66.3281 43.4922L66.4795 43.5891L73.4347 32.7216ZM58.3025 31.5024V18.5998H45.3999V31.5024H58.3025ZM57.1486 71.4485V21.2469H31.3434V71.4485H57.1486ZM44.246 34.1495H69.9205V8.34433H44.246V34.1495ZM69.9205 34.1495C72.4685 34.1495 74.2643 34.3893 75.4617 34.6858C76.6484 34.9796 77.0084 35.2683 76.9526 35.2265L92.4357 14.5824C85.9414 9.71165 77.7081 8.34433 69.9205 8.34433V34.1495ZM77.0508 35.2994C77.1845 35.3978 77.1949 35.4253 77.1383 35.3609C77.0777 35.292 76.9787 35.1612 76.8816 34.9729C76.7841 34.7835 76.7233 34.6033 76.6911 34.463C76.66 34.3278 76.6683 34.2862 76.6683 34.3711H102.473C102.473 26.2064 98.7809 19.2473 92.3375 14.5095L77.0508 35.2994ZM76.6683 34.3711C76.6683 34.4962 76.6534 34.4307 76.7105 34.2436C76.7703 34.0478 76.8647 33.8641 76.9572 33.7333L98.025 48.6349C101.071 44.3289 102.473 39.4097 102.473 34.3711H76.6683ZM76.9209 33.785C76.9904 33.6857 77.0362 33.6558 76.9926 33.6907C76.9405 33.7324 76.7522 33.8719 76.3468 34.059L87.1607 57.489C91.3578 55.5519 95.2027 52.6671 98.0613 48.5833L76.9209 33.785ZM76.4494 34.0122C76.0631 34.1864 75.0452 34.5209 73.0044 34.5209V60.3261C77.7527 60.3261 82.5678 59.5609 87.0581 57.5358L76.4494 34.0122ZM84.9144 52.386L86.3488 48.9436L62.5286 39.0185L61.0943 42.4609L84.9144 52.386ZM74.4387 56.8837C76.667 56.8837 77.9902 57.2323 78.7122 57.5342L88.668 33.7269C84.1308 31.8295 79.2864 31.0785 74.4387 31.0785V56.8837ZM78.8982 57.6103C79.239 57.7466 79.3582 57.8414 79.3486 57.8341C79.3459 57.832 79.3239 57.8146 79.2917 57.7811C79.2593 57.7474 79.229 57.7102 79.2043 57.6748L100.368 42.9095C97.3117 38.5292 93.1356 35.5123 88.482 33.6508L78.8982 57.6103ZM79.405 57.9544C79.3299 57.8526 79.2621 57.7417 79.2059 57.6288C79.1501 57.5166 79.1166 57.424 79.0983 57.3634C79.0609 57.2391 79.1067 57.3143 79.1067 57.679H104.912C104.912 52.4856 103.551 47.215 100.167 42.6299L79.405 57.9544ZM79.1067 57.679C79.1067 57.8907 79.0855 57.9487 79.0989 57.8899C79.1138 57.8245 79.1545 57.6901 79.2404 57.5252C79.3266 57.3599 79.4192 57.2389 79.4805 57.1715C79.5374 57.109 79.5245 57.1395 79.3804 57.2388L94.0241 78.4866C101.108 73.6041 104.912 66.2095 104.912 57.679H79.1067ZM79.4111 57.2177C78.9982 57.5005 76.9123 58.546 71.3549 58.546V84.3511C79.2802 84.3511 87.4258 83.006 93.9933 78.5077L79.4111 57.2177ZM71.3549 58.546H44.246V84.3511H71.3549V58.546ZM58.3025 74.0957H70.2074V48.2905H58.3025V74.0957ZM70.2074 74.0957C73.701 74.0957 78.4954 73.5813 82.7905 70.773L68.6687 49.1748C69.6517 48.5321 70.4243 48.3356 70.6351 48.2891C70.849 48.2419 70.7481 48.2905 70.2074 48.2905V74.0957ZM82.8867 70.7095C88.2058 67.1634 90.5685 61.581 90.5685 56.1012H64.7633C64.7633 55.3412 64.9117 54.0495 65.6414 52.59C66.3979 51.0772 67.4943 49.9571 68.5725 49.2383L82.8867 70.7095ZM90.5685 56.1012C90.5685 50.6199 88.1834 44.8944 82.6043 41.3816L68.8549 63.2188C67.6802 62.4792 66.4956 61.3077 65.6851 59.7169C64.909 58.1933 64.7633 56.8529 64.7633 56.1012H90.5685ZM83.0739 41.6918C78.7171 38.6756 73.7991 38.1067 70.2074 38.1067V63.9119C70.7067 63.9119 70.7527 63.9597 70.4797 63.8959C70.2019 63.831 69.3845 63.6004 68.3853 62.9086L83.0739 41.6918ZM70.2074 38.1067H57.2984V63.9119H70.2074V38.1067ZM70.201 51.0093V41.1841H44.3958V51.0093H70.201ZM57.2984 54.0867H68.0559V28.2815H57.2984V54.0867ZM68.0559 54.0867C71.5056 54.0867 76.3678 53.5735 80.6899 50.6344L66.1794 29.2955C67.2251 28.5844 68.0732 28.3567 68.3413 28.296C68.6113 28.2348 68.561 28.2815 68.0559 28.2815V54.0867ZM80.6899 50.6344C85.9027 47.0897 88.1302 41.5834 88.1302 36.3074H62.325C62.325 35.5355 62.4716 34.2352 63.1938 32.7618C63.9447 31.23 65.0488 30.0643 66.1794 29.2955L80.6899 50.6344ZM88.1302 36.3074C88.1302 31.0342 85.8826 25.3694 80.3898 21.8541L66.4795 43.5891C65.2432 42.7979 64.0459 41.576 63.2389 39.962C62.4687 38.4215 62.325 37.0704 62.325 36.3074H88.1302ZM80.6899 22.0521C76.3678 19.113 71.5056 18.5998 68.0559 18.5998V44.405C68.561 44.405 68.6113 44.4518 68.3413 44.3906C68.0732 44.3298 67.2251 44.1022 66.1794 43.3911L80.6899 22.0521ZM68.0559 18.5998H58.3025V44.405H68.0559V18.5998ZM45.3999 31.5024V61.1931H71.205V31.5024H45.3999ZM113.564 70.5162L108.978 82.5762L113.564 70.5162ZM104.671 65.0658L95.7283 74.3664L95.8194 74.454L95.9122 74.5398L104.671 65.0658ZM98.8621 56.7466L87.0495 61.937L98.8621 56.7466ZM98.8621 35.9488L87.0495 30.7584L98.8621 35.9488ZM104.671 27.7014L113.52 37.0918L113.525 37.0867L104.671 27.7014ZM113.564 22.1792L108.978 10.1192L113.564 22.1792ZM135.796 22.1792L131.153 34.2174L131.181 34.2284L131.21 34.2392L135.796 22.1792ZM144.617 27.7014L135.674 37.002L135.721 37.0471L135.769 37.0918L144.617 27.7014ZM150.426 35.9488L138.614 41.1392L138.647 41.2138L138.68 41.2879L150.426 35.9488ZM150.426 56.8184L138.65 51.5455L138.632 51.5867L138.614 51.628L150.426 56.8184ZM144.617 65.0658L153.466 74.4561H153.466L144.617 65.0658ZM135.796 70.5162L131.21 58.4562L131.181 58.4671L131.153 58.4781L135.796 70.5162ZM129.987 59.687L125.195 47.7073L125.135 47.7315L125.074 47.7563L129.987 59.687ZM134.29 56.8184L124.996 47.8686L124.99 47.8755L134.29 56.8184ZM137.159 52.2285L125.201 47.3809L125.145 47.521L125.091 47.6624L137.159 52.2285ZM137.159 40.467L125.091 45.0331L125.167 45.2326L125.249 45.4295L137.159 40.467ZM134.29 35.9488L124.823 44.715L124.991 44.8969L125.167 45.0723L134.29 35.9488ZM129.987 33.0084L125.074 44.9392L125.135 44.964L125.195 44.9882L129.987 33.0084ZM119.301 33.0084L114.509 21.0287L114.449 21.0529L114.389 21.0777L119.301 33.0084ZM114.998 35.9488L105.704 26.999L105.698 27.0059L114.998 35.9488ZM112.13 40.467L100.172 35.6194L100.138 35.7047L100.104 35.7905L112.13 40.467ZM112.13 52.2285L100.062 56.7946L100.116 56.936L100.172 57.0761L112.13 52.2285ZM114.998 56.8184L105.531 65.5845L105.699 65.7665L105.875 65.9419L114.998 56.8184ZM119.301 59.687L114.389 71.6178L114.449 71.6426L114.509 71.6668L119.301 59.687ZM124.68 59.55C122.066 59.55 119.933 59.1341 118.15 58.4562L108.978 82.5762C113.984 84.4802 119.262 85.3552 124.68 85.3552V59.55ZM118.15 58.4562C116.217 57.7211 114.689 56.7553 113.43 55.5918L95.9122 74.5398C99.7216 78.0617 104.122 80.7295 108.978 82.5762L118.15 58.4562ZM113.614 55.7652C112.343 54.5431 111.382 53.1662 110.675 51.5563L87.0495 61.937C89.1152 66.6381 92.0269 70.8073 95.7283 74.3664L113.614 55.7652ZM110.675 51.5563C110.073 50.1877 109.685 48.5106 109.685 46.3477H83.8797C83.8797 51.7391 84.8778 56.9945 87.0495 61.937L110.675 51.5563ZM109.685 46.3477C109.685 44.1849 110.073 42.5077 110.675 41.1392L87.0495 30.7584C84.8778 35.701 83.8797 40.9564 83.8797 46.3477H109.685ZM110.675 41.1392C111.371 39.5537 112.305 38.2366 113.52 37.0918L95.8226 18.311C92.0651 21.8517 89.1259 26.0329 87.0495 30.7584L110.675 41.1392ZM113.525 37.0867C114.774 35.9087 116.272 34.9537 118.15 34.2392L108.978 10.1192C104.067 11.9866 99.6365 14.713 95.8171 18.3162L113.525 37.0867ZM118.15 34.2392C119.933 33.5614 122.066 33.1455 124.68 33.1455V7.34029C119.262 7.34029 113.984 8.2153 108.978 10.1192L118.15 34.2392ZM124.68 33.1455C127.366 33.1455 129.471 33.5686 131.153 34.2174L140.439 10.1411C135.428 8.20802 130.122 7.34029 124.68 7.34029V33.1455ZM131.21 34.2392C133.069 34.9462 134.506 35.8783 135.674 37.002L153.56 18.4008C149.757 14.7434 145.313 11.9941 140.382 10.1192L131.21 34.2392ZM135.769 37.0918C136.984 38.2366 137.917 39.5537 138.614 41.1392L162.239 30.7584C160.163 26.0329 157.223 21.8517 153.466 18.311L135.769 37.0918ZM138.68 41.2879C139.286 42.621 139.675 44.2454 139.675 46.3477H165.48C165.48 40.8959 164.435 35.5878 162.172 30.6097L138.68 41.2879ZM139.675 46.3477C139.675 48.4479 139.287 50.1244 138.65 51.5455L162.202 62.0912C164.435 57.1057 165.48 51.8018 165.48 46.3477H139.675ZM138.614 51.628C137.917 53.2135 136.984 54.5306 135.769 55.6754L153.466 74.4561C157.223 70.9155 160.163 66.7343 162.239 62.0087L138.614 51.628ZM135.769 55.6754C134.591 56.7853 133.124 57.7285 131.21 58.4562L140.382 82.5762C145.258 80.7222 149.671 78.0318 153.466 74.4561L135.769 55.6754ZM131.153 58.4781C129.471 59.1268 127.366 59.55 124.68 59.55V85.3552C130.122 85.3552 135.428 84.4874 140.439 82.5544L131.153 58.4781ZM124.68 73.5936C128.129 73.5936 131.584 72.9832 134.9 71.6178L125.074 47.7563C125.092 47.7493 125.087 47.754 125.043 47.7623C124.996 47.7711 124.881 47.7885 124.68 47.7885V73.5936ZM134.779 71.6668C138.075 70.3482 141.068 68.385 143.591 65.7613L124.99 47.8755C125.039 47.8239 125.1 47.7725 125.161 47.7322C125.22 47.6929 125.24 47.6893 125.195 47.7073L134.779 71.6668ZM143.584 65.7681C146.105 63.1498 147.974 60.1055 149.226 56.7946L125.091 47.6624C125.042 47.7924 125.006 47.8517 124.998 47.8644C124.993 47.8722 124.992 47.874 124.993 47.872C124.995 47.87 124.996 47.8684 124.996 47.8686L143.584 65.7681ZM149.116 57.0761C150.532 53.5835 151.137 49.9506 151.137 46.3477H125.332C125.332 47.0479 125.22 47.3354 125.201 47.3809L149.116 57.0761ZM151.137 46.3477C151.137 42.7458 150.548 39.0538 149.069 35.5044L125.249 45.4295C125.204 45.3226 125.332 45.5511 125.332 46.3477H151.137ZM149.226 35.9008C147.96 32.553 146.046 29.4577 143.414 26.8253L125.167 45.0723C125.14 45.046 125.115 45.0182 125.093 44.9906C125.071 44.9631 125.056 44.9407 125.047 44.9266C125.038 44.9125 125.038 44.9111 125.046 44.926C125.053 44.941 125.069 44.9754 125.091 45.0331L149.226 35.9008ZM143.758 27.1827C141.229 24.452 138.185 22.3912 134.779 21.0287L125.195 44.9882C125.195 44.9882 125.191 44.9865 125.183 44.9827C125.175 44.9789 125.163 44.9732 125.148 44.9655C125.118 44.9496 125.081 44.9275 125.038 44.8985C124.948 44.8366 124.873 44.7693 124.823 44.715L143.758 27.1827ZM134.9 21.0777C131.584 19.7123 128.129 19.1018 124.68 19.1018V44.907C124.881 44.907 124.996 44.9243 125.043 44.9331C125.087 44.9415 125.092 44.9462 125.074 44.9392L134.9 21.0777ZM124.68 19.1018C121.228 19.1018 117.798 19.7131 114.509 21.0287L124.093 44.9882C124.151 44.9651 124.308 44.907 124.68 44.907V19.1018ZM114.389 21.0777C111.08 22.4403 108.161 24.4477 105.704 26.999L124.292 44.8986C124.309 44.8817 124.316 44.8762 124.313 44.8786C124.31 44.8811 124.301 44.8885 124.286 44.8985C124.271 44.9086 124.256 44.9181 124.24 44.9262C124.225 44.9343 124.216 44.9384 124.214 44.9392L114.389 21.0777ZM105.698 27.0059C103.249 29.5529 101.44 32.4914 100.172 35.6194L124.087 45.3145C124.174 45.1003 124.244 44.9797 124.277 44.9266C124.31 44.8756 124.319 44.8714 124.299 44.8917L105.698 27.0059ZM100.104 35.7905C98.7561 39.2576 98.2231 42.8472 98.2231 46.3477H124.028C124.028 45.4496 124.165 45.1187 124.155 45.1435L100.104 35.7905ZM98.2231 46.3477C98.2231 49.8469 98.7702 53.3803 100.062 56.7946L124.197 47.6624C124.15 47.5386 124.028 47.1516 124.028 46.3477H98.2231ZM100.172 57.0761C101.426 60.1677 103.189 63.055 105.531 65.5845L124.466 48.0522C124.417 48 124.268 47.8273 124.087 47.3809L100.172 57.0761ZM105.875 65.9419C108.322 68.3895 111.188 70.2998 114.389 71.6178L124.214 47.7563C124.191 47.7467 124.177 47.7398 124.171 47.7367C124.166 47.7337 124.164 47.7323 124.163 47.7322C124.163 47.7322 124.161 47.7308 124.156 47.7267C124.151 47.7225 124.14 47.7127 124.122 47.6949L105.875 65.9419ZM114.509 71.6668C117.798 72.9824 121.228 73.5936 124.68 73.5936V47.7885C124.308 47.7885 124.151 47.7304 124.093 47.7073L114.509 71.6668ZM160.015 71.4485H147.113V84.3511H160.015V71.4485ZM160.015 21.2469V8.34433H147.113V21.2469H160.015ZM171.705 21.2469L181.641 13.0163L177.771 8.34433H171.705V21.2469ZM199.388 54.6669V67.5695H226.829L209.324 46.4362L199.388 54.6669ZM193.865 54.6669H180.963V67.5695H193.865V54.6669ZM193.865 21.2469V8.34433H180.963V21.2469H193.865ZM207.778 21.2469H220.681V8.34433H207.778V21.2469ZM207.778 71.4485V84.3511H220.681V71.4485H207.778ZM196.089 71.4485L186.152 79.6792L190.022 84.3511H196.089V71.4485ZM168.406 38.0286V25.126H140.964L158.469 46.2592L168.406 38.0286ZM173.928 38.0286H186.831V25.126H173.928V38.0286ZM173.928 71.4485V84.3511H186.831V71.4485H173.928ZM172.918 71.4485V21.2469H147.113V71.4485H172.918ZM160.015 34.1495H171.705V8.34433H160.015V34.1495ZM161.768 29.4776L189.451 62.8975L209.324 46.4362L181.641 13.0163L161.768 29.4776ZM199.388 41.7643H193.865V67.5695H199.388V41.7643ZM206.768 54.6669V21.2469H180.963V54.6669H206.768ZM193.865 34.1495H207.778V8.34433H193.865V34.1495ZM194.876 21.2469V71.4485H220.681V21.2469H194.876ZM207.778 58.546H196.089V84.3511H207.778V58.546ZM206.025 63.2179L178.342 29.798L158.469 46.2592L186.152 79.6792L206.025 63.2179ZM168.406 50.9312H173.928V25.126H168.406V50.9312ZM161.026 38.0286V71.4485H186.831V38.0286H161.026ZM173.928 58.546H160.015V84.3511H173.928V58.546ZM223.604 66.3567L232.62 57.1277L223.604 66.3567ZM217.364 21.2469V8.34433H204.462V21.2469H217.364ZM231.564 21.2469H244.467V8.34433H231.564V21.2469ZM234.074 57.8941L224.472 66.5119L224.532 66.5792L224.593 66.6457L234.074 57.8941ZM248.059 57.8941L238.456 49.2763L248.059 57.8941ZM250.569 21.2469V8.34433H237.667V21.2469H250.569ZM264.554 21.2469H277.456V8.34433H264.554V21.2469ZM258.314 66.3567L249.298 57.1277L258.314 66.3567ZM240.959 59.55C235.952 59.55 233.757 58.2377 232.62 57.1277L214.587 75.5856C221.77 82.6035 231.145 85.3552 240.959 85.3552V59.55ZM232.62 57.1277C231.598 56.1285 230.267 54.0892 230.267 49.073H204.462C204.462 58.9738 207.29 68.4569 214.587 75.5856L232.62 57.1277ZM230.267 49.073V21.2469H204.462V49.073H230.267ZM217.364 34.1495H231.564V8.34433H217.364V34.1495ZM218.662 21.2469V48.6427H244.467V21.2469H218.662ZM218.662 48.6427C218.662 54.0298 219.599 61.0822 224.472 66.5119L243.677 49.2763C244.505 50.1992 244.676 50.9212 244.644 50.8042C244.631 50.7573 244.584 50.5643 244.542 50.1891C244.499 49.816 244.467 49.3069 244.467 48.6427H218.662ZM224.593 66.6457C229.173 71.6066 235.199 73.5936 241.102 73.5936V47.7885C240.972 47.7885 241.305 47.7695 241.893 48.0036C242.526 48.2554 243.116 48.6669 243.555 49.1425L224.593 66.6457ZM241.102 73.5936C246.997 73.5936 253.09 71.606 257.662 66.5119L238.456 49.2763C238.935 48.7428 239.574 48.2929 240.252 48.0206C240.879 47.7685 241.236 47.7885 241.102 47.7885V73.5936ZM257.662 66.5119C262.534 61.0822 263.472 54.0298 263.472 48.6427H237.667C237.667 49.3069 237.634 49.816 237.592 50.1891C237.549 50.5643 237.502 50.7573 237.489 50.8042C237.457 50.9212 237.628 50.1992 238.456 49.2763L257.662 66.5119ZM263.472 48.6427V21.2469H237.667V48.6427H263.472ZM250.569 34.1495H264.554V8.34433H250.569V34.1495ZM251.651 21.2469V49.073H277.456V21.2469H251.651ZM251.651 49.073C251.651 54.0892 250.32 56.1285 249.298 57.1277L267.331 75.5856C274.628 68.4569 277.456 58.9738 277.456 49.073H251.651ZM249.298 57.1277C248.162 58.2377 245.967 59.55 240.959 59.55V85.3552C250.773 85.3552 260.148 82.6035 267.331 75.5856L249.298 57.1277ZM279.911 70.9465L276.449 83.3762L276.542 83.4019L276.635 83.4263L279.911 70.9465ZM270.659 66.9304L258.872 61.6827L254.486 71.5354L263.404 77.5999L270.659 66.9304ZM275.321 56.4598L282.263 45.5839L269.629 37.52L263.534 51.212L275.321 56.4598ZM283.066 60.0456L279.046 72.306L279.166 72.3451L279.286 72.3819L283.066 60.0456ZM296.621 60.9062L300.1 73.3309L300.328 73.2671L300.553 73.1949L296.621 60.9062ZM299.202 59.4719L289.722 50.7203L289.706 50.7368L289.691 50.7533L299.202 59.4719ZM298.485 54.5951L291.558 65.4806V65.4806L298.485 54.5951ZM294.397 52.9457L297.611 40.4496V40.4496L294.397 52.9457ZM288.804 51.6548L286.1 64.2709L286.13 64.2774L286.16 64.2837L288.804 51.6548ZM282.708 50.0053L278.628 62.2457L278.67 62.26L278.713 62.274L282.708 50.0053ZM277.185 47.4235L270.1 58.2062L270.209 58.2779L270.319 58.3473L277.185 47.4235ZM273.098 43.1922L262.007 49.7864L262.047 49.8536L262.088 49.9203L273.098 43.1922ZM273.958 28.3469L263.32 21.046L263.271 21.1176L263.223 21.1898L273.958 28.3469ZM281.417 22.4661L276.129 10.6968V10.6968L281.417 22.4661ZM303.434 21.3904L300.394 33.9297L300.504 33.9565L300.615 33.9813L303.434 21.3904ZM311.968 24.6176L323.885 29.5629L328.226 19.1015L318.416 13.4416L311.968 24.6176ZM307.593 35.1599L301.463 46.513L314.034 53.3018L319.511 40.1052L307.593 35.1599ZM300.493 32.2913L296.949 44.6974L297.066 44.731L297.185 44.7624L300.493 32.2913ZM288.947 31.9327L292.879 44.2214L293.1 44.1509L293.317 44.0726L288.947 31.9327ZM286.365 33.5105L276.22 25.539L276.22 25.539L286.365 33.5105ZM287.082 38.4589L279.925 49.1945L280.217 49.3888L280.518 49.5671L287.082 38.4589ZM291.17 40.0367L287.957 52.5327L288.163 52.5858L288.371 52.632L291.17 40.0367ZM296.764 41.2559L294.061 53.872L294.091 53.8785L294.121 53.8848L296.764 41.2559ZM302.86 42.9053L298.78 55.1458L298.952 55.2033L299.126 55.2558L302.86 42.9053ZM308.454 45.4871L301.368 56.2699L301.477 56.3415L301.588 56.4109L308.454 45.4871ZM312.47 49.7184L301.249 56.0872L301.352 56.2686L301.461 56.4465L312.47 49.7184ZM311.538 64.3486L300.834 57.1441L300.818 57.1678L300.802 57.1915L311.538 64.3486ZM304.151 70.2294L298.863 58.46L298.831 58.4745L298.799 58.4892L304.151 70.2294ZM291.816 59.55C288.765 59.55 285.9 59.1791 283.187 58.4667L276.635 83.4263C281.571 84.722 286.642 85.3552 291.816 85.3552V59.55ZM283.372 58.5169C280.499 57.7167 278.814 56.8724 277.915 56.2609L263.404 77.5999C267.286 80.2396 271.769 82.0727 276.449 83.3762L283.372 58.5169ZM282.446 72.1781L287.108 61.7075L263.534 51.212L258.872 61.6827L282.446 72.1781ZM268.379 67.3357C271.663 69.4322 275.253 71.0623 279.046 72.306L287.086 47.7852C285.046 47.1164 283.473 46.356 282.263 45.5839L268.379 67.3357ZM279.286 72.3819C283.398 73.6421 287.611 74.3108 291.887 74.3108V48.5056C290.331 48.5056 288.663 48.266 286.847 47.7093L279.286 72.3819ZM291.887 74.3108C294.428 74.3108 297.314 74.1109 300.1 73.3309L293.142 48.4815C293.397 48.4099 293.439 48.4246 293.18 48.4521C292.934 48.4782 292.514 48.5056 291.887 48.5056V74.3108ZM300.553 73.1949C302.71 72.5047 306.011 71.1392 308.714 68.1905L289.691 50.7533C290.576 49.7883 291.421 49.2463 291.897 48.9819C292.379 48.7139 292.685 48.6184 292.688 48.6175L300.553 73.1949ZM308.683 68.2234C311.358 65.3254 312.966 61.5193 312.966 57.3204H287.16C287.16 56.1723 287.37 54.9202 287.868 53.6759C288.362 52.4403 289.043 51.4559 289.722 50.7203L308.683 68.2234ZM312.966 57.3204C312.966 51.3241 309.801 46.5027 305.412 43.7097L291.558 65.4806C290.663 64.9111 289.455 63.8889 288.502 62.2431C287.524 60.5525 287.16 58.7991 287.16 57.3204H312.966ZM305.412 43.7097C302.868 42.0907 300.131 41.0976 297.611 40.4496L291.184 65.4417C291.564 65.5395 291.773 65.6163 291.846 65.646C291.922 65.6765 291.803 65.6362 291.558 65.4806L305.412 43.7097ZM297.611 40.4496C295.713 39.9617 293.655 39.4879 291.447 39.0258L286.16 64.2837C288.064 64.6822 289.735 65.069 291.184 65.4417L297.611 40.4496ZM291.507 39.0386C289.957 38.7065 288.356 38.2751 286.702 37.7366L278.713 62.274C281.171 63.0742 283.634 63.7424 286.1 64.2709L291.507 39.0386ZM286.788 37.7648C285.689 37.3985 284.793 36.9656 284.052 36.4997L270.319 58.3473C272.925 59.9851 275.71 61.2733 278.628 62.2457L286.788 37.7648ZM284.271 36.6407C284.214 36.603 284.194 36.5819 284.188 36.576C284.182 36.57 284.154 36.5411 284.107 36.4641L262.088 49.9203C264.125 53.2535 266.823 56.0531 270.1 58.2062L284.271 36.6407ZM284.188 36.598C284.292 36.7725 284.362 36.9237 284.407 37.038C284.452 37.151 284.468 37.2187 284.47 37.2278C284.473 37.239 284.422 37.0274 284.422 36.5226H258.617C258.617 40.8383 259.463 45.5075 262.007 49.7864L284.188 36.598ZM284.422 36.5226C284.422 35.9826 284.522 35.7611 284.694 35.5039L263.223 21.1898C260.143 25.8093 258.617 31.0384 258.617 36.5226H284.422ZM284.597 35.6477C284.66 35.5552 285.084 34.9635 286.704 34.2354L276.129 10.6968C271.152 12.933 266.603 16.2618 263.32 21.046L284.597 35.6477ZM286.704 34.2354C287.855 33.7187 290.029 33.1455 293.752 33.1455V7.34029C287.626 7.34029 281.577 8.24919 276.129 10.6968L286.704 34.2354ZM293.752 33.1455C296.043 33.1455 298.25 33.4099 300.394 33.9297L306.474 8.85097C302.307 7.84085 298.059 7.34029 293.752 7.34029V33.1455ZM300.615 33.9813C302.724 34.4534 304.314 35.0978 305.52 35.7936L318.416 13.4416C314.649 11.2687 310.551 9.76168 306.253 8.79945L300.615 33.9813ZM300.051 19.6723L295.676 30.2147L319.511 40.1052L323.885 29.5629L300.051 19.6723ZM313.724 23.8069C310.546 22.0907 307.236 20.7312 303.802 19.8201L297.185 44.7624C298.436 45.0945 299.86 45.6474 301.463 46.513L313.724 23.8069ZM304.038 19.8851C300.665 18.9215 297.2 18.3847 293.68 18.3847V44.1898C294.559 44.1898 295.636 44.3223 296.949 44.6974L304.038 19.8851ZM293.68 18.3847C290.95 18.3847 287.72 18.6611 284.577 19.7928L293.317 44.0726C293.091 44.1542 292.926 44.197 292.84 44.217C292.754 44.237 292.727 44.2388 292.77 44.2329C292.813 44.2271 292.909 44.2159 293.065 44.2064C293.221 44.1969 293.424 44.1898 293.68 44.1898V18.3847ZM285.015 19.644C282.465 20.4597 278.929 22.0912 276.22 25.539L296.511 41.482C294.854 43.591 293.038 44.1707 292.879 44.2214L285.015 19.644ZM276.22 25.539C273.886 28.5085 272.674 32.0883 272.674 35.8054H298.479C298.479 36.7107 298.337 37.7293 297.975 38.7806C297.613 39.8335 297.093 40.7414 296.511 41.4819L276.22 25.539ZM272.674 35.8054C272.674 41.6923 275.744 46.4072 279.925 49.1945L294.239 27.7233C295.104 28.2996 296.261 29.3156 297.174 30.9247C298.114 32.5805 298.479 34.3095 298.479 35.8054H272.674ZM280.518 49.5671C282.949 51.0035 285.552 51.9143 287.957 52.5327L294.383 27.5406C293.948 27.4286 293.677 27.3355 293.539 27.2824C293.398 27.2277 293.455 27.2376 293.646 27.3507L280.518 49.5671ZM288.371 52.632C290.129 53.0226 292.026 53.436 294.061 53.872L299.468 28.6397C297.486 28.2151 295.654 27.8157 293.969 27.4413L288.371 52.632ZM294.121 53.8848C295.687 54.2126 297.239 54.6323 298.78 55.1458L306.94 30.6649C304.465 29.8397 301.953 29.1597 299.407 28.6269L294.121 53.8848ZM299.126 55.2558C300.081 55.5446 300.803 55.8988 301.368 56.2699L315.54 34.7044C312.758 32.8762 309.751 31.5092 306.594 30.5548L299.126 55.2558ZM301.588 56.4109C301.527 56.3727 301.44 56.3058 301.355 56.2163C301.271 56.1282 301.24 56.0712 301.249 56.0872L323.691 43.3496C321.666 39.7818 318.853 36.7841 315.32 34.5633L301.588 56.4109ZM301.461 56.4465C301.215 56.0443 301.13 55.7478 301.112 55.6728C301.098 55.6128 301.145 55.7785 301.145 56.2446H326.95C326.95 51.9468 326.092 47.2653 323.48 42.9904L301.461 56.4465ZM301.145 56.2446C301.145 56.5202 301.116 56.7249 300.834 57.1441L322.242 71.5531C325.306 66.9999 326.95 61.802 326.95 56.2446H301.145ZM300.802 57.1915C300.784 57.2182 300.697 57.3448 300.436 57.5532C300.161 57.7716 299.673 58.0962 298.863 58.46L309.439 81.9987C314.433 79.7548 319.018 76.3887 322.273 71.5057L300.802 57.1915ZM298.799 58.4892C297.751 58.967 295.618 59.55 291.816 59.55V85.3552C297.958 85.3552 304.049 84.456 309.503 81.9695L298.799 58.4892Z" fill="#FFC940" fill-opacity="0.2" mask="url(#path-1-outside-1_41_5)"/>
</g>
<mask id="path-3-outside-2_41_5" maskUnits="userSpaceOnUse" x="38.4792" y="11.4485" width="286" height="69" fill="black">
<rect fill="white" x="38.4792" y="11.4485" width="286" height="69"/>
<path d="M46.4994 71.4485V21.2469H72.174C78.7719 21.2469 83.6964 22.4661 86.9476 24.9045C90.1987 27.295 91.8243 30.4505 91.8243 34.3711C91.8243 36.9529 91.1311 39.2239 89.7445 41.1841C88.4058 43.0966 86.4934 44.6265 84.0072 45.774C81.5688 46.8737 78.6524 47.4235 75.2578 47.4235L76.6921 43.9811C80.2301 43.9811 83.3139 44.5309 85.9435 45.6306C88.5732 46.6824 90.6051 48.2363 92.0395 50.2921C93.5216 52.3002 94.2627 54.7625 94.2627 57.679C94.2627 62.0298 92.4937 65.4244 88.9557 67.8627C85.4654 70.2533 80.3497 71.4485 73.6083 71.4485H46.4994ZM60.5559 61.1931H72.4608C74.8992 61.1931 76.7399 60.7867 77.983 59.9739C79.2739 59.1133 79.9194 57.8224 79.9194 56.1012C79.9194 54.38 79.2739 53.113 77.983 52.3002C76.7399 51.4396 74.8992 51.0093 72.4608 51.0093H59.5518V41.1841H70.3093C72.6999 41.1841 74.4928 40.7777 75.6881 39.965C76.8834 39.1522 77.481 37.933 77.481 36.3074C77.481 34.6818 76.8834 33.4866 75.6881 32.7216C74.4928 31.9088 72.6999 31.5024 70.3093 31.5024H60.5559V61.1931ZM126.934 72.4526C122.917 72.4526 119.212 71.8071 115.817 70.5162C112.423 69.2253 109.459 67.4085 106.925 65.0658C104.438 62.6752 102.502 59.9022 101.116 56.7466C99.729 53.5911 99.0358 50.1248 99.0358 46.3477C99.0358 42.5707 99.729 39.1044 101.116 35.9488C102.502 32.7933 104.438 30.0442 106.925 27.7014C109.459 25.3109 112.423 23.4701 115.817 22.1792C119.212 20.8883 122.917 20.2429 126.934 20.2429C130.997 20.2429 134.703 20.8883 138.05 22.1792C141.444 23.4701 144.385 25.3109 146.871 27.7014C149.357 30.0442 151.293 32.7933 152.68 35.9488C154.114 39.1044 154.831 42.5707 154.831 46.3477C154.831 50.1248 154.114 53.615 152.68 56.8184C151.293 59.9739 149.357 62.723 146.871 65.0658C144.385 67.4085 141.444 69.2253 138.05 70.5162C134.703 71.8071 130.997 72.4526 126.934 72.4526ZM126.934 60.6911C128.846 60.6911 130.615 60.3564 132.241 59.687C133.914 59.0177 135.348 58.0614 136.544 56.8184C137.787 55.5275 138.743 53.9975 139.412 52.2285C140.129 50.4595 140.488 48.4992 140.488 46.3477C140.488 44.1484 140.129 42.1882 139.412 40.467C138.743 38.698 137.787 37.1919 136.544 35.9488C135.348 34.6579 133.914 33.6778 132.241 33.0084C130.615 32.3391 128.846 32.0044 126.934 32.0044C125.021 32.0044 123.228 32.3391 121.555 33.0084C119.929 33.6778 118.495 34.6579 117.252 35.9488C116.056 37.1919 115.1 38.698 114.383 40.467C113.714 42.1882 113.379 44.1484 113.379 46.3477C113.379 48.4992 113.714 50.4595 114.383 52.2285C115.1 53.9975 116.056 55.5275 117.252 56.8184C118.495 58.0614 119.929 59.0177 121.555 59.687C123.228 60.3564 125.021 60.6911 126.934 60.6911ZM162.269 71.4485V21.2469H173.958L201.641 54.6669H196.119V21.2469H210.032V71.4485H198.342L170.659 38.0286H176.182V71.4485H162.269ZM243.212 72.4526C235.802 72.4526 230.017 70.4206 225.857 66.3567C221.697 62.2927 219.618 56.5315 219.618 49.073V21.2469H233.818V48.6427C233.818 52.9457 234.654 56.0295 236.328 57.8941C238.049 59.7587 240.392 60.6911 243.356 60.6911C246.32 60.6911 248.639 59.7587 250.312 57.8941C251.986 56.0295 252.823 52.9457 252.823 48.6427V21.2469H266.807V49.073C266.807 56.5315 264.727 62.2927 260.568 66.3567C256.408 70.4206 250.623 72.4526 243.212 72.4526ZM294.069 72.4526C289.957 72.4526 285.989 71.9506 282.164 70.9465C278.387 69.8947 275.303 68.556 272.913 66.9304L277.574 56.4598C279.821 57.8941 282.403 59.0894 285.32 60.0456C288.284 60.954 291.224 61.4082 294.141 61.4082C296.101 61.4082 297.679 61.2409 298.874 60.9062C300.069 60.5237 300.93 60.0456 301.456 59.4719C302.03 58.8503 302.316 58.1332 302.316 57.3204C302.316 56.1729 301.791 55.2645 300.739 54.5951C299.687 53.9258 298.324 53.376 296.651 52.9457C294.977 52.5154 293.113 52.0851 291.057 51.6548C289.049 51.2245 287.017 50.6746 284.961 50.0053C282.953 49.3359 281.112 48.4753 279.439 47.4235C277.766 46.3238 276.403 44.9134 275.351 43.1922C274.299 41.4232 273.773 39.2 273.773 36.5226C273.773 33.5105 274.586 30.7852 276.212 28.3469C277.885 25.9085 280.371 23.9482 283.67 22.4661C286.969 20.984 291.081 20.2429 296.005 20.2429C299.304 20.2429 302.532 20.6254 305.687 21.3903C308.891 22.1075 311.735 23.1833 314.221 24.6176L309.847 35.1599C307.456 33.869 305.09 32.9128 302.747 32.2913C300.404 31.6219 298.133 31.2872 295.934 31.2872C293.973 31.2872 292.396 31.5024 291.2 31.9327C290.005 32.3152 289.145 32.8411 288.619 33.5105C288.093 34.1798 287.83 34.9448 287.83 35.8054C287.83 36.905 288.332 37.7895 289.336 38.4589C290.388 39.0804 291.75 39.6064 293.424 40.0367C295.145 40.4192 297.009 40.8256 299.018 41.2559C301.073 41.6862 303.105 42.236 305.113 42.9053C307.169 43.5269 309.034 44.3875 310.707 45.4871C312.381 46.539 313.719 47.9494 314.723 49.7184C315.775 51.4396 316.301 53.615 316.301 56.2446C316.301 59.1611 315.465 61.8624 313.791 64.3486C312.166 66.787 309.703 68.7472 306.404 70.2294C303.153 71.7115 299.041 72.4526 294.069 72.4526Z"/>
</mask>
<path d="M46.4994 71.4485V21.2469H72.174C78.7719 21.2469 83.6964 22.4661 86.9476 24.9045C90.1987 27.295 91.8243 30.4505 91.8243 34.3711C91.8243 36.9529 91.1311 39.2239 89.7445 41.1841C88.4058 43.0966 86.4934 44.6265 84.0072 45.774C81.5688 46.8737 78.6524 47.4235 75.2578 47.4235L76.6921 43.9811C80.2301 43.9811 83.3139 44.5309 85.9435 45.6306C88.5732 46.6824 90.6051 48.2363 92.0395 50.2921C93.5216 52.3002 94.2627 54.7625 94.2627 57.679C94.2627 62.0298 92.4937 65.4244 88.9557 67.8627C85.4654 70.2533 80.3497 71.4485 73.6083 71.4485H46.4994ZM60.5559 61.1931H72.4608C74.8992 61.1931 76.7399 60.7867 77.983 59.9739C79.2739 59.1133 79.9194 57.8224 79.9194 56.1012C79.9194 54.38 79.2739 53.113 77.983 52.3002C76.7399 51.4396 74.8992 51.0093 72.4608 51.0093H59.5518V41.1841H70.3093C72.6999 41.1841 74.4928 40.7777 75.6881 39.965C76.8834 39.1522 77.481 37.933 77.481 36.3074C77.481 34.6818 76.8834 33.4866 75.6881 32.7216C74.4928 31.9088 72.6999 31.5024 70.3093 31.5024H60.5559V61.1931ZM126.934 72.4526C122.917 72.4526 119.212 71.8071 115.817 70.5162C112.423 69.2253 109.459 67.4085 106.925 65.0658C104.438 62.6752 102.502 59.9022 101.116 56.7466C99.729 53.5911 99.0358 50.1248 99.0358 46.3477C99.0358 42.5707 99.729 39.1044 101.116 35.9488C102.502 32.7933 104.438 30.0442 106.925 27.7014C109.459 25.3109 112.423 23.4701 115.817 22.1792C119.212 20.8883 122.917 20.2429 126.934 20.2429C130.997 20.2429 134.703 20.8883 138.05 22.1792C141.444 23.4701 144.385 25.3109 146.871 27.7014C149.357 30.0442 151.293 32.7933 152.68 35.9488C154.114 39.1044 154.831 42.5707 154.831 46.3477C154.831 50.1248 154.114 53.615 152.68 56.8184C151.293 59.9739 149.357 62.723 146.871 65.0658C144.385 67.4085 141.444 69.2253 138.05 70.5162C134.703 71.8071 130.997 72.4526 126.934 72.4526ZM126.934 60.6911C128.846 60.6911 130.615 60.3564 132.241 59.687C133.914 59.0177 135.348 58.0614 136.544 56.8184C137.787 55.5275 138.743 53.9975 139.412 52.2285C140.129 50.4595 140.488 48.4992 140.488 46.3477C140.488 44.1484 140.129 42.1882 139.412 40.467C138.743 38.698 137.787 37.1919 136.544 35.9488C135.348 34.6579 133.914 33.6778 132.241 33.0084C130.615 32.3391 128.846 32.0044 126.934 32.0044C125.021 32.0044 123.228 32.3391 121.555 33.0084C119.929 33.6778 118.495 34.6579 117.252 35.9488C116.056 37.1919 115.1 38.698 114.383 40.467C113.714 42.1882 113.379 44.1484 113.379 46.3477C113.379 48.4992 113.714 50.4595 114.383 52.2285C115.1 53.9975 116.056 55.5275 117.252 56.8184C118.495 58.0614 119.929 59.0177 121.555 59.687C123.228 60.3564 125.021 60.6911 126.934 60.6911ZM162.269 71.4485V21.2469H173.958L201.641 54.6669H196.119V21.2469H210.032V71.4485H198.342L170.659 38.0286H176.182V71.4485H162.269ZM243.212 72.4526C235.802 72.4526 230.017 70.4206 225.857 66.3567C221.697 62.2927 219.618 56.5315 219.618 49.073V21.2469H233.818V48.6427C233.818 52.9457 234.654 56.0295 236.328 57.8941C238.049 59.7587 240.392 60.6911 243.356 60.6911C246.32 60.6911 248.639 59.7587 250.312 57.8941C251.986 56.0295 252.823 52.9457 252.823 48.6427V21.2469H266.807V49.073C266.807 56.5315 264.727 62.2927 260.568 66.3567C256.408 70.4206 250.623 72.4526 243.212 72.4526ZM294.069 72.4526C289.957 72.4526 285.989 71.9506 282.164 70.9465C278.387 69.8947 275.303 68.556 272.913 66.9304L277.574 56.4598C279.821 57.8941 282.403 59.0894 285.32 60.0456C288.284 60.954 291.224 61.4082 294.141 61.4082C296.101 61.4082 297.679 61.2409 298.874 60.9062C300.069 60.5237 300.93 60.0456 301.456 59.4719C302.03 58.8503 302.316 58.1332 302.316 57.3204C302.316 56.1729 301.791 55.2645 300.739 54.5951C299.687 53.9258 298.324 53.376 296.651 52.9457C294.977 52.5154 293.113 52.0851 291.057 51.6548C289.049 51.2245 287.017 50.6746 284.961 50.0053C282.953 49.3359 281.112 48.4753 279.439 47.4235C277.766 46.3238 276.403 44.9134 275.351 43.1922C274.299 41.4232 273.773 39.2 273.773 36.5226C273.773 33.5105 274.586 30.7852 276.212 28.3469C277.885 25.9085 280.371 23.9482 283.67 22.4661C286.969 20.984 291.081 20.2429 296.005 20.2429C299.304 20.2429 302.532 20.6254 305.687 21.3903C308.891 22.1075 311.735 23.1833 314.221 24.6176L309.847 35.1599C307.456 33.869 305.09 32.9128 302.747 32.2913C300.404 31.6219 298.133 31.2872 295.934 31.2872C293.973 31.2872 292.396 31.5024 291.2 31.9327C290.005 32.3152 289.145 32.8411 288.619 33.5105C288.093 34.1798 287.83 34.9448 287.83 35.8054C287.83 36.905 288.332 37.7895 289.336 38.4589C290.388 39.0804 291.75 39.6064 293.424 40.0367C295.145 40.4192 297.009 40.8256 299.018 41.2559C301.073 41.6862 303.105 42.236 305.113 42.9053C307.169 43.5269 309.034 44.3875 310.707 45.4871C312.381 46.539 313.719 47.9494 314.723 49.7184C315.775 51.4396 316.301 53.615 316.301 56.2446C316.301 59.1611 315.465 61.8624 313.791 64.3486C312.166 66.787 309.703 68.7472 306.404 70.2294C303.153 71.7115 299.041 72.4526 294.069 72.4526Z" fill="black"/>
<path d="M46.4994 71.4485H38.5594V79.3886H46.4994V71.4485ZM46.4994 21.2469V13.3069H38.5594V21.2469H46.4994ZM86.9476 24.9045L82.1835 31.2565L82.2137 31.2791L82.244 31.3014L86.9476 24.9045ZM89.7445 41.1841L83.2621 36.599L83.2509 36.6149L83.2398 36.6308L89.7445 41.1841ZM84.0072 45.774L87.2714 53.012L87.3031 52.9978L87.3346 52.9832L84.0072 45.774ZM75.2578 47.4235L67.9285 44.3696L63.3477 55.3635H75.2578V47.4235ZM76.6921 43.9811V36.041H71.3987L69.3628 40.9272L76.6921 43.9811ZM85.9436 45.6306L82.8802 52.9559L82.9373 52.9798L82.9947 53.0027L85.9436 45.6306ZM92.0395 50.2921L85.5276 54.8353L85.5882 54.9222L85.6511 55.0074L92.0395 50.2921ZM88.9557 67.8627L93.4425 74.4135L93.452 74.407L93.4614 74.4005L88.9557 67.8627ZM60.5559 61.1931H52.6158V69.1331H60.5559V61.1931ZM77.983 59.9739L82.3282 66.6195L82.3579 66.6001L82.3874 66.5804L77.983 59.9739ZM77.983 52.3002L73.4634 58.8285L73.6059 58.9271L73.7524 59.0193L77.983 52.3002ZM59.5518 51.0093H51.6118V58.9494H59.5518V51.0093ZM59.5518 41.1841V33.2441H51.6118V41.1841H59.5518ZM75.6881 39.965L80.1528 46.5308L80.1529 46.5308L75.6881 39.965ZM75.6881 32.7216L71.2233 39.2874L71.3148 39.3496L71.408 39.4093L75.6881 32.7216ZM60.5559 31.5024V23.5623H52.6158V31.5024H60.5559ZM46.4994 71.4485H54.4395V21.2469H46.4994H38.5594V71.4485H46.4994ZM46.4994 21.2469V29.187H72.174V21.2469V13.3069H46.4994V21.2469ZM72.174 21.2469V29.187C78.0398 29.187 80.9282 30.315 82.1835 31.2565L86.9476 24.9045L91.7116 18.5524C86.4647 14.6172 79.504 13.3069 72.174 13.3069V21.2469ZM86.9476 24.9045L82.244 31.3014C83.5307 32.2475 83.8843 33.0623 83.8843 34.3711H91.8243H99.7644C99.7644 27.8388 96.8668 22.3426 91.6512 18.5075L86.9476 24.9045ZM91.8243 34.3711H83.8843C83.8843 35.4409 83.6276 36.0823 83.2621 36.599L89.7445 41.1841L96.2269 45.7692C98.6345 42.3655 99.7644 38.4648 99.7644 34.3711H91.8243ZM89.7445 41.1841L83.2398 36.6308C82.8364 37.207 82.1132 37.9032 80.6799 38.5648L84.0072 45.774L87.3346 52.9832C90.8736 51.3498 93.9752 48.9861 96.2493 45.7375L89.7445 41.1841ZM84.0072 45.774L80.743 38.5359C79.5674 39.0661 77.8193 39.4834 75.2578 39.4834V47.4235V55.3635C79.4855 55.3635 83.5703 54.6812 87.2714 53.012L84.0072 45.774ZM75.2578 47.4235L82.5871 50.4773L84.0214 47.035L76.6921 43.9811L69.3628 40.9272L67.9285 44.3696L75.2578 47.4235ZM76.6921 43.9811V51.9211C79.4242 51.9211 81.4245 52.3471 82.8802 52.9559L85.9436 45.6306L89.0069 38.3052C85.2034 36.7147 81.0361 36.041 76.6921 36.041V43.9811ZM85.9436 45.6306L82.9947 53.0027C84.3788 53.5564 85.0913 54.2099 85.5276 54.8353L92.0395 50.2921L98.5513 45.749C96.119 42.2627 92.7676 39.8085 88.8924 38.2584L85.9436 45.6306ZM92.0395 50.2921L85.6511 55.0074C85.9627 55.4295 86.3226 56.1636 86.3226 57.679H94.2627H102.203C102.203 53.3613 101.081 49.1709 98.4278 45.5769L92.0395 50.2921ZM94.2627 57.679H86.3226C86.3226 59.4576 85.8055 60.3906 84.4499 61.3249L88.9557 67.8627L93.4614 74.4005C99.1818 70.4581 102.203 64.6019 102.203 57.679H94.2627ZM88.9557 67.8627L84.4688 61.3119C82.8723 62.4054 79.6211 63.5085 73.6083 63.5085V71.4485V79.3886C81.0783 79.3886 88.0586 78.1011 93.4425 74.4135L88.9557 67.8627ZM73.6083 71.4485V63.5085H46.4994V71.4485V79.3886H73.6083V71.4485ZM60.5559 61.1931V69.1331H72.4608V61.1931V53.253H60.5559V61.1931ZM72.4608 61.1931V69.1331C75.5485 69.1331 79.2069 68.6603 82.3282 66.6195L77.983 59.9739L73.6378 53.3283C74.0037 53.0891 74.1827 53.0854 73.9584 53.1349C73.736 53.184 73.2625 53.253 72.4608 53.253V61.1931ZM77.983 59.9739L82.3874 66.5804C86.1572 64.0672 87.8594 60.1354 87.8594 56.1012H79.9194H71.9793C71.9793 55.9645 72.0085 55.4593 72.3335 54.8094C72.6748 54.1266 73.1634 53.6442 73.5787 53.3674L77.983 59.9739ZM79.9194 56.1012H87.8594C87.8594 52.0661 86.1434 48.0554 82.2136 45.5811L77.983 52.3002L73.7524 59.0193C73.2778 58.7205 72.735 58.1996 72.3604 57.4642C72.0069 56.7703 71.9793 56.2328 71.9793 56.1012H79.9194ZM77.983 52.3002L82.5026 45.772C79.3433 43.5848 75.609 43.0693 72.4608 43.0693V51.0093V58.9494C73.237 58.9494 73.6768 59.0202 73.8628 59.0636C74.0458 59.1064 73.8393 59.0887 73.4634 58.8285L77.983 52.3002ZM72.4608 51.0093V43.0693H59.5518V51.0093V58.9494H72.4608V51.0093ZM59.5518 51.0093H67.4919V41.1841H59.5518H51.6118V51.0093H59.5518ZM59.5518 41.1841V49.1242H70.3093V41.1841V33.2441H59.5518V41.1841ZM70.3093 41.1841V49.1242C73.3516 49.1242 77.0334 48.652 80.1528 46.5308L75.6881 39.965L71.2233 33.3991C71.637 33.1178 71.8715 33.095 71.6917 33.1357C71.5131 33.1762 71.0799 33.2441 70.3093 33.2441V41.1841ZM75.6881 39.965L80.1529 46.5308C83.8205 44.0368 85.421 40.1794 85.421 36.3074H77.481H69.5409C69.5409 36.145 69.5737 35.6184 69.9032 34.9461C70.2504 34.2379 70.7574 33.7159 71.2233 33.3991L75.6881 39.965ZM77.481 36.3074H85.421C85.421 32.4371 83.808 28.4914 79.9682 26.0339L75.6881 32.7216L71.408 39.4093C70.8771 39.0695 70.3126 38.506 69.931 37.7427C69.5719 37.0245 69.5409 36.4644 69.5409 36.3074H77.481ZM75.6881 32.7216L80.1529 26.1557C77.0334 24.0345 73.3517 23.5623 70.3093 23.5623V31.5024V39.4424C71.0799 39.4424 71.5131 39.5103 71.6917 39.5508C71.8715 39.5916 71.637 39.5687 71.2233 39.2874L75.6881 32.7216ZM70.3093 31.5024V23.5623H60.5559V31.5024V39.4424H70.3093V31.5024ZM60.5559 31.5024H52.6158V61.1931H60.5559H68.4959V31.5024H60.5559ZM115.817 70.5162L112.995 77.9378L115.817 70.5162ZM106.925 65.0658L101.421 70.7892L101.477 70.8431L101.534 70.8959L106.925 65.0658ZM101.116 56.7466L93.8463 59.9407H93.8463L101.116 56.7466ZM101.116 35.9488L93.8463 32.7547L93.8463 32.7547L101.116 35.9488ZM106.925 27.7014L112.37 33.4801L112.373 33.477L106.925 27.7014ZM115.817 22.1792L112.995 14.7577V14.7577L115.817 22.1792ZM138.05 22.1792L135.192 29.5873L135.21 29.5941L135.227 29.6008L138.05 22.1792ZM146.871 27.7014L141.367 33.4249L141.396 33.4526L141.425 33.4801L146.871 27.7014ZM152.68 35.9488L145.411 39.1429L145.431 39.1888L145.451 39.2344L152.68 35.9488ZM152.68 56.8184L145.433 53.5735L145.422 53.5989L145.411 53.6243L152.68 56.8184ZM146.871 65.0658L152.316 70.8445L146.871 65.0658ZM138.05 70.5162L135.227 63.0947L135.21 63.1014L135.192 63.1081L138.05 70.5162ZM132.241 59.687L129.292 52.3149L129.254 52.3298L129.217 52.345L132.241 59.687ZM136.544 56.8184L130.824 51.3108L130.82 51.315L136.544 56.8184ZM139.412 52.2285L132.054 49.2454L132.019 49.3316L131.986 49.4186L139.412 52.2285ZM139.412 40.467L131.986 43.2769L132.032 43.3997L132.083 43.5208L139.412 40.467ZM136.544 35.9488L130.717 41.3434L130.821 41.4554L130.929 41.5633L136.544 35.9488ZM132.241 33.0084L129.217 40.3504L129.254 40.3657L129.292 40.3806L132.241 33.0084ZM121.555 33.0084L118.606 25.6363L118.569 25.6512L118.532 25.6664L121.555 33.0084ZM117.252 35.9488L111.532 30.4413L111.528 30.4455L117.252 35.9488ZM114.383 40.467L107.025 37.4839L107.003 37.5363L106.983 37.5891L114.383 40.467ZM114.383 52.2285L106.957 55.0384L106.99 55.1254L107.025 55.2116L114.383 52.2285ZM117.252 56.8184L111.426 62.2129L111.529 62.3249L111.637 62.4328L117.252 56.8184ZM121.555 59.687L118.532 67.029L118.569 67.0443L118.606 67.0592L121.555 59.687ZM126.934 72.4526V64.5125C123.78 64.5125 121.042 64.0083 118.64 63.0947L115.817 70.5162L112.995 77.9378C117.382 79.6059 122.055 80.3926 126.934 80.3926V72.4526ZM115.817 70.5162L118.64 63.0947C116.145 62.1458 114.064 60.8527 112.315 59.2356L106.925 65.0658L101.534 70.8959C104.853 73.9643 108.701 76.3048 112.995 77.9378L115.817 70.5162ZM106.925 65.0658L112.428 59.3423C110.69 57.6708 109.353 55.757 108.385 53.5526L101.116 56.7466L93.8463 59.9407C95.6507 64.0474 98.1873 67.6796 101.421 70.7892L106.925 65.0658ZM101.116 56.7466L108.385 53.5526C107.481 51.4967 106.976 49.1314 106.976 46.3477H99.0358H91.0957C91.0957 51.1182 91.9765 55.6855 93.8463 59.9407L101.116 56.7466ZM99.0358 46.3477H106.976C106.976 43.564 107.481 41.1987 108.385 39.1429L101.116 35.9488L93.8463 32.7547C91.9765 37.01 91.0957 41.5773 91.0957 46.3477H99.0358ZM101.116 35.9488L108.385 39.1429C109.347 36.9535 110.666 35.0857 112.37 33.4801L106.925 27.7014L101.479 21.9227C98.2108 25.0027 95.6573 28.6331 93.8463 32.7547L101.116 35.9488ZM106.925 27.7014L112.373 33.477C114.116 31.8326 116.178 30.5369 118.64 29.6008L115.817 22.1792L112.995 14.7577C108.668 16.4033 104.801 18.7891 101.476 21.9259L106.925 27.7014ZM115.817 22.1792L118.64 29.6008C121.042 28.6871 123.78 28.1829 126.934 28.1829V20.2429V12.3028C122.055 12.3028 117.382 13.0895 112.995 14.7577L115.817 22.1792ZM126.934 20.2429V28.1829C130.149 28.1829 132.87 28.6916 135.192 29.5873L138.05 22.1792L140.907 14.7711C136.536 13.0851 131.846 12.3028 126.934 12.3028V20.2429ZM138.05 22.1792L135.227 29.6008C137.677 30.5323 139.692 31.8139 141.367 33.4249L146.871 27.7014L152.374 21.978C149.077 18.8078 145.211 16.408 140.872 14.7577L138.05 22.1792ZM146.871 27.7014L141.425 33.4801C143.129 35.0857 144.449 36.9535 145.411 39.1429L152.68 35.9488L159.949 32.7547C158.138 28.6331 155.585 25.0027 152.316 21.9227L146.871 27.7014ZM152.68 35.9488L145.451 39.2344C146.376 41.2684 146.891 43.6012 146.891 46.3477H154.831H162.771C162.771 41.5401 161.852 36.9403 159.908 32.6632L152.68 35.9488ZM154.831 46.3477H146.891C146.891 49.0928 146.376 51.4669 145.433 53.5735L152.68 56.8184L159.927 60.0632C161.852 55.7631 162.771 51.1568 162.771 46.3477H154.831ZM152.68 56.8184L145.411 53.6243C144.449 55.8137 143.129 57.6815 141.425 59.2871L146.871 65.0658L152.316 70.8445C155.585 67.7645 158.138 64.1341 159.949 60.0124L152.68 56.8184ZM146.871 65.0658L141.425 59.2871C139.744 60.8711 137.711 62.1504 135.227 63.0947L138.05 70.5162L140.872 77.9378C145.178 76.3003 149.025 73.9459 152.316 70.8445L146.871 65.0658ZM138.05 70.5162L135.192 63.1081C132.87 64.0039 130.149 64.5125 126.934 64.5125V72.4526V80.3926C131.846 80.3926 136.536 79.6104 140.907 77.9243L138.05 70.5162ZM126.934 60.6911V68.6311C129.791 68.6311 132.598 68.1267 135.264 67.029L132.241 59.687L129.217 52.345C128.632 52.586 127.901 52.751 126.934 52.751V60.6911ZM132.241 59.687L135.189 67.0592C137.862 65.9903 140.255 64.4144 142.267 62.3217L136.544 56.8184L130.82 51.315C130.442 51.7085 129.966 52.045 129.292 52.3149L132.241 59.687ZM136.544 56.8184L142.263 62.3259C144.293 60.2181 145.81 57.7562 146.838 55.0384L139.412 52.2285L131.986 49.4186C131.676 50.2388 131.281 50.8368 130.824 51.3108L136.544 56.8184ZM139.412 52.2285L146.771 55.2116C147.918 52.382 148.428 49.3923 148.428 46.3477H140.488H132.548C132.548 47.6061 132.341 48.537 132.054 49.2454L139.412 52.2285ZM140.488 46.3477H148.428C148.428 43.2852 147.927 40.2593 146.741 37.4131L139.412 40.467L132.083 43.5208C132.331 44.117 132.548 45.0116 132.548 46.3477H140.488ZM139.412 40.467L146.838 37.657C145.801 34.9164 144.256 32.4324 142.158 30.3344L136.544 35.9488L130.929 41.5633C131.317 41.9514 131.684 42.4795 131.986 43.2769L139.412 40.467ZM136.544 35.9488L142.37 30.5543C140.354 28.3773 137.929 26.7322 135.189 25.6363L132.241 33.0084L129.292 40.3806C129.899 40.6234 130.343 40.9385 130.717 41.3434L136.544 35.9488ZM132.241 33.0084L135.264 25.6664C132.598 24.5687 129.791 24.0644 126.934 24.0644V32.0044V39.9445C127.901 39.9445 128.632 40.1094 129.217 40.3504L132.241 33.0084ZM126.934 32.0044V24.0644C124.073 24.0644 121.273 24.5693 118.606 25.6363L121.555 33.0084L124.504 40.3806C125.183 40.1089 125.969 39.9445 126.934 39.9445V32.0044ZM121.555 33.0084L118.532 25.6664C115.87 26.7624 113.522 28.3747 111.532 30.4413L117.252 35.9488L122.971 41.4564C123.467 40.9411 123.988 40.5932 124.578 40.3504L121.555 33.0084ZM117.252 35.9488L111.528 30.4455C109.561 32.491 108.081 34.8785 107.025 37.4839L114.383 40.467L121.741 43.4501C122.12 42.5174 122.551 41.8928 122.975 41.4521L117.252 35.9488ZM114.383 40.467L106.983 37.5891C105.896 40.3848 105.439 43.3477 105.439 46.3477H113.379H121.319C121.319 44.9492 121.532 43.9916 121.783 43.3448L114.383 40.467ZM113.379 46.3477H105.439C105.439 49.3286 105.904 52.2569 106.957 55.0384L114.383 52.2285L121.809 49.4186C121.523 48.662 121.319 47.6699 121.319 46.3477H113.379ZM114.383 52.2285L107.025 55.2116C108.072 57.7946 109.525 60.1598 111.426 62.2129L117.252 56.8184L123.078 51.4238C122.588 50.8952 122.129 50.2004 121.741 49.2454L114.383 52.2285ZM117.252 56.8184L111.637 62.4328C113.622 64.4172 115.937 65.9605 118.532 67.029L121.555 59.687L124.578 52.345C123.922 52.0748 123.368 51.7057 122.866 51.2039L117.252 56.8184ZM121.555 59.687L118.606 67.0592C121.273 68.1262 124.073 68.6311 126.934 68.6311V60.6911V52.751C125.969 52.751 125.183 52.5865 124.504 52.3149L121.555 59.687ZM162.269 71.4485H154.328V79.3886H162.269V71.4485ZM162.269 21.2469V13.3069H154.328V21.2469H162.269ZM173.958 21.2469L180.073 16.1819L177.692 13.3069H173.958V21.2469ZM201.641 54.6669V62.6069H218.528L207.756 49.6019L201.641 54.6669ZM196.119 54.6669H188.179V62.6069H196.119V54.6669ZM196.119 21.2469V13.3069H188.179V21.2469H196.119ZM210.032 21.2469H217.972V13.3069H210.032V21.2469ZM210.032 71.4485V79.3886H217.972V71.4485H210.032ZM198.342 71.4485L192.227 76.5136L194.609 79.3886H198.342V71.4485ZM170.659 38.0286V30.0886H153.772L164.545 43.0936L170.659 38.0286ZM176.182 38.0286H184.122V30.0886H176.182V38.0286ZM176.182 71.4485V79.3886H184.122V71.4485H176.182ZM162.269 71.4485H170.209V21.2469H162.269H154.328V71.4485H162.269ZM162.269 21.2469V29.187H173.958V21.2469V13.3069H162.269V21.2469ZM173.958 21.2469L167.844 26.3119L195.526 59.7319L201.641 54.6669L207.756 49.6019L180.073 16.1819L173.958 21.2469ZM201.641 54.6669V46.7268H196.119V54.6669V62.6069H201.641V54.6669ZM196.119 54.6669H204.059V21.2469H196.119H188.179V54.6669H196.119ZM196.119 21.2469V29.187H210.032V21.2469V13.3069H196.119V21.2469ZM210.032 21.2469H202.092V71.4485H210.032H217.972V21.2469H210.032ZM210.032 71.4485V63.5085H198.342V71.4485V79.3886H210.032V71.4485ZM198.342 71.4485L204.457 66.3835L176.774 32.9636L170.659 38.0286L164.545 43.0936L192.227 76.5136L198.342 71.4485ZM170.659 38.0286V45.9687H176.182V38.0286V30.0886H170.659V38.0286ZM176.182 38.0286H168.241V71.4485H176.182H184.122V38.0286H176.182ZM176.182 71.4485V63.5085H162.269V71.4485V79.3886H176.182V71.4485ZM225.857 66.3567L231.406 60.6773L225.857 66.3567ZM219.618 21.2469V13.3069H211.678V21.2469H219.618ZM233.818 21.2469H241.758V13.3069H233.818V21.2469ZM236.328 57.8941L230.418 63.1973L230.456 63.2388L230.493 63.2797L236.328 57.8941ZM250.312 57.8941L244.403 52.5909L250.312 57.8941ZM252.823 21.2469V13.3069H244.882V21.2469H252.823ZM266.807 21.2469H274.747V13.3069H266.807V21.2469ZM260.568 66.3567L255.019 60.6773L260.568 66.3567ZM243.212 72.4526V64.5125C237.281 64.5125 233.705 62.9234 231.406 60.6773L225.857 66.3567L220.308 72.036C226.328 77.9178 234.323 80.3926 243.212 80.3926V72.4526ZM225.857 66.3567L231.406 60.6773C229.177 58.4994 227.558 55.0285 227.558 49.073H219.618H211.678C211.678 58.0344 214.218 66.0861 220.308 72.036L225.857 66.3567ZM219.618 49.073H227.558V21.2469H219.618H211.678V49.073H219.618ZM219.618 21.2469V29.187H233.818V21.2469V13.3069H219.618V21.2469ZM233.818 21.2469H225.878V48.6427H233.818H241.758V21.2469H233.818ZM233.818 48.6427H225.878C225.878 53.6128 226.776 59.1388 230.418 63.1973L236.328 57.8941L242.237 52.5909C242.425 52.8002 242.289 52.7687 242.108 52.1037C241.925 51.4274 241.758 50.3176 241.758 48.6427H233.818ZM236.328 57.8941L230.493 63.2797C233.973 67.0497 238.583 68.6311 243.356 68.6311V60.6911V52.751C242.706 52.751 242.4 52.6497 242.312 52.6145C242.25 52.5901 242.223 52.5744 242.162 52.5085L236.328 57.8941ZM243.356 60.6911V68.6311C248.123 68.6311 252.765 67.0493 256.222 63.1973L250.312 57.8941L244.403 52.5909C244.377 52.6195 244.37 52.6219 244.38 52.6149C244.391 52.6078 244.388 52.6123 244.356 52.6249C244.296 52.6491 244.008 52.751 243.356 52.751V60.6911ZM250.312 57.8941L256.222 63.1973C259.864 59.1388 260.763 53.6128 260.763 48.6427H252.823H244.882C244.882 50.3176 244.715 51.4274 244.532 52.1037C244.352 52.7687 244.215 52.8002 244.403 52.5909L250.312 57.8941ZM252.823 48.6427H260.763V21.2469H252.823H244.882V48.6427H252.823ZM252.823 21.2469V29.187H266.807V21.2469V13.3069H252.823V21.2469ZM266.807 21.2469H258.867V49.073H266.807H274.747V21.2469H266.807ZM266.807 49.073H258.867C258.867 55.0285 257.248 58.4994 255.019 60.6773L260.568 66.3567L266.117 72.036C272.207 66.0861 274.747 58.0344 274.747 49.073H266.807ZM260.568 66.3567L255.019 60.6773C252.72 62.9234 249.144 64.5125 243.212 64.5125V72.4526V80.3926C252.102 80.3926 260.097 77.9178 266.117 72.036L260.568 66.3567ZM282.164 70.9465L280.034 78.5955L280.091 78.6114L280.148 78.6264L282.164 70.9465ZM272.913 66.9304L265.659 63.701L262.96 69.7642L268.448 73.4962L272.913 66.9304ZM277.574 56.4598L281.846 49.7669L274.072 44.8045L270.321 53.2304L277.574 56.4598ZM285.32 60.0456L282.846 67.5905L282.919 67.6145L282.993 67.6372L285.32 60.0456ZM298.874 60.9062L301.015 68.5522L301.155 68.5129L301.294 68.4685L298.874 60.9062ZM301.456 59.4719L295.622 54.0863L295.612 54.0964L295.603 54.1066L301.456 59.4719ZM300.739 54.5951L296.476 61.2939V61.2939L300.739 54.5951ZM296.651 52.9457L298.628 45.2558L298.628 45.2558L296.651 52.9457ZM291.057 51.6548L289.393 59.4186L289.412 59.4225L289.43 59.4264L291.057 51.6548ZM284.961 50.0053L282.45 57.5379L282.477 57.5467L282.503 57.5552L284.961 50.0053ZM279.439 47.4235L275.078 54.059L275.145 54.1031L275.213 54.1458L279.439 47.4235ZM275.351 43.1922L268.526 47.2502L268.551 47.2915L268.576 47.3325L275.351 43.1922ZM276.212 28.3469L269.665 23.854L269.635 23.8981L269.605 23.9425L276.212 28.3469ZM283.67 22.4661L280.416 15.2234V15.2234L283.67 22.4661ZM305.687 21.3904L303.816 29.1069L303.884 29.1233L303.952 29.1386L305.687 21.3904ZM314.221 24.6176L321.555 27.6608L324.227 21.2231L318.189 17.74L314.221 24.6176ZM309.847 35.1599L306.074 42.1464L313.811 46.3241L317.18 38.2032L309.847 35.1599ZM302.747 32.2913L300.565 39.9258L300.638 39.9465L300.711 39.9658L302.747 32.2913ZM291.2 31.9327L293.62 39.495L293.756 39.4516L293.89 39.4034L291.2 31.9327ZM288.619 33.5105L282.375 28.6049V28.6049L288.619 33.5105ZM289.336 38.4589L284.931 45.0654L285.111 45.185L285.296 45.2947L289.336 38.4589ZM293.424 40.0367L291.446 47.7266L291.573 47.7592L291.701 47.7876L293.424 40.0367ZM299.018 41.2559L297.354 49.0197L297.372 49.0236L297.391 49.0275L299.018 41.2559ZM305.113 42.9053L302.603 50.4379L302.709 50.4733L302.816 50.5056L305.113 42.9053ZM310.707 45.4871L306.347 52.1227L306.414 52.1668L306.482 52.2095L310.707 45.4871ZM314.723 49.7184L307.818 53.6377L307.881 53.7493L307.948 53.8588L314.723 49.7184ZM313.791 64.3486L307.204 59.9151L307.194 59.9296L307.185 59.9443L313.791 64.3486ZM306.404 70.2294L303.15 62.9867L303.131 62.9956L303.111 63.0047L306.404 70.2294ZM294.069 72.4526V64.5125C290.611 64.5125 287.321 64.0912 284.18 63.2667L282.164 70.9465L280.148 78.6264C284.657 79.8099 289.304 80.3926 294.069 80.3926V72.4526ZM282.164 70.9465L284.294 63.2975C281.073 62.4005 278.85 61.3661 277.377 60.3646L272.913 66.9304L268.448 73.4962C271.756 75.7459 275.701 77.3889 280.034 78.5955L282.164 70.9465ZM272.913 66.9304L280.166 70.1598L284.828 59.6891L277.574 56.4598L270.321 53.2304L265.659 63.701L272.913 66.9304ZM277.574 56.4598L273.302 63.1526C276.188 64.9945 279.39 66.4574 282.846 67.5905L285.32 60.0456L287.793 52.5007C285.416 51.7214 283.455 50.7938 281.846 49.7669L277.574 56.4598ZM285.32 60.0456L282.993 67.6372C286.664 68.762 290.388 69.3483 294.141 69.3483V61.4082V53.4682C292.061 53.4682 289.904 53.146 287.646 52.454L285.32 60.0456ZM294.141 61.4082V69.3483C296.458 69.3483 298.841 69.1609 301.015 68.5522L298.874 60.9062L296.733 53.2602C296.517 53.3209 295.744 53.4682 294.141 53.4682V61.4082ZM298.874 60.9062L301.294 68.4685C303.081 67.8966 305.443 66.8725 307.309 64.8372L301.456 59.4719L295.603 54.1066C296.046 53.6231 296.433 53.3907 296.56 53.3199C296.691 53.247 296.682 53.2709 296.454 53.3439L298.874 60.9062ZM301.456 59.4719L307.29 64.8575C309.157 62.835 310.257 60.217 310.257 57.3204H302.316H294.376C294.376 56.7702 294.478 56.1468 294.729 55.519C294.978 54.8965 295.314 54.4194 295.622 54.0863L301.456 59.4719ZM302.316 57.3204H310.257C310.257 53.189 308.107 49.8726 305.002 47.8964L300.739 54.5951L296.476 61.2939C296.128 61.0722 295.536 60.5948 295.051 59.7567C294.549 58.891 294.376 58.0097 294.376 57.3204H302.316ZM300.739 54.5951L305.002 47.8964C303.031 46.6427 300.823 45.8201 298.628 45.2558L296.651 52.9457L294.673 60.6355C295.826 60.9319 296.342 61.2089 296.476 61.2939L300.739 54.5951ZM296.651 52.9457L298.628 45.2558C296.817 44.79 294.833 44.333 292.684 43.8831L291.057 51.6548L289.43 59.4264C291.393 59.8371 293.138 60.2407 294.673 60.6355L296.651 52.9457ZM291.057 51.6548L292.721 43.891C290.995 43.5211 289.228 43.0441 287.419 42.4553L284.961 50.0053L282.503 57.5552C284.806 58.3051 287.103 58.9278 289.393 59.4186L291.057 51.6548ZM284.961 50.0053L287.472 42.4727C286.023 41.9898 284.764 41.3924 283.664 40.7011L279.439 47.4235L275.213 54.1458C277.46 55.5583 279.883 56.682 282.45 57.5379L284.961 50.0053ZM279.439 47.4235L283.799 40.7879C283.113 40.3366 282.572 39.781 282.126 39.0519L275.351 43.1922L268.576 47.3325C270.234 50.0458 272.418 52.3111 275.078 54.059L279.439 47.4235ZM275.351 43.1922L282.176 39.1342C282.042 38.9098 281.713 38.1918 281.713 36.5226H273.773H265.833C265.833 40.2082 266.556 43.9366 268.526 47.2502L275.351 43.1922ZM273.773 36.5226H281.713C281.713 35.0317 282.087 33.8473 282.818 32.7512L276.212 28.3469L269.605 23.9425C267.085 27.7231 265.833 31.9892 265.833 36.5226H273.773ZM276.212 28.3469L282.758 32.8397C283.441 31.8449 284.658 30.7269 286.924 29.7088L283.67 22.4661L280.416 15.2234C276.084 17.1696 272.329 19.9721 269.665 23.854L276.212 28.3469ZM283.67 22.4661L286.924 29.7088C288.901 28.8207 291.82 28.1829 296.005 28.1829V20.2429V12.3028C290.341 12.3028 285.038 13.1472 280.416 15.2234L283.67 22.4661ZM296.005 20.2429V28.1829C298.684 28.1829 301.283 28.4928 303.816 29.1069L305.687 21.3904L307.558 13.6738C303.78 12.758 299.924 12.3028 296.005 12.3028V20.2429ZM305.687 21.3904L303.952 29.1386C306.482 29.705 308.555 30.5153 310.254 31.4952L314.221 24.6176L318.189 17.74C314.915 15.8512 311.299 14.5101 307.422 13.6421L305.687 21.3904ZM314.221 24.6176L306.888 21.5744L302.513 32.1167L309.847 35.1599L317.18 38.2032L321.555 27.6608L314.221 24.6176ZM309.847 35.1599L313.619 28.1734C310.744 26.6208 307.797 25.4164 304.783 24.6167L302.747 32.2913L300.711 39.9658C302.382 40.4092 304.168 41.1172 306.074 42.1464L309.847 35.1599ZM302.747 32.2913L304.928 24.6567C301.952 23.8063 298.945 23.3472 295.934 23.3472V31.2872V39.2273C297.321 39.2273 298.857 39.4376 300.565 39.9258L302.747 32.2913ZM295.934 31.2872V23.3472C293.5 23.3472 290.905 23.6 288.511 24.462L291.2 31.9327L293.89 39.4034C293.852 39.417 293.983 39.3663 294.353 39.3158C294.716 39.2663 295.234 39.2273 295.934 39.2273V31.2872ZM291.2 31.9327L288.781 24.3704C286.752 25.0195 284.245 26.2258 282.375 28.6049L288.619 33.5105L294.862 38.416C294.444 38.9481 294.03 39.2481 293.799 39.3891C293.577 39.5248 293.486 39.5381 293.62 39.495L291.2 31.9327ZM288.619 33.5105L282.375 28.6049C280.737 30.6898 279.89 33.1869 279.89 35.8054H287.83H295.77C295.77 36.197 295.708 36.6675 295.536 37.1674C295.364 37.6682 295.119 38.089 294.862 38.416L288.619 33.5105ZM287.83 35.8054H279.89C279.89 39.8511 281.972 43.0927 284.931 45.0654L289.336 38.4589L293.74 31.8524C294.079 32.0783 294.646 32.5541 295.112 33.3743C295.593 34.2231 295.77 35.0963 295.77 35.8054H287.83ZM289.336 38.4589L285.296 45.2947C287.197 46.4177 289.323 47.1805 291.446 47.7266L293.424 40.0367L295.401 32.3468C294.178 32.0323 293.578 31.7432 293.375 31.6231L289.336 38.4589ZM293.424 40.0367L291.701 47.7876C293.445 48.1751 295.329 48.5858 297.354 49.0197L299.018 41.2559L300.681 33.492C298.69 33.0653 296.845 32.6632 295.146 32.2857L293.424 40.0367ZM299.018 41.2559L297.391 49.0275C299.145 49.3947 300.882 49.8645 302.603 50.4379L305.113 42.9053L307.624 35.3727C305.329 34.6075 303.001 33.9776 300.644 33.4842L299.018 41.2559ZM305.113 42.9053L302.816 50.5056C304.194 50.9224 305.356 51.4714 306.347 52.1227L310.707 45.4871L315.068 38.8516C312.712 37.3036 310.145 36.1314 307.411 35.305L305.113 42.9053ZM310.707 45.4871L306.482 52.2095C307.011 52.542 307.442 52.9756 307.818 53.6377L314.723 49.7184L321.629 45.7992C319.997 42.9232 317.751 40.536 314.933 38.7648L310.707 45.4871ZM314.723 49.7184L307.948 53.8588C308.04 54.0084 308.361 54.6416 308.361 56.2446H316.301H324.241C324.241 52.5884 323.511 48.8708 321.499 45.5781L314.723 49.7184ZM316.301 56.2446H308.361C308.361 57.5359 308.021 58.7009 307.204 59.9151L313.791 64.3486L320.378 68.7821C322.908 65.024 324.241 60.7863 324.241 56.2446H316.301ZM313.791 64.3486L307.185 59.9443C306.562 60.8782 305.406 61.9733 303.15 62.9867L306.404 70.2294L309.658 77.472C314.001 75.5211 317.769 72.6958 320.398 68.753L313.791 64.3486ZM306.404 70.2294L303.111 63.0047C301.215 63.8687 298.322 64.5125 294.069 64.5125V72.4526V80.3926C299.761 80.3926 305.091 79.5543 309.698 77.4541L306.404 70.2294Z" fill="#FFF438" mask="url(#path-3-outside-2_41_5)"/>
<defs>
<filter id="filter0_ddi_41_5" x="0.377293" y="0.19425" width="358.815" height="139.947" filterUnits="userSpaceOnUse" color-interpolation-filters="sRGB">
<feFlood flood-opacity="0" result="BackgroundImageFix"/>
<feColorMatrix in="SourceAlpha" type="matrix" values="0 0 0 0 0 0 0 0 0 0 0 0 0 0 0 0 0 0 127 0" result="hardAlpha"/>
<feOffset dy="12.9026"/>
<feGaussianBlur stdDeviation="4.96253"/>
<feColorMatrix type="matrix" values="0 0 0 0 0.224 0 0 0 0 0.15 0 0 0 0 0 0 0 0 0.7 0"/>
<feBlend mode="multiply" in2="BackgroundImageFix" result="effect1_dropShadow_41_5"/>
<feColorMatrix in="SourceAlpha" type="matrix" values="0 0 0 0 0 0 0 0 0 0 0 0 0 0 0 0 0 0 127 0" result="hardAlpha"/>
<feOffset dy="23.8202"/>
<feGaussianBlur stdDeviation="15.4831"/>
<feColorMatrix type="matrix" values="0 0 0 0 0.56 0 0 0 0 0.44 0 0 0 0 0 0 0 0 1 0"/>
<feBlend mode="color-dodge" in2="effect1_dropShadow_41_5" result="effect2_dropShadow_41_5"/>
<feBlend mode="normal" in="SourceGraphic" in2="effect2_dropShadow_41_5" result="shape"/>
<feColorMatrix in="SourceAlpha" type="matrix" values="0 0 0 0 0 0 0 0 0 0 0 0 0 0 0 0 0 0 127 0" result="hardAlpha"/>
<feOffset dx="-1.29026" dy="2.58052"/>
<feGaussianBlur stdDeviation="0.645129"/>
<feComposite in2="hardAlpha" operator="arithmetic" k2="-1" k3="1"/>
<feColorMatrix type="matrix" values="0 0 0 0 1 0 0 0 0 1 0 0 0 0 1 0 0 0 0.5 0"/>
<feBlend mode="normal" in2="shape" result="effect3_innerShadow_41_5"/>
</filter>
</defs>
</svg>
