<svg width="525" height="127" viewBox="0 0 525 127" fill="none" xmlns="http://www.w3.org/2000/svg">
<g style="mix-blend-mode:hard-light" filter="url(#filter0_ddi_41_6)">
<mask id="path-1-outside-1_41_6" maskUnits="userSpaceOnUse" x="24.8135" y="5.66838" width="475" height="78" fill="black">
<rect fill="white" x="24.8135" y="5.66838" width="475" height="78"/>
<path d="M44.8271 67.6684V27.5326H63.1749C66.8444 27.5326 69.998 28.125 72.6355 29.31C75.3112 30.495 77.3753 32.2151 78.8278 34.4703C80.2804 36.6873 81.0066 39.3248 81.0066 42.3828C81.0066 45.4026 80.2804 48.0209 78.8278 50.238C77.3753 52.4168 75.3112 54.0986 72.6355 55.2836C69.998 56.4303 66.8444 57.0037 63.1749 57.0037H51.1341L56.1798 52.2448V67.6684H44.8271ZM69.6539 67.6684L59.6773 53.0475H71.7754L81.8094 67.6684H69.6539ZM56.1798 53.4488L51.1341 48.2312H62.4868C64.8567 48.2312 66.6151 47.7151 67.7618 46.6831C68.9468 45.651 69.5393 44.2176 69.5393 42.3828C69.5393 40.5098 68.9468 39.0573 67.7618 38.0252C66.6151 36.9931 64.8567 36.4771 62.4868 36.4771H51.1341L56.1798 31.2595V53.4488ZM97.7051 43.0709H116.34V51.5567H97.7051V43.0709ZM98.5078 58.8958H119.493V67.6684H87.2698V27.5326H118.748V36.3051H98.5078V58.8958ZM136.343 45.135H154.863V53.9075H136.343V45.135ZM137.146 67.6684H125.793V27.5326H157.271V36.3051H137.146V67.6684ZM173.016 43.0709H191.65V51.5567H173.016V43.0709ZM173.818 58.8958H194.804V67.6684H162.58V27.5326H194.058V36.3051H173.818V58.8958ZM201.104 67.6684V27.5326H219.451C223.121 27.5326 226.275 28.125 228.912 29.31C231.588 30.495 233.652 32.2151 235.104 34.4703C236.557 36.6873 237.283 39.3248 237.283 42.3828C237.283 45.4026 236.557 48.0209 235.104 50.238C233.652 52.4168 231.588 54.0986 228.912 55.2836C226.275 56.4303 223.121 57.0037 219.451 57.0037H207.411L212.456 52.2448V67.6684H201.104ZM225.931 67.6684L215.954 53.0475H228.052L238.086 67.6684H225.931ZM212.456 53.4488L207.411 48.2312H218.763C221.133 48.2312 222.892 47.7151 224.038 46.6831C225.223 45.651 225.816 44.2176 225.816 42.3828C225.816 40.5098 225.223 39.0573 224.038 38.0252C222.892 36.9931 221.133 36.4771 218.763 36.4771H207.411L212.456 31.2595V53.4488ZM273.993 68.4711C270.935 68.4711 268.202 67.9933 265.794 67.0377C263.386 66.0438 261.475 64.6869 260.06 62.9668C258.684 61.2466 257.996 59.3163 257.996 57.1757C257.996 55.0734 258.455 53.2004 259.372 51.5567C260.328 49.9131 261.78 48.4032 263.73 47.0271C265.718 45.651 268.24 44.3323 271.298 43.0709C273.324 42.1917 274.911 41.4081 276.057 40.72C277.204 40.032 278.007 39.3822 278.465 38.7706C278.962 38.1208 279.211 37.4709 279.211 36.8211C279.211 36.0184 278.943 35.3686 278.408 34.8717C277.873 34.3748 277.07 34.1263 276 34.1263C274.891 34.1263 274.012 34.413 273.362 34.9863C272.751 35.5597 272.445 36.2669 272.445 37.1078C272.445 37.6047 272.541 38.1017 272.732 38.5986C272.961 39.0955 273.382 39.6689 273.993 40.3187C274.643 40.9685 275.541 41.8094 276.688 42.8415L297.845 61.648L291.997 68.3564L268.145 47.0844C266.845 45.9377 265.775 44.8292 264.934 43.7589C264.131 42.6886 263.52 41.6183 263.099 40.548C262.717 39.4777 262.526 38.3883 262.526 37.2798C262.526 35.2157 263.08 33.4191 264.189 31.8902C265.297 30.323 266.864 29.1189 268.89 28.2779C270.916 27.3988 273.286 26.9592 276 26.9592C278.485 26.9592 280.644 27.3414 282.479 28.1059C284.352 28.8704 285.805 29.9789 286.837 31.4315C287.869 32.884 288.385 34.6041 288.385 36.5918C288.385 38.3501 287.926 39.9555 287.009 41.4081C286.13 42.8606 284.753 44.1985 282.88 45.4217C281.046 46.6449 278.695 47.8489 275.828 49.0339C274.07 49.7602 272.655 50.4864 271.585 51.2127C270.553 51.939 269.808 52.6843 269.349 53.4488C268.89 54.1751 268.661 55.016 268.661 55.9717C268.661 56.7361 268.909 57.4433 269.406 58.0931C269.903 58.7429 270.61 59.259 271.528 59.6412C272.445 59.9852 273.535 60.1572 274.796 60.1572C277.013 60.1572 279.058 59.6221 280.931 58.5518C282.804 57.4433 284.409 55.8379 285.747 53.7355C287.123 51.6332 288.06 49.0912 288.557 46.1097L297.329 48.7472C296.488 52.6843 294.959 56.1246 292.742 59.0678C290.564 62.0111 287.869 64.3237 284.658 66.0056C281.485 67.6493 277.93 68.4711 273.993 68.4711ZM330.468 43.0709H349.103V51.5567H330.468V43.0709ZM331.271 58.8958H352.256V67.6684H320.033V27.5326H351.511V36.3051H331.271V58.8958ZM353.74 67.6684L371.457 27.5326H382.638L400.412 67.6684H388.601L374.725 33.0942H379.197L365.322 67.6684H353.74ZM363.43 59.8706L366.354 51.4994H385.963L388.887 59.8706H363.43ZM403.631 67.6684V27.5326H421.978C425.648 27.5326 428.801 28.125 431.439 29.31C434.115 30.495 436.179 32.2151 437.631 34.4703C439.084 36.6873 439.81 39.3248 439.81 42.3828C439.81 45.4026 439.084 48.0209 437.631 50.238C436.179 52.4168 434.115 54.0986 431.439 55.2836C428.801 56.4303 425.648 57.0037 421.978 57.0037H409.938L414.983 52.2448V67.6684H403.631ZM428.457 67.6684L418.481 53.0475H430.579L440.613 67.6684H428.457ZM414.983 53.4488L409.938 48.2312H421.29C423.66 48.2312 425.419 47.7151 426.565 46.6831C427.75 45.651 428.343 44.2176 428.343 42.3828C428.343 40.5098 427.75 39.0573 426.565 38.0252C425.419 36.9931 423.66 36.4771 421.29 36.4771H409.938L414.983 31.2595V53.4488ZM446.073 67.6684V27.5326H455.419L477.551 54.2515H473.136V27.5326H484.26V67.6684H474.914L452.782 40.9494H457.197V67.6684H446.073Z"/>
</mask>
<path d="M44.8271 67.6684H34.5115V77.9839H44.8271V67.6684ZM44.8271 27.5326V17.217H34.5115V27.5326H44.8271ZM72.6355 29.31L68.408 38.7195L68.4332 38.7308L68.4584 38.742L72.6355 29.31ZM78.8278 34.4703L70.1554 40.056L70.1772 40.0898L70.1993 40.1235L78.8278 34.4703ZM78.8278 50.238L87.4109 55.96L87.4338 55.9257L87.4564 55.8911L78.8278 50.238ZM72.6355 55.2836L76.7485 64.7437L76.7805 64.7297L76.8125 64.7156L72.6355 55.2836ZM51.1341 57.0037L44.0562 49.4995L25.163 67.3192H51.1341V57.0037ZM56.1798 52.2448H66.4953V28.3354L49.1019 44.7405L56.1798 52.2448ZM56.1798 67.6684V77.9839H66.4953V67.6684H56.1798ZM69.6539 67.6684L61.1331 73.4826L64.2046 77.9839H69.6539V67.6684ZM59.6773 53.0475V42.7319H40.1503L51.1565 58.8617L59.6773 53.0475ZM71.7754 53.0475L80.2807 47.2105L77.2072 42.7319H71.7754V53.0475ZM81.8094 67.6684V77.9839H101.4L90.3146 61.8314L81.8094 67.6684ZM56.1798 53.4488L48.7644 60.6198L66.4953 78.9551V53.4488H56.1798ZM51.1341 48.2312V37.9157H26.8088L43.7187 55.4021L51.1341 48.2312ZM67.7618 46.6831L60.9868 38.9043L60.9235 38.9595L60.8611 39.0156L67.7618 46.6831ZM67.7618 38.0252L60.8611 45.6927L60.9235 45.7488L60.9868 45.804L67.7618 38.0252ZM51.1341 36.4771L43.7187 29.3062L26.8088 46.7926H51.1341V36.4771ZM56.1798 31.2595H66.4953V5.75316L48.7644 24.0885L56.1798 31.2595ZM55.1426 67.6684V27.5326H34.5115V67.6684H55.1426ZM44.8271 37.8481H63.1749V17.217H44.8271V37.8481ZM63.1749 37.8481C65.7657 37.8481 67.4065 38.2696 68.408 38.7195L76.8629 19.9005C72.5894 17.9805 67.9232 17.217 63.1749 17.217V37.8481ZM68.4584 38.742C69.4668 39.1886 69.8926 39.6479 70.1554 40.056L87.5003 28.8847C84.858 24.7822 81.1556 21.8014 76.8125 19.878L68.4584 38.742ZM70.1993 40.1235C70.3896 40.414 70.6911 41.0167 70.6911 42.3828H91.3222C91.3222 37.633 90.1711 32.9607 87.4564 28.8171L70.1993 40.1235ZM70.6911 42.3828C70.6911 43.6821 70.4033 44.2734 70.1993 44.5848L87.4564 55.8911C90.1574 51.7685 91.3222 47.123 91.3222 42.3828H70.6911ZM70.2448 44.5159C70.0035 44.8778 69.5602 45.3637 68.4584 45.8516L76.8125 64.7156C81.0621 62.8336 84.7471 59.9557 87.4109 55.96L70.2448 44.5159ZM68.5224 45.8236C67.4878 46.2734 65.8048 46.6882 63.1749 46.6882V67.3192C67.884 67.3192 72.5081 66.5873 76.7485 64.7437L68.5224 45.8236ZM63.1749 46.6882H51.1341V67.3192H63.1749V46.6882ZM58.212 64.508L63.2576 59.749L49.1019 44.7405L44.0562 49.4995L58.212 64.508ZM45.8642 52.2448V67.6684H66.4953V52.2448H45.8642ZM56.1798 57.3529H44.8271V77.9839H56.1798V57.3529ZM78.1748 61.8542L68.1982 47.2332L51.1565 58.8617L61.1331 73.4826L78.1748 61.8542ZM59.6773 63.363H71.7754V42.7319H59.6773V63.363ZM63.2701 58.8844L73.3041 73.5053L90.3146 61.8314L80.2807 47.2105L63.2701 58.8844ZM81.8094 57.3529H69.6539V77.9839H81.8094V57.3529ZM63.5951 46.2779L58.5495 41.0603L43.7187 55.4021L48.7644 60.6198L63.5951 46.2779ZM51.1341 58.5467H62.4868V37.9157H51.1341V58.5467ZM62.4868 58.5467C66.0882 58.5467 70.8297 57.8001 74.6625 54.3505L60.8611 39.0156C61.6318 38.322 62.3507 38.0422 62.6781 37.9461C62.9718 37.8599 62.9602 37.9157 62.4868 37.9157V58.5467ZM74.5368 54.4618C78.3564 51.1351 79.8548 46.6484 79.8548 42.3828H59.2237C59.2237 42.1912 59.256 41.6329 59.5616 40.8935C59.8836 40.1146 60.3916 39.4227 60.9868 38.9043L74.5368 54.4618ZM79.8548 42.3828C79.8548 38.1551 78.4051 33.6155 74.5369 30.2465L60.9868 45.804C60.3651 45.2625 59.8574 44.5546 59.5434 43.7847C59.2474 43.059 59.2237 42.5285 59.2237 42.3828H79.8548ZM74.6625 30.3577C70.8297 26.9081 66.0882 26.1616 62.4868 26.1616V46.7926C62.9602 46.7926 62.9718 46.8484 62.6781 46.7622C62.3507 46.6661 61.6318 46.3863 60.8611 45.6927L74.6625 30.3577ZM62.4868 26.1616H51.1341V46.7926H62.4868V26.1616ZM58.5495 43.648L63.5951 38.4304L48.7644 24.0885L43.7187 29.3062L58.5495 43.648ZM45.8642 31.2595V53.4488H66.4953V31.2595H45.8642ZM97.7051 43.0709V32.7553H87.3896V43.0709H97.7051ZM116.34 43.0709H126.655V32.7553H116.34V43.0709ZM116.34 51.5567V61.8722H126.655V51.5567H116.34ZM97.7051 51.5567H87.3896V61.8722H97.7051V51.5567ZM98.5078 58.8958H88.1923V69.2114H98.5078V58.8958ZM119.493 58.8958H129.809V48.5803H119.493V58.8958ZM119.493 67.6684V77.9839H129.809V67.6684H119.493ZM87.2698 67.6684H76.9543V77.9839H87.2698V67.6684ZM87.2698 27.5326V17.217H76.9543V27.5326H87.2698ZM118.748 27.5326H129.063V17.217H118.748V27.5326ZM118.748 36.3051V46.6206H129.063V36.3051H118.748ZM98.5078 36.3051V25.9896H88.1923V36.3051H98.5078ZM97.7051 53.3864H116.34V32.7553H97.7051V53.3864ZM106.024 43.0709V51.5567H126.655V43.0709H106.024ZM116.34 41.2412H97.7051V61.8722H116.34V41.2412ZM108.021 51.5567V43.0709H87.3896V51.5567H108.021ZM98.5078 69.2114H119.493V48.5803H98.5078V69.2114ZM109.178 58.8958V67.6684H129.809V58.8958H109.178ZM119.493 57.3529H87.2698V77.9839H119.493V57.3529ZM97.5853 67.6684V27.5326H76.9543V67.6684H97.5853ZM87.2698 37.8481H118.748V17.217H87.2698V37.8481ZM108.432 27.5326V36.3051H129.063V27.5326H108.432ZM118.748 25.9896H98.5078V46.6206H118.748V25.9896ZM88.1923 36.3051V58.8958H108.823V36.3051H88.1923ZM136.343 45.135V34.8195H126.027V45.135H136.343ZM154.863 45.135H165.178V34.8195H154.863V45.135ZM154.863 53.9075V64.223H165.178V53.9075H154.863ZM136.343 53.9075H126.027V64.223H136.343V53.9075ZM137.146 67.6684V77.9839H147.461V67.6684H137.146ZM125.793 67.6684H115.477V77.9839H125.793V67.6684ZM125.793 27.5326V17.217H115.477V27.5326H125.793ZM157.271 27.5326H167.586V17.217H157.271V27.5326ZM157.271 36.3051V46.6206H167.586V36.3051H157.271ZM137.146 36.3051V25.9896H126.83V36.3051H137.146ZM136.343 55.4505H154.863V34.8195H136.343V55.4505ZM144.547 45.135V53.9075H165.178V45.135H144.547ZM154.863 43.592H136.343V64.223H154.863V43.592ZM146.659 53.9075V45.135H126.027V53.9075H146.659ZM137.146 57.3529H125.793V77.9839H137.146V57.3529ZM136.109 67.6684V27.5326H115.477V67.6684H136.109ZM125.793 37.8481H157.271V17.217H125.793V37.8481ZM146.955 27.5326V36.3051H167.586V27.5326H146.955ZM157.271 25.9896H137.146V46.6206H157.271V25.9896ZM126.83 36.3051V67.6684H147.461V36.3051H126.83ZM173.016 43.0709V32.7553H162.7V43.0709H173.016ZM191.65 43.0709H201.966V32.7553H191.65V43.0709ZM191.65 51.5567V61.8722H201.966V51.5567H191.65ZM173.016 51.5567H162.7V61.8722H173.016V51.5567ZM173.818 58.8958H163.503V69.2114H173.818V58.8958ZM194.804 58.8958H205.119V48.5803H194.804V58.8958ZM194.804 67.6684V77.9839H205.119V67.6684H194.804ZM162.58 67.6684H152.265V77.9839H162.58V67.6684ZM162.58 27.5326V17.217H152.265V27.5326H162.58ZM194.058 27.5326H204.374V17.217H194.058V27.5326ZM194.058 36.3051V46.6206H204.374V36.3051H194.058ZM173.818 36.3051V25.9896H163.503V36.3051H173.818ZM173.016 53.3864H191.65V32.7553H173.016V53.3864ZM181.335 43.0709V51.5567H201.966V43.0709H181.335ZM191.65 41.2412H173.016V61.8722H191.65V41.2412ZM183.331 51.5567V43.0709H162.7V51.5567H183.331ZM173.818 69.2114H194.804V48.5803H173.818V69.2114ZM184.488 58.8958V67.6684H205.119V58.8958H184.488ZM194.804 57.3529H162.58V77.9839H194.804V57.3529ZM172.896 67.6684V27.5326H152.265V67.6684H172.896ZM162.58 37.8481H194.058V17.217H162.58V37.8481ZM183.743 27.5326V36.3051H204.374V27.5326H183.743ZM194.058 25.9896H173.818V46.6206H194.058V25.9896ZM163.503 36.3051V58.8958H184.134V36.3051H163.503ZM201.104 67.6684H190.788V77.9839H201.104V67.6684ZM201.104 27.5326V17.217H190.788V27.5326H201.104ZM228.912 29.31L224.685 38.7195L224.71 38.7308L224.735 38.742L228.912 29.31ZM235.104 34.4703L226.432 40.056L226.454 40.0898L226.476 40.1235L235.104 34.4703ZM235.104 50.238L243.688 55.96L243.71 55.9257L243.733 55.8911L235.104 50.238ZM228.912 55.2836L233.025 64.7437L233.057 64.7297L233.089 64.7156L228.912 55.2836ZM207.411 57.0037L200.333 49.4995L181.44 67.3192H207.411V57.0037ZM212.456 52.2448H222.772V28.3354L205.379 44.7405L212.456 52.2448ZM212.456 67.6684V77.9839H222.772V67.6684H212.456ZM225.931 67.6684L217.41 73.4826L220.481 77.9839H225.931V67.6684ZM215.954 53.0475V42.7319H196.427L207.433 58.8617L215.954 53.0475ZM228.052 53.0475L236.557 47.2105L233.484 42.7319H228.052V53.0475ZM238.086 67.6684V77.9839H257.676L246.591 61.8314L238.086 67.6684ZM212.456 53.4488L205.041 60.6198L222.772 78.9551V53.4488H212.456ZM207.411 48.2312V37.9157H183.085L199.995 55.4021L207.411 48.2312ZM224.038 46.6831L217.263 38.9043L217.2 38.9595L217.138 39.0156L224.038 46.6831ZM224.038 38.0252L217.138 45.6927L217.2 45.7488L217.263 45.804L224.038 38.0252ZM207.411 36.4771L199.995 29.3062L183.085 46.7926H207.411V36.4771ZM212.456 31.2595H222.772V5.75316L205.041 24.0885L212.456 31.2595ZM211.419 67.6684V27.5326H190.788V67.6684H211.419ZM201.104 37.8481H219.451V17.217H201.104V37.8481ZM219.451 37.8481C222.042 37.8481 223.683 38.2696 224.685 38.7195L233.14 19.9005C228.866 17.9805 224.2 17.217 219.451 17.217V37.8481ZM224.735 38.742C225.743 39.1886 226.169 39.6479 226.432 40.056L243.777 28.8847C241.135 24.7822 237.432 21.8014 233.089 19.878L224.735 38.742ZM226.476 40.1235C226.666 40.414 226.968 41.0167 226.968 42.3828H247.599C247.599 37.633 246.448 32.9607 243.733 28.8171L226.476 40.1235ZM226.968 42.3828C226.968 43.6821 226.68 44.2734 226.476 44.5848L243.733 55.8911C246.434 51.7685 247.599 47.123 247.599 42.3828H226.968ZM226.521 44.5159C226.28 44.8778 225.837 45.3637 224.735 45.8516L233.089 64.7156C237.339 62.8336 241.024 59.9557 243.688 55.96L226.521 44.5159ZM224.799 45.8236C223.764 46.2734 222.081 46.6882 219.451 46.6882V67.3192C224.161 67.3192 228.785 66.5873 233.025 64.7437L224.799 45.8236ZM219.451 46.6882H207.411V67.3192H219.451V46.6882ZM214.489 64.508L219.534 59.749L205.379 44.7405L200.333 49.4995L214.489 64.508ZM202.141 52.2448V67.6684H222.772V52.2448H202.141ZM212.456 57.3529H201.104V77.9839H212.456V57.3529ZM234.451 61.8542L224.475 47.2332L207.433 58.8617L217.41 73.4826L234.451 61.8542ZM215.954 63.363H228.052V42.7319H215.954V63.363ZM219.547 58.8844L229.581 73.5053L246.591 61.8314L236.557 47.2105L219.547 58.8844ZM238.086 57.3529H225.931V77.9839H238.086V57.3529ZM219.872 46.2779L214.826 41.0603L199.995 55.4021L205.041 60.6198L219.872 46.2779ZM207.411 58.5467H218.763V37.9157H207.411V58.5467ZM218.763 58.5467C222.365 58.5467 227.106 57.8001 230.939 54.3505L217.138 39.0156C217.908 38.322 218.627 38.0422 218.955 37.9461C219.248 37.8599 219.237 37.9157 218.763 37.9157V58.5467ZM230.813 54.4618C234.633 51.1351 236.131 46.6484 236.131 42.3828H215.5C215.5 42.1912 215.533 41.6329 215.838 40.8935C216.16 40.1146 216.668 39.4227 217.263 38.9043L230.813 54.4618ZM236.131 42.3828C236.131 38.1551 234.682 33.6155 230.813 30.2465L217.263 45.804C216.642 45.2625 216.134 44.5546 215.82 43.7847C215.524 43.059 215.5 42.5285 215.5 42.3828H236.131ZM230.939 30.3577C227.106 26.9081 222.365 26.1616 218.763 26.1616V46.7926C219.237 46.7926 219.248 46.8484 218.955 46.7622C218.627 46.6661 217.908 46.3863 217.138 45.6927L230.939 30.3577ZM218.763 26.1616H207.411V46.7926H218.763V26.1616ZM214.826 43.648L219.872 38.4304L205.041 24.0885L199.995 29.3062L214.826 43.648ZM202.141 31.2595V53.4488H222.772V31.2595H202.141ZM265.794 67.0377L261.859 76.5731L261.924 76.5999L261.989 76.6259L265.794 67.0377ZM260.06 62.9668L252.005 69.4108L252.048 69.4648L252.092 69.5182L260.06 62.9668ZM259.372 51.5567L250.454 46.3719L250.409 46.4502L250.365 46.5293L259.372 51.5567ZM263.73 47.0271L257.858 38.5458L257.82 38.5725L257.781 38.5996L263.73 47.0271ZM271.298 43.0709L275.232 52.6069L275.319 52.5711L275.405 52.5337L271.298 43.0709ZM278.465 38.7706L270.271 32.5044L270.242 32.5427L270.213 32.5813L278.465 38.7706ZM273.363 34.9863L266.538 27.2514L266.421 27.3544L266.307 27.4608L273.363 34.9863ZM272.732 38.5986L263.104 42.3016L263.225 42.6158L263.366 42.9214L272.732 38.5986ZM273.993 40.3187L266.481 47.3886L266.589 47.5024L266.699 47.6129L273.993 40.3187ZM276.688 42.8415L269.787 50.509L269.811 50.5303L269.835 50.5514L276.688 42.8415ZM297.845 61.648L305.621 68.4267L312.335 60.7257L304.699 53.9381L297.845 61.648ZM291.997 68.3564L285.131 76.0551L292.917 82.9988L299.773 75.1351L291.997 68.3564ZM268.145 47.0844L275.011 39.3858L274.99 39.3676L274.97 39.3495L268.145 47.0844ZM264.934 43.7589L256.682 49.9482L256.751 50.0409L256.823 50.132L264.934 43.7589ZM263.099 40.548L253.385 44.0175L253.439 44.1696L253.498 44.3199L263.099 40.548ZM264.189 31.8902L272.54 37.945L272.576 37.8962L272.61 37.847L264.189 31.8902ZM268.89 28.2779L272.845 37.8053L272.921 37.7737L272.997 37.7408L268.89 28.2779ZM282.479 28.1059L278.512 37.6279L278.546 37.6424L278.581 37.6565L282.479 28.1059ZM287.009 41.4081L278.287 35.8997L278.235 35.9827L278.184 36.0667L287.009 41.4081ZM282.88 45.4217L277.24 36.7848L277.199 36.8115L277.158 36.8386L282.88 45.4217ZM275.828 49.0339L279.766 58.5681L279.768 58.5672L275.828 49.0339ZM271.585 51.2127L265.793 42.6769L265.72 42.7261L265.649 42.7766L271.585 51.2127ZM269.349 53.4488L278.071 58.9573L278.134 58.8574L278.194 58.7561L269.349 53.4488ZM269.406 58.0931L261.212 64.3593V64.3593L269.406 58.0931ZM271.528 59.6412L267.56 69.1632L267.732 69.2347L267.906 69.2999L271.528 59.6412ZM280.931 58.5518L286.049 67.5082L286.117 67.4692L286.185 67.4291L280.931 58.5518ZM285.747 53.7355L277.116 48.0861L277.08 48.1415L277.044 48.1974L285.747 53.7355ZM288.557 46.1097L291.527 36.231L280.308 32.8579L278.382 44.4138L288.557 46.1097ZM297.329 48.7472L307.417 50.9019L309.403 41.6055L300.299 38.8685L297.329 48.7472ZM292.742 59.0678L284.503 52.8614L284.477 52.8958L284.451 52.9303L292.742 59.0678ZM284.658 66.0056L289.403 75.1649L289.424 75.1542L289.444 75.1434L284.658 66.0056ZM273.993 58.1556C272.008 58.1556 270.599 57.8463 269.599 57.4495L261.989 76.6259C265.806 78.1403 269.863 78.7866 273.993 78.7866V58.1556ZM269.729 57.5023C268.623 57.0458 268.195 56.6176 268.028 56.4153L252.092 69.5182C254.755 72.7561 258.149 75.0419 261.859 76.5731L269.729 57.5023ZM268.115 56.5227C268.089 56.4899 268.161 56.5737 268.229 56.7655C268.299 56.961 268.312 57.1189 268.312 57.1757H247.681C247.681 61.7314 249.212 65.9192 252.005 69.4108L268.115 56.5227ZM268.312 57.1757C268.312 56.8777 268.344 56.7128 268.36 56.648C268.368 56.614 268.374 56.5966 268.377 56.5914C268.378 56.5864 268.379 56.5851 268.38 56.5841L250.365 46.5293C248.493 49.8831 247.681 53.5232 247.681 57.1757H268.312ZM268.29 56.7415C268.336 56.6627 268.641 56.1872 269.679 55.4545L257.781 38.5996C254.92 40.6192 252.32 43.1634 250.454 46.3719L268.29 56.7415ZM269.602 55.5084C270.807 54.6737 272.625 53.6821 275.232 52.6069L267.365 33.5348C263.855 34.9824 260.628 36.6284 257.858 38.5458L269.602 55.5084ZM275.405 52.5337C277.615 51.5745 279.665 50.5856 281.365 49.5655L270.75 31.8746C270.157 32.2306 269.033 32.8089 267.192 33.608L275.405 52.5337ZM281.365 49.5655C282.928 48.6277 285.071 47.1554 286.718 44.9599L270.213 32.5813C270.435 32.2857 270.631 32.0744 270.763 31.9423C270.896 31.8089 270.992 31.729 271.029 31.699C271.093 31.6474 271.024 31.7104 270.75 31.8746L281.365 49.5655ZM286.66 45.0368C288.171 43.0605 289.526 40.2666 289.526 36.8211H268.895C268.895 34.6753 269.754 33.181 270.271 32.5044L286.66 45.0368ZM289.526 36.8211C289.526 33.4664 288.286 29.9666 285.427 27.3125L271.389 42.4308C270.608 41.7058 269.928 40.7671 269.472 39.6594C269.025 38.5737 268.895 37.5769 268.895 36.8211H289.526ZM285.427 27.3125C282.259 24.3704 278.478 23.8108 276 23.8108V44.4418C275.662 44.4418 273.487 44.3791 271.389 42.4308L285.427 27.3125ZM276 23.8108C273.1 23.8108 269.551 24.5926 266.538 27.2514L280.187 42.7213C278.474 44.2334 276.683 44.4418 276 44.4418V23.8108ZM266.307 27.4608C263.608 29.9912 262.13 33.4257 262.13 37.1078H282.761C282.761 37.9657 282.598 38.9879 282.143 40.0411C281.687 41.095 281.051 41.9181 280.418 42.5119L266.307 27.4608ZM262.13 37.1078C262.13 38.9588 262.491 40.708 263.104 42.3016L282.36 34.8955C282.59 35.4953 282.761 36.2506 282.761 37.1078H262.13ZM263.366 42.9214C264.261 44.8621 265.525 46.372 266.481 47.3886L281.505 33.2488C281.418 33.1569 281.446 33.1757 281.538 33.3011C281.621 33.4151 281.853 33.7448 282.098 34.2758L263.366 42.9214ZM266.699 47.6129C267.533 48.4472 268.583 49.4251 269.787 50.509L283.589 35.174C282.5 34.1938 281.753 33.4899 281.287 33.0245L266.699 47.6129ZM269.835 50.5514L290.992 69.3579L304.699 53.9381L283.541 35.1316L269.835 50.5514ZM290.07 54.8693L284.221 61.5777L299.773 75.1351L305.621 68.4267L290.07 54.8693ZM298.863 60.6577L275.011 39.3858L261.279 54.7831L285.131 76.0551L298.863 60.6577ZM274.97 39.3495C274.019 38.5105 273.412 37.8521 273.045 37.3857L256.823 50.132C258.138 51.8062 259.671 53.3649 261.32 54.8194L274.97 39.3495ZM273.186 37.5696C272.851 37.123 272.732 36.8565 272.7 36.7761L253.498 44.3199C254.307 46.3801 255.411 48.2542 256.682 49.9482L273.186 37.5696ZM272.814 37.0785C272.813 37.077 272.822 37.101 272.83 37.1457C272.837 37.1909 272.841 37.2379 272.841 37.2798H252.21C252.21 39.6007 252.615 41.8623 253.385 44.0175L272.814 37.0785ZM272.841 37.2798C272.841 37.1785 272.854 37.2472 272.799 37.4253C272.741 37.6123 272.646 37.7984 272.54 37.945L255.837 25.8353C253.332 29.29 252.21 33.2538 252.21 37.2798H272.841ZM272.61 37.847C272.584 37.8842 272.555 37.9189 272.527 37.9479C272.514 37.9619 272.502 37.9727 272.493 37.9804C272.485 37.9881 272.48 37.9918 272.48 37.9917C272.48 37.9917 272.486 37.9873 272.498 37.979C272.511 37.9707 272.531 37.9581 272.559 37.9419C272.616 37.9096 272.709 37.8619 272.845 37.8053L264.935 18.7506C261.376 20.228 258.152 22.5618 255.767 25.9333L272.61 37.847ZM272.997 37.7408C273.466 37.5372 274.384 37.2747 276 37.2747V16.6437C272.188 16.6437 268.366 17.2604 264.784 18.815L272.997 37.7408ZM276 37.2747C277.452 37.2747 278.206 37.5005 278.512 37.6279L286.447 18.5839C283.083 17.1824 279.518 16.6437 276 16.6437V37.2747ZM278.581 37.6565C278.764 37.7311 278.785 37.7645 278.715 37.711C278.681 37.6853 278.634 37.6451 278.58 37.5894C278.526 37.5335 278.474 37.4713 278.428 37.4063L295.246 25.4566C292.932 22.2002 289.811 19.9568 286.377 18.5553L278.581 37.6565ZM278.428 37.4063C278.287 37.2086 278.18 36.9835 278.117 36.7751C278.058 36.577 278.069 36.4958 278.069 36.5918H298.7C298.7 32.7213 297.66 28.8541 295.246 25.4566L278.428 37.4063ZM278.069 36.5918C278.069 36.5634 278.075 36.4473 278.122 36.2807C278.17 36.1124 278.237 35.9792 278.287 35.8997L295.73 46.9165C297.714 43.775 298.7 40.2516 298.7 36.5918H278.069ZM278.184 36.0667C278.318 35.8451 278.212 36.1503 277.24 36.7848L288.521 54.0585C291.295 52.2467 293.941 49.8761 295.834 46.7495L278.184 36.0667ZM277.158 36.8386C276.06 37.5709 274.361 38.4782 271.888 39.5006L279.768 58.5672C283.029 57.2196 286.031 55.7188 288.602 54.0047L277.158 36.8386ZM271.89 39.4996C269.755 40.3816 267.648 41.4181 265.793 42.6769L277.377 59.7485C277.663 59.5548 278.385 59.1387 279.766 58.5681L271.89 39.4996ZM265.649 42.7766C263.893 44.0117 261.943 45.7416 260.503 48.1415L278.194 58.7561C277.92 59.2142 277.665 59.4919 277.546 59.6106C277.428 59.7291 277.399 59.7353 277.522 59.6488L265.649 42.7766ZM260.627 47.9404C259.013 50.4968 258.345 53.2926 258.345 55.9717H278.976C278.976 56.7395 278.768 57.8534 278.071 58.9573L260.627 47.9404ZM258.345 55.9717C258.345 59.1646 259.442 62.0446 261.212 64.3593L277.6 51.827C277.951 52.2857 278.313 52.8964 278.579 53.6559C278.849 54.4232 278.976 55.213 278.976 55.9717H258.345ZM261.212 64.3593C263.022 66.7257 265.331 68.2342 267.56 69.1632L275.495 50.1192C275.89 50.2837 276.785 50.7602 277.6 51.827L261.212 64.3593ZM267.906 69.2999C270.261 70.1831 272.636 70.4728 274.796 70.4728V49.8417C274.629 49.8417 274.585 49.83 274.642 49.8389C274.7 49.8481 274.882 49.882 275.15 49.9825L267.906 69.2999ZM274.796 70.4728C278.756 70.4728 282.573 69.4946 286.049 67.5082L275.813 49.5954C275.543 49.7496 275.27 49.8417 274.796 49.8417V70.4728ZM286.185 67.4291C289.644 65.3818 292.368 62.5454 294.45 59.2737L277.044 48.1974C276.451 49.1303 275.964 49.5049 275.677 49.6745L286.185 67.4291ZM294.378 59.3849C296.68 55.8688 298.047 51.9169 298.732 47.8056L278.382 44.4138C278.073 46.2656 277.567 47.3976 277.116 48.0861L294.378 59.3849ZM285.587 55.9884L294.359 58.6259L300.299 38.8685L291.527 36.231L285.587 55.9884ZM287.241 46.5925C286.685 49.1983 285.735 51.2256 284.503 52.8614L300.982 65.2743C304.184 61.0235 306.292 56.1704 307.417 50.9019L287.241 46.5925ZM284.451 52.9303C283.189 54.6351 281.688 55.9163 279.871 56.8678L289.444 75.1434C294.05 72.7312 297.938 69.3871 301.033 65.2054L284.451 52.9303ZM279.913 56.8463C278.351 57.6552 276.45 58.1556 273.993 58.1556V78.7866C279.411 78.7866 284.619 77.6433 289.403 75.1649L279.913 56.8463ZM330.468 43.0709V32.7553H320.153V43.0709H330.468ZM349.103 43.0709H359.418V32.7553H349.103V43.0709ZM349.103 51.5567V61.8722H359.418V51.5567H349.103ZM330.468 51.5567H320.153V61.8722H330.468V51.5567ZM331.271 58.8958H320.955V69.2114H331.271V58.8958ZM352.256 58.8958H362.572V48.5803H352.256V58.8958ZM352.256 67.6684V77.9839H362.572V67.6684H352.256ZM320.033 67.6684H309.717V77.9839H320.033V67.6684ZM320.033 27.5326V17.217H309.717V27.5326H320.033ZM351.511 27.5326H361.826V17.217H351.511V27.5326ZM351.511 36.3051V46.6206H361.826V36.3051H351.511ZM331.271 36.3051V25.9896H320.955V36.3051H331.271ZM330.468 53.3864H349.103V32.7553H330.468V53.3864ZM338.787 43.0709V51.5567H359.418V43.0709H338.787ZM349.103 41.2412H330.468V61.8722H349.103V41.2412ZM340.784 51.5567V43.0709H320.153V51.5567H340.784ZM331.271 69.2114H352.256V48.5803H331.271V69.2114ZM341.941 58.8958V67.6684H362.572V58.8958H341.941ZM352.256 57.3529H320.033V77.9839H352.256V57.3529ZM330.348 67.6684V27.5326H309.717V67.6684H330.348ZM320.033 37.8481H351.511V17.217H320.033V37.8481ZM341.195 27.5326V36.3051H361.826V27.5326H341.195ZM351.511 25.9896H331.271V46.6206H351.511V25.9896ZM320.955 36.3051V58.8958H341.586V36.3051H320.955ZM353.74 67.6684L344.303 63.5026L337.91 77.9839H353.74V67.6684ZM371.457 27.5326V17.217H364.735L362.02 23.3668L371.457 27.5326ZM382.638 27.5326L392.07 23.3555L389.351 17.217H382.638V27.5326ZM400.412 67.6684V77.9839H416.262L409.844 63.4914L400.412 67.6684ZM388.601 67.6684L379.027 71.5104L381.625 77.9839H388.601V67.6684ZM374.725 33.0942V22.7787H359.47L365.152 36.9363L374.725 33.0942ZM379.197 33.0942L388.771 36.9363L394.453 22.7787H379.197V33.0942ZM365.322 67.6684V77.9839H372.297L374.895 71.5104L365.322 67.6684ZM363.43 59.8706L353.691 56.4688L348.9 70.1861H363.43V59.8706ZM366.354 51.4994V41.1839H359.031L356.616 48.0976L366.354 51.4994ZM385.963 51.4994L395.702 48.0976L393.287 41.1839H385.963V51.4994ZM388.887 59.8706V70.1861H403.418L398.626 56.4688L388.887 59.8706ZM363.177 71.8341L380.894 31.6983L362.02 23.3668L344.303 63.5026L363.177 71.8341ZM371.457 37.8481H382.638V17.217H371.457V37.8481ZM373.206 31.7096L390.98 71.8454L409.844 63.4914L392.07 23.3555L373.206 31.7096ZM400.412 57.3529H388.601V77.9839H400.412V57.3529ZM398.174 63.8263L384.298 29.2522L365.152 36.9363L379.027 71.5104L398.174 63.8263ZM374.725 43.4098H379.197V22.7787H374.725V43.4098ZM369.624 29.2522L355.749 63.8263L374.895 71.5104L388.771 36.9363L369.624 29.2522ZM365.322 57.3529H353.74V77.9839H365.322V57.3529ZM373.168 63.2724L376.092 54.9012L356.616 48.0976L353.691 56.4688L373.168 63.2724ZM366.354 61.8149H385.963V41.1839H366.354V61.8149ZM376.225 54.9012L379.149 63.2724L398.626 56.4688L395.702 48.0976L376.225 54.9012ZM388.887 49.555H363.43V70.1861H388.887V49.555ZM403.631 67.6684H393.315V77.9839H403.631V67.6684ZM403.631 27.5326V17.217H393.315V27.5326H403.631ZM431.439 29.31L427.212 38.7195L427.237 38.7308L427.262 38.742L431.439 29.31ZM437.631 34.4703L428.959 40.056L428.981 40.0898L429.003 40.1235L437.631 34.4703ZM437.631 50.238L446.214 55.96L446.237 55.9257L446.26 55.8911L437.631 50.238ZM431.439 55.2836L435.552 64.7437L435.584 64.7297L435.616 64.7156L431.439 55.2836ZM409.938 57.0037L402.86 49.4995L383.967 67.3192H409.938V57.0037ZM414.983 52.2448H425.299V28.3354L407.905 44.7405L414.983 52.2448ZM414.983 67.6684V77.9839H425.299V67.6684H414.983ZM428.457 67.6684L419.937 73.4826L423.008 77.9839H428.457V67.6684ZM418.481 53.0475V42.7319H398.954L409.96 58.8617L418.481 53.0475ZM430.579 53.0475L439.084 47.2105L436.011 42.7319H430.579V53.0475ZM440.613 67.6684V77.9839H460.203L449.118 61.8314L440.613 67.6684ZM414.983 53.4488L407.568 60.6198L425.299 78.9551V53.4488H414.983ZM409.938 48.2312V37.9157H385.612L402.522 55.4021L409.938 48.2312ZM426.565 46.6831L419.79 38.9043L419.727 38.9595L419.665 39.0156L426.565 46.6831ZM426.565 38.0252L419.665 45.6927L419.727 45.7488L419.79 45.804L426.565 38.0252ZM409.938 36.4771L402.522 29.3062L385.612 46.7926H409.938V36.4771ZM414.983 31.2595H425.299V5.75316L407.568 24.0885L414.983 31.2595ZM413.946 67.6684V27.5326H393.315V67.6684H413.946ZM403.631 37.8481H421.978V17.217H403.631V37.8481ZM421.978 37.8481C424.569 37.8481 426.21 38.2696 427.212 38.7195L435.666 19.9005C431.393 17.9805 426.727 17.217 421.978 17.217V37.8481ZM427.262 38.742C428.27 39.1886 428.696 39.6479 428.959 40.056L446.304 28.8847C443.662 24.7822 439.959 21.8014 435.616 19.878L427.262 38.742ZM429.003 40.1235C429.193 40.414 429.495 41.0167 429.495 42.3828H450.126C450.126 37.633 448.975 32.9607 446.26 28.8171L429.003 40.1235ZM429.495 42.3828C429.495 43.6821 429.207 44.2734 429.003 44.5848L446.26 55.8911C448.961 51.7685 450.126 47.123 450.126 42.3828H429.495ZM429.048 44.5159C428.807 44.8778 428.364 45.3637 427.262 45.8516L435.616 64.7156C439.866 62.8336 443.551 59.9557 446.214 55.96L429.048 44.5159ZM427.326 45.8236C426.291 46.2734 424.608 46.6882 421.978 46.6882V67.3192C426.688 67.3192 431.312 66.5873 435.552 64.7437L427.326 45.8236ZM421.978 46.6882H409.938V67.3192H421.978V46.6882ZM417.016 64.508L422.061 59.749L407.905 44.7405L402.86 49.4995L417.016 64.508ZM404.668 52.2448V67.6684H425.299V52.2448H404.668ZM414.983 57.3529H403.631V77.9839H414.983V57.3529ZM436.978 61.8542L427.002 47.2332L409.96 58.8617L419.937 73.4826L436.978 61.8542ZM418.481 63.363H430.579V42.7319H418.481V63.363ZM422.074 58.8844L432.108 73.5053L449.118 61.8314L439.084 47.2105L422.074 58.8844ZM440.613 57.3529H428.457V77.9839H440.613V57.3529ZM422.399 46.2779L417.353 41.0603L402.522 55.4021L407.568 60.6198L422.399 46.2779ZM409.938 58.5467H421.29V37.9157H409.938V58.5467ZM421.29 58.5467C424.892 58.5467 429.633 57.8001 433.466 54.3505L419.665 39.0156C420.435 38.322 421.154 38.0422 421.482 37.9461C421.775 37.8599 421.764 37.9157 421.29 37.9157V58.5467ZM433.34 54.4618C437.16 51.1351 438.658 46.6484 438.658 42.3828H418.027C418.027 42.1912 418.06 41.6329 418.365 40.8935C418.687 40.1146 419.195 39.4227 419.79 38.9043L433.34 54.4618ZM438.658 42.3828C438.658 38.1551 437.209 33.6155 433.34 30.2465L419.79 45.804C419.169 45.2625 418.661 44.5546 418.347 43.7847C418.051 43.059 418.027 42.5285 418.027 42.3828H438.658ZM433.466 30.3577C429.633 26.9081 424.892 26.1616 421.29 26.1616V46.7926C421.764 46.7926 421.775 46.8484 421.482 46.7622C421.154 46.6661 420.435 46.3863 419.665 45.6927L433.466 30.3577ZM421.29 26.1616H409.938V46.7926H421.29V26.1616ZM417.353 43.648L422.399 38.4304L407.568 24.0885L402.522 29.3062L417.353 43.648ZM404.668 31.2595V53.4488H425.299V31.2595H404.668ZM446.073 67.6684H435.758V77.9839H446.073V67.6684ZM446.073 27.5326V17.217H435.758V27.5326H446.073ZM455.419 27.5326L463.363 20.9522L460.269 17.217H455.419V27.5326ZM477.551 54.2515V64.5671H499.491L485.495 47.6712L477.551 54.2515ZM473.136 54.2515H462.821V64.5671H473.136V54.2515ZM473.136 27.5326V17.217H462.821V27.5326H473.136ZM484.26 27.5326H494.575V17.217H484.26V27.5326ZM484.26 67.6684V77.9839H494.575V67.6684H484.26ZM474.914 67.6684L466.97 74.2487L470.064 77.9839H474.914V67.6684ZM452.782 40.9494V30.6339H430.842L444.838 47.5297L452.782 40.9494ZM457.197 40.9494H467.512V30.6339H457.197V40.9494ZM457.197 67.6684V77.9839H467.512V67.6684H457.197ZM456.389 67.6684V27.5326H435.758V67.6684H456.389ZM446.073 37.8481H455.419V17.217H446.073V37.8481ZM447.475 34.1129L469.607 60.8319L485.495 47.6712L463.363 20.9522L447.475 34.1129ZM477.551 43.936H473.136V64.5671H477.551V43.936ZM483.452 54.2515V27.5326H462.821V54.2515H483.452ZM473.136 37.8481H484.26V17.217H473.136V37.8481ZM473.944 27.5326V67.6684H494.575V27.5326H473.944ZM484.26 57.3529H474.914V77.9839H484.26V57.3529ZM482.858 61.088L460.726 34.3691L444.838 47.5297L466.97 74.2487L482.858 61.088ZM452.782 51.2649H457.197V30.6339H452.782V51.2649ZM446.881 40.9494V67.6684H467.512V40.9494H446.881ZM457.197 57.3529H446.073V77.9839H457.197V57.3529Z" fill="#FFC940" fill-opacity="0.2" mask="url(#path-1-outside-1_41_6)"/>
</g>
<mask id="path-3-outside-2_41_6" maskUnits="userSpaceOnUse" x="36.6157" y="14.6684" width="457" height="63" fill="black">
<rect fill="white" x="36.6157" y="14.6684" width="457" height="63"/>
<path d="M46.6293 67.6684V27.5326H64.9771C68.6467 27.5326 71.8002 28.125 74.4377 29.31C77.1134 30.495 79.1775 32.2151 80.6301 34.4703C82.0826 36.6873 82.8089 39.3248 82.8089 42.3828C82.8089 45.4026 82.0826 48.0209 80.6301 50.238C79.1775 52.4168 77.1134 54.0986 74.4377 55.2836C71.8002 56.4303 68.6467 57.0037 64.9771 57.0037H52.9364L57.982 52.2448V67.6684H46.6293ZM71.4562 67.6684L61.4796 53.0475H73.5776L83.6116 67.6684H71.4562ZM57.982 53.4488L52.9364 48.2312H64.2891C66.659 48.2312 68.4173 47.7151 69.5641 46.6831C70.749 45.651 71.3415 44.2176 71.3415 42.3828C71.3415 40.5098 70.749 39.0573 69.5641 38.0252C68.4173 36.9931 66.659 36.4771 64.2891 36.4771H52.9364L57.982 31.2595V53.4488ZM99.5074 43.0709H118.142V51.5567H99.5074V43.0709ZM100.31 58.8958H121.295V67.6684H89.072V27.5326H120.55V36.3051H100.31V58.8958ZM138.145 45.135H156.665V53.9075H138.145V45.135ZM138.948 67.6684H127.595V27.5326H159.073V36.3051H138.948V67.6684ZM174.818 43.0709H193.453V51.5567H174.818V43.0709ZM175.621 58.8958H196.606V67.6684H164.383V27.5326H195.861V36.3051H175.621V58.8958ZM202.906 67.6684V27.5326H221.254C224.923 27.5326 228.077 28.125 230.714 29.31C233.39 30.495 235.454 32.2151 236.907 34.4703C238.359 36.6873 239.086 39.3248 239.086 42.3828C239.086 45.4026 238.359 48.0209 236.907 50.238C235.454 52.4168 233.39 54.0986 230.714 55.2836C228.077 56.4303 224.923 57.0037 221.254 57.0037H209.213L214.259 52.2448V67.6684H202.906ZM227.733 67.6684L217.756 53.0475H229.854L239.888 67.6684H227.733ZM214.259 53.4488L209.213 48.2312H220.566C222.936 48.2312 224.694 47.7151 225.841 46.6831C227.026 45.651 227.618 44.2176 227.618 42.3828C227.618 40.5098 227.026 39.0573 225.841 38.0252C224.694 36.9931 222.936 36.4771 220.566 36.4771H209.213L214.259 31.2595V53.4488ZM275.795 68.4711C272.737 68.4711 270.004 67.9933 267.596 67.0377C265.188 66.0438 263.277 64.6869 261.863 62.9668C260.486 61.2466 259.798 59.3163 259.798 57.1757C259.798 55.0734 260.257 53.2004 261.175 51.5567C262.13 49.9131 263.583 48.4032 265.532 47.0271C267.52 45.651 270.043 44.3323 273.101 43.0709C275.127 42.1917 276.713 41.4081 277.86 40.72C279.006 40.032 279.809 39.3822 280.268 38.7706C280.765 38.1208 281.013 37.4709 281.013 36.8211C281.013 36.0184 280.746 35.3686 280.21 34.8717C279.675 34.3748 278.873 34.1263 277.802 34.1263C276.694 34.1263 275.815 34.413 275.165 34.9863C274.553 35.5597 274.247 36.2669 274.247 37.1078C274.247 37.6047 274.343 38.1017 274.534 38.5986C274.763 39.0955 275.184 39.6689 275.795 40.3187C276.445 40.9685 277.344 41.8094 278.49 42.8415L299.648 61.648L293.799 68.3564L269.947 47.0844C268.647 45.9377 267.577 44.8292 266.736 43.7589C265.934 42.6886 265.322 41.6183 264.901 40.548C264.519 39.4777 264.328 38.3883 264.328 37.2798C264.328 35.2157 264.882 33.4191 265.991 31.8902C267.099 30.323 268.667 29.1189 270.692 28.2779C272.718 27.3988 275.088 26.9592 277.802 26.9592C280.287 26.9592 282.447 27.3414 284.281 28.1059C286.154 28.8704 287.607 29.9789 288.639 31.4315C289.671 32.884 290.187 34.6041 290.187 36.5918C290.187 38.3501 289.728 39.9555 288.811 41.4081C287.932 42.8606 286.556 44.1985 284.683 45.4217C282.848 46.6449 280.497 47.8489 277.63 49.0339C275.872 49.7602 274.458 50.4864 273.387 51.2127C272.355 51.939 271.61 52.6843 271.151 53.4488C270.692 54.1751 270.463 55.016 270.463 55.9717C270.463 56.7361 270.712 57.4433 271.208 58.0931C271.705 58.7429 272.413 59.259 273.33 59.6412C274.247 59.9852 275.337 60.1572 276.598 60.1572C278.815 60.1572 280.86 59.6221 282.733 58.5518C284.606 57.4433 286.212 55.8379 287.55 53.7355C288.926 51.6332 289.862 49.0912 290.359 46.1097L299.132 48.7472C298.291 52.6843 296.762 56.1246 294.545 59.0678C292.366 62.0111 289.671 64.3237 286.46 66.0056C283.287 67.6493 279.733 68.4711 275.795 68.4711ZM332.27 43.0709H350.905V51.5567H332.27V43.0709ZM333.073 58.8958H354.059V67.6684H321.835V27.5326H353.313V36.3051H333.073V58.8958ZM355.542 67.6684L373.259 27.5326H384.44L402.214 67.6684H390.403L376.527 33.0942H381L367.124 67.6684H355.542ZM365.232 59.8706L368.156 51.4994H387.765L390.69 59.8706H365.232ZM405.433 67.6684V27.5326H423.781C427.45 27.5326 430.604 28.125 433.241 29.31C435.917 30.495 437.981 32.2151 439.434 34.4703C440.886 36.6873 441.612 39.3248 441.612 42.3828C441.612 45.4026 440.886 48.0209 439.434 50.238C437.981 52.4168 435.917 54.0986 433.241 55.2836C430.604 56.4303 427.45 57.0037 423.781 57.0037H411.74L416.786 52.2448V67.6684H405.433ZM430.26 67.6684L420.283 53.0475H432.381L442.415 67.6684H430.26ZM416.786 53.4488L411.74 48.2312H423.093C425.463 48.2312 427.221 47.7151 428.368 46.6831C429.553 45.651 430.145 44.2176 430.145 42.3828C430.145 40.5098 429.553 39.0573 428.368 38.0252C427.221 36.9931 425.463 36.4771 423.093 36.4771H411.74L416.786 31.2595V53.4488ZM447.876 67.6684V27.5326H457.221L479.354 54.2515H474.939V27.5326H486.062V67.6684H476.716L454.584 40.9494H458.999V67.6684H447.876Z"/>
</mask>
<path d="M46.6293 67.6684V27.5326H64.9771C68.6467 27.5326 71.8002 28.125 74.4377 29.31C77.1134 30.495 79.1775 32.2151 80.6301 34.4703C82.0826 36.6873 82.8089 39.3248 82.8089 42.3828C82.8089 45.4026 82.0826 48.0209 80.6301 50.238C79.1775 52.4168 77.1134 54.0986 74.4377 55.2836C71.8002 56.4303 68.6467 57.0037 64.9771 57.0037H52.9364L57.982 52.2448V67.6684H46.6293ZM71.4562 67.6684L61.4796 53.0475H73.5776L83.6116 67.6684H71.4562ZM57.982 53.4488L52.9364 48.2312H64.2891C66.659 48.2312 68.4173 47.7151 69.5641 46.6831C70.749 45.651 71.3415 44.2176 71.3415 42.3828C71.3415 40.5098 70.749 39.0573 69.5641 38.0252C68.4173 36.9931 66.659 36.4771 64.2891 36.4771H52.9364L57.982 31.2595V53.4488ZM99.5074 43.0709H118.142V51.5567H99.5074V43.0709ZM100.31 58.8958H121.295V67.6684H89.072V27.5326H120.55V36.3051H100.31V58.8958ZM138.145 45.135H156.665V53.9075H138.145V45.135ZM138.948 67.6684H127.595V27.5326H159.073V36.3051H138.948V67.6684ZM174.818 43.0709H193.453V51.5567H174.818V43.0709ZM175.621 58.8958H196.606V67.6684H164.383V27.5326H195.861V36.3051H175.621V58.8958ZM202.906 67.6684V27.5326H221.254C224.923 27.5326 228.077 28.125 230.714 29.31C233.39 30.495 235.454 32.2151 236.907 34.4703C238.359 36.6873 239.086 39.3248 239.086 42.3828C239.086 45.4026 238.359 48.0209 236.907 50.238C235.454 52.4168 233.39 54.0986 230.714 55.2836C228.077 56.4303 224.923 57.0037 221.254 57.0037H209.213L214.259 52.2448V67.6684H202.906ZM227.733 67.6684L217.756 53.0475H229.854L239.888 67.6684H227.733ZM214.259 53.4488L209.213 48.2312H220.566C222.936 48.2312 224.694 47.7151 225.841 46.6831C227.026 45.651 227.618 44.2176 227.618 42.3828C227.618 40.5098 227.026 39.0573 225.841 38.0252C224.694 36.9931 222.936 36.4771 220.566 36.4771H209.213L214.259 31.2595V53.4488ZM275.795 68.4711C272.737 68.4711 270.004 67.9933 267.596 67.0377C265.188 66.0438 263.277 64.6869 261.863 62.9668C260.486 61.2466 259.798 59.3163 259.798 57.1757C259.798 55.0734 260.257 53.2004 261.175 51.5567C262.13 49.9131 263.583 48.4032 265.532 47.0271C267.52 45.651 270.043 44.3323 273.101 43.0709C275.127 42.1917 276.713 41.4081 277.86 40.72C279.006 40.032 279.809 39.3822 280.268 38.7706C280.765 38.1208 281.013 37.4709 281.013 36.8211C281.013 36.0184 280.746 35.3686 280.21 34.8717C279.675 34.3748 278.873 34.1263 277.802 34.1263C276.694 34.1263 275.815 34.413 275.165 34.9863C274.553 35.5597 274.247 36.2669 274.247 37.1078C274.247 37.6047 274.343 38.1017 274.534 38.5986C274.763 39.0955 275.184 39.6689 275.795 40.3187C276.445 40.9685 277.344 41.8094 278.49 42.8415L299.648 61.648L293.799 68.3564L269.947 47.0844C268.647 45.9377 267.577 44.8292 266.736 43.7589C265.934 42.6886 265.322 41.6183 264.901 40.548C264.519 39.4777 264.328 38.3883 264.328 37.2798C264.328 35.2157 264.882 33.4191 265.991 31.8902C267.099 30.323 268.667 29.1189 270.692 28.2779C272.718 27.3988 275.088 26.9592 277.802 26.9592C280.287 26.9592 282.447 27.3414 284.281 28.1059C286.154 28.8704 287.607 29.9789 288.639 31.4315C289.671 32.884 290.187 34.6041 290.187 36.5918C290.187 38.3501 289.728 39.9555 288.811 41.4081C287.932 42.8606 286.556 44.1985 284.683 45.4217C282.848 46.6449 280.497 47.8489 277.63 49.0339C275.872 49.7602 274.458 50.4864 273.387 51.2127C272.355 51.939 271.61 52.6843 271.151 53.4488C270.692 54.1751 270.463 55.016 270.463 55.9717C270.463 56.7361 270.712 57.4433 271.208 58.0931C271.705 58.7429 272.413 59.259 273.33 59.6412C274.247 59.9852 275.337 60.1572 276.598 60.1572C278.815 60.1572 280.86 59.6221 282.733 58.5518C284.606 57.4433 286.212 55.8379 287.55 53.7355C288.926 51.6332 289.862 49.0912 290.359 46.1097L299.132 48.7472C298.291 52.6843 296.762 56.1246 294.545 59.0678C292.366 62.0111 289.671 64.3237 286.46 66.0056C283.287 67.6493 279.733 68.4711 275.795 68.4711ZM332.27 43.0709H350.905V51.5567H332.27V43.0709ZM333.073 58.8958H354.059V67.6684H321.835V27.5326H353.313V36.3051H333.073V58.8958ZM355.542 67.6684L373.259 27.5326H384.44L402.214 67.6684H390.403L376.527 33.0942H381L367.124 67.6684H355.542ZM365.232 59.8706L368.156 51.4994H387.765L390.69 59.8706H365.232ZM405.433 67.6684V27.5326H423.781C427.45 27.5326 430.604 28.125 433.241 29.31C435.917 30.495 437.981 32.2151 439.434 34.4703C440.886 36.6873 441.612 39.3248 441.612 42.3828C441.612 45.4026 440.886 48.0209 439.434 50.238C437.981 52.4168 435.917 54.0986 433.241 55.2836C430.604 56.4303 427.45 57.0037 423.781 57.0037H411.74L416.786 52.2448V67.6684H405.433ZM430.26 67.6684L420.283 53.0475H432.381L442.415 67.6684H430.26ZM416.786 53.4488L411.74 48.2312H423.093C425.463 48.2312 427.221 47.7151 428.368 46.6831C429.553 45.651 430.145 44.2176 430.145 42.3828C430.145 40.5098 429.553 39.0573 428.368 38.0252C427.221 36.9931 425.463 36.4771 423.093 36.4771H411.74L416.786 31.2595V53.4488ZM447.876 67.6684V27.5326H457.221L479.354 54.2515H474.939V27.5326H486.062V67.6684H476.716L454.584 40.9494H458.999V67.6684H447.876Z" fill="black"/>
<path d="M46.6293 67.6684H40.2813V74.0164H46.6293V67.6684ZM46.6293 27.5326V21.1845H40.2813V27.5326H46.6293ZM74.4377 29.31L71.8362 35.1005L71.8517 35.1074L71.8672 35.1143L74.4377 29.31ZM80.6301 34.4703L75.2932 37.9076L75.3066 37.9285L75.3202 37.9492L80.6301 34.4703ZM80.6301 50.238L85.9119 53.7592L85.926 53.7381L85.94 53.7168L80.6301 50.238ZM74.4377 55.2836L76.9688 61.1052L76.9885 61.0966L77.0082 61.0879L74.4377 55.2836ZM52.9364 57.0037L48.5807 52.3857L36.9541 63.3517H52.9364V57.0037ZM57.982 52.2448H64.33V37.5313L53.6264 47.6268L57.982 52.2448ZM57.982 67.6684V74.0164H64.33V67.6684H57.982ZM71.4562 67.6684L66.2126 71.2464L68.1027 74.0164H71.4562V67.6684ZM61.4796 53.0475V46.6995H49.4629L56.236 56.6255L61.4796 53.0475ZM73.5776 53.0475L78.8117 49.4555L76.9203 46.6995H73.5776V53.0475ZM83.6116 67.6684V74.0164H95.6672L88.8456 64.0764L83.6116 67.6684ZM57.982 53.4488L53.4187 57.8617L64.33 69.145V53.4488H57.982ZM52.9364 48.2312V41.8832H37.9669L48.3731 52.644L52.9364 48.2312ZM69.5641 46.6831L65.3948 41.8962L65.3559 41.9301L65.3175 41.9646L69.5641 46.6831ZM69.5641 38.0252L65.3175 42.7436L65.3559 42.7782L65.3948 42.8121L69.5641 38.0252ZM52.9364 36.4771L48.373 32.0642L37.9669 42.8251H52.9364V36.4771ZM57.982 31.2595H64.33V15.5633L53.4187 26.8466L57.982 31.2595ZM46.6293 67.6684H52.9773V27.5326H46.6293H40.2813V67.6684H46.6293ZM46.6293 27.5326V33.8806H64.9771V27.5326V21.1845H46.6293V27.5326ZM64.9771 27.5326V33.8806C67.9828 33.8806 70.2055 34.3678 71.8362 35.1005L74.4377 29.31L77.0392 23.5195C73.3949 21.8823 69.3105 21.1845 64.9771 21.1845V27.5326ZM74.4377 29.31L71.8672 35.1143C73.5169 35.8449 74.5728 36.7891 75.2932 37.9076L80.6301 34.4703L85.967 31.033C83.7823 27.641 80.71 25.1451 77.0082 23.5057L74.4377 29.31ZM80.6301 34.4703L75.3202 37.9492C75.996 38.9807 76.4609 40.366 76.4609 42.3828H82.8089H89.1569C89.1569 38.2837 88.1692 34.394 85.94 30.9914L80.6301 34.4703ZM82.8089 42.3828H76.4609C76.4609 44.3438 76.0044 45.7148 75.3202 46.7591L80.6301 50.238L85.94 53.7168C88.1608 50.3271 89.1569 46.4613 89.1569 42.3828H82.8089ZM80.6301 50.238L75.3482 46.7167C74.6411 47.7774 73.5744 48.7233 71.8672 49.4793L74.4377 55.2836L77.0082 61.0879C80.6525 59.474 83.714 57.0561 85.9119 53.7592L80.6301 50.238ZM74.4377 55.2836L71.9066 49.462C70.2555 50.1799 68.0069 50.6557 64.9771 50.6557V57.0037V63.3517C69.2864 63.3517 73.3449 62.6808 76.9688 61.1052L74.4377 55.2836ZM64.9771 57.0037V50.6557H52.9364V57.0037V63.3517H64.9771V57.0037ZM52.9364 57.0037L57.292 61.6217L62.3376 56.8628L57.982 52.2448L53.6264 47.6268L48.5807 52.3857L52.9364 57.0037ZM57.982 52.2448H51.634V67.6684H57.982H64.33V52.2448H57.982ZM57.982 67.6684V61.3204H46.6293V67.6684V74.0164H57.982V67.6684ZM71.4562 67.6684L76.6998 64.0904L66.7232 49.4695L61.4796 53.0475L56.236 56.6255L66.2126 71.2464L71.4562 67.6684ZM61.4796 53.0475V59.3955H73.5776V53.0475V46.6995H61.4796V53.0475ZM73.5776 53.0475L68.3436 56.6394L78.3776 71.2604L83.6116 67.6684L88.8456 64.0764L78.8117 49.4555L73.5776 53.0475ZM83.6116 67.6684V61.3204H71.4562V67.6684V74.0164H83.6116V67.6684ZM57.982 53.4488L62.5453 49.036L57.4997 43.8183L52.9364 48.2312L48.3731 52.644L53.4187 57.8617L57.982 53.4488ZM52.9364 48.2312V54.5792H64.2891V48.2312V41.8832H52.9364V48.2312ZM64.2891 48.2312V54.5792C67.4168 54.5792 71.0109 53.9213 73.8107 51.4015L69.5641 46.6831L65.3175 41.9646C65.5712 41.7363 65.7343 41.7129 65.5976 41.753C65.4402 41.7992 65.0361 41.8832 64.2891 41.8832V48.2312ZM69.5641 46.6831L73.7333 51.47C76.5396 49.0258 77.6895 45.7135 77.6895 42.3828H71.3415H64.9935C64.9935 42.6177 64.9564 42.5884 65.0305 42.4091C65.0668 42.3213 65.1203 42.2213 65.1923 42.1214C65.2641 42.0218 65.3368 41.9467 65.3948 41.8962L69.5641 46.6831ZM71.3415 42.3828H77.6895C77.6895 39.0607 76.5695 35.7085 73.7333 33.2383L69.5641 38.0252L65.3948 42.8121C65.3292 42.7549 65.2523 42.6743 65.1788 42.5716C65.1052 42.4687 65.0531 42.369 65.0193 42.2862C64.9511 42.1189 64.9935 42.1123 64.9935 42.3828H71.3415ZM69.5641 38.0252L73.8107 33.3068C71.0109 30.787 67.4168 30.1291 64.2891 30.1291V36.4771V42.8251C65.0361 42.8251 65.4402 42.909 65.5976 42.9553C65.7343 42.9954 65.5712 42.972 65.3175 42.7436L69.5641 38.0252ZM64.2891 36.4771V30.1291H52.9364V36.4771V42.8251H64.2891V36.4771ZM52.9364 36.4771L57.4997 40.89L62.5453 35.6723L57.982 31.2595L53.4187 26.8466L48.373 32.0642L52.9364 36.4771ZM57.982 31.2595H51.634V53.4488H57.982H64.33V31.2595H57.982ZM99.5074 43.0709V36.7228H93.1593V43.0709H99.5074ZM118.142 43.0709H124.49V36.7228H118.142V43.0709ZM118.142 51.5567V57.9047H124.49V51.5567H118.142ZM99.5074 51.5567H93.1593V57.9047H99.5074V51.5567ZM100.31 58.8958H93.9621V65.2439H100.31V58.8958ZM121.295 58.8958H127.643V52.5478H121.295V58.8958ZM121.295 67.6684V74.0164H127.643V67.6684H121.295ZM89.072 67.6684H82.724V74.0164H89.072V67.6684ZM89.072 27.5326V21.1845H82.724V27.5326H89.072ZM120.55 27.5326H126.898V21.1845H120.55V27.5326ZM120.55 36.3051V42.6531H126.898V36.3051H120.55ZM100.31 36.3051V29.9571H93.9621V36.3051H100.31ZM99.5074 43.0709V49.4189H118.142V43.0709V36.7228H99.5074V43.0709ZM118.142 43.0709H111.794V51.5567H118.142H124.49V43.0709H118.142ZM118.142 51.5567V45.2087H99.5074V51.5567V57.9047H118.142V51.5567ZM99.5074 51.5567H105.855V43.0709H99.5074H93.1593V51.5567H99.5074ZM100.31 58.8958V65.2439H121.295V58.8958V52.5478H100.31V58.8958ZM121.295 58.8958H114.947V67.6684H121.295H127.643V58.8958H121.295ZM121.295 67.6684V61.3204H89.072V67.6684V74.0164H121.295V67.6684ZM89.072 67.6684H95.4201V27.5326H89.072H82.724V67.6684H89.072ZM89.072 27.5326V33.8806H120.55V27.5326V21.1845H89.072V27.5326ZM120.55 27.5326H114.202V36.3051H120.55H126.898V27.5326H120.55ZM120.55 36.3051V29.9571H100.31V36.3051V42.6531H120.55V36.3051ZM100.31 36.3051H93.9621V58.8958H100.31H106.658V36.3051H100.31ZM138.145 45.135V38.787H131.797V45.135H138.145ZM156.665 45.135H163.013V38.787H156.665V45.135ZM156.665 53.9075V60.2555H163.013V53.9075H156.665ZM138.145 53.9075H131.797V60.2555H138.145V53.9075ZM138.948 67.6684V74.0164H145.296V67.6684H138.948ZM127.595 67.6684H121.247V74.0164H127.595V67.6684ZM127.595 27.5326V21.1845H121.247V27.5326H127.595ZM159.073 27.5326H165.421V21.1845H159.073V27.5326ZM159.073 36.3051V42.6531H165.421V36.3051H159.073ZM138.948 36.3051V29.9571H132.6V36.3051H138.948ZM138.145 45.135V51.483H156.665V45.135V38.787H138.145V45.135ZM156.665 45.135H150.317V53.9075H156.665H163.013V45.135H156.665ZM156.665 53.9075V47.5595H138.145V53.9075V60.2555H156.665V53.9075ZM138.145 53.9075H144.493V45.135H138.145H131.797V53.9075H138.145ZM138.948 67.6684V61.3204H127.595V67.6684V74.0164H138.948V67.6684ZM127.595 67.6684H133.943V27.5326H127.595H121.247V67.6684H127.595ZM127.595 27.5326V33.8806H159.073V27.5326V21.1845H127.595V27.5326ZM159.073 27.5326H152.725V36.3051H159.073H165.421V27.5326H159.073ZM159.073 36.3051V29.9571H138.948V36.3051V42.6531H159.073V36.3051ZM138.948 36.3051H132.6V67.6684H138.948H145.296V36.3051H138.948ZM174.818 43.0709V36.7228H168.47V43.0709H174.818ZM193.453 43.0709H199.801V36.7228H193.453V43.0709ZM193.453 51.5567V57.9047H199.801V51.5567H193.453ZM174.818 51.5567H168.47V57.9047H174.818V51.5567ZM175.621 58.8958H169.273V65.2439H175.621V58.8958ZM196.606 58.8958H202.954V52.5478H196.606V58.8958ZM196.606 67.6684V74.0164H202.954V67.6684H196.606ZM164.383 67.6684H158.035V74.0164H164.383V67.6684ZM164.383 27.5326V21.1845H158.035V27.5326H164.383ZM195.861 27.5326H202.209V21.1845H195.861V27.5326ZM195.861 36.3051V42.6531H202.209V36.3051H195.861ZM175.621 36.3051V29.9571H169.273V36.3051H175.621ZM174.818 43.0709V49.4189H193.453V43.0709V36.7228H174.818V43.0709ZM193.453 43.0709H187.104V51.5567H193.453H199.801V43.0709H193.453ZM193.453 51.5567V45.2087H174.818V51.5567V57.9047H193.453V51.5567ZM174.818 51.5567H181.166V43.0709H174.818H168.47V51.5567H174.818ZM175.621 58.8958V65.2439H196.606V58.8958V52.5478H175.621V58.8958ZM196.606 58.8958H190.258V67.6684H196.606H202.954V58.8958H196.606ZM196.606 67.6684V61.3204H164.383V67.6684V74.0164H196.606V67.6684ZM164.383 67.6684H170.731V27.5326H164.383H158.035V67.6684H164.383ZM164.383 27.5326V33.8806H195.861V27.5326V21.1845H164.383V27.5326ZM195.861 27.5326H189.513V36.3051H195.861H202.209V27.5326H195.861ZM195.861 36.3051V29.9571H175.621V36.3051V42.6531H195.861V36.3051ZM175.621 36.3051H169.273V58.8958H175.621H181.969V36.3051H175.621ZM202.906 67.6684H196.558V74.0164H202.906V67.6684ZM202.906 27.5326V21.1845H196.558V27.5326H202.906ZM230.714 29.31L228.113 35.1005L228.128 35.1074L228.144 35.1143L230.714 29.31ZM236.907 34.4703L231.57 37.9076L231.583 37.9285L231.597 37.9492L236.907 34.4703ZM236.907 50.238L242.189 53.7592L242.203 53.7381L242.217 53.7168L236.907 50.238ZM230.714 55.2836L233.245 61.1052L233.265 61.0966L233.285 61.0879L230.714 55.2836ZM209.213 57.0037L204.857 52.3857L193.231 63.3517H209.213V57.0037ZM214.259 52.2448H220.607V37.5313L209.903 47.6268L214.259 52.2448ZM214.259 67.6684V74.0164H220.607V67.6684H214.259ZM227.733 67.6684L222.489 71.2464L224.379 74.0164H227.733V67.6684ZM217.756 53.0475V46.6995H205.74L212.513 56.6255L217.756 53.0475ZM229.854 53.0475L235.088 49.4555L233.197 46.6995H229.854V53.0475ZM239.888 67.6684V74.0164H251.944L245.122 64.0764L239.888 67.6684ZM214.259 53.4488L209.695 57.8617L220.607 69.145V53.4488H214.259ZM209.213 48.2312V41.8832H194.244L204.65 52.644L209.213 48.2312ZM225.841 46.6831L221.671 41.8962L221.632 41.9301L221.594 41.9646L225.841 46.6831ZM225.841 38.0252L221.594 42.7436L221.632 42.7782L221.671 42.8121L225.841 38.0252ZM209.213 36.4771L204.65 32.0642L194.244 42.8251H209.213V36.4771ZM214.259 31.2595H220.607V15.5633L209.695 26.8466L214.259 31.2595ZM202.906 67.6684H209.254V27.5326H202.906H196.558V67.6684H202.906ZM202.906 27.5326V33.8806H221.254V27.5326V21.1845H202.906V27.5326ZM221.254 27.5326V33.8806C224.259 33.8806 226.482 34.3678 228.113 35.1005L230.714 29.31L233.316 23.5195C229.672 21.8823 225.587 21.1845 221.254 21.1845V27.5326ZM230.714 29.31L228.144 35.1143C229.794 35.8449 230.849 36.7891 231.57 37.9076L236.907 34.4703L242.244 31.033C240.059 27.641 236.987 25.1451 233.285 23.5057L230.714 29.31ZM236.907 34.4703L231.597 37.9492C232.273 38.9807 232.737 40.366 232.737 42.3828H239.086H245.434C245.434 38.2837 244.446 34.394 242.217 30.9914L236.907 34.4703ZM239.086 42.3828H232.737C232.737 44.3438 232.281 45.7148 231.597 46.7591L236.907 50.238L242.217 53.7168C244.437 50.3271 245.434 46.4613 245.434 42.3828H239.086ZM236.907 50.238L231.625 46.7167C230.918 47.7774 229.851 48.7233 228.144 49.4793L230.714 55.2836L233.285 61.0879C236.929 59.474 239.991 57.0561 242.189 53.7592L236.907 50.238ZM230.714 55.2836L228.183 49.462C226.532 50.1799 224.284 50.6557 221.254 50.6557V57.0037V63.3517C225.563 63.3517 229.622 62.6808 233.245 61.1052L230.714 55.2836ZM221.254 57.0037V50.6557H209.213V57.0037V63.3517H221.254V57.0037ZM209.213 57.0037L213.569 61.6217L218.614 56.8628L214.259 52.2448L209.903 47.6268L204.857 52.3857L209.213 57.0037ZM214.259 52.2448H207.911V67.6684H214.259H220.607V52.2448H214.259ZM214.259 67.6684V61.3204H202.906V67.6684V74.0164H214.259V67.6684ZM227.733 67.6684L232.976 64.0904L223 49.4695L217.756 53.0475L212.513 56.6255L222.489 71.2464L227.733 67.6684ZM217.756 53.0475V59.3955H229.854V53.0475V46.6995H217.756V53.0475ZM229.854 53.0475L224.62 56.6394L234.654 71.2604L239.888 67.6684L245.122 64.0764L235.088 49.4555L229.854 53.0475ZM239.888 67.6684V61.3204H227.733V67.6684V74.0164H239.888V67.6684ZM214.259 53.4488L218.822 49.036L213.776 43.8183L209.213 48.2312L204.65 52.644L209.695 57.8617L214.259 53.4488ZM209.213 48.2312V54.5792H220.566V48.2312V41.8832H209.213V48.2312ZM220.566 48.2312V54.5792C223.693 54.5792 227.288 53.9213 230.087 51.4015L225.841 46.6831L221.594 41.9646C221.848 41.7363 222.011 41.7129 221.874 41.753C221.717 41.7992 221.313 41.8832 220.566 41.8832V48.2312ZM225.841 46.6831L230.01 51.47C232.816 49.0258 233.966 45.7135 233.966 42.3828H227.618H221.27C221.27 42.6177 221.233 42.5884 221.307 42.4091C221.343 42.3213 221.397 42.2213 221.469 42.1214C221.541 42.0218 221.613 41.9467 221.671 41.8962L225.841 46.6831ZM227.618 42.3828H233.966C233.966 39.0607 232.846 35.7085 230.01 33.2383L225.841 38.0252L221.671 42.8121C221.606 42.7549 221.529 42.6743 221.455 42.5716C221.382 42.4687 221.33 42.369 221.296 42.2862C221.228 42.1189 221.27 42.1123 221.27 42.3828H227.618ZM225.841 38.0252L230.087 33.3068C227.288 30.787 223.693 30.1291 220.566 30.1291V36.4771V42.8251C221.313 42.8251 221.717 42.909 221.874 42.9553C222.011 42.9954 221.848 42.972 221.594 42.7436L225.841 38.0252ZM220.566 36.4771V30.1291H209.213V36.4771V42.8251H220.566V36.4771ZM209.213 36.4771L213.776 40.89L218.822 35.6723L214.259 31.2595L209.695 26.8466L204.65 32.0642L209.213 36.4771ZM214.259 31.2595H207.911V53.4488H214.259H220.607V31.2595H214.259ZM267.596 67.0377L265.175 72.9056L265.215 72.9221L265.255 72.9381L267.596 67.0377ZM261.863 62.9668L256.906 66.9323L256.932 66.9656L256.959 66.9984L261.863 62.9668ZM261.175 51.5567L255.687 48.3661L255.659 48.4142L255.631 48.4629L261.175 51.5567ZM265.532 47.0271L261.919 41.8078L261.895 41.8243L261.871 41.841L265.532 47.0271ZM273.101 43.0709L275.521 48.9392L275.575 48.9172L275.628 48.8942L273.101 43.0709ZM280.268 38.7706L275.225 34.9145L275.207 34.938L275.189 34.9618L280.268 38.7706ZM275.165 34.9863L270.965 30.2264L270.893 30.2897L270.823 30.3552L275.165 34.9863ZM274.534 38.5986L268.609 40.8774L268.683 41.0707L268.77 41.2588L274.534 38.5986ZM275.795 40.3187L271.173 44.6694L271.239 44.7394L271.307 44.8074L275.795 40.3187ZM278.49 42.8415L274.244 47.5599L274.258 47.5731L274.273 47.5861L278.49 42.8415ZM299.648 61.648L304.433 65.8195L308.564 61.0804L303.865 56.9034L299.648 61.648ZM293.799 68.3564L289.574 73.0941L294.365 77.3671L298.584 72.5279L293.799 68.3564ZM269.947 47.0844L274.172 42.3468L274.16 42.3356L274.147 42.3245L269.947 47.0844ZM266.736 43.7589L261.658 47.5677L261.701 47.6248L261.745 47.6808L266.736 43.7589ZM264.901 40.548L258.923 42.6831L258.957 42.7767L258.993 42.8692L264.901 40.548ZM265.991 31.8902L271.13 35.6162L271.152 35.5862L271.173 35.5559L265.991 31.8902ZM270.692 28.2779L273.126 34.1409L273.173 34.1215L273.22 34.1013L270.692 28.2779ZM284.281 28.1059L281.84 33.9656L281.861 33.9745L281.882 33.9832L284.281 28.1059ZM288.811 41.4081L283.444 38.0183L283.411 38.0694L283.38 38.1211L288.811 41.4081ZM284.683 45.4217L281.212 40.1067L281.186 40.1231L281.161 40.1398L284.683 45.4217ZM277.63 49.0339L280.054 54.9011L280.055 54.9005L277.63 49.0339ZM273.387 51.2127L269.823 45.9599L269.778 45.9902L269.734 46.0212L273.387 51.2127ZM271.151 53.4488L276.518 56.8386L276.557 56.7772L276.595 56.7149L271.151 53.4488ZM271.208 58.0931L266.166 61.9492L266.166 61.9492L271.208 58.0931ZM273.33 59.6412L270.888 65.5009L270.994 65.5449L271.101 65.585L273.33 59.6412ZM282.733 58.5518L285.883 64.0634L285.925 64.0394L285.966 64.0148L282.733 58.5518ZM287.55 53.7355L282.238 50.259L282.216 50.2931L282.194 50.3274L287.55 53.7355ZM290.359 46.1097L292.187 40.0305L285.283 37.9548L284.097 45.0661L290.359 46.1097ZM299.132 48.7472L305.34 50.0732L306.561 44.3523L300.959 42.668L299.132 48.7472ZM294.545 59.0678L289.474 55.2485L289.458 55.2696L289.442 55.2909L294.545 59.0678ZM286.46 66.0056L289.38 71.6421L289.393 71.6355L289.406 71.6289L286.46 66.0056ZM275.795 68.4711V62.1231C273.397 62.1231 271.479 61.749 269.938 61.1373L267.596 67.0377L265.255 72.9381C268.53 74.2376 272.078 74.8191 275.795 74.8191V68.4711ZM267.596 67.0377L270.018 61.1697C268.411 60.5066 267.412 59.7211 266.766 58.9351L261.863 62.9668L256.959 66.9984C259.142 69.6526 261.965 71.5811 265.175 72.9056L267.596 67.0377ZM261.863 62.9668L266.82 59.0012C266.316 58.3712 266.146 57.8301 266.146 57.1757H259.798H253.45C253.45 60.8025 254.657 64.1221 256.906 66.9323L261.863 62.9668ZM259.798 57.1757H266.146C266.146 56.0273 266.388 55.2418 266.718 54.6505L261.175 51.5567L255.631 48.4629C254.127 51.1589 253.45 54.1194 253.45 57.1757H259.798ZM261.175 51.5567L266.662 54.7474C267.058 54.0667 267.804 53.1934 269.193 52.2132L265.532 47.0271L261.871 41.841C259.361 43.613 257.202 45.7594 255.687 48.3661L261.175 51.5567ZM265.532 47.0271L269.145 52.2464C270.652 51.2034 272.741 50.086 275.521 48.9392L273.101 43.0709L270.68 37.2025C267.344 38.5785 264.388 40.0986 261.919 41.8078L265.532 47.0271ZM273.101 43.0709L275.628 48.8942C277.767 47.9657 279.638 47.0558 281.126 46.1634L277.86 40.72L274.594 35.2767C273.787 35.7604 272.486 36.4177 270.574 37.2475L273.101 43.0709ZM277.86 40.72L281.126 46.1634C282.529 45.3217 284.156 44.1657 285.346 42.5794L280.268 38.7706L275.189 34.9618C275.282 34.8387 275.35 34.7684 275.37 34.7477C275.392 34.7263 275.382 34.7387 275.328 34.7827C275.212 34.8759 274.982 35.0433 274.594 35.2767L277.86 40.72ZM280.268 38.7706L285.31 42.6267C286.431 41.1606 287.361 39.1914 287.361 36.8211H281.013H274.665C274.665 35.7505 275.098 35.0809 275.225 34.9145L280.268 38.7706ZM281.013 36.8211H287.361C287.361 34.4479 286.495 32.0443 284.53 30.2199L280.21 34.8717L275.891 39.5235C275.513 39.1728 275.172 38.7055 274.943 38.1487C274.719 37.6056 274.665 37.1318 274.665 36.8211H281.013ZM280.21 34.8717L284.53 30.2199C282.374 28.2183 279.739 27.7783 277.802 27.7783V34.1263V40.4743C278.006 40.4743 276.976 40.5313 275.891 39.5235L280.21 34.8717ZM277.802 34.1263V27.7783C275.591 27.7783 273.069 28.3697 270.965 30.2264L275.165 34.9863L279.365 39.7463C278.998 40.0702 278.607 40.2697 278.279 40.3766C277.972 40.4769 277.788 40.4743 277.802 40.4743V34.1263ZM275.165 34.9863L270.823 30.3552C268.927 32.1329 267.899 34.5184 267.899 37.1078H274.247H280.595C280.595 37.474 280.525 37.9542 280.303 38.4663C280.082 38.9789 279.779 39.3623 279.506 39.6175L275.165 34.9863ZM274.247 37.1078H267.899C267.899 38.438 268.158 39.7056 268.609 40.8774L274.534 38.5986L280.459 36.3198C280.527 36.4977 280.595 36.7714 280.595 37.1078H274.247ZM274.534 38.5986L268.77 41.2588C269.41 42.6442 270.349 43.7938 271.173 44.6694L275.795 40.3187L280.418 35.968C280.335 35.8798 280.271 35.8079 280.224 35.752C280.177 35.6959 280.151 35.6611 280.14 35.6473C280.13 35.6331 280.142 35.6479 280.168 35.6911C280.194 35.7337 280.242 35.8167 280.298 35.9384L274.534 38.5986ZM275.795 40.3187L271.307 44.8074C272.07 45.5707 273.061 46.496 274.244 47.5599L278.49 42.8415L282.737 38.1231C281.626 37.1229 280.82 36.3663 280.284 35.83L275.795 40.3187ZM278.49 42.8415L274.273 47.5861L295.43 66.3926L299.648 61.648L303.865 56.9034L282.708 38.0969L278.49 42.8415ZM299.648 61.648L294.863 57.4765L289.014 64.1849L293.799 68.3564L298.584 72.5279L304.433 65.8195L299.648 61.648ZM293.799 68.3564L298.024 63.6188L274.172 42.3468L269.947 47.0844L265.722 51.8221L289.574 73.0941L293.799 68.3564ZM269.947 47.0844L274.147 42.3245C273.062 41.3671 272.277 40.5356 271.728 39.837L266.736 43.7589L261.745 47.6808C262.878 49.1228 264.233 50.5083 265.747 51.8444L269.947 47.0844ZM266.736 43.7589L271.815 39.9501C271.3 39.2636 270.991 38.688 270.81 38.2269L264.901 40.548L258.993 42.8692C259.653 44.5486 260.567 46.1136 261.658 47.5677L266.736 43.7589ZM264.901 40.548L270.88 38.413C270.736 38.0103 270.676 37.6423 270.676 37.2798H264.328H257.98C257.98 39.1344 258.303 40.9451 258.923 42.6831L264.901 40.548ZM264.328 37.2798H270.676C270.676 36.423 270.881 35.9602 271.13 35.6162L265.991 31.8902L260.851 28.1641C258.884 30.8781 257.98 34.0084 257.98 37.2798H264.328ZM265.991 31.8902L271.173 35.5559C271.497 35.0991 272.044 34.5902 273.126 34.1409L270.692 28.2779L268.259 22.415C265.289 23.6476 262.702 25.5468 260.808 28.2244L265.991 31.8902ZM270.692 28.2779L273.22 34.1013C274.288 33.6378 275.764 33.3072 277.802 33.3072V26.9592V20.6112C274.413 20.6112 271.149 21.1597 268.165 22.4546L270.692 28.2779ZM277.802 26.9592V33.3072C279.651 33.3072 280.946 33.5931 281.84 33.9656L284.281 28.1059L286.723 22.2462C283.947 21.0897 280.923 20.6112 277.802 20.6112V26.9592ZM284.281 28.1059L281.882 33.9832C282.795 34.3557 283.221 34.7659 283.464 35.1083L288.639 31.4315L293.814 27.7546C291.993 25.192 289.514 23.3851 286.68 22.2286L284.281 28.1059ZM288.639 31.4315L283.464 35.1083C283.646 35.364 283.839 35.7628 283.839 36.5918H290.187H296.535C296.535 33.4454 295.696 30.404 293.814 27.7546L288.639 31.4315ZM290.187 36.5918H283.839C283.839 37.18 283.705 37.6051 283.444 38.0183L288.811 41.4081L294.178 44.7979C295.752 42.306 296.535 39.5203 296.535 36.5918H290.187ZM288.811 41.4081L283.38 38.1211C283.125 38.5434 282.53 39.2457 281.212 40.1067L284.683 45.4217L288.154 50.7367C290.581 49.1512 292.739 47.1779 294.242 44.6951L288.811 41.4081ZM284.683 45.4217L281.161 40.1398C279.78 41.0609 277.83 42.0823 275.205 43.1673L277.63 49.0339L280.055 54.9005C283.164 53.6155 285.916 52.2288 288.204 50.7035L284.683 45.4217ZM277.63 49.0339L275.207 43.1667C273.217 43.9887 271.376 44.9059 269.823 45.9599L273.387 51.2127L276.952 56.4655C277.539 56.0669 278.527 55.5316 280.054 54.9011L277.63 49.0339ZM273.387 51.2127L269.734 46.0212C268.257 47.0606 266.77 48.4119 265.708 50.1828L271.151 53.4488L276.595 56.7149C276.514 56.8497 276.473 56.8755 276.543 56.8052C276.613 56.7347 276.766 56.597 277.041 56.4041L273.387 51.2127ZM271.151 53.4488L265.784 50.059C264.614 51.9115 264.115 53.9555 264.115 55.9717H270.463H276.811C276.811 56.0043 276.807 56.1211 276.759 56.2945C276.711 56.4725 276.63 56.6614 276.518 56.8386L271.151 53.4488ZM270.463 55.9717H264.115C264.115 58.2306 264.886 60.2749 266.166 61.9492L271.208 58.0931L276.251 54.237C276.371 54.3943 276.522 54.6397 276.639 54.9711C276.757 55.3073 276.811 55.6518 276.811 55.9717H270.463ZM271.208 58.0931L266.166 61.9492C267.471 63.6554 269.164 64.7822 270.888 65.5009L273.33 59.6412L275.772 53.7815C275.713 53.757 275.754 53.767 275.854 53.8396C275.958 53.9158 276.104 54.045 276.251 54.237L271.208 58.0931ZM273.33 59.6412L271.101 65.585C272.903 66.2608 274.784 66.5053 276.598 66.5053V60.1572V53.8092C275.89 53.8092 275.592 53.7096 275.559 53.6974L273.33 59.6412ZM276.598 60.1572V66.5053C279.888 66.5053 283.023 65.6975 285.883 64.0634L282.733 58.5518L279.584 53.0402C278.697 53.5467 277.742 53.8092 276.598 53.8092V60.1572ZM282.733 58.5518L285.966 64.0148C288.816 62.3285 291.109 59.9656 292.905 57.1436L287.55 53.7355L282.194 50.3274C281.314 51.7102 280.397 52.5581 279.5 53.0889L282.733 58.5518ZM287.55 53.7355L292.861 57.2121C294.806 54.2397 296.008 50.8301 296.621 47.1533L290.359 46.1097L284.097 45.0661C283.716 47.3524 283.045 49.0266 282.238 50.259L287.55 53.7355ZM290.359 46.1097L288.531 52.1889L297.304 54.8264L299.132 48.7472L300.959 42.668L292.187 40.0305L290.359 46.1097ZM299.132 48.7472L292.924 47.4212C292.258 50.5391 291.085 53.1098 289.474 55.2485L294.545 59.0678L299.615 62.8872C302.438 59.1393 304.324 54.8296 305.34 50.0732L299.132 48.7472ZM294.545 59.0678L289.442 55.2909C287.828 57.4721 285.867 59.1499 283.515 60.3823L286.46 66.0056L289.406 71.6289C293.475 69.4975 296.904 66.5502 299.647 62.8448L294.545 59.0678ZM286.46 66.0056L283.54 60.3691C281.359 61.4991 278.822 62.1231 275.795 62.1231V68.4711V74.8191C280.644 74.8191 285.216 73.7994 289.38 71.6421L286.46 66.0056ZM332.27 43.0709V36.7228H325.922V43.0709H332.27ZM350.905 43.0709H357.253V36.7228H350.905V43.0709ZM350.905 51.5567V57.9047H357.253V51.5567H350.905ZM332.27 51.5567H325.922V57.9047H332.27V51.5567ZM333.073 58.8958H326.725V65.2439H333.073V58.8958ZM354.059 58.8958H360.407V52.5478H354.059V58.8958ZM354.059 67.6684V74.0164H360.407V67.6684H354.059ZM321.835 67.6684H315.487V74.0164H321.835V67.6684ZM321.835 27.5326V21.1845H315.487V27.5326H321.835ZM353.313 27.5326H359.661V21.1845H353.313V27.5326ZM353.313 36.3051V42.6531H359.661V36.3051H353.313ZM333.073 36.3051V29.9571H326.725V36.3051H333.073ZM332.27 43.0709V49.4189H350.905V43.0709V36.7228H332.27V43.0709ZM350.905 43.0709H344.557V51.5567H350.905H357.253V43.0709H350.905ZM350.905 51.5567V45.2087H332.27V51.5567V57.9047H350.905V51.5567ZM332.27 51.5567H338.619V43.0709H332.27H325.922V51.5567H332.27ZM333.073 58.8958V65.2439H354.059V58.8958V52.5478H333.073V58.8958ZM354.059 58.8958H347.71V67.6684H354.059H360.407V58.8958H354.059ZM354.059 67.6684V61.3204H321.835V67.6684V74.0164H354.059V67.6684ZM321.835 67.6684H328.183V27.5326H321.835H315.487V67.6684H321.835ZM321.835 27.5326V33.8806H353.313V27.5326V21.1845H321.835V27.5326ZM353.313 27.5326H346.965V36.3051H353.313H359.661V27.5326H353.313ZM353.313 36.3051V29.9571H333.073V36.3051V42.6531H353.313V36.3051ZM333.073 36.3051H326.725V58.8958H333.073H339.421V36.3051H333.073ZM355.542 67.6684L349.735 65.1048L345.801 74.0164H355.542V67.6684ZM373.259 27.5326V21.1845H369.122L367.452 24.969L373.259 27.5326ZM384.44 27.5326L390.244 24.9621L388.571 21.1845H384.44V27.5326ZM402.214 67.6684V74.0164H411.968L408.019 65.0979L402.214 67.6684ZM390.403 67.6684L384.512 70.0327L386.11 74.0164H390.403V67.6684ZM376.527 33.0942V26.7462H367.14L370.636 35.4586L376.527 33.0942ZM381 33.0942L386.891 35.4586L390.387 26.7462H381V33.0942ZM367.124 67.6684V74.0164H371.417L373.015 70.0327L367.124 67.6684ZM365.232 59.8706L359.239 57.7772L356.29 66.2186H365.232V59.8706ZM368.156 51.4994V45.1514H363.65L362.163 49.406L368.156 51.4994ZM387.765 51.4994L393.758 49.406L392.272 45.1514H387.765V51.4994ZM390.69 59.8706V66.2186H399.631L396.683 57.7772L390.69 59.8706ZM355.542 67.6684L361.349 70.2319L379.067 30.0961L373.259 27.5326L367.452 24.969L349.735 65.1048L355.542 67.6684ZM373.259 27.5326V33.8806H384.44V27.5326V21.1845H373.259V27.5326ZM384.44 27.5326L378.636 30.103L396.41 70.2389L402.214 67.6684L408.019 65.0979L390.244 24.9621L384.44 27.5326ZM402.214 67.6684V61.3204H390.403V67.6684V74.0164H402.214V67.6684ZM390.403 67.6684L396.294 65.3041L382.419 30.7299L376.527 33.0942L370.636 35.4586L384.512 70.0327L390.403 67.6684ZM376.527 33.0942V39.4422H381V33.0942V26.7462H376.527V33.0942ZM381 33.0942L375.108 30.7299L361.233 65.3041L367.124 67.6684L373.015 70.0327L386.891 35.4586L381 33.0942ZM367.124 67.6684V61.3204H355.542V67.6684V74.0164H367.124V67.6684ZM365.232 59.8706L371.225 61.964L374.149 53.5928L368.156 51.4994L362.163 49.406L359.239 57.7772L365.232 59.8706ZM368.156 51.4994V57.8474H387.765V51.4994V45.1514H368.156V51.4994ZM387.765 51.4994L381.773 53.5928L384.697 61.964L390.69 59.8706L396.683 57.7772L393.758 49.406L387.765 51.4994ZM390.69 59.8706V53.5225H365.232V59.8706V66.2186H390.69V59.8706ZM405.433 67.6684H399.085V74.0164H405.433V67.6684ZM405.433 27.5326V21.1845H399.085V27.5326H405.433ZM433.241 29.31L430.64 35.1005L430.655 35.1074L430.671 35.1143L433.241 29.31ZM439.434 34.4703L434.097 37.9076L434.11 37.9285L434.124 37.9492L439.434 34.4703ZM439.434 50.238L444.715 53.7592L444.73 53.7381L444.743 53.7168L439.434 50.238ZM433.241 55.2836L435.772 61.1052L435.792 61.0966L435.812 61.0879L433.241 55.2836ZM411.74 57.0037L407.384 52.3857L395.758 63.3517H411.74V57.0037ZM416.786 52.2448H423.134V37.5313L412.43 47.6268L416.786 52.2448ZM416.786 67.6684V74.0164H423.134V67.6684H416.786ZM430.26 67.6684L425.016 71.2464L426.906 74.0164H430.26V67.6684ZM420.283 53.0475V46.6995H408.266L415.039 56.6255L420.283 53.0475ZM432.381 53.0475L437.615 49.4555L435.724 46.6995H432.381V53.0475ZM442.415 67.6684V74.0164H454.471L447.649 64.0764L442.415 67.6684ZM416.786 53.4488L412.222 57.8617L423.134 69.145V53.4488H416.786ZM411.74 48.2312V41.8832H396.77L407.177 52.644L411.74 48.2312ZM428.368 46.6831L424.198 41.8962L424.159 41.9301L424.121 41.9646L428.368 46.6831ZM428.368 38.0252L424.121 42.7436L424.159 42.7782L424.198 42.8121L428.368 38.0252ZM411.74 36.4771L407.177 32.0642L396.77 42.8251H411.74V36.4771ZM416.786 31.2595H423.134V15.5633L412.222 26.8466L416.786 31.2595ZM405.433 67.6684H411.781V27.5326H405.433H399.085V67.6684H405.433ZM405.433 27.5326V33.8806H423.781V27.5326V21.1845H405.433V27.5326ZM423.781 27.5326V33.8806C426.786 33.8806 429.009 34.3678 430.64 35.1005L433.241 29.31L435.843 23.5195C432.198 21.8823 428.114 21.1845 423.781 21.1845V27.5326ZM433.241 29.31L430.671 35.1143C432.32 35.8449 433.376 36.7891 434.097 37.9076L439.434 34.4703L444.77 31.033C442.586 27.641 439.513 25.1451 435.812 23.5057L433.241 29.31ZM439.434 34.4703L434.124 37.9492C434.8 38.9807 435.264 40.366 435.264 42.3828H441.612H447.96C447.96 38.2837 446.973 34.394 444.743 30.9914L439.434 34.4703ZM441.612 42.3828H435.264C435.264 44.3438 434.808 45.7148 434.124 46.7591L439.434 50.238L444.743 53.7168C446.964 50.3271 447.96 46.4613 447.96 42.3828H441.612ZM439.434 50.238L434.152 46.7167C433.445 47.7774 432.378 48.7233 430.671 49.4793L433.241 55.2836L435.812 61.0879C439.456 59.474 442.518 57.0561 444.715 53.7592L439.434 50.238ZM433.241 55.2836L430.71 49.462C429.059 50.1799 426.81 50.6557 423.781 50.6557V57.0037V63.3517C428.09 63.3517 432.148 62.6808 435.772 61.1052L433.241 55.2836ZM423.781 57.0037V50.6557H411.74V57.0037V63.3517H423.781V57.0037ZM411.74 57.0037L416.096 61.6217L421.141 56.8628L416.786 52.2448L412.43 47.6268L407.384 52.3857L411.74 57.0037ZM416.786 52.2448H410.438V67.6684H416.786H423.134V52.2448H416.786ZM416.786 67.6684V61.3204H405.433V67.6684V74.0164H416.786V67.6684ZM430.26 67.6684L435.503 64.0904L425.527 49.4695L420.283 53.0475L415.039 56.6255L425.016 71.2464L430.26 67.6684ZM420.283 53.0475V59.3955H432.381V53.0475V46.6995H420.283V53.0475ZM432.381 53.0475L427.147 56.6394L437.181 71.2604L442.415 67.6684L447.649 64.0764L437.615 49.4555L432.381 53.0475ZM442.415 67.6684V61.3204H430.26V67.6684V74.0164H442.415V67.6684ZM416.786 53.4488L421.349 49.036L416.303 43.8183L411.74 48.2312L407.177 52.644L412.222 57.8617L416.786 53.4488ZM411.74 48.2312V54.5792H423.093V48.2312V41.8832H411.74V48.2312ZM423.093 48.2312V54.5792C426.22 54.5792 429.814 53.9213 432.614 51.4015L428.368 46.6831L424.121 41.9646C424.375 41.7363 424.538 41.7129 424.401 41.753C424.244 41.7992 423.84 41.8832 423.093 41.8832V48.2312ZM428.368 46.6831L432.537 51.47C435.343 49.0258 436.493 45.7135 436.493 42.3828H430.145H423.797C423.797 42.6177 423.76 42.5884 423.834 42.4091C423.87 42.3213 423.924 42.2213 423.996 42.1214C424.068 42.0218 424.14 41.9467 424.198 41.8962L428.368 46.6831ZM430.145 42.3828H436.493C436.493 39.0607 435.373 35.7085 432.537 33.2383L428.368 38.0252L424.198 42.8121C424.133 42.7549 424.056 42.6743 423.982 42.5716C423.909 42.4687 423.857 42.369 423.823 42.2862C423.755 42.1189 423.797 42.1123 423.797 42.3828H430.145ZM428.368 38.0252L432.614 33.3068C429.814 30.787 426.22 30.1291 423.093 30.1291V36.4771V42.8251C423.84 42.8251 424.244 42.909 424.401 42.9553C424.538 42.9954 424.375 42.972 424.121 42.7436L428.368 38.0252ZM423.093 36.4771V30.1291H411.74V36.4771V42.8251H423.093V36.4771ZM411.74 36.4771L416.303 40.89L421.349 35.6723L416.786 31.2595L412.222 26.8466L407.177 32.0642L411.74 36.4771ZM416.786 31.2595H410.438V53.4488H416.786H423.134V31.2595H416.786ZM447.876 67.6684H441.528V74.0164H447.876V67.6684ZM447.876 27.5326V21.1845H441.528V27.5326H447.876ZM457.221 27.5326L462.11 23.4831L460.206 21.1845H457.221V27.5326ZM479.354 54.2515V60.5996H492.855L484.242 50.2021L479.354 54.2515ZM474.939 54.2515H468.591V60.5996H474.939V54.2515ZM474.939 27.5326V21.1845H468.591V27.5326H474.939ZM486.062 27.5326H492.41V21.1845H486.062V27.5326ZM486.062 67.6684V74.0164H492.41V67.6684H486.062ZM476.716 67.6684L471.827 71.7178L473.731 74.0164H476.716V67.6684ZM454.584 40.9494V34.6014H441.083L449.695 44.9988L454.584 40.9494ZM458.999 40.9494H465.347V34.6014H458.999V40.9494ZM458.999 67.6684V74.0164H465.347V67.6684H458.999ZM447.876 67.6684H454.224V27.5326H447.876H441.528V67.6684H447.876ZM447.876 27.5326V33.8806H457.221V27.5326V21.1845H447.876V27.5326ZM457.221 27.5326L452.333 31.582L474.465 58.301L479.354 54.2515L484.242 50.2021L462.11 23.4831L457.221 27.5326ZM479.354 54.2515V47.9035H474.939V54.2515V60.5996H479.354V54.2515ZM474.939 54.2515H481.287V27.5326H474.939H468.591V54.2515H474.939ZM474.939 27.5326V33.8806H486.062V27.5326V21.1845H474.939V27.5326ZM486.062 27.5326H479.714V67.6684H486.062H492.41V27.5326H486.062ZM486.062 67.6684V61.3204H476.716V67.6684V74.0164H486.062V67.6684ZM476.716 67.6684L481.605 63.6189L459.473 36.9L454.584 40.9494L449.695 44.9988L471.827 71.7178L476.716 67.6684ZM454.584 40.9494V47.2974H458.999V40.9494V34.6014H454.584V40.9494ZM458.999 40.9494H452.651V67.6684H458.999H465.347V40.9494H458.999ZM458.999 67.6684V61.3204H447.876V67.6684V74.0164H458.999V67.6684Z" fill="#FFF438" mask="url(#path-3-outside-2_41_6)"/>
<defs>
<filter id="filter0_ddi_41_6" x="0.40583" y="0.0399456" width="523.842" height="126.76" filterUnits="userSpaceOnUse" color-interpolation-filters="sRGB">
<feFlood flood-opacity="0" result="BackgroundImageFix"/>
<feColorMatrix in="SourceAlpha" type="matrix" values="0 0 0 0 0 0 0 0 0 0 0 0 0 0 0 0 0 0 127 0" result="hardAlpha"/>
<feOffset dy="10.3155"/>
<feGaussianBlur stdDeviation="3.96751"/>
<feColorMatrix type="matrix" values="0 0 0 0 0.224 0 0 0 0 0.15 0 0 0 0 0 0 0 0 0.7 0"/>
<feBlend mode="multiply" in2="BackgroundImageFix" result="effect1_dropShadow_41_6"/>
<feColorMatrix in="SourceAlpha" type="matrix" values="0 0 0 0 0 0 0 0 0 0 0 0 0 0 0 0 0 0 127 0" result="hardAlpha"/>
<feOffset dy="19.044"/>
<feGaussianBlur stdDeviation="12.3786"/>
<feColorMatrix type="matrix" values="0 0 0 0 0.56 0 0 0 0 0.44 0 0 0 0 0 0 0 0 1 0"/>
<feBlend mode="color-dodge" in2="effect1_dropShadow_41_6" result="effect2_dropShadow_41_6"/>
<feBlend mode="normal" in="SourceGraphic" in2="effect2_dropShadow_41_6" result="shape"/>
<feColorMatrix in="SourceAlpha" type="matrix" values="0 0 0 0 0 0 0 0 0 0 0 0 0 0 0 0 0 0 127 0" result="hardAlpha"/>
<feOffset dx="-1.03155" dy="2.0631"/>
<feGaussianBlur stdDeviation="0.515776"/>
<feComposite in2="hardAlpha" operator="arithmetic" k2="-1" k3="1"/>
<feColorMatrix type="matrix" values="0 0 0 0 1 0 0 0 0 1 0 0 0 0 1 0 0 0 0.5 0"/>
<feBlend mode="normal" in2="shape" result="effect3_innerShadow_41_6"/>
</filter>
</defs>
</svg>
