<svg width="341" height="83" viewBox="0 0 341 83" fill="none" xmlns="http://www.w3.org/2000/svg">
<g style="mix-blend-mode:hard-light" filter="url(#filter0_ddi_40_3)">
<mask id="path-1-outside-1_40_3" maskUnits="userSpaceOnUse" x="16.1245" y="2.8934" width="309" height="51" fill="black">
<rect fill="white" x="16.1245" y="2.8934" width="309" height="51"/>
<path d="M29.7276 43.8934V17.8622H41.6276C44.0076 17.8622 46.0529 18.2464 47.7636 19.015C49.499 19.7835 50.8377 20.8991 51.7798 22.3618C52.7219 23.7998 53.1929 25.5104 53.1929 27.4937C53.1929 29.4523 52.7219 31.1505 51.7798 32.5884C50.8377 34.0015 49.499 35.0924 47.7636 35.8609C46.0529 36.6047 44.0076 36.9765 41.6276 36.9765H33.8183L37.0908 33.89V43.8934H29.7276ZM45.8298 43.8934L39.3592 34.4106H47.2058L53.7136 43.8934H45.8298ZM37.0908 34.6709L33.8183 31.2868H41.1814C42.7185 31.2868 43.8589 30.9522 44.6026 30.2828C45.3712 29.6134 45.7554 28.6837 45.7554 27.4937C45.7554 26.2789 45.3712 25.3368 44.6026 24.6675C43.8589 23.9981 42.7185 23.6634 41.1814 23.6634H33.8183L37.0908 20.2793V34.6709ZM64.0232 27.94H76.1092V33.4437H64.0232V27.94ZM64.5438 38.2037H78.1545V43.8934H57.2551V17.8622H77.671V23.5518H64.5438V38.2037ZM89.0829 29.2787H101.095V34.9684H89.0829V29.2787ZM89.6036 43.8934H82.2404V17.8622H102.656V23.5518H89.6036V43.8934ZM112.868 27.94H124.954V33.4437H112.868V27.94ZM113.389 38.2037H126.999V43.8934H106.1V17.8622H126.516V23.5518H113.389V38.2037ZM131.085 43.8934V17.8622H142.985C145.365 17.8622 147.411 18.2464 149.121 19.015C150.857 19.7835 152.195 20.8991 153.138 22.3618C154.08 23.7998 154.551 25.5104 154.551 27.4937C154.551 29.4523 154.08 31.1505 153.138 32.5884C152.195 34.0015 150.857 35.0924 149.121 35.8609C147.411 36.6047 145.365 36.9765 142.985 36.9765H135.176L138.448 33.89V43.8934H131.085ZM147.188 43.8934L140.717 34.4106H148.563L155.071 43.8934H147.188ZM138.448 34.6709L135.176 31.2868H142.539C144.076 31.2868 145.217 30.9522 145.96 30.2828C146.729 29.6134 147.113 28.6837 147.113 27.4937C147.113 26.2789 146.729 25.3368 145.96 24.6675C145.217 23.9981 144.076 23.6634 142.539 23.6634H135.176L138.448 20.2793V34.6709ZM178.36 44.414C176.377 44.414 174.604 44.1041 173.042 43.4843C171.48 42.8398 170.241 41.9597 169.323 40.844C168.431 39.7284 167.985 38.4764 167.985 37.0881C167.985 35.7245 168.282 34.5098 168.877 33.4437C169.497 32.3777 170.439 31.3984 171.703 30.5059C172.993 29.6134 174.629 28.7581 176.612 27.94C177.926 27.3698 178.955 26.8615 179.699 26.4153C180.442 25.969 180.963 25.5476 181.261 25.1509C181.583 24.7294 181.744 24.308 181.744 23.8865C181.744 23.3659 181.57 22.9444 181.223 22.6222C180.876 22.2999 180.356 22.1387 179.662 22.1387C178.943 22.1387 178.372 22.3247 177.951 22.6965C177.554 23.0684 177.356 23.5271 177.356 24.0725C177.356 24.3948 177.418 24.7171 177.542 25.0393C177.691 25.3616 177.963 25.7335 178.36 26.155C178.781 26.5764 179.364 27.1218 180.108 27.7912L193.83 39.9887L190.037 44.3397L174.567 30.5431C173.724 29.7993 173.03 29.0804 172.484 28.3862C171.964 27.6921 171.567 26.9979 171.294 26.3037C171.046 25.6096 170.922 24.903 170.922 24.184C170.922 22.8453 171.282 21.6801 172.001 20.6884C172.72 19.6719 173.736 18.891 175.05 18.3456C176.364 17.7754 177.901 17.4903 179.662 17.4903C181.273 17.4903 182.674 17.7382 183.864 18.234C185.078 18.7299 186.021 19.4488 186.69 20.3909C187.359 21.333 187.694 22.4486 187.694 23.7378C187.694 24.8782 187.397 25.9194 186.802 26.8615C186.231 27.8036 185.339 28.6713 184.124 29.4647C182.934 30.258 181.409 31.0389 179.55 31.8075C178.41 32.2785 177.492 32.7495 176.798 33.2206C176.129 33.6916 175.645 34.1751 175.348 34.6709C175.05 35.1419 174.902 35.6874 174.902 36.3072C174.902 36.803 175.063 37.2616 175.385 37.6831C175.707 38.1045 176.166 38.4392 176.761 38.6872C177.356 38.9103 178.062 39.0218 178.881 39.0218C180.318 39.0218 181.645 38.6748 182.86 37.9806C184.074 37.2616 185.116 36.2204 185.983 34.8568C186.876 33.4933 187.483 31.8447 187.806 29.9109L193.495 31.6215C192.95 34.1751 191.958 36.4063 190.52 38.3153C189.107 40.2242 187.359 41.7241 185.277 42.815C183.219 43.881 180.913 44.414 178.36 44.414ZM214.988 27.94H227.074V33.4437H214.988V27.94ZM215.509 38.2037H229.12V43.8934H208.22V17.8622H228.636V23.5518H215.509V38.2037ZM230.082 43.8934L241.573 17.8622H248.824L260.353 43.8934H252.692L243.693 21.4693H246.593L237.594 43.8934H230.082ZM236.367 38.8359L238.263 33.4065H250.981L252.878 38.8359H236.367ZM262.44 43.8934V17.8622H274.34C276.72 17.8622 278.765 18.2464 280.476 19.015C282.211 19.7835 283.55 20.8991 284.492 22.3618C285.434 23.7998 285.905 25.5104 285.905 27.4937C285.905 29.4523 285.434 31.1505 284.492 32.5884C283.55 34.0015 282.211 35.0924 280.476 35.8609C278.765 36.6047 276.72 36.9765 274.34 36.9765H266.531L269.803 33.89V43.8934H262.44ZM278.542 43.8934L272.072 34.4106H279.918L286.426 43.8934H278.542ZM269.803 34.6709L266.531 31.2868H273.894C275.431 31.2868 276.571 30.9522 277.315 30.2828C278.084 29.6134 278.468 28.6837 278.468 27.4937C278.468 26.2789 278.084 25.3368 277.315 24.6675C276.571 23.9981 275.431 23.6634 273.894 23.6634H266.531L269.803 20.2793V34.6709ZM289.967 43.8934V17.8622H296.029L310.383 35.1915H307.52V17.8622H314.734V43.8934H308.673L294.318 26.564H297.182V43.8934H289.967Z"/>
</mask>
<path d="M29.7276 43.8934H23.0372V50.5838H29.7276V43.8934ZM29.7276 17.8622V11.1717H23.0372V17.8622H29.7276ZM47.7636 19.015L45.0217 25.1178L45.0381 25.1251L45.0544 25.1324L47.7636 19.015ZM51.7798 22.3618L46.1551 25.9846L46.1692 26.0065L46.1835 26.0284L51.7798 22.3618ZM51.7798 32.5884L57.3466 36.2996L57.3614 36.2773L57.3761 36.2549L51.7798 32.5884ZM47.7636 35.8609L50.4312 41.9965L50.452 41.9875L50.4727 41.9783L47.7636 35.8609ZM33.8183 36.9765L29.2277 32.1094L16.9739 43.667H33.8183V36.9765ZM37.0908 33.89H43.7812V18.3828L32.5002 29.0229L37.0908 33.89ZM37.0908 43.8934V50.5838H43.7812V43.8934H37.0908ZM45.8298 43.8934L40.3034 47.6644L42.2955 50.5838H45.8298V43.8934ZM39.3592 34.4106V27.7202H26.6944L33.8328 38.1816L39.3592 34.4106ZM47.2058 34.4106L52.7221 30.6249L50.7287 27.7202H47.2058V34.4106ZM53.7136 43.8934V50.5838H66.4194L59.2299 40.1077L53.7136 43.8934ZM37.0908 34.6709L32.2813 39.3218L43.7812 51.2137V34.6709H37.0908ZM33.8183 31.2868V24.5964H18.0414L29.0088 35.9377L33.8183 31.2868ZM44.6026 30.2828L40.2085 25.2376L40.1674 25.2734L40.127 25.3098L44.6026 30.2828ZM44.6026 24.6675L40.127 29.6404L40.1674 29.6768L40.2085 29.7126L44.6026 24.6675ZM33.8183 23.6634L29.0088 19.0125L18.0414 30.3538H33.8183V23.6634ZM37.0908 20.2793H43.7812V3.7365L32.2813 15.6284L37.0908 20.2793ZM36.4181 43.8934V17.8622H23.0372V43.8934H36.4181ZM29.7276 24.5526H41.6276V11.1717H29.7276V24.5526ZM41.6276 24.5526C43.308 24.5526 44.3722 24.8259 45.0217 25.1178L50.5054 12.9122C47.7337 11.6669 44.7073 11.1717 41.6276 11.1717V24.5526ZM45.0544 25.1324C45.7084 25.422 45.9846 25.7199 46.1551 25.9846L57.4046 18.7391C55.6909 16.0784 53.2895 14.145 50.4727 12.8976L45.0544 25.1324ZM46.1835 26.0284C46.307 26.2168 46.5025 26.6077 46.5025 27.4937H59.8834C59.8834 24.4131 59.1368 21.3827 57.3761 18.6953L46.1835 26.0284ZM46.5025 27.4937C46.5025 28.3364 46.3158 28.7199 46.1835 28.9219L57.3761 36.2549C59.128 33.581 59.8834 30.5681 59.8834 27.4937H46.5025ZM46.213 28.8772C46.0566 29.1119 45.769 29.4271 45.0544 29.7435L50.4727 41.9783C53.2289 40.7577 55.6189 38.8911 57.3466 36.2996L46.213 28.8772ZM45.0959 29.7253C44.4249 30.0171 43.3334 30.2861 41.6276 30.2861V43.667C44.6819 43.667 47.681 43.1922 50.4312 41.9965L45.0959 29.7253ZM41.6276 30.2861H33.8183V43.667H41.6276V30.2861ZM38.4088 41.8436L41.6813 38.7571L32.5002 29.0229L29.2277 32.1094L38.4088 41.8436ZM30.4003 33.89V43.8934H43.7812V33.89H30.4003ZM37.0908 37.203H29.7276V50.5838H37.0908V37.203ZM51.3563 40.1224L44.8856 30.6396L33.8328 38.1816L40.3034 47.6644L51.3563 40.1224ZM39.3592 41.101H47.2058V27.7202H39.3592V41.101ZM41.6894 38.1963L48.1972 47.6791L59.2299 40.1077L52.7221 30.6249L41.6894 38.1963ZM53.7136 37.203H45.8298V50.5838H53.7136V37.203ZM41.9002 30.02L38.6277 26.6359L29.0088 35.9377L32.2813 39.3218L41.9002 30.02ZM33.8183 37.9773H41.1814V24.5964H33.8183V37.9773ZM41.1814 37.9773C43.5172 37.9773 46.5924 37.4931 49.0783 35.2557L40.127 25.3098C40.6268 24.86 41.0931 24.6785 41.3055 24.6161C41.4959 24.5603 41.4884 24.5964 41.1814 24.5964V37.9773ZM48.9968 35.3279C51.4741 33.1703 52.4459 30.2603 52.4459 27.4937H39.065C39.065 27.3694 39.086 27.0073 39.2842 26.5278C39.493 26.0226 39.8225 25.5739 40.2085 25.2376L48.9968 35.3279ZM52.4459 27.4937C52.4459 24.7517 51.5056 21.8075 48.9968 19.6223L40.2085 29.7126C39.8053 29.3614 39.476 28.9023 39.2723 28.4029C39.0804 27.9323 39.065 27.5882 39.065 27.4937H52.4459ZM49.0783 19.6945C46.5924 17.4572 43.5172 16.973 41.1814 16.973V30.3538C41.4884 30.3538 41.4959 30.39 41.3055 30.3341C41.0931 30.2718 40.6268 30.0903 40.127 29.6404L49.0783 19.6945ZM41.1814 16.973H33.8183V30.3538H41.1814V16.973ZM38.6277 28.3143L41.9002 24.9302L32.2813 15.6284L29.0088 19.0125L38.6277 28.3143ZM30.4003 20.2793V34.6709H43.7812V20.2793H30.4003ZM64.0232 27.94V21.2495H57.3328V27.94H64.0232ZM76.1092 27.94H82.7996V21.2495H76.1092V27.94ZM76.1092 33.4437V40.1341H82.7996V33.4437H76.1092ZM64.0232 33.4437H57.3328V40.1341H64.0232V33.4437ZM64.5438 38.2037H57.8534V44.8941H64.5438V38.2037ZM78.1545 38.2037H84.8449V31.5133H78.1545V38.2037ZM78.1545 43.8934V50.5838H84.8449V43.8934H78.1545ZM57.2551 43.8934H50.5647V50.5838H57.2551V43.8934ZM57.2551 17.8622V11.1717H50.5647V17.8622H57.2551ZM77.671 17.8622H84.3615V11.1717H77.671V17.8622ZM77.671 23.5518V30.2423H84.3615V23.5518H77.671ZM64.5438 23.5518V16.8614H57.8534V23.5518H64.5438ZM64.0232 34.6304H76.1092V21.2495H64.0232V34.6304ZM69.4187 27.94V33.4437H82.7996V27.94H69.4187ZM76.1092 26.7533H64.0232V40.1341H76.1092V26.7533ZM70.7136 33.4437V27.94H57.3328V33.4437H70.7136ZM64.5438 44.8941H78.1545V31.5133H64.5438V44.8941ZM71.464 38.2037V43.8934H84.8449V38.2037H71.464ZM78.1545 37.203H57.2551V50.5838H78.1545V37.203ZM63.9455 43.8934V17.8622H50.5647V43.8934H63.9455ZM57.2551 24.5526H77.671V11.1717H57.2551V24.5526ZM70.9806 17.8622V23.5518H84.3615V17.8622H70.9806ZM77.671 16.8614H64.5438V30.2423H77.671V16.8614ZM57.8534 23.5518V38.2037H71.2343V23.5518H57.8534ZM89.0829 29.2787V22.5883H82.3925V29.2787H89.0829ZM101.095 29.2787H107.785V22.5883H101.095V29.2787ZM101.095 34.9684V41.6588H107.785V34.9684H101.095ZM89.0829 34.9684H82.3925V41.6588H89.0829V34.9684ZM89.6036 43.8934V50.5838H96.294V43.8934H89.6036ZM82.2404 43.8934H75.55V50.5838H82.2404V43.8934ZM82.2404 17.8622V11.1717H75.55V17.8622H82.2404ZM102.656 17.8622H109.347V11.1717H102.656V17.8622ZM102.656 23.5518V30.2423H109.347V23.5518H102.656ZM89.6036 23.5518V16.8614H82.9131V23.5518H89.6036ZM89.0829 35.9691H101.095V22.5883H89.0829V35.9691ZM94.4041 29.2787V34.9684H107.785V29.2787H94.4041ZM101.095 28.278H89.0829V41.6588H101.095V28.278ZM95.7734 34.9684V29.2787H82.3925V34.9684H95.7734ZM89.6036 37.203H82.2404V50.5838H89.6036V37.203ZM88.9309 43.8934V17.8622H75.55V43.8934H88.9309ZM82.2404 24.5526H102.656V11.1717H82.2404V24.5526ZM95.966 17.8622V23.5518H109.347V17.8622H95.966ZM102.656 16.8614H89.6036V30.2423H102.656V16.8614ZM82.9131 23.5518V43.8934H96.294V23.5518H82.9131ZM112.868 27.94V21.2495H106.178V27.94H112.868ZM124.954 27.94H131.644V21.2495H124.954V27.94ZM124.954 33.4437V40.1341H131.644V33.4437H124.954ZM112.868 33.4437H106.178V40.1341H112.868V33.4437ZM113.389 38.2037H106.698V44.8941H113.389V38.2037ZM126.999 38.2037H133.69V31.5133H126.999V38.2037ZM126.999 43.8934V50.5838H133.69V43.8934H126.999ZM106.1 43.8934H99.4096V50.5838H106.1V43.8934ZM106.1 17.8622V11.1717H99.4096V17.8622H106.1ZM126.516 17.8622H133.206V11.1717H126.516V17.8622ZM126.516 23.5518V30.2423H133.206V23.5518H126.516ZM113.389 23.5518V16.8614H106.698V23.5518H113.389ZM112.868 34.6304H124.954V21.2495H112.868V34.6304ZM118.264 27.94V33.4437H131.644V27.94H118.264ZM124.954 26.7533H112.868V40.1341H124.954V26.7533ZM119.559 33.4437V27.94H106.178V33.4437H119.559ZM113.389 44.8941H126.999V31.5133H113.389V44.8941ZM120.309 38.2037V43.8934H133.69V38.2037H120.309ZM126.999 37.203H106.1V50.5838H126.999V37.203ZM112.79 43.8934V17.8622H99.4096V43.8934H112.79ZM106.1 24.5526H126.516V11.1717H106.1V24.5526ZM119.826 17.8622V23.5518H133.206V17.8622H119.826ZM126.516 16.8614H113.389V30.2423H126.516V16.8614ZM106.698 23.5518V38.2037H120.079V23.5518H106.698ZM131.085 43.8934H124.395V50.5838H131.085V43.8934ZM131.085 17.8622V11.1717H124.395V17.8622H131.085ZM149.121 19.015L146.379 25.1178L146.396 25.1251L146.412 25.1324L149.121 19.015ZM153.138 22.3618L147.513 25.9846L147.527 26.0065L147.541 26.0284L153.138 22.3618ZM153.138 32.5884L158.704 36.2996L158.719 36.2773L158.734 36.2549L153.138 32.5884ZM149.121 35.8609L151.789 41.9965L151.81 41.9875L151.83 41.9783L149.121 35.8609ZM135.176 36.9765L130.585 32.1094L118.332 43.667H135.176V36.9765ZM138.448 33.89H145.139V18.3828L133.858 29.0229L138.448 33.89ZM138.448 43.8934V50.5838H145.139V43.8934H138.448ZM147.188 43.8934L141.661 47.6644L143.653 50.5838H147.188V43.8934ZM140.717 34.4106V27.7202H128.052L135.19 38.1816L140.717 34.4106ZM148.563 34.4106L154.08 30.6249L152.086 27.7202H148.563V34.4106ZM155.071 43.8934V50.5838H167.777L160.588 40.1077L155.071 43.8934ZM138.448 34.6709L133.639 39.3218L145.139 51.2137V34.6709H138.448ZM135.176 31.2868V24.5964H119.399L130.367 35.9377L135.176 31.2868ZM145.96 30.2828L141.566 25.2376L141.525 25.2734L141.485 25.3098L145.96 30.2828ZM145.96 24.6675L141.485 29.6404L141.525 29.6768L141.566 29.7126L145.96 24.6675ZM135.176 23.6634L130.367 19.0125L119.399 30.3538H135.176V23.6634ZM138.448 20.2793H145.139V3.7365L133.639 15.6284L138.448 20.2793ZM137.776 43.8934V17.8622H124.395V43.8934H137.776ZM131.085 24.5526H142.985V11.1717H131.085V24.5526ZM142.985 24.5526C144.666 24.5526 145.73 24.8259 146.379 25.1178L151.863 12.9122C149.091 11.6669 146.065 11.1717 142.985 11.1717V24.5526ZM146.412 25.1324C147.066 25.422 147.342 25.7199 147.513 25.9846L158.762 18.7391C157.049 16.0784 154.647 14.145 151.83 12.8976L146.412 25.1324ZM147.541 26.0284C147.665 26.2168 147.86 26.6077 147.86 27.4937H161.241C161.241 24.4131 160.495 21.3827 158.734 18.6953L147.541 26.0284ZM147.86 27.4937C147.86 28.3364 147.674 28.7199 147.541 28.9219L158.734 36.2549C160.486 33.581 161.241 30.5681 161.241 27.4937H147.86ZM147.571 28.8772C147.414 29.1119 147.127 29.4271 146.412 29.7435L151.83 41.9783C154.587 40.7577 156.977 38.8911 158.704 36.2996L147.571 28.8772ZM146.454 29.7253C145.783 30.0171 144.691 30.2861 142.985 30.2861V43.667C146.04 43.667 149.039 43.1922 151.789 41.9965L146.454 29.7253ZM142.985 30.2861H135.176V43.667H142.985V30.2861ZM139.767 41.8436L143.039 38.7571L133.858 29.0229L130.585 32.1094L139.767 41.8436ZM131.758 33.89V43.8934H145.139V33.89H131.758ZM138.448 37.203H131.085V50.5838H138.448V37.203ZM152.714 40.1224L146.243 30.6396L135.19 38.1816L141.661 47.6644L152.714 40.1224ZM140.717 41.101H148.563V27.7202H140.717V41.101ZM143.047 38.1963L149.555 47.6791L160.588 40.1077L154.08 30.6249L143.047 38.1963ZM155.071 37.203H147.188V50.5838H155.071V37.203ZM143.258 30.02L139.985 26.6359L130.367 35.9377L133.639 39.3218L143.258 30.02ZM135.176 37.9773H142.539V24.5964H135.176V37.9773ZM142.539 37.9773C144.875 37.9773 147.95 37.4931 150.436 35.2557L141.485 25.3098C141.985 24.86 142.451 24.6785 142.663 24.6161C142.854 24.5603 142.846 24.5964 142.539 24.5964V37.9773ZM150.354 35.3279C152.832 33.1703 153.804 30.2603 153.804 27.4937H140.423C140.423 27.3694 140.444 27.0073 140.642 26.5278C140.851 26.0226 141.18 25.5739 141.566 25.2376L150.354 35.3279ZM153.804 27.4937C153.804 24.7517 152.863 21.8075 150.354 19.6223L141.566 29.7126C141.163 29.3614 140.834 28.9023 140.63 28.4029C140.438 27.9323 140.423 27.5882 140.423 27.4937H153.804ZM150.436 19.6945C147.95 17.4572 144.875 16.973 142.539 16.973V30.3538C142.846 30.3538 142.854 30.39 142.663 30.3341C142.451 30.2718 141.985 30.0903 141.485 29.6404L150.436 19.6945ZM142.539 16.973H135.176V30.3538H142.539V16.973ZM139.985 28.3143L143.258 24.9302L133.639 15.6284L130.367 19.0125L139.985 28.3143ZM131.758 20.2793V34.6709H145.139V20.2793H131.758ZM173.042 43.4843L170.49 49.6688L170.532 49.6862L170.574 49.703L173.042 43.4843ZM169.323 40.844L164.099 45.0235L164.127 45.0585L164.156 45.0932L169.323 40.844ZM168.877 33.4437L163.093 30.081L163.064 30.1317L163.035 30.183L168.877 33.4437ZM171.703 30.5059L167.895 25.0051L167.87 25.0224L167.845 25.04L171.703 30.5059ZM176.612 27.94L179.163 34.1249L179.22 34.1016L179.276 34.0774L176.612 27.94ZM181.261 25.1509L175.946 21.0868L175.927 21.1116L175.908 21.1366L181.261 25.1509ZM177.951 22.6965L173.524 17.6798L173.449 17.7466L173.375 17.8156L177.951 22.6965ZM177.542 25.0393L171.297 27.4411L171.376 27.6448L171.467 27.843L177.542 25.0393ZM178.36 26.155L173.488 30.7404L173.557 30.8142L173.629 30.8858L178.36 26.155ZM180.108 27.7912L175.632 32.7642L175.647 32.778L175.663 32.7917L180.108 27.7912ZM193.83 39.9887L198.873 44.3852L203.227 39.3905L198.275 34.9882L193.83 39.9887ZM190.037 44.3397L185.584 49.3329L190.634 53.8364L195.08 48.7362L190.037 44.3397ZM174.567 30.5431L179.02 25.5499L179.007 25.5381L178.993 25.5264L174.567 30.5431ZM172.484 28.3862L167.132 32.4005L167.177 32.4606L167.224 32.5197L172.484 28.3862ZM171.294 26.3037L164.994 28.5539L165.029 28.6526L165.067 28.7501L171.294 26.3037ZM172.001 20.6884L177.418 24.6155L177.44 24.5838L177.463 24.5519L172.001 20.6884ZM175.05 18.3456L177.615 24.5248L177.665 24.5043L177.714 24.483L175.05 18.3456ZM183.864 18.234L181.29 24.4098L181.313 24.4192L181.335 24.4283L183.864 18.234ZM186.801 26.8615L181.145 23.2889L181.111 23.3427L181.078 23.3972L186.801 26.8615ZM184.124 29.4647L180.466 23.863L180.439 23.8803L180.413 23.8979L184.124 29.4647ZM179.55 31.8075L182.104 37.9912L182.106 37.9905L179.55 31.8075ZM176.798 33.2206L173.041 27.6844L172.994 27.7164L172.948 27.7491L176.798 33.2206ZM175.348 34.6709L181.004 38.2435L181.045 38.1788L181.085 38.1131L175.348 34.6709ZM175.385 37.6831L170.07 41.7472L175.385 37.6831ZM176.761 38.6872L174.188 44.8629L174.299 44.9093L174.412 44.9516L176.761 38.6872ZM182.86 37.9806L186.179 43.7895L186.223 43.7642L186.267 43.7382L182.86 37.9806ZM185.983 34.8568L180.385 31.1928L180.362 31.2287L180.339 31.2649L185.983 34.8568ZM187.806 29.9109L189.732 23.5038L182.455 21.3161L181.206 28.811L187.806 29.9109ZM193.495 31.6215L200.038 33.019L201.326 26.9896L195.422 25.2144L193.495 31.6215ZM190.52 38.3153L185.176 34.2899L185.159 34.3122L185.143 34.3346L190.52 38.3153ZM185.277 42.815L188.354 48.7555L188.368 48.7486L188.381 48.7416L185.277 42.815ZM178.36 37.7236C177.072 37.7236 176.158 37.523 175.51 37.2656L170.574 49.703C173.05 50.6853 175.681 51.1045 178.36 51.1045V37.7236ZM175.594 37.2999C174.877 37.0038 174.599 36.7261 174.491 36.5949L164.156 45.0932C165.882 47.1932 168.083 48.6757 170.49 49.6688L175.594 37.2999ZM174.548 36.6645C174.531 36.6433 174.577 36.6976 174.621 36.822C174.667 36.9489 174.675 37.0513 174.675 37.0881H161.294C161.294 40.0428 162.287 42.7589 164.099 45.0235L174.548 36.6645ZM174.675 37.0881C174.675 36.8948 174.696 36.7878 174.706 36.7458C174.712 36.7238 174.716 36.7125 174.717 36.7091C174.718 36.7059 174.719 36.705 174.719 36.7044L163.035 30.183C161.821 32.3582 161.294 34.7191 161.294 37.0881H174.675ZM174.661 36.8065C174.691 36.7554 174.888 36.447 175.562 35.9718L167.845 25.04C165.99 26.3499 164.303 28 163.093 30.081L174.661 36.8065ZM175.512 36.0067C176.294 35.4653 177.473 34.8222 179.163 34.1249L174.061 21.7551C171.785 22.694 169.691 23.7615 167.895 25.0051L175.512 36.0067ZM179.276 34.0774C180.709 33.4552 182.038 32.8139 183.141 32.1523L176.256 20.6783C175.872 20.9092 175.143 21.2843 173.949 21.8025L179.276 34.0774ZM183.141 32.1523C184.155 31.544 185.545 30.5891 186.613 29.1652L175.908 21.1366C176.052 20.9449 176.179 20.8079 176.265 20.7222C176.351 20.6357 176.413 20.5839 176.437 20.5644C176.479 20.531 176.434 20.5718 176.256 20.6783L183.141 32.1523ZM186.575 29.215C187.555 27.9333 188.434 26.1212 188.434 23.8865H175.054C175.054 22.4948 175.61 21.5256 175.946 21.0868L186.575 29.215ZM188.434 23.8865C188.434 21.7107 187.63 19.4409 185.776 17.7195L176.671 27.5249C176.164 27.0546 175.723 26.4458 175.427 25.7273C175.137 25.0232 175.054 24.3767 175.054 23.8865H188.434ZM185.776 17.7195C183.721 15.8113 181.269 15.4483 179.661 15.4483V28.8291C179.442 28.8291 178.032 28.7885 176.671 27.5249L185.776 17.7195ZM179.661 15.4483C177.781 15.4483 175.479 15.9554 173.524 17.6798L182.377 27.7133C181.266 28.6939 180.105 28.8291 179.661 28.8291V15.4483ZM173.375 17.8156C171.624 19.4568 170.665 21.6843 170.665 24.0725H184.046C184.046 24.6289 183.941 25.2918 183.645 25.9749C183.35 26.6585 182.938 27.1923 182.527 27.5774L173.375 17.8156ZM170.665 24.0725C170.665 25.273 170.9 26.4075 171.297 27.4411L183.786 22.6376C183.936 23.0266 184.046 23.5165 184.046 24.0725H170.665ZM171.467 27.843C172.048 29.1017 172.867 30.081 173.488 30.7404L183.232 21.5696C183.176 21.51 183.193 21.5222 183.253 21.6035C183.307 21.6775 183.458 21.8913 183.616 22.2357L171.467 27.843ZM173.629 30.8858C174.17 31.4269 174.851 32.0612 175.632 32.7642L184.583 22.8183C183.877 22.1825 183.393 21.7259 183.091 21.4241L173.629 30.8858ZM175.663 32.7917L189.385 44.9892L198.275 34.9882L184.553 22.7907L175.663 32.7917ZM188.787 35.5922L184.994 39.9431L195.08 48.7362L198.873 44.3852L188.787 35.5922ZM194.49 39.3465L179.02 25.5499L170.114 35.5363L185.584 49.3329L194.49 39.3465ZM178.993 25.5264C178.377 24.9822 177.983 24.5552 177.745 24.2527L167.224 32.5197C168.077 33.6056 169.071 34.6165 170.14 35.5598L178.993 25.5264ZM177.837 24.372C177.619 24.0823 177.542 23.9095 177.521 23.8573L165.067 28.7501C165.592 30.0863 166.308 31.3018 167.132 32.4005L177.837 24.372ZM177.595 24.0535C177.595 24.0525 177.6 24.068 177.605 24.0971C177.61 24.1264 177.613 24.1568 177.613 24.184H164.232C164.232 25.6893 164.494 27.1561 164.994 28.5539L177.595 24.0535ZM177.613 24.184C177.613 24.1183 177.621 24.1629 177.585 24.2784C177.548 24.3997 177.486 24.5204 177.418 24.6155L166.584 16.7613C164.96 19.002 164.232 21.5728 164.232 24.184H177.613ZM177.463 24.5519C177.446 24.576 177.427 24.5985 177.409 24.6174C177.4 24.6264 177.393 24.6334 177.387 24.6384C177.382 24.6434 177.379 24.6458 177.379 24.6458C177.379 24.6457 177.382 24.6429 177.39 24.6375C177.399 24.6321 177.412 24.6239 177.43 24.6134C177.467 24.5925 177.527 24.5615 177.615 24.5248L172.485 12.1664C170.177 13.1246 168.085 14.6382 166.539 16.8249L177.463 24.5519ZM177.714 24.483C178.018 24.3509 178.613 24.1807 179.661 24.1807V10.7999C177.189 10.7999 174.71 11.1998 172.387 12.2082L177.714 24.483ZM179.661 24.1807C180.603 24.1807 181.092 24.3271 181.29 24.4098L186.437 12.0582C184.255 11.1493 181.943 10.7999 179.661 10.7999V24.1807ZM181.335 24.4283C181.454 24.4767 181.468 24.4984 181.422 24.4637C181.401 24.447 181.37 24.4209 181.335 24.3848C181.3 24.3485 181.266 24.3082 181.236 24.2661L192.144 16.5158C190.643 14.4037 188.619 12.9487 186.392 12.0397L181.335 24.4283ZM181.236 24.2661C181.145 24.1378 181.075 23.9918 181.035 23.8567C180.996 23.7282 181.004 23.6755 181.004 23.7378H194.384C194.384 21.2274 193.709 18.7193 192.144 16.5158L181.236 24.2661ZM181.004 23.7378C181.004 23.7194 181.007 23.6441 181.038 23.536C181.069 23.4268 181.112 23.3405 181.145 23.2889L192.458 30.4342C193.745 28.3966 194.384 26.1115 194.384 23.7378H181.004ZM181.078 23.3972C181.165 23.2535 181.096 23.4514 180.466 23.863L187.782 35.0664C189.582 33.8912 191.298 32.3537 192.525 30.3259L181.078 23.3972ZM180.413 23.8979C179.7 24.3728 178.599 24.9613 176.994 25.6244L182.106 37.9905C184.22 37.1166 186.168 36.1431 187.835 35.0314L180.413 23.8979ZM176.996 25.6238C175.611 26.1958 174.244 26.868 173.041 27.6844L180.555 38.7568C180.74 38.6311 181.208 38.3613 182.104 37.9912L176.996 25.6238ZM172.948 27.7491C171.809 28.5502 170.545 29.6722 169.611 31.2287L181.085 38.1131C180.906 38.4102 180.741 38.5903 180.664 38.6673C180.587 38.7441 180.569 38.7482 180.648 38.6921L172.948 27.7491ZM169.691 31.0983C168.644 32.7563 168.211 34.5696 168.211 36.3072H181.592C181.592 36.8051 181.457 37.5276 181.004 38.2435L169.691 31.0983ZM168.211 36.3072C168.211 38.378 168.922 40.246 170.07 41.7472L180.7 33.619C180.927 33.9165 181.161 34.3126 181.335 34.8052C181.509 35.3028 181.592 35.8151 181.592 36.3072H168.211ZM170.07 41.7472C171.244 43.282 172.742 44.2604 174.188 44.8629L179.334 32.5114C179.59 32.6181 180.17 32.9271 180.7 33.619L170.07 41.7472ZM174.412 44.9516C175.939 45.5244 177.48 45.7123 178.881 45.7123V32.3314C178.772 32.3314 178.744 32.3238 178.781 32.3296C178.818 32.3356 178.936 32.3575 179.11 32.4227L174.412 44.9516ZM178.881 45.7123C181.449 45.7123 183.924 45.0778 186.179 43.7895L179.54 32.1717C179.365 32.2717 179.188 32.3314 178.881 32.3314V45.7123ZM186.267 43.7382C188.511 42.4103 190.277 40.5707 191.628 38.4488L180.339 31.2649C179.954 31.87 179.638 32.1129 179.452 32.223L186.267 43.7382ZM191.581 38.5209C193.074 36.2404 193.961 33.6773 194.405 31.0108L181.206 28.811C181.006 30.012 180.678 30.7462 180.385 31.1928L191.581 38.5209ZM185.879 36.318L191.569 38.0286L195.422 25.2144L189.732 23.5038L185.879 36.318ZM186.952 30.224C186.591 31.9141 185.975 33.229 185.176 34.2899L195.864 42.3406C197.941 39.5837 199.308 36.4361 200.038 33.019L186.952 30.224ZM185.143 34.3346C184.324 35.4403 183.351 36.2712 182.172 36.8884L188.381 48.7416C191.368 47.177 193.89 45.0082 195.898 42.2959L185.143 34.3346ZM182.199 36.8744C181.186 37.3991 179.953 37.7236 178.36 37.7236V51.1045C181.874 51.1045 185.252 50.3629 188.354 48.7555L182.199 36.8744ZM214.988 27.94V21.2495H208.298V27.94H214.988ZM227.074 27.94H233.765V21.2495H227.074V27.94ZM227.074 33.4437V40.1341H233.765V33.4437H227.074ZM214.988 33.4437H208.298V40.1341H214.988V33.4437ZM215.509 38.2037H208.819V44.8941H215.509V38.2037ZM229.12 38.2037H235.81V31.5133H229.12V38.2037ZM229.12 43.8934V50.5838H235.81V43.8934H229.12ZM208.22 43.8934H201.53V50.5838H208.22V43.8934ZM208.22 17.8622V11.1717H201.53V17.8622H208.22ZM228.636 17.8622H235.327V11.1717H228.636V17.8622ZM228.636 23.5518V30.2423H235.327V23.5518H228.636ZM215.509 23.5518V16.8614H208.819V23.5518H215.509ZM214.988 34.6304H227.074V21.2495H214.988V34.6304ZM220.384 27.94V33.4437H233.765V27.94H220.384ZM227.074 26.7533H214.988V40.1341H227.074V26.7533ZM221.679 33.4437V27.94H208.298V33.4437H221.679ZM215.509 44.8941H229.12V31.5133H215.509V44.8941ZM222.429 38.2037V43.8934H235.81V38.2037H222.429ZM229.12 37.203H208.22V50.5838H229.12V37.203ZM214.911 43.8934V17.8622H201.53V43.8934H214.911ZM208.22 24.5526H228.636V11.1717H208.22V24.5526ZM221.946 17.8622V23.5518H235.327V17.8622H221.946ZM228.636 16.8614H215.509V30.2423H228.636V16.8614ZM208.819 23.5518V38.2037H222.2V23.5518H208.819ZM230.082 43.8934L223.961 41.1916L219.815 50.5838H230.082V43.8934ZM241.573 17.8622V11.1717H237.213L235.452 15.1603L241.573 17.8622ZM248.824 17.8622L254.942 15.153L253.179 11.1717H248.824V17.8622ZM260.353 43.8934V50.5838H270.633L266.47 41.1843L260.353 43.8934ZM252.692 43.8934L246.483 46.3853L248.168 50.5838H252.692V43.8934ZM243.693 21.4693V14.7789H233.798L237.483 23.9612L243.693 21.4693ZM246.593 21.4693L252.802 23.9612L256.487 14.7789H246.593V21.4693ZM237.594 43.8934V50.5838H242.118L243.803 46.3853L237.594 43.8934ZM236.367 38.8359L230.05 36.6296L226.943 45.5263H236.367V38.8359ZM238.263 33.4065V26.7161H233.513L231.947 31.2002L238.263 33.4065ZM250.981 33.4065L257.297 31.2002L255.731 26.7161H250.981V33.4065ZM252.878 38.8359V45.5263H262.302L259.194 36.6296L252.878 38.8359ZM236.203 46.5952L247.693 20.564L235.452 15.1603L223.961 41.1916L236.203 46.5952ZM241.573 24.5526H248.824V11.1717H241.573V24.5526ZM242.707 20.5713L254.235 46.6025L266.47 41.1843L254.942 15.153L242.707 20.5713ZM260.353 37.203H252.692V50.5838H260.353V37.203ZM258.901 41.4015L249.902 18.9775L237.483 23.9612L246.483 46.3853L258.901 41.4015ZM243.693 28.1598H246.593V14.7789H243.693V28.1598ZM240.384 18.9775L231.385 41.4015L243.803 46.3853L252.802 23.9612L240.384 18.9775ZM237.594 37.203H230.082V50.5838H237.594V37.203ZM242.683 41.0422L244.579 35.6129L231.947 31.2002L230.05 36.6296L242.683 41.0422ZM238.263 40.097H250.981V26.7161H238.263V40.097ZM244.665 35.6129L246.562 41.0422L259.194 36.6296L257.297 31.2002L244.665 35.6129ZM252.878 32.1455H236.367V45.5263H252.878V32.1455ZM262.44 43.8934H255.75V50.5838H262.44V43.8934ZM262.44 17.8622V11.1717H255.75V17.8622H262.44ZM280.476 19.015L277.734 25.1178L277.75 25.1251L277.767 25.1324L280.476 19.015ZM284.492 22.3618L278.867 25.9846L278.882 26.0065L278.896 26.0284L284.492 22.3618ZM284.492 32.5884L290.059 36.2996L290.074 36.2773L290.088 36.2549L284.492 32.5884ZM280.476 35.8609L283.144 41.9965L283.164 41.9875L283.185 41.9783L280.476 35.8609ZM266.531 36.9765L261.94 32.1094L249.686 43.667H266.531V36.9765ZM269.803 33.89H276.494V18.3828L265.213 29.0229L269.803 33.89ZM269.803 43.8934V50.5838H276.494V43.8934H269.803ZM278.542 43.8934L273.016 47.6644L275.008 50.5838H278.542V43.8934ZM272.072 34.4106V27.7202H259.407L266.545 38.1816L272.072 34.4106ZM279.918 34.4106L285.434 30.6249L283.441 27.7202H279.918V34.4106ZM286.426 43.8934V50.5838H299.132L291.942 40.1077L286.426 43.8934ZM269.803 34.6709L264.994 39.3218L276.494 51.2137V34.6709H269.803ZM266.531 31.2868V24.5964H250.754L261.721 35.9377L266.531 31.2868ZM277.315 30.2828L272.921 25.2376L272.88 25.2734L272.839 25.3098L277.315 30.2828ZM277.315 24.6675L272.839 29.6404L272.88 29.6768L272.921 29.7126L277.315 24.6675ZM266.531 23.6634L261.721 19.0125L250.754 30.3538H266.531V23.6634ZM269.803 20.2793H276.494V3.7365L264.994 15.6284L269.803 20.2793ZM269.13 43.8934V17.8622H255.75V43.8934H269.13ZM262.44 24.5526H274.34V11.1717H262.44V24.5526ZM274.34 24.5526C276.02 24.5526 277.085 24.8259 277.734 25.1178L283.218 12.9122C280.446 11.6669 277.42 11.1717 274.34 11.1717V24.5526ZM277.767 25.1324C278.421 25.422 278.697 25.7199 278.867 25.9846L290.117 18.7391C288.403 16.0784 286.002 14.145 283.185 12.8976L277.767 25.1324ZM278.896 26.0284C279.019 26.2168 279.215 26.6077 279.215 27.4937H292.596C292.596 24.4131 291.849 21.3827 290.088 18.6953L278.896 26.0284ZM279.215 27.4937C279.215 28.3364 279.028 28.7199 278.896 28.9219L290.088 36.2549C291.84 33.581 292.596 30.5681 292.596 27.4937H279.215ZM278.925 28.8772C278.769 29.1119 278.481 29.4271 277.767 29.7435L283.185 41.9783C285.941 40.7577 288.331 38.8911 290.059 36.2996L278.925 28.8772ZM277.808 29.7253C277.137 30.0171 276.046 30.2861 274.34 30.2861V43.667C277.394 43.667 280.393 43.1922 283.144 41.9965L277.808 29.7253ZM274.34 30.2861H266.531V43.667H274.34V30.2861ZM271.121 41.8436L274.394 38.7571L265.213 29.0229L261.94 32.1094L271.121 41.8436ZM263.113 33.89V43.8934H276.494V33.89H263.113ZM269.803 37.203H262.44V50.5838H269.803V37.203ZM284.069 40.1224L277.598 30.6396L266.545 38.1816L273.016 47.6644L284.069 40.1224ZM272.072 41.101H279.918V27.7202H272.072V41.101ZM274.402 38.1963L280.91 47.6791L291.942 40.1077L285.434 30.6249L274.402 38.1963ZM286.426 37.203H278.542V50.5838H286.426V37.203ZM274.613 30.02L271.34 26.6359L261.721 35.9377L264.994 39.3218L274.613 30.02ZM266.531 37.9773H273.894V24.5964H266.531V37.9773ZM273.894 37.9773C276.23 37.9773 279.305 37.4931 281.791 35.2557L272.839 25.3098C273.339 24.86 273.805 24.6785 274.018 24.6161C274.208 24.5603 274.201 24.5964 273.894 24.5964V37.9773ZM281.709 35.3279C284.186 33.1703 285.158 30.2603 285.158 27.4937H271.777C271.777 27.3694 271.798 27.0073 271.997 26.5278C272.205 26.0226 272.535 25.5739 272.921 25.2376L281.709 35.3279ZM285.158 27.4937C285.158 24.7517 284.218 21.8075 281.709 19.6223L272.921 29.7126C272.518 29.3614 272.188 28.9023 271.985 28.4029C271.793 27.9323 271.777 27.5882 271.777 27.4937H285.158ZM281.791 19.6945C279.305 17.4572 276.23 16.973 273.894 16.973V30.3538C274.201 30.3538 274.208 30.39 274.018 30.3341C273.805 30.2718 273.339 30.0903 272.839 29.6404L281.791 19.6945ZM273.894 16.973H266.531V30.3538H273.894V16.973ZM271.34 28.3143L274.613 24.9302L264.994 15.6284L261.721 19.0125L271.34 28.3143ZM263.113 20.2793V34.6709H276.494V20.2793H263.113ZM289.967 43.8934H283.277V50.5838H289.967V43.8934ZM289.967 17.8622V11.1717H283.277V17.8622H289.967ZM296.029 17.8622L301.181 13.5943L299.175 11.1717H296.029V17.8622ZM310.383 35.1915V41.882H324.613L315.536 30.9237L310.383 35.1915ZM307.52 35.1915H300.829V41.882H307.52V35.1915ZM307.52 17.8622V11.1717H300.829V17.8622H307.52ZM314.734 17.8622H321.425V11.1717H314.734V17.8622ZM314.734 43.8934V50.5838H321.425V43.8934H314.734ZM308.673 43.8934L303.52 48.1613L305.527 50.5838H308.673V43.8934ZM294.318 26.564V19.8736H280.089L289.166 30.8319L294.318 26.564ZM297.182 26.564H303.872V19.8736H297.182V26.564ZM297.182 43.8934V50.5838H303.872V43.8934H297.182ZM296.658 43.8934V17.8622H283.277V43.8934H296.658ZM289.967 24.5526H296.029V11.1717H289.967V24.5526ZM290.877 22.13L305.231 39.4594L315.536 30.9237L301.181 13.5943L290.877 22.13ZM310.383 28.5011H307.52V41.882H310.383V28.5011ZM314.21 35.1915V17.8622H300.829V35.1915H314.21ZM307.52 24.5526H314.734V11.1717H307.52V24.5526ZM308.044 17.8622V43.8934H321.425V17.8622H308.044ZM314.734 37.203H308.673V50.5838H314.734V37.203ZM313.825 39.6255L299.471 22.2962L289.166 30.8319L303.52 48.1613L313.825 39.6255ZM294.318 33.2545H297.182V19.8736H294.318V33.2545ZM290.491 26.564V43.8934H303.872V26.564H290.491ZM297.182 37.203H289.967V50.5838H297.182V37.203Z" fill="#FFC940" fill-opacity="0.2" mask="url(#path-1-outside-1_40_3)"/>
</g>
<mask id="path-3-outside-2_40_3" maskUnits="userSpaceOnUse" x="24.2935" y="9.8934" width="297" height="41" fill="black">
<rect fill="white" x="24.2935" y="9.8934" width="297" height="41"/>
<path d="M30.8966 43.8934V17.8622H42.7966C45.1766 17.8622 47.2219 18.2464 48.9325 19.015C50.6679 19.7835 52.0067 20.8991 52.9488 22.3618C53.8908 23.7998 54.3619 25.5104 54.3619 27.4937C54.3619 29.4523 53.8908 31.1505 52.9488 32.5884C52.0067 34.0015 50.6679 35.0924 48.9325 35.8609C47.2219 36.6047 45.1766 36.9765 42.7966 36.9765H34.9872L38.2597 33.89V43.8934H30.8966ZM46.9988 43.8934L40.5281 34.4106H48.3747L54.8825 43.8934H46.9988ZM38.2597 34.6709L34.9872 31.2868H42.3503C43.8874 31.2868 45.0278 30.9522 45.7716 30.2828C46.5401 29.6134 46.9244 28.6837 46.9244 27.4937C46.9244 26.2789 46.5401 25.3368 45.7716 24.6675C45.0278 23.9981 43.8874 23.6634 42.3503 23.6634H34.9872L38.2597 20.2793V34.6709ZM65.1922 27.94H77.2781V33.4437H65.1922V27.94ZM65.7128 38.2037H79.3234V43.8934H58.424V17.8622H78.84V23.5518H65.7128V38.2037ZM90.2519 29.2787H102.263V34.9684H90.2519V29.2787ZM90.7725 43.8934H83.4094V17.8622H103.825V23.5518H90.7725V43.8934ZM114.037 27.94H126.123V33.4437H114.037V27.94ZM114.558 38.2037H128.168V43.8934H107.269V17.8622H127.685V23.5518H114.558V38.2037ZM132.254 43.8934V17.8622H144.154C146.534 17.8622 148.58 18.2464 150.29 19.015C152.026 19.7835 153.364 20.8991 154.306 22.3618C155.249 23.7998 155.72 25.5104 155.72 27.4937C155.72 29.4523 155.249 31.1505 154.306 32.5884C153.364 34.0015 152.026 35.0924 150.29 35.8609C148.58 36.6047 146.534 36.9765 144.154 36.9765H136.345L139.617 33.89V43.8934H132.254ZM148.356 43.8934L141.886 34.4106H149.732L156.24 43.8934H148.356ZM139.617 34.6709L136.345 31.2868H143.708C145.245 31.2868 146.386 30.9522 147.129 30.2828C147.898 29.6134 148.282 28.6837 148.282 27.4937C148.282 26.2789 147.898 25.3368 147.129 24.6675C146.386 23.9981 145.245 23.6634 143.708 23.6634H136.345L139.617 20.2793V34.6709ZM179.529 44.414C177.546 44.414 175.773 44.1041 174.211 43.4843C172.649 42.8398 171.41 41.9597 170.492 40.844C169.6 39.7284 169.154 38.4764 169.154 37.0881C169.154 35.7245 169.451 34.5098 170.046 33.4437C170.666 32.3777 171.608 31.3984 172.872 30.5059C174.161 29.6134 175.798 28.7581 177.781 27.94C179.095 27.3698 180.124 26.8615 180.868 26.4153C181.611 25.969 182.132 25.5476 182.43 25.1509C182.752 24.7294 182.913 24.308 182.913 23.8865C182.913 23.3659 182.739 22.9444 182.392 22.6222C182.045 22.2999 181.525 22.1387 180.83 22.1387C180.111 22.1387 179.541 22.3247 179.12 22.6965C178.723 23.0684 178.525 23.5271 178.525 24.0725C178.525 24.3948 178.587 24.7171 178.711 25.0393C178.86 25.3616 179.132 25.7335 179.529 26.155C179.95 26.5764 180.533 27.1218 181.277 27.7912L194.999 39.9887L191.206 44.3397L175.736 30.5431C174.893 29.7993 174.199 29.0804 173.653 28.3862C173.133 27.6921 172.736 26.9979 172.463 26.3037C172.215 25.6096 172.091 24.903 172.091 24.184C172.091 22.8453 172.451 21.6801 173.17 20.6884C173.889 19.6719 174.905 18.891 176.219 18.3456C177.533 17.7754 179.07 17.4903 180.83 17.4903C182.442 17.4903 183.843 17.7382 185.033 18.234C186.247 18.7299 187.19 19.4488 187.859 20.3909C188.528 21.333 188.863 22.4486 188.863 23.7378C188.863 24.8782 188.565 25.9194 187.97 26.8615C187.4 27.8036 186.508 28.6713 185.293 29.4647C184.103 30.258 182.578 31.0389 180.719 31.8075C179.578 32.2785 178.661 32.7495 177.967 33.2206C177.298 33.6916 176.814 34.1751 176.517 34.6709C176.219 35.1419 176.07 35.6874 176.07 36.3072C176.07 36.803 176.232 37.2616 176.554 37.6831C176.876 38.1045 177.335 38.4392 177.93 38.6872C178.525 38.9103 179.231 39.0218 180.05 39.0218C181.487 39.0218 182.814 38.6748 184.029 37.9806C185.243 37.2616 186.285 36.2204 187.152 34.8568C188.045 33.4933 188.652 31.8447 188.975 29.9109L194.664 31.6215C194.119 34.1751 193.127 36.4063 191.689 38.3153C190.276 40.2242 188.528 41.7241 186.446 42.815C184.388 43.881 182.082 44.414 179.529 44.414ZM216.157 27.94H228.243V33.4437H216.157V27.94ZM216.678 38.2037H230.289V43.8934H209.389V17.8622H229.805V23.5518H216.678V38.2037ZM231.251 43.8934L242.742 17.8622H249.993L261.521 43.8934H253.861L244.861 21.4693H247.762L238.763 43.8934H231.251ZM237.536 38.8359L239.432 33.4065H252.15L254.047 38.8359H237.536ZM263.609 43.8934V17.8622H275.509C277.889 17.8622 279.934 18.2464 281.645 19.015C283.38 19.7835 284.719 20.8991 285.661 22.3618C286.603 23.7998 287.074 25.5104 287.074 27.4937C287.074 29.4523 286.603 31.1505 285.661 32.5884C284.719 34.0015 283.38 35.0924 281.645 35.8609C279.934 36.6047 277.889 36.9765 275.509 36.9765H267.7L270.972 33.89V43.8934H263.609ZM279.711 43.8934L273.24 34.4106H281.087L287.595 43.8934H279.711ZM270.972 34.6709L267.7 31.2868H275.063C276.6 31.2868 277.74 30.9522 278.484 30.2828C279.252 29.6134 279.637 28.6837 279.637 27.4937C279.637 26.2789 279.252 25.3368 278.484 24.6675C277.74 23.9981 276.6 23.6634 275.063 23.6634H267.7L270.972 20.2793V34.6709ZM291.136 43.8934V17.8622H297.198L311.552 35.1915H308.689V17.8622H315.903V43.8934H309.842L295.487 26.564H298.351V43.8934H291.136Z"/>
</mask>
<path d="M30.8966 43.8934V17.8622H42.7966C45.1766 17.8622 47.2219 18.2464 48.9325 19.015C50.6679 19.7835 52.0067 20.8991 52.9488 22.3618C53.8908 23.7998 54.3619 25.5104 54.3619 27.4937C54.3619 29.4523 53.8908 31.1505 52.9488 32.5884C52.0067 34.0015 50.6679 35.0924 48.9325 35.8609C47.2219 36.6047 45.1766 36.9765 42.7966 36.9765H34.9872L38.2597 33.89V43.8934H30.8966ZM46.9988 43.8934L40.5281 34.4106H48.3747L54.8825 43.8934H46.9988ZM38.2597 34.6709L34.9872 31.2868H42.3503C43.8874 31.2868 45.0278 30.9522 45.7716 30.2828C46.5401 29.6134 46.9244 28.6837 46.9244 27.4937C46.9244 26.2789 46.5401 25.3368 45.7716 24.6675C45.0278 23.9981 43.8874 23.6634 42.3503 23.6634H34.9872L38.2597 20.2793V34.6709ZM65.1922 27.94H77.2781V33.4437H65.1922V27.94ZM65.7128 38.2037H79.3234V43.8934H58.424V17.8622H78.84V23.5518H65.7128V38.2037ZM90.2519 29.2787H102.263V34.9684H90.2519V29.2787ZM90.7725 43.8934H83.4094V17.8622H103.825V23.5518H90.7725V43.8934ZM114.037 27.94H126.123V33.4437H114.037V27.94ZM114.558 38.2037H128.168V43.8934H107.269V17.8622H127.685V23.5518H114.558V38.2037ZM132.254 43.8934V17.8622H144.154C146.534 17.8622 148.58 18.2464 150.29 19.015C152.026 19.7835 153.364 20.8991 154.306 22.3618C155.249 23.7998 155.72 25.5104 155.72 27.4937C155.72 29.4523 155.249 31.1505 154.306 32.5884C153.364 34.0015 152.026 35.0924 150.29 35.8609C148.58 36.6047 146.534 36.9765 144.154 36.9765H136.345L139.617 33.89V43.8934H132.254ZM148.356 43.8934L141.886 34.4106H149.732L156.24 43.8934H148.356ZM139.617 34.6709L136.345 31.2868H143.708C145.245 31.2868 146.386 30.9522 147.129 30.2828C147.898 29.6134 148.282 28.6837 148.282 27.4937C148.282 26.2789 147.898 25.3368 147.129 24.6675C146.386 23.9981 145.245 23.6634 143.708 23.6634H136.345L139.617 20.2793V34.6709ZM179.529 44.414C177.546 44.414 175.773 44.1041 174.211 43.4843C172.649 42.8398 171.41 41.9597 170.492 40.844C169.6 39.7284 169.154 38.4764 169.154 37.0881C169.154 35.7245 169.451 34.5098 170.046 33.4437C170.666 32.3777 171.608 31.3984 172.872 30.5059C174.161 29.6134 175.798 28.7581 177.781 27.94C179.095 27.3698 180.124 26.8615 180.868 26.4153C181.611 25.969 182.132 25.5476 182.43 25.1509C182.752 24.7294 182.913 24.308 182.913 23.8865C182.913 23.3659 182.739 22.9444 182.392 22.6222C182.045 22.2999 181.525 22.1387 180.83 22.1387C180.111 22.1387 179.541 22.3247 179.12 22.6965C178.723 23.0684 178.525 23.5271 178.525 24.0725C178.525 24.3948 178.587 24.7171 178.711 25.0393C178.86 25.3616 179.132 25.7335 179.529 26.155C179.95 26.5764 180.533 27.1218 181.277 27.7912L194.999 39.9887L191.206 44.3397L175.736 30.5431C174.893 29.7993 174.199 29.0804 173.653 28.3862C173.133 27.6921 172.736 26.9979 172.463 26.3037C172.215 25.6096 172.091 24.903 172.091 24.184C172.091 22.8453 172.451 21.6801 173.17 20.6884C173.889 19.6719 174.905 18.891 176.219 18.3456C177.533 17.7754 179.07 17.4903 180.83 17.4903C182.442 17.4903 183.843 17.7382 185.033 18.234C186.247 18.7299 187.19 19.4488 187.859 20.3909C188.528 21.333 188.863 22.4486 188.863 23.7378C188.863 24.8782 188.565 25.9194 187.97 26.8615C187.4 27.8036 186.508 28.6713 185.293 29.4647C184.103 30.258 182.578 31.0389 180.719 31.8075C179.578 32.2785 178.661 32.7495 177.967 33.2206C177.298 33.6916 176.814 34.1751 176.517 34.6709C176.219 35.1419 176.07 35.6874 176.07 36.3072C176.07 36.803 176.232 37.2616 176.554 37.6831C176.876 38.1045 177.335 38.4392 177.93 38.6872C178.525 38.9103 179.231 39.0218 180.05 39.0218C181.487 39.0218 182.814 38.6748 184.029 37.9806C185.243 37.2616 186.285 36.2204 187.152 34.8568C188.045 33.4933 188.652 31.8447 188.975 29.9109L194.664 31.6215C194.119 34.1751 193.127 36.4063 191.689 38.3153C190.276 40.2242 188.528 41.7241 186.446 42.815C184.388 43.881 182.082 44.414 179.529 44.414ZM216.157 27.94H228.243V33.4437H216.157V27.94ZM216.678 38.2037H230.289V43.8934H209.389V17.8622H229.805V23.5518H216.678V38.2037ZM231.251 43.8934L242.742 17.8622H249.993L261.521 43.8934H253.861L244.861 21.4693H247.762L238.763 43.8934H231.251ZM237.536 38.8359L239.432 33.4065H252.15L254.047 38.8359H237.536ZM263.609 43.8934V17.8622H275.509C277.889 17.8622 279.934 18.2464 281.645 19.015C283.38 19.7835 284.719 20.8991 285.661 22.3618C286.603 23.7998 287.074 25.5104 287.074 27.4937C287.074 29.4523 286.603 31.1505 285.661 32.5884C284.719 34.0015 283.38 35.0924 281.645 35.8609C279.934 36.6047 277.889 36.9765 275.509 36.9765H267.7L270.972 33.89V43.8934H263.609ZM279.711 43.8934L273.24 34.4106H281.087L287.595 43.8934H279.711ZM270.972 34.6709L267.7 31.2868H275.063C276.6 31.2868 277.74 30.9522 278.484 30.2828C279.252 29.6134 279.637 28.6837 279.637 27.4937C279.637 26.2789 279.252 25.3368 278.484 24.6675C277.74 23.9981 276.6 23.6634 275.063 23.6634H267.7L270.972 20.2793V34.6709ZM291.136 43.8934V17.8622H297.198L311.552 35.1915H308.689V17.8622H315.903V43.8934H309.842L295.487 26.564H298.351V43.8934H291.136Z" fill="black"/>
<path d="M30.8966 43.8934H26.7794V48.0106H30.8966V43.8934ZM30.8966 17.8622V13.745H26.7794V17.8622H30.8966ZM48.9325 19.015L47.2452 22.7705L47.2553 22.7751L47.2654 22.7795L48.9325 19.015ZM52.9488 22.3618L49.4874 24.5912L49.4961 24.6047L49.5049 24.6182L52.9488 22.3618ZM52.9488 32.5884L56.3745 34.8722L56.3836 34.8585L56.3926 34.8447L52.9488 32.5884ZM48.9325 35.8609L50.5741 39.6367L50.5869 39.6311L50.5997 39.6255L48.9325 35.8609ZM34.9872 36.9765L32.1622 33.9814L24.6215 41.0937H34.9872V36.9765ZM38.2597 33.89H42.3769V24.3471L35.4347 30.8948L38.2597 33.89ZM38.2597 43.8934V48.0106H42.3769V43.8934H38.2597ZM46.9988 43.8934L43.5979 46.214L44.8238 48.0106H46.9988V43.8934ZM40.5281 34.4106V30.2934H32.7344L37.1273 36.7312L40.5281 34.4106ZM48.3747 34.4106L51.7694 32.0809L50.5427 30.2934H48.3747V34.4106ZM54.8825 43.8934V48.0106H62.7015L58.2772 41.5637L54.8825 43.8934ZM38.2597 34.6709L35.3 37.533L42.3769 44.8511V34.6709H38.2597ZM34.9872 31.2868V27.1697H25.2783L32.0275 34.1489L34.9872 31.2868ZM45.7716 30.2828L43.0675 27.1781L43.0422 27.2001L43.0173 27.2225L45.7716 30.2828ZM45.7716 24.6675L43.0173 27.7277L43.0422 27.7502L43.0675 27.7722L45.7716 24.6675ZM34.9872 23.6634L32.0275 20.8013L25.2783 27.7806H34.9872V23.6634ZM38.2597 20.2793H42.3769V10.0991L35.3 17.4172L38.2597 20.2793ZM30.8966 43.8934H35.0138V17.8622H30.8966H26.7794V43.8934H30.8966ZM30.8966 17.8622V21.9793H42.7966V17.8622V13.745H30.8966V17.8622ZM42.7966 17.8622V21.9793C44.746 21.9793 46.1876 22.2954 47.2452 22.7705L48.9325 19.015L50.6198 15.2594C48.2562 14.1975 45.6071 13.745 42.7966 13.745V17.8622ZM48.9325 19.015L47.2654 22.7795C48.3353 23.2533 49.0201 23.8658 49.4874 24.5912L52.9488 22.3618L56.4101 20.1325C54.9932 17.9325 53.0006 16.3137 50.5997 15.2504L48.9325 19.015ZM52.9488 22.3618L49.5049 24.6182C49.9432 25.2872 50.2447 26.1856 50.2447 27.4937H54.3619H58.4791C58.4791 24.8351 57.8385 22.3124 56.3926 20.1055L52.9488 22.3618ZM54.3619 27.4937H50.2447C50.2447 28.7656 49.9487 29.6548 49.5049 30.3321L52.9488 32.5884L56.3926 34.8447C57.833 32.6462 58.4791 30.1389 58.4791 27.4937H54.3619ZM52.9488 32.5884L49.5231 30.3046C49.0644 30.9926 48.3726 31.606 47.2654 32.0964L48.9325 35.8609L50.5997 39.6255C52.9633 38.5787 54.9489 37.0105 56.3745 34.8722L52.9488 32.5884ZM48.9325 35.8609L47.2909 32.0852C46.22 32.5507 44.7616 32.8593 42.7966 32.8593V36.9765V41.0937C45.5915 41.0937 48.2238 40.6586 50.5741 39.6367L48.9325 35.8609ZM42.7966 36.9765V32.8593H34.9872V36.9765V41.0937H42.7966V36.9765ZM34.9872 36.9765L37.8122 39.9717L41.0847 36.8851L38.2597 33.89L35.4347 30.8948L32.1622 33.9814L34.9872 36.9765ZM38.2597 33.89H34.1425V43.8934H38.2597H42.3769V33.89H38.2597ZM38.2597 43.8934V39.7762H30.8966V43.8934V48.0106H38.2597V43.8934ZM46.9988 43.8934L50.3997 41.5728L43.929 32.09L40.5281 34.4106L37.1273 36.7312L43.5979 46.214L46.9988 43.8934ZM40.5281 34.4106V38.5278H48.3747V34.4106V30.2934H40.5281V34.4106ZM48.3747 34.4106L44.98 36.7403L51.4878 46.2231L54.8825 43.8934L58.2772 41.5637L51.7694 32.0809L48.3747 34.4106ZM54.8825 43.8934V39.7762H46.9988V43.8934V48.0106H54.8825V43.8934ZM38.2597 34.6709L41.2194 31.8088L37.9469 28.4247L34.9872 31.2868L32.0275 34.1489L35.3 37.533L38.2597 34.6709ZM34.9872 31.2868V35.404H42.3503V31.2868V27.1697H34.9872V31.2868ZM42.3503 31.2868V35.404C44.3789 35.404 46.71 34.9773 48.5258 33.3431L45.7716 30.2828L43.0173 27.2225C43.1819 27.0744 43.2877 27.0592 43.199 27.0853C43.0969 27.1152 42.8349 27.1697 42.3503 27.1697V31.2868ZM45.7716 30.2828L48.4757 33.3875C50.2958 31.8022 51.0416 29.6539 51.0416 27.4937H46.9244H42.8072C42.8072 27.6461 42.7831 27.6271 42.8312 27.5108C42.8547 27.4539 42.8895 27.389 42.9362 27.3242C42.9827 27.2596 43.0298 27.2109 43.0675 27.1781L45.7716 30.2828ZM46.9244 27.4937H51.0416C51.0416 25.3391 50.3152 23.1649 48.4757 21.5628L45.7716 24.6675L43.0675 27.7722C43.0249 27.7351 42.9751 27.6828 42.9274 27.6161C42.8797 27.5495 42.8459 27.4848 42.8239 27.4311C42.7797 27.3226 42.8072 27.3182 42.8072 27.4937H46.9244ZM45.7716 24.6675L48.5258 21.6072C46.71 19.9729 44.3789 19.5462 42.3503 19.5462V23.6634V27.7806C42.8349 27.7806 43.0969 27.835 43.199 27.865C43.2877 27.891 43.1819 27.8759 43.0173 27.7277L45.7716 24.6675ZM42.3503 23.6634V19.5462H34.9872V23.6634V27.7806H42.3503V23.6634ZM34.9872 23.6634L37.9469 26.5255L41.2194 23.1414L38.2597 20.2793L35.3 17.4172L32.0275 20.8013L34.9872 23.6634ZM38.2597 20.2793H34.1425V34.6709H38.2597H42.3769V20.2793H38.2597ZM65.1922 27.94V23.8228H61.075V27.94H65.1922ZM77.2781 27.94H81.3953V23.8228H77.2781V27.94ZM77.2781 33.4437V37.5609H81.3953V33.4437H77.2781ZM65.1922 33.4437H61.075V37.5609H65.1922V33.4437ZM65.7128 38.2037H61.5956V42.3209H65.7128V38.2037ZM79.3234 38.2037H83.4406V34.0865H79.3234V38.2037ZM79.3234 43.8934V48.0106H83.4406V43.8934H79.3234ZM58.424 43.8934H54.3069V48.0106H58.424V43.8934ZM58.424 17.8622V13.745H54.3069V17.8622H58.424ZM78.84 17.8622H82.9572V13.745H78.84V17.8622ZM78.84 23.5518V27.669H82.9572V23.5518H78.84ZM65.7128 23.5518V19.4347H61.5956V23.5518H65.7128ZM65.1922 27.94V32.0572H77.2781V27.94V23.8228H65.1922V27.94ZM77.2781 27.94H73.1609V33.4437H77.2781H81.3953V27.94H77.2781ZM77.2781 33.4437V29.3265H65.1922V33.4437V37.5609H77.2781V33.4437ZM65.1922 33.4437H69.3094V27.94H65.1922H61.075V33.4437H65.1922ZM65.7128 38.2037V42.3209H79.3234V38.2037V34.0865H65.7128V38.2037ZM79.3234 38.2037H75.2062V43.8934H79.3234H83.4406V38.2037H79.3234ZM79.3234 43.8934V39.7762H58.424V43.8934V48.0106H79.3234V43.8934ZM58.424 43.8934H62.5412V17.8622H58.424H54.3069V43.8934H58.424ZM58.424 17.8622V21.9793H78.84V17.8622V13.745H58.424V17.8622ZM78.84 17.8622H74.7228V23.5518H78.84H82.9572V17.8622H78.84ZM78.84 23.5518V19.4347H65.7128V23.5518V27.669H78.84V23.5518ZM65.7128 23.5518H61.5956V38.2037H65.7128H69.83V23.5518H65.7128ZM90.2519 29.2787V25.1615H86.1347V29.2787H90.2519ZM102.263 29.2787H106.381V25.1615H102.263V29.2787ZM102.263 34.9684V39.0856H106.381V34.9684H102.263ZM90.2519 34.9684H86.1347V39.0856H90.2519V34.9684ZM90.7725 43.8934V48.0106H94.8897V43.8934H90.7725ZM83.4094 43.8934H79.2922V48.0106H83.4094V43.8934ZM83.4094 17.8622V13.745H79.2922V17.8622H83.4094ZM103.825 17.8622H107.943V13.745H103.825V17.8622ZM103.825 23.5518V27.669H107.943V23.5518H103.825ZM90.7725 23.5518V19.4347H86.6553V23.5518H90.7725ZM90.2519 29.2787V33.3959H102.263V29.2787V25.1615H90.2519V29.2787ZM102.263 29.2787H98.1463V34.9684H102.263H106.381V29.2787H102.263ZM102.263 34.9684V30.8512H90.2519V34.9684V39.0856H102.263V34.9684ZM90.2519 34.9684H94.3691V29.2787H90.2519H86.1347V34.9684H90.2519ZM90.7725 43.8934V39.7762H83.4094V43.8934V48.0106H90.7725V43.8934ZM83.4094 43.8934H87.5266V17.8622H83.4094H79.2922V43.8934H83.4094ZM83.4094 17.8622V21.9793H103.825V17.8622V13.745H83.4094V17.8622ZM103.825 17.8622H99.7081V23.5518H103.825H107.943V17.8622H103.825ZM103.825 23.5518V19.4347H90.7725V23.5518V27.669H103.825V23.5518ZM90.7725 23.5518H86.6553V43.8934H90.7725H94.8897V23.5518H90.7725ZM114.037 27.94V23.8228H109.92V27.94H114.037ZM126.123 27.94H130.24V23.8228H126.123V27.94ZM126.123 33.4437V37.5609H130.24V33.4437H126.123ZM114.037 33.4437H109.92V37.5609H114.037V33.4437ZM114.558 38.2037H110.441V42.3209H114.558V38.2037ZM128.168 38.2037H132.286V34.0865H128.168V38.2037ZM128.168 43.8934V48.0106H132.286V43.8934H128.168ZM107.269 43.8934H103.152V48.0106H107.269V43.8934ZM107.269 17.8622V13.745H103.152V17.8622H107.269ZM127.685 17.8622H131.802V13.745H127.685V17.8622ZM127.685 23.5518V27.669H131.802V23.5518H127.685ZM114.558 23.5518V19.4347H110.441V23.5518H114.558ZM114.037 27.94V32.0572H126.123V27.94V23.8228H114.037V27.94ZM126.123 27.94H122.006V33.4437H126.123H130.24V27.94H126.123ZM126.123 33.4437V29.3265H114.037V33.4437V37.5609H126.123V33.4437ZM114.037 33.4437H118.154V27.94H114.037H109.92V33.4437H114.037ZM114.558 38.2037V42.3209H128.168V38.2037V34.0865H114.558V38.2037ZM128.168 38.2037H124.051V43.8934H128.168H132.286V38.2037H128.168ZM128.168 43.8934V39.7762H107.269V43.8934V48.0106H128.168V43.8934ZM107.269 43.8934H111.386V17.8622H107.269H103.152V43.8934H107.269ZM107.269 17.8622V21.9793H127.685V17.8622V13.745H107.269V17.8622ZM127.685 17.8622H123.568V23.5518H127.685H131.802V17.8622H127.685ZM127.685 23.5518V19.4347H114.558V23.5518V27.669H127.685V23.5518ZM114.558 23.5518H110.441V38.2037H114.558H118.675V23.5518H114.558ZM132.254 43.8934H128.137V48.0106H132.254V43.8934ZM132.254 17.8622V13.745H128.137V17.8622H132.254ZM150.29 19.015L148.603 22.7705L148.613 22.7751L148.623 22.7795L150.29 19.015ZM154.306 22.3618L150.845 24.5912L150.854 24.6047L150.863 24.6182L154.306 22.3618ZM154.306 32.5884L157.732 34.8722L157.741 34.8585L157.75 34.8447L154.306 32.5884ZM150.29 35.8609L151.932 39.6367L151.945 39.6311L151.957 39.6255L150.29 35.8609ZM136.345 36.9765L133.52 33.9814L125.979 41.0937H136.345V36.9765ZM139.617 33.89H143.735V24.3471L136.792 30.8948L139.617 33.89ZM139.617 43.8934V48.0106H143.735V43.8934H139.617ZM148.356 43.8934L144.956 46.214L146.181 48.0106H148.356V43.8934ZM141.886 34.4106V30.2934H134.092L138.485 36.7312L141.886 34.4106ZM149.732 34.4106L153.127 32.0809L151.9 30.2934H149.732V34.4106ZM156.24 43.8934V48.0106H164.059L159.635 41.5637L156.24 43.8934ZM139.617 34.6709L136.658 37.533L143.735 44.8511V34.6709H139.617ZM136.345 31.2868V27.1697H126.636L133.385 34.1489L136.345 31.2868ZM147.129 30.2828L144.425 27.1781L144.4 27.2001L144.375 27.2225L147.129 30.2828ZM147.129 24.6675L144.375 27.7277L144.4 27.7502L144.425 27.7722L147.129 24.6675ZM136.345 23.6634L133.385 20.8013L126.636 27.7806H136.345V23.6634ZM139.617 20.2793H143.735V10.0991L136.658 17.4172L139.617 20.2793ZM132.254 43.8934H136.371V17.8622H132.254H128.137V43.8934H132.254ZM132.254 17.8622V21.9793H144.154V17.8622V13.745H132.254V17.8622ZM144.154 17.8622V21.9793C146.104 21.9793 147.545 22.2954 148.603 22.7705L150.29 19.015L151.978 15.2594C149.614 14.1975 146.965 13.745 144.154 13.745V17.8622ZM150.29 19.015L148.623 22.7795C149.693 23.2533 150.378 23.8658 150.845 24.5912L154.306 22.3618L157.768 20.1325C156.351 17.9325 154.358 16.3137 151.957 15.2504L150.29 19.015ZM154.306 22.3618L150.863 24.6182C151.301 25.2872 151.602 26.1856 151.602 27.4937H155.72H159.837C159.837 24.8351 159.196 22.3124 157.75 20.1055L154.306 22.3618ZM155.72 27.4937H151.602C151.602 28.7656 151.306 29.6548 150.863 30.3321L154.306 32.5884L157.75 34.8447C159.191 32.6462 159.837 30.1389 159.837 27.4937H155.72ZM154.306 32.5884L150.881 30.3046C150.422 30.9926 149.73 31.606 148.623 32.0964L150.29 35.8609L151.957 39.6255C154.321 38.5787 156.307 37.0105 157.732 34.8722L154.306 32.5884ZM150.29 35.8609L148.649 32.0852C147.578 32.5507 146.119 32.8593 144.154 32.8593V36.9765V41.0937C146.949 41.0937 149.581 40.6586 151.932 39.6367L150.29 35.8609ZM144.154 36.9765V32.8593H136.345V36.9765V41.0937H144.154V36.9765ZM136.345 36.9765L139.17 39.9717L142.442 36.8851L139.617 33.89L136.792 30.8948L133.52 33.9814L136.345 36.9765ZM139.617 33.89H135.5V43.8934H139.617H143.735V33.89H139.617ZM139.617 43.8934V39.7762H132.254V43.8934V48.0106H139.617V43.8934ZM148.356 43.8934L151.757 41.5728L145.287 32.09L141.886 34.4106L138.485 36.7312L144.956 46.214L148.356 43.8934ZM141.886 34.4106V38.5278H149.732V34.4106V30.2934H141.886V34.4106ZM149.732 34.4106L146.338 36.7403L152.846 46.2231L156.24 43.8934L159.635 41.5637L153.127 32.0809L149.732 34.4106ZM156.24 43.8934V39.7762H148.356V43.8934V48.0106H156.24V43.8934ZM139.617 34.6709L142.577 31.8088L139.305 28.4247L136.345 31.2868L133.385 34.1489L136.658 37.533L139.617 34.6709ZM136.345 31.2868V35.404H143.708V31.2868V27.1697H136.345V31.2868ZM143.708 31.2868V35.404C145.737 35.404 148.068 34.9773 149.884 33.3431L147.129 30.2828L144.375 27.2225C144.54 27.0744 144.645 27.0592 144.557 27.0853C144.455 27.1152 144.193 27.1697 143.708 27.1697V31.2868ZM147.129 30.2828L149.833 33.3875C151.653 31.8022 152.399 29.6539 152.399 27.4937H148.282H144.165C144.165 27.6461 144.141 27.6271 144.189 27.5108C144.212 27.4539 144.247 27.389 144.294 27.3242C144.34 27.2596 144.388 27.2109 144.425 27.1781L147.129 30.2828ZM148.282 27.4937H152.399C152.399 25.3391 151.673 23.1649 149.833 21.5628L147.129 24.6675L144.425 27.7722C144.383 27.7351 144.333 27.6828 144.285 27.6161C144.237 27.5495 144.204 27.4848 144.182 27.4311C144.137 27.3226 144.165 27.3182 144.165 27.4937H148.282ZM147.129 24.6675L149.884 21.6072C148.068 19.9729 145.737 19.5462 143.708 19.5462V23.6634V27.7806C144.193 27.7806 144.455 27.835 144.557 27.865C144.645 27.891 144.54 27.8759 144.375 27.7277L147.129 24.6675ZM143.708 23.6634V19.5462H136.345V23.6634V27.7806H143.708V23.6634ZM136.345 23.6634L139.305 26.5255L142.577 23.1414L139.617 20.2793L136.658 17.4172L133.385 20.8013L136.345 23.6634ZM139.617 20.2793H135.5V34.6709H139.617H143.735V20.2793H139.617ZM174.211 43.4843L172.64 47.2902L172.666 47.3009L172.692 47.3112L174.211 43.4843ZM170.492 40.844L167.277 43.416L167.295 43.4376L167.312 43.4589L170.492 40.844ZM170.046 33.4437L166.487 31.3743L166.469 31.4056L166.451 31.4371L170.046 33.4437ZM172.872 30.5059L170.529 27.1208L170.513 27.1315L170.498 27.1423L172.872 30.5059ZM177.781 27.94L179.351 31.7461L179.386 31.7318L179.42 31.7168L177.781 27.94ZM182.43 25.1509L179.159 22.6499L179.147 22.6652L179.136 22.6806L182.43 25.1509ZM179.12 22.6965L176.396 19.6093L176.349 19.6504L176.304 19.6929L179.12 22.6965ZM178.711 25.0393L174.868 26.5173L174.916 26.6427L174.973 26.7647L178.711 25.0393ZM179.529 26.155L176.531 28.9767L176.573 29.0222L176.618 29.0663L179.529 26.155ZM181.277 27.7912L178.522 30.8515L178.532 30.86L178.541 30.8684L181.277 27.7912ZM194.999 39.9887L198.102 42.6943L200.782 39.6206L197.734 36.9115L194.999 39.9887ZM191.206 44.3397L188.465 47.4124L191.573 50.1838L194.309 47.0452L191.206 44.3397ZM175.736 30.5431L178.476 27.4704L178.468 27.4631L178.46 27.4559L175.736 30.5431ZM173.653 28.3862L170.36 30.8565L170.387 30.8935L170.416 30.9299L173.653 28.3862ZM172.463 26.3037L168.586 27.6885L168.608 27.7492L168.631 27.8092L172.463 26.3037ZM173.17 20.6884L176.503 23.1051L176.517 23.0856L176.531 23.0659L173.17 20.6884ZM176.219 18.3456L177.798 22.1482L177.828 22.1356L177.858 22.1225L176.219 18.3456ZM185.033 18.234L183.449 22.0345L183.463 22.0403L183.477 22.0459L185.033 18.234ZM187.97 26.8615L184.489 24.663L184.468 24.6961L184.448 24.7296L187.97 26.8615ZM185.293 29.4647L183.042 26.0175L183.025 26.0281L183.009 26.0389L185.293 29.4647ZM180.719 31.8075L182.291 35.6128L182.292 35.6124L180.719 31.8075ZM177.967 33.2206L175.655 29.8137L175.626 29.8334L175.598 29.8535L177.967 33.2206ZM176.517 34.6709L179.998 36.8695L180.023 36.8296L180.047 36.7892L176.517 34.6709ZM176.554 37.6831L173.283 40.1841L173.283 40.1841L176.554 37.6831ZM177.93 38.6872L176.346 42.4876L176.415 42.5162L176.484 42.5422L177.93 38.6872ZM184.029 37.9806L186.071 41.5553L186.099 41.5397L186.126 41.5237L184.029 37.9806ZM187.152 34.8568L183.707 32.602L183.693 32.6241L183.679 32.6464L187.152 34.8568ZM188.975 29.9109L190.16 25.9681L185.682 24.6218L184.913 29.234L188.975 29.9109ZM194.664 31.6215L198.691 32.4815L199.483 28.7711L195.85 27.6787L194.664 31.6215ZM191.689 38.3153L188.401 35.8381L188.39 35.8518L188.38 35.8656L191.689 38.3153ZM186.446 42.815L188.34 46.4707L188.348 46.4664L188.356 46.4621L186.446 42.815ZM179.529 44.414V40.2968C177.974 40.2968 176.73 40.0542 175.73 39.6575L174.211 43.4843L172.692 47.3112C174.816 48.1541 177.118 48.5312 179.529 48.5312V44.414ZM174.211 43.4843L175.782 39.6785C174.74 39.2484 174.092 38.739 173.673 38.2292L170.492 40.844L167.312 43.4589C168.728 45.1803 170.559 46.4311 172.64 47.2902L174.211 43.4843ZM170.492 40.844L173.707 38.272C173.38 37.8635 173.271 37.5125 173.271 37.0881H169.154H165.036C165.036 39.4403 165.819 41.5934 167.277 43.416L170.492 40.844ZM169.154 37.0881H173.271C173.271 36.3433 173.427 35.8338 173.641 35.4503L170.046 33.4437L166.451 31.4371C165.475 33.1857 165.036 35.1058 165.036 37.0881H169.154ZM170.046 33.4437L173.605 35.5131C173.862 35.0716 174.346 34.5052 175.247 33.8695L172.872 30.5059L170.498 27.1423C168.87 28.2916 167.47 29.6837 166.487 31.3743L170.046 33.4437ZM172.872 30.5059L175.216 33.891C176.193 33.2146 177.548 32.4899 179.351 31.7461L177.781 27.94L176.211 24.1339C174.048 25.0263 172.13 26.0122 170.529 27.1208L172.872 30.5059ZM177.781 27.94L179.42 31.7168C180.808 31.1147 182.021 30.5245 182.986 29.9457L180.868 26.4153L178.749 22.8848C178.226 23.1986 177.382 23.6248 176.142 24.1631L177.781 27.94ZM180.868 26.4153L182.986 29.9457C183.896 29.3998 184.952 28.6501 185.723 27.6212L182.43 25.1509L179.136 22.6806C179.196 22.6008 179.24 22.5552 179.253 22.5418C179.267 22.5278 179.261 22.5359 179.225 22.5644C179.151 22.6249 179.002 22.7335 178.749 22.8848L180.868 26.4153ZM182.43 25.1509L185.7 27.6519C186.427 26.701 187.03 25.4238 187.03 23.8865H182.913H178.796C178.796 23.1922 179.076 22.7579 179.159 22.6499L182.43 25.1509ZM182.913 23.8865H187.03C187.03 22.3473 186.468 20.7884 185.194 19.6051L182.392 22.6222L179.591 25.6392C179.346 25.4118 179.124 25.1087 178.976 24.7476C178.831 24.3953 178.796 24.0881 178.796 23.8865H182.913ZM182.392 22.6222L185.194 19.6051C183.796 18.3069 182.087 18.0215 180.83 18.0215V22.1387V26.2559C180.963 26.2559 180.295 26.2928 179.591 25.6392L182.392 22.6222ZM180.83 22.1387V18.0215C179.396 18.0215 177.761 18.4051 176.396 19.6093L179.12 22.6965L181.844 25.7838C181.606 25.9938 181.352 26.1232 181.14 26.1925C180.94 26.2576 180.821 26.2559 180.83 26.2559V22.1387ZM179.12 22.6965L176.304 19.6929C175.074 20.8459 174.408 22.3931 174.408 24.0725H178.525H182.642C182.642 24.31 182.596 24.6214 182.453 24.9536C182.309 25.286 182.112 25.5347 181.936 25.7002L179.12 22.6965ZM178.525 24.0725H174.408C174.408 24.9352 174.576 25.7573 174.868 26.5173L178.711 25.0393L182.554 23.5614C182.598 23.6768 182.642 23.8543 182.642 24.0725H178.525ZM178.711 25.0393L174.973 26.7647C175.387 27.6632 175.996 28.4089 176.531 28.9767L179.529 26.155L182.527 23.3332C182.473 23.276 182.432 23.2293 182.401 23.1931C182.371 23.1567 182.354 23.1342 182.347 23.1252C182.34 23.116 182.348 23.1256 182.365 23.1536C182.382 23.1813 182.413 23.2351 182.449 23.314L178.711 25.0393ZM179.529 26.155L176.618 29.0663C177.113 29.5613 177.756 30.1614 178.522 30.8515L181.277 27.7912L184.031 24.7309C183.31 24.0823 182.788 23.5915 182.44 23.2437L179.529 26.155ZM181.277 27.7912L178.541 30.8684L192.264 43.0659L194.999 39.9887L197.734 36.9115L184.012 24.714L181.277 27.7912ZM194.999 39.9887L191.895 37.2832L188.102 41.6341L191.206 44.3397L194.309 47.0452L198.102 42.6943L194.999 39.9887ZM191.206 44.3397L193.946 41.2669L178.476 27.4704L175.736 30.5431L172.995 33.6158L188.465 47.4124L191.206 44.3397ZM175.736 30.5431L178.46 27.4559C177.756 26.835 177.247 26.2957 176.891 25.8425L173.653 28.3862L170.416 30.9299C171.151 31.8651 172.03 32.7637 173.012 33.6303L175.736 30.5431ZM173.653 28.3862L176.947 25.9159C176.613 25.4707 176.413 25.0973 176.295 24.7983L172.463 26.3037L168.631 27.8092C169.059 28.8984 169.652 29.9134 170.36 30.8565L173.653 28.3862ZM172.463 26.3037L176.341 24.919C176.247 24.6578 176.209 24.4191 176.209 24.184H172.091H167.974C167.974 25.3869 168.183 26.5613 168.586 27.6885L172.463 26.3037ZM172.091 24.184H176.209C176.209 23.6283 176.341 23.3281 176.503 23.1051L173.17 20.6884L169.837 18.2717C168.56 20.032 167.974 22.0622 167.974 24.184H172.091ZM173.17 20.6884L176.531 23.0659C176.741 22.7696 177.096 22.4396 177.798 22.1482L176.219 18.3456L174.641 14.543C172.715 15.3424 171.037 16.5743 169.808 18.3109L173.17 20.6884ZM176.219 18.3456L177.858 22.1225C178.551 21.8219 179.508 21.6075 180.83 21.6075V17.4903V13.3731C178.632 13.3731 176.515 13.7289 174.58 14.5687L176.219 18.3456ZM180.83 17.4903V21.6075C182.03 21.6075 182.869 21.7929 183.449 22.0345L185.033 18.234L186.616 14.4335C184.816 13.6835 182.854 13.3731 180.83 13.3731V17.4903ZM185.033 18.234L183.477 22.0459C184.069 22.2875 184.345 22.5535 184.503 22.7756L187.859 20.3909L191.215 18.0062C190.034 16.3441 188.426 15.1722 186.589 14.4221L185.033 18.234ZM187.859 20.3909L184.503 22.7756C184.62 22.9414 184.746 23.2001 184.746 23.7378H188.863H192.98C192.98 21.6971 192.436 19.7245 191.215 18.0062L187.859 20.3909ZM188.863 23.7378H184.746C184.746 24.1193 184.659 24.395 184.489 24.663L187.97 26.8615L191.451 29.0601C192.472 27.4439 192.98 25.6371 192.98 23.7378H188.863ZM187.97 26.8615L184.448 24.7296C184.282 25.0035 183.897 25.4591 183.042 26.0175L185.293 29.4647L187.544 32.9119C189.119 31.8836 190.518 30.6037 191.493 28.9934L187.97 26.8615ZM185.293 29.4647L183.009 26.0389C182.113 26.6364 180.849 27.2988 179.146 28.0025L180.719 31.8075L182.292 35.6124C184.308 34.779 186.093 33.8796 187.577 32.8904L185.293 29.4647ZM180.719 31.8075L179.147 28.0021C177.856 28.5353 176.663 29.1302 175.655 29.8137L177.967 33.2206L180.279 36.6275C180.66 36.3689 181.301 36.0217 182.291 35.6128L180.719 31.8075ZM177.967 33.2206L175.598 29.8535C174.64 30.5277 173.675 31.4041 172.986 32.5526L176.517 34.6709L180.047 36.7892C179.995 36.8767 179.968 36.8933 180.014 36.8477C180.059 36.8021 180.159 36.7128 180.336 36.5877L177.967 33.2206ZM176.517 34.6709L173.036 32.4724C172.277 33.6738 171.953 34.9995 171.953 36.3072H176.07H180.188C180.188 36.3283 180.185 36.4041 180.154 36.5166C180.123 36.632 180.07 36.7545 179.998 36.8695L176.517 34.6709ZM176.07 36.3072H171.953C171.953 37.7723 172.453 39.0981 173.283 40.1841L176.554 37.6831L179.824 35.1821C179.902 35.2841 180 35.4433 180.076 35.6582C180.152 35.8762 180.188 36.0997 180.188 36.3072H176.07ZM176.554 37.6831L173.283 40.1841C174.13 41.2907 175.228 42.0215 176.346 42.4876L177.93 38.6872L179.513 34.8867C179.475 34.8708 179.502 34.8772 179.567 34.9244C179.634 34.9737 179.729 35.0576 179.824 35.1821L176.554 37.6831ZM177.93 38.6872L176.484 42.5422C177.653 42.9805 178.873 43.139 180.05 43.139V39.0218V34.9047C179.59 34.9047 179.397 34.8401 179.375 34.8321L177.93 38.6872ZM180.05 39.0218V43.139C182.183 43.139 184.217 42.6151 186.071 41.5553L184.029 37.9806L181.986 34.4059C181.411 34.7344 180.792 34.9047 180.05 34.9047V39.0218ZM184.029 37.9806L186.126 41.5237C187.973 40.4301 189.461 38.8975 190.626 37.0673L187.152 34.8568L183.679 32.6464C183.108 33.5432 182.513 34.0932 181.932 34.4374L184.029 37.9806ZM187.152 34.8568L190.597 37.1117C191.859 35.1838 192.638 32.9724 193.036 30.5878L188.975 29.9109L184.913 29.234C184.666 30.7169 184.231 31.8028 183.707 32.602L187.152 34.8568ZM188.975 29.9109L187.789 33.8537L193.479 35.5644L194.664 31.6215L195.85 27.6787L190.16 25.9681L188.975 29.9109ZM194.664 31.6215L190.638 30.7615C190.206 32.7837 189.445 34.451 188.401 35.8381L191.689 38.3153L194.978 40.7924C196.809 38.3616 198.032 35.5665 198.691 32.4815L194.664 31.6215ZM191.689 38.3153L188.38 35.8656C187.333 37.2803 186.061 38.3685 184.535 39.1678L186.446 42.815L188.356 46.4621C190.995 45.0798 193.219 43.1682 194.998 40.7649L191.689 38.3153ZM186.446 42.815L184.552 39.1592C183.137 39.8921 181.492 40.2968 179.529 40.2968V44.414V48.5312C182.673 48.5312 185.639 47.8699 188.34 46.4707L186.446 42.815ZM216.157 27.94V23.8228H212.04V27.94H216.157ZM228.243 27.94H232.361V23.8228H228.243V27.94ZM228.243 33.4437V37.5609H232.361V33.4437H228.243ZM216.157 33.4437H212.04V37.5609H216.157V33.4437ZM216.678 38.2037H212.561V42.3209H216.678V38.2037ZM230.289 38.2037H234.406V34.0865H230.289V38.2037ZM230.289 43.8934V48.0106H234.406V43.8934H230.289ZM209.389 43.8934H205.272V48.0106H209.389V43.8934ZM209.389 17.8622V13.745H205.272V17.8622H209.389ZM229.805 17.8622H233.922V13.745H229.805V17.8622ZM229.805 23.5518V27.669H233.922V23.5518H229.805ZM216.678 23.5518V19.4347H212.561V23.5518H216.678ZM216.157 27.94V32.0572H228.243V27.94V23.8228H216.157V27.94ZM228.243 27.94H224.126V33.4437H228.243H232.361V27.94H228.243ZM228.243 33.4437V29.3265H216.157V33.4437V37.5609H228.243V33.4437ZM216.157 33.4437H220.275V27.94H216.157H212.04V33.4437H216.157ZM216.678 38.2037V42.3209H230.289V38.2037V34.0865H216.678V38.2037ZM230.289 38.2037H226.171V43.8934H230.289H234.406V38.2037H230.289ZM230.289 43.8934V39.7762H209.389V43.8934V48.0106H230.289V43.8934ZM209.389 43.8934H213.506V17.8622H209.389H205.272V43.8934H209.389ZM209.389 17.8622V21.9793H229.805V17.8622V13.745H209.389V17.8622ZM229.805 17.8622H225.688V23.5518H229.805H233.922V17.8622H229.805ZM229.805 23.5518V19.4347H216.678V23.5518V27.669H229.805V23.5518ZM216.678 23.5518H212.561V38.2037H216.678H220.795V23.5518H216.678ZM231.251 43.8934L227.484 42.2307L224.933 48.0106H231.251V43.8934ZM242.742 17.8622V13.745H240.059L238.975 16.1995L242.742 17.8622ZM249.993 17.8622L253.758 16.195L252.673 13.745H249.993V17.8622ZM261.521 43.8934V48.0106H267.848L265.286 42.2262L261.521 43.8934ZM253.861 43.8934L250.04 45.4269L251.077 48.0106H253.861V43.8934ZM244.861 21.4693V17.3522H238.773L241.041 23.0028L244.861 21.4693ZM247.762 21.4693L251.583 23.0028L253.851 17.3522H247.762V21.4693ZM238.763 43.8934V48.0106H241.547L242.584 45.4269L238.763 43.8934ZM237.536 38.8359L233.649 37.4782L231.736 42.9531H237.536V38.8359ZM239.432 33.4065V29.2893H236.509L235.545 32.0488L239.432 33.4065ZM252.15 33.4065L256.037 32.0488L255.073 29.2893H252.15V33.4065ZM254.047 38.8359V42.9531H259.846L257.934 37.4782L254.047 38.8359ZM231.251 43.8934L235.017 45.5561L246.508 19.5248L242.742 17.8622L238.975 16.1995L227.484 42.2307L231.251 43.8934ZM242.742 17.8622V21.9793H249.993V17.8622V13.745H242.742V17.8622ZM249.993 17.8622L246.229 19.5293L257.757 45.5606L261.521 43.8934L265.286 42.2262L253.758 16.195L249.993 17.8622ZM261.521 43.8934V39.7762H253.861V43.8934V48.0106H261.521V43.8934ZM253.861 43.8934L257.682 42.3599L248.682 19.9359L244.861 21.4693L241.041 23.0028L250.04 45.4269L253.861 43.8934ZM244.861 21.4693V25.5865H247.762V21.4693V17.3522H244.861V21.4693ZM247.762 21.4693L243.941 19.9359L234.942 42.3599L238.763 43.8934L242.584 45.4269L251.583 23.0028L247.762 21.4693ZM238.763 43.8934V39.7762H231.251V43.8934V48.0106H238.763V43.8934ZM237.536 38.8359L241.422 40.1936L243.319 34.7643L239.432 33.4065L235.545 32.0488L233.649 37.4782L237.536 38.8359ZM239.432 33.4065V37.5237H252.15V33.4065V29.2893H239.432V33.4065ZM252.15 33.4065L248.263 34.7643L250.16 40.1936L254.047 38.8359L257.934 37.4782L256.037 32.0488L252.15 33.4065ZM254.047 38.8359V34.7187H237.536V38.8359V42.9531H254.047V38.8359ZM263.609 43.8934H259.492V48.0106H263.609V43.8934ZM263.609 17.8622V13.745H259.492V17.8622H263.609ZM281.645 19.015L279.958 22.7705L279.968 22.7751L279.978 22.7795L281.645 19.015ZM285.661 22.3618L282.2 24.5912L282.208 24.6047L282.217 24.6182L285.661 22.3618ZM285.661 32.5884L289.087 34.8722L289.096 34.8585L289.105 34.8447L285.661 32.5884ZM281.645 35.8609L283.287 39.6367L283.299 39.6311L283.312 39.6255L281.645 35.8609ZM267.7 36.9765L264.875 33.9814L257.334 41.0937H267.7V36.9765ZM270.972 33.89H275.089V24.3471L268.147 30.8948L270.972 33.89ZM270.972 43.8934V48.0106H275.089V43.8934H270.972ZM279.711 43.8934L276.31 46.214L277.536 48.0106H279.711V43.8934ZM273.24 34.4106V30.2934H265.447L269.84 36.7312L273.24 34.4106ZM281.087 34.4106L284.482 32.0809L283.255 30.2934H281.087V34.4106ZM287.595 43.8934V48.0106H295.414L290.99 41.5637L287.595 43.8934ZM270.972 34.6709L268.012 37.533L275.089 44.8511V34.6709H270.972ZM267.7 31.2868V27.1697H257.991L264.74 34.1489L267.7 31.2868ZM278.484 30.2828L275.78 27.1781L275.755 27.2001L275.73 27.2225L278.484 30.2828ZM278.484 24.6675L275.73 27.7277L275.755 27.7502L275.78 27.7722L278.484 24.6675ZM267.7 23.6634L264.74 20.8013L257.991 27.7806H267.7V23.6634ZM270.972 20.2793H275.089V10.0991L268.012 17.4172L270.972 20.2793ZM263.609 43.8934H267.726V17.8622H263.609H259.492V43.8934H263.609ZM263.609 17.8622V21.9793H275.509V17.8622V13.745H263.609V17.8622ZM275.509 17.8622V21.9793C277.458 21.9793 278.9 22.2954 279.958 22.7705L281.645 19.015L283.332 15.2594C280.969 14.1975 278.319 13.745 275.509 13.745V17.8622ZM281.645 19.015L279.978 22.7795C281.048 23.2533 281.733 23.8658 282.2 24.5912L285.661 22.3618L289.123 20.1325C287.706 17.9325 285.713 16.3137 283.312 15.2504L281.645 19.015ZM285.661 22.3618L282.217 24.6182C282.656 25.2872 282.957 26.1856 282.957 27.4937H287.074H291.191C291.191 24.8351 290.551 22.3124 289.105 20.1055L285.661 22.3618ZM287.074 27.4937H282.957C282.957 28.7656 282.661 29.6548 282.217 30.3321L285.661 32.5884L289.105 34.8447C290.545 32.6462 291.191 30.1389 291.191 27.4937H287.074ZM285.661 32.5884L282.235 30.3046C281.777 30.9926 281.085 31.606 279.978 32.0964L281.645 35.8609L283.312 39.6255C285.676 38.5787 287.661 37.0105 289.087 34.8722L285.661 32.5884ZM281.645 35.8609L280.003 32.0852C278.932 32.5507 277.474 32.8593 275.509 32.8593V36.9765V41.0937C278.304 41.0937 280.936 40.6586 283.287 39.6367L281.645 35.8609ZM275.509 36.9765V32.8593H267.7V36.9765V41.0937H275.509V36.9765ZM267.7 36.9765L270.525 39.9717L273.797 36.8851L270.972 33.89L268.147 30.8948L264.875 33.9814L267.7 36.9765ZM270.972 33.89H266.855V43.8934H270.972H275.089V33.89H270.972ZM270.972 43.8934V39.7762H263.609V43.8934V48.0106H270.972V43.8934ZM279.711 43.8934L283.112 41.5728L276.641 32.09L273.24 34.4106L269.84 36.7312L276.31 46.214L279.711 43.8934ZM273.24 34.4106V38.5278H281.087V34.4106V30.2934H273.24V34.4106ZM281.087 34.4106L277.692 36.7403L284.2 46.2231L287.595 43.8934L290.99 41.5637L284.482 32.0809L281.087 34.4106ZM287.595 43.8934V39.7762H279.711V43.8934V48.0106H287.595V43.8934ZM270.972 34.6709L273.932 31.8088L270.659 28.4247L267.7 31.2868L264.74 34.1489L268.012 37.533L270.972 34.6709ZM267.7 31.2868V35.404H275.063V31.2868V27.1697H267.7V31.2868ZM275.063 31.2868V35.404C277.091 35.404 279.422 34.9773 281.238 33.3431L278.484 30.2828L275.73 27.2225C275.894 27.0744 276 27.0592 275.911 27.0853C275.809 27.1152 275.547 27.1697 275.063 27.1697V31.2868ZM278.484 30.2828L281.188 33.3875C283.008 31.8022 283.754 29.6539 283.754 27.4937H279.637H275.52C275.52 27.6461 275.496 27.6271 275.544 27.5108C275.567 27.4539 275.602 27.389 275.649 27.3242C275.695 27.2596 275.742 27.2109 275.78 27.1781L278.484 30.2828ZM279.637 27.4937H283.754C283.754 25.3391 283.028 23.1649 281.188 21.5628L278.484 24.6675L275.78 27.7722C275.737 27.7351 275.687 27.6828 275.64 27.6161C275.592 27.5495 275.558 27.4848 275.536 27.4311C275.492 27.3226 275.52 27.3182 275.52 27.4937H279.637ZM278.484 24.6675L281.238 21.6072C279.422 19.9729 277.091 19.5462 275.063 19.5462V23.6634V27.7806C275.547 27.7806 275.809 27.835 275.911 27.865C276 27.891 275.894 27.8759 275.73 27.7277L278.484 24.6675ZM275.063 23.6634V19.5462H267.7V23.6634V27.7806H275.063V23.6634ZM267.7 23.6634L270.659 26.5255L273.932 23.1414L270.972 20.2793L268.012 17.4172L264.74 20.8013L267.7 23.6634ZM270.972 20.2793H266.855V34.6709H270.972H275.089V20.2793H270.972ZM291.136 43.8934H287.019V48.0106H291.136V43.8934ZM291.136 17.8622V13.745H287.019V17.8622H291.136ZM297.198 17.8622L300.369 15.2358L299.134 13.745H297.198V17.8622ZM311.552 35.1915V39.3087H320.309L314.723 32.5652L311.552 35.1915ZM308.689 35.1915H304.572V39.3087H308.689V35.1915ZM308.689 17.8622V13.745H304.572V17.8622H308.689ZM315.903 17.8622H320.02V13.745H315.903V17.8622ZM315.903 43.8934V48.0106H320.02V43.8934H315.903ZM309.842 43.8934L306.671 46.5198L307.906 48.0106H309.842V43.8934ZM295.487 26.564V22.4468H286.731L292.317 29.1904L295.487 26.564ZM298.351 26.564H302.468V22.4468H298.351V26.564ZM298.351 43.8934V48.0106H302.468V43.8934H298.351ZM291.136 43.8934H295.254V17.8622H291.136H287.019V43.8934H291.136ZM291.136 17.8622V21.9793H297.198V17.8622V13.745H291.136V17.8622ZM297.198 17.8622L294.027 20.4885L308.382 37.8179L311.552 35.1915L314.723 32.5652L300.369 15.2358L297.198 17.8622ZM311.552 35.1915V31.0743H308.689V35.1915V39.3087H311.552V35.1915ZM308.689 35.1915H312.806V17.8622H308.689H304.572V35.1915H308.689ZM308.689 17.8622V21.9793H315.903V17.8622V13.745H308.689V17.8622ZM315.903 17.8622H311.786V43.8934H315.903H320.02V17.8622H315.903ZM315.903 43.8934V39.7762H309.842V43.8934V48.0106H315.903V43.8934ZM309.842 43.8934L313.012 41.267L298.658 23.9377L295.487 26.564L292.317 29.1904L306.671 46.5198L309.842 43.8934ZM295.487 26.564V30.6812H298.351V26.564V22.4468H295.487V26.564ZM298.351 26.564H294.234V43.8934H298.351H302.468V26.564H298.351ZM298.351 43.8934V39.7762H291.136V43.8934V48.0106H298.351V43.8934Z" fill="#FFF438" mask="url(#path-3-outside-2_40_3)"/>
<defs>
<filter id="filter0_ddi_40_3" x="0.916845" y="0.0310268" width="339.753" height="82.214" filterUnits="userSpaceOnUse" color-interpolation-filters="sRGB">
<feFlood flood-opacity="0" result="BackgroundImageFix"/>
<feColorMatrix in="SourceAlpha" type="matrix" values="0 0 0 0 0 0 0 0 0 0 0 0 0 0 0 0 0 0 127 0" result="hardAlpha"/>
<feOffset dy="6.69043"/>
<feGaussianBlur stdDeviation="2.57324"/>
<feColorMatrix type="matrix" values="0 0 0 0 0.224 0 0 0 0 0.15 0 0 0 0 0 0 0 0 0.7 0"/>
<feBlend mode="multiply" in2="BackgroundImageFix" result="effect1_dropShadow_40_3"/>
<feColorMatrix in="SourceAlpha" type="matrix" values="0 0 0 0 0 0 0 0 0 0 0 0 0 0 0 0 0 0 127 0" result="hardAlpha"/>
<feOffset dy="12.3516"/>
<feGaussianBlur stdDeviation="8.02852"/>
<feColorMatrix type="matrix" values="0 0 0 0 0.56 0 0 0 0 0.44 0 0 0 0 0 0 0 0 1 0"/>
<feBlend mode="color-dodge" in2="effect1_dropShadow_40_3" result="effect2_dropShadow_40_3"/>
<feBlend mode="normal" in="SourceGraphic" in2="effect2_dropShadow_40_3" result="shape"/>
<feColorMatrix in="SourceAlpha" type="matrix" values="0 0 0 0 0 0 0 0 0 0 0 0 0 0 0 0 0 0 127 0" result="hardAlpha"/>
<feOffset dx="-0.669043" dy="1.33809"/>
<feGaussianBlur stdDeviation="0.334521"/>
<feComposite in2="hardAlpha" operator="arithmetic" k2="-1" k3="1"/>
<feColorMatrix type="matrix" values="0 0 0 0 1 0 0 0 0 1 0 0 0 0 1 0 0 0 0.5 0"/>
<feBlend mode="normal" in2="shape" result="effect3_innerShadow_40_3"/>
</filter>
</defs>
</svg>
