<svg width="681" height="267" viewBox="0 0 681 267" fill="none" xmlns="http://www.w3.org/2000/svg">
<g style="mix-blend-mode:hard-light" filter="url(#filter0_ddi_41_11)">
<mask id="path-1-outside-1_41_11" maskUnits="userSpaceOnUse" x="59.1389" y="13.9169" width="564" height="149" fill="black">
<rect fill="white" x="59.1389" y="13.9169" width="564" height="149"/>
<path d="M83.6585 135.917V40.7207H132.345C144.856 40.7207 154.194 43.0327 160.359 47.6565C166.525 52.1896 169.607 58.1734 169.607 65.6078C169.607 70.5036 168.292 74.81 165.663 78.5272C163.125 82.1538 159.498 85.055 154.784 87.2309C150.16 89.3161 144.629 90.3588 138.192 90.3588L140.912 83.831C147.621 83.831 153.469 84.8736 158.456 86.9589C163.442 88.9535 167.295 91.9 170.015 95.7985C172.826 99.6064 174.231 104.276 174.231 109.806C174.231 118.056 170.876 124.493 164.167 129.117C157.549 133.65 147.848 135.917 135.064 135.917H83.6585ZM110.313 116.47H132.889C137.512 116.47 141.003 115.699 143.36 114.158C145.808 112.526 147.032 110.078 147.032 106.814C147.032 103.55 145.808 101.148 143.36 99.6064C141.003 97.9745 137.512 97.1585 132.889 97.1585H108.41V78.5272H128.809C133.342 78.5272 136.742 77.7566 139.008 76.2153C141.275 74.6741 142.408 72.3621 142.408 69.2796C142.408 66.1971 141.275 63.9305 139.008 62.4799C136.742 60.9386 133.342 60.168 128.809 60.168H110.313V116.47ZM236.184 137.821C228.568 137.821 221.542 136.597 215.105 134.149C208.668 131.701 203.047 128.256 198.241 123.813C193.527 119.28 189.855 114.022 187.226 108.038C184.597 102.054 183.282 95.4812 183.282 88.3188C183.282 81.1565 184.597 74.5834 187.226 68.5996C189.855 62.6159 193.527 57.4027 198.241 52.9603C203.047 48.4271 208.668 44.9366 215.105 42.4887C221.542 40.0408 228.568 38.8168 236.184 38.8168C243.89 38.8168 250.917 40.0408 257.263 42.4887C263.7 44.9366 269.276 48.4271 273.99 52.9603C278.705 57.4027 282.377 62.6159 285.006 68.5996C287.726 74.5834 289.086 81.1565 289.086 88.3188C289.086 95.4812 287.726 102.1 285.006 108.174C282.377 114.158 278.705 119.371 273.99 123.813C269.276 128.256 263.7 131.701 257.263 134.149C250.917 136.597 243.89 137.821 236.184 137.821ZM236.184 115.518C239.81 115.518 243.165 114.883 246.247 113.614C249.421 112.345 252.141 110.531 254.407 108.174C256.764 105.726 258.578 102.825 259.847 99.4704C261.207 96.1159 261.887 92.3987 261.887 88.3188C261.887 84.1483 261.207 80.4312 259.847 77.1673C258.578 73.8128 256.764 70.9569 254.407 68.5996C252.141 66.1517 249.421 64.2931 246.247 63.0239C243.165 61.7546 239.81 61.1199 236.184 61.1199C232.557 61.1199 229.157 61.7546 225.984 63.0239C222.902 64.2931 220.182 66.1517 217.825 68.5996C215.558 70.9569 213.745 73.8128 212.385 77.1673C211.116 80.4312 210.481 84.1483 210.481 88.3188C210.481 92.3987 211.116 96.1159 212.385 99.4704C213.745 102.825 215.558 105.726 217.825 108.174C220.182 110.531 222.902 112.345 225.984 113.614C229.157 114.883 232.557 115.518 236.184 115.518ZM303.189 135.917V40.7207H325.356L377.85 104.094H367.378V40.7207H393.761V135.917H371.594L319.1 72.5435H329.572V135.917H303.189ZM456.681 137.821C442.628 137.821 431.658 133.968 423.77 126.261C415.883 118.555 411.939 107.63 411.939 93.4866V40.7207H438.866V92.6707C438.866 100.83 440.452 106.678 443.625 110.214C446.889 113.75 451.332 115.518 456.953 115.518C462.574 115.518 466.971 113.75 470.144 110.214C473.318 106.678 474.904 100.83 474.904 92.6707V40.7207H501.423V93.4866C501.423 107.63 497.479 118.555 489.592 126.261C481.704 133.968 470.734 137.821 456.681 137.821ZM553.119 137.821C545.322 137.821 537.797 136.869 530.544 134.965C523.382 132.97 517.534 130.432 513.001 127.349L521.84 107.494C526.102 110.214 530.997 112.481 536.528 114.294C542.149 116.016 547.725 116.878 553.255 116.878C556.972 116.878 559.964 116.56 562.231 115.926C564.497 115.2 566.129 114.294 567.127 113.206C568.215 112.027 568.758 110.667 568.758 109.126C568.758 106.95 567.761 105.227 565.767 103.958C563.772 102.689 561.188 101.646 558.015 100.83C554.842 100.014 551.306 99.1984 547.407 98.3824C543.599 97.5665 539.746 96.5238 535.848 95.2546C532.04 93.9853 528.549 92.3533 525.376 90.3588C522.203 88.2735 519.619 85.599 517.625 82.3351C515.63 78.9805 514.633 74.7647 514.633 69.6876C514.633 63.9758 516.174 58.808 519.256 54.1842C522.43 49.5604 527.144 45.8432 533.4 43.0327C539.656 40.2221 547.453 38.8168 556.791 38.8168C563.047 38.8168 569.166 39.5421 575.15 40.9927C581.225 42.3527 586.619 44.3926 591.334 47.1125L583.038 67.1037C578.505 64.6558 574.017 62.8425 569.574 61.6639C565.132 60.3946 560.825 59.76 556.655 59.76C552.938 59.76 549.946 60.168 547.679 60.9839C545.413 61.7092 543.781 62.7065 542.784 63.9758C541.786 65.2451 541.288 66.6957 541.288 68.3276C541.288 70.4129 542.24 72.0902 544.143 73.3594C546.138 74.5381 548.722 75.5354 551.895 76.3513C555.159 77.0766 558.695 77.8473 562.503 78.6632C566.401 79.4792 570.254 80.5218 574.062 81.7911C577.961 82.9697 581.497 84.6017 584.67 86.6869C587.843 88.6815 590.382 91.3561 592.286 94.7106C594.28 97.9745 595.277 102.1 595.277 107.086C595.277 112.617 593.691 117.739 590.518 122.453C587.435 127.077 582.766 130.794 576.51 133.605C570.345 136.416 562.548 137.821 553.119 137.821Z"/>
</mask>
<path d="M83.6585 135.917H59.1917V160.384H83.6585V135.917ZM83.6585 40.7207V16.2539H59.1917V40.7207H83.6585ZM160.359 47.6565L145.679 67.23L145.772 67.2995L145.866 67.3682L160.359 47.6565ZM165.663 78.5272L145.688 64.3985L145.654 64.4474L145.619 64.4964L165.663 78.5272ZM154.784 87.2309L164.842 109.535L164.94 109.491L165.037 109.446L154.784 87.2309ZM138.192 90.3588L115.608 80.9484L101.492 114.826H138.192V90.3588ZM140.912 83.831V59.3641H124.601L118.327 74.4207L140.912 83.831ZM158.456 86.9589L149.016 109.532L149.192 109.605L149.369 109.676L158.456 86.9589ZM170.015 95.7985L149.949 109.798L150.136 110.066L150.33 110.328L170.015 95.7985ZM164.167 129.117L177.993 149.303L178.022 149.283L178.052 149.263L164.167 129.117ZM110.313 116.47H85.8466V140.937H110.313V116.47ZM143.36 114.158L156.75 134.636L156.841 134.576L156.932 134.515L143.36 114.158ZM143.36 99.6064L129.433 119.723L129.872 120.027L130.324 120.311L143.36 99.6064ZM108.41 97.1585H83.9427V121.625H108.41V97.1585ZM108.41 78.5272V54.0604H83.9427V78.5272H108.41ZM139.008 76.2153L152.766 96.4476L152.766 96.4476L139.008 76.2153ZM139.008 62.4799L125.25 82.7122L125.532 82.9039L125.819 83.0876L139.008 62.4799ZM110.313 60.168V35.7011H85.8466V60.168H110.313ZM108.125 135.917V40.7207H59.1917V135.917H108.125ZM83.6585 65.1876H132.345V16.2539H83.6585V65.1876ZM132.345 65.1876C137.176 65.1876 140.582 65.6424 142.852 66.2045C145.102 66.7617 145.785 67.3092 145.679 67.23L175.04 28.083C162.725 18.8467 147.112 16.2539 132.345 16.2539V65.1876ZM145.866 67.3682C146.119 67.5547 146.139 67.6069 146.031 67.4847C145.917 67.3541 145.729 67.1061 145.545 66.7489C145.36 66.3899 145.245 66.0482 145.183 65.782C145.124 65.5257 145.14 65.4469 145.14 65.6078H194.074C194.074 50.1253 187.072 36.9289 174.853 27.9447L145.866 67.3682ZM145.14 65.6078C145.14 65.8451 145.112 65.7209 145.22 65.3661C145.334 64.9948 145.513 64.6465 145.688 64.3985L185.638 92.656C191.414 84.4907 194.074 75.1624 194.074 65.6078H145.14ZM145.619 64.4964C145.751 64.3082 145.838 64.2514 145.755 64.3176C145.656 64.3967 145.299 64.6612 144.531 65.016L165.037 109.446C172.996 105.772 180.286 100.302 185.707 92.5581L145.619 64.4964ZM144.725 64.9272C143.992 65.2576 142.062 65.8919 138.192 65.8919V114.826C147.197 114.826 156.327 113.375 164.842 109.535L144.725 64.9272ZM160.777 99.7691L163.497 93.2414L118.327 74.4207L115.608 80.9484L160.777 99.7691ZM140.912 108.298C145.138 108.298 147.647 108.959 149.016 109.532L167.895 64.3862C159.291 60.7883 150.105 59.3641 140.912 59.3641V108.298ZM149.369 109.676C150.015 109.934 150.241 110.114 150.223 110.1C150.218 110.096 150.176 110.063 150.115 110C150.053 109.936 149.996 109.865 149.949 109.798L190.081 81.799C184.286 73.4927 176.367 67.7718 167.542 64.242L149.369 109.676ZM150.33 110.328C150.187 110.135 150.059 109.925 149.952 109.711C149.846 109.498 149.783 109.323 149.748 109.208C149.677 108.972 149.764 109.114 149.764 109.806H198.698C198.698 99.958 196.118 89.9635 189.7 81.2688L150.33 110.328ZM149.764 109.806C149.764 110.207 149.724 110.318 149.749 110.206C149.778 110.082 149.855 109.827 150.018 109.514C150.181 109.201 150.357 108.972 150.473 108.844C150.581 108.725 150.556 108.783 150.283 108.971L178.052 149.263C191.486 140.005 198.698 125.982 198.698 109.806H149.764ZM150.341 108.931C149.558 109.468 145.603 111.45 135.064 111.45V160.384C150.093 160.384 165.539 157.833 177.993 149.303L150.341 108.931ZM135.064 111.45H83.6585V160.384H135.064V111.45ZM110.313 140.937H132.889V92.0028H110.313V140.937ZM132.889 140.937C139.513 140.937 148.605 139.961 156.75 134.636L129.971 93.6798C131.835 92.461 133.3 92.0884 133.7 92.0002C134.105 91.9107 133.914 92.0028 132.889 92.0028V140.937ZM156.932 134.515C167.019 127.791 171.499 117.205 171.499 106.814H122.565C122.565 105.373 122.846 102.924 124.23 100.156C125.665 97.2872 127.744 95.1631 129.788 93.8001L156.932 134.515ZM171.499 106.814C171.499 96.4201 166.976 85.5629 156.396 78.9017L130.324 120.311C128.096 118.909 125.85 116.687 124.313 113.67C122.841 110.781 122.565 108.24 122.565 106.814H171.499ZM157.287 79.4899C149.025 73.7703 139.699 72.6916 132.889 72.6916V121.625C133.835 121.625 133.923 121.716 133.405 121.595C132.878 121.472 131.328 121.035 129.433 119.723L157.287 79.4899ZM132.889 72.6916H108.41V121.625H132.889V72.6916ZM132.876 97.1585V78.5272H83.9427V97.1585H132.876ZM108.41 102.994H128.809V54.0604H108.41V102.994ZM128.809 102.994C135.35 102.994 144.57 102.021 152.766 96.4476L125.25 55.983C127.233 54.6346 128.842 54.2029 129.35 54.0877C129.862 53.9716 129.766 54.0604 128.809 54.0604V102.994ZM152.766 96.4476C162.651 89.7259 166.875 79.2843 166.875 69.2796H117.941C117.941 67.8158 118.219 65.3502 119.589 62.5562C121.013 59.6515 123.106 57.441 125.25 55.983L152.766 96.4476ZM166.875 69.2796C166.875 59.2802 162.613 48.5382 152.197 41.8721L125.819 83.0876C123.475 81.5873 121.205 79.2702 119.674 76.2097C118.214 73.2885 117.941 70.7265 117.941 69.2796H166.875ZM152.766 42.2476C144.57 36.6743 135.35 35.7011 128.809 35.7011V84.6348C129.766 84.6348 129.862 84.7236 129.35 84.6075C128.842 84.4923 127.233 84.0606 125.25 82.7122L152.766 42.2476ZM128.809 35.7011H110.313V84.6348H128.809V35.7011ZM85.8466 60.168V116.47H134.78V60.168H85.8466ZM215.105 134.149L206.408 157.018H206.408L215.105 134.149ZM198.241 123.813L181.283 141.45L181.456 141.616L181.632 141.779L198.241 123.813ZM187.226 108.038L164.826 117.88V117.88L187.226 108.038ZM187.226 68.5996L164.826 58.7573L187.226 68.5996ZM198.241 52.9603L215.021 70.767L215.031 70.7573L198.241 52.9603ZM215.105 42.4887L206.408 19.6196V19.6196L215.105 42.4887ZM257.263 42.4887L248.458 65.3163L248.512 65.3372L248.566 65.3578L257.263 42.4887ZM273.99 52.9603L257.032 70.5968L257.121 70.6823L257.211 70.767L273.99 52.9603ZM285.006 68.5996L262.606 78.442L262.668 78.5835L262.732 78.7241L285.006 68.5996ZM285.006 108.174L262.675 98.1753L262.64 98.2534L262.606 98.3316L285.006 108.174ZM273.99 123.813L290.77 141.62L273.99 123.813ZM257.263 134.149L248.566 111.28L248.512 111.301L248.458 111.321L257.263 134.149ZM246.247 113.614L237.161 90.8969L237.046 90.9428L236.932 90.9898L246.247 113.614ZM254.407 108.174L236.783 91.2028L236.777 91.2093L236.771 91.2158L254.407 108.174ZM259.847 99.4704L237.173 90.278L237.065 90.5437L236.963 90.8118L259.847 99.4704ZM259.847 77.1673L236.963 85.8259L237.107 86.2043L237.262 86.5777L259.847 77.1673ZM254.407 68.5996L236.454 85.2226L236.774 85.5677L237.106 85.9003L254.407 68.5996ZM246.247 63.0239L236.932 85.6478L237.046 85.6949L237.161 85.7408L246.247 63.0239ZM225.984 63.0239L216.897 40.3069L216.783 40.3528L216.669 40.3999L225.984 63.0239ZM217.825 68.5996L200.201 51.6284L200.194 51.6349L200.188 51.6414L217.825 68.5996ZM212.385 77.1673L189.71 67.975L189.645 68.1367L189.582 68.2994L212.385 77.1673ZM212.385 99.4704L189.501 108.129L189.603 108.397L189.71 108.663L212.385 99.4704ZM217.825 108.174L199.872 124.797L200.191 125.142L200.524 125.475L217.825 108.174ZM225.984 113.614L216.669 136.238L216.783 136.285L216.897 136.331L225.984 113.614ZM236.184 113.354C231.226 113.354 227.182 112.565 223.801 111.28L206.408 157.018C215.902 160.628 225.91 162.288 236.184 162.288V113.354ZM223.801 111.28C220.136 109.886 217.237 108.055 214.851 105.848L181.632 141.779C188.856 148.457 197.199 153.516 206.408 157.018L223.801 111.28ZM215.2 106.177C212.79 103.86 210.967 101.249 209.626 98.1957L164.826 117.88C168.743 126.795 174.264 134.701 181.283 141.45L215.2 106.177ZM209.626 98.1957C208.485 95.6006 207.749 92.4201 207.749 88.3188H158.815C158.815 98.5423 160.708 108.508 164.826 117.88L209.626 98.1957ZM207.749 88.3188C207.749 84.2175 208.485 81.0371 209.626 78.442L164.826 58.7573C160.708 68.1297 158.815 78.0954 158.815 88.3188H207.749ZM209.626 78.442C210.947 75.4354 212.717 72.9379 215.021 70.767L181.462 35.1535C174.337 41.8676 168.763 49.7963 164.826 58.7573L209.626 78.442ZM215.031 70.7573C217.399 68.5236 220.239 66.7125 223.801 65.3578L206.408 19.6196C197.096 23.1606 188.694 28.3306 181.452 35.1632L215.031 70.7573ZM223.801 65.3578C227.182 64.0723 231.226 63.2837 236.184 63.2837V14.35C225.91 14.35 215.902 16.0092 206.408 19.6196L223.801 65.3578ZM236.184 63.2837C241.276 63.2837 245.269 64.0862 248.458 65.3163L266.068 19.661C256.564 15.9954 246.504 14.35 236.184 14.35V63.2837ZM248.566 65.3578C252.091 66.6983 254.816 68.4659 257.032 70.5968L290.949 35.3237C283.736 28.3883 275.309 23.1749 265.96 19.6196L248.566 65.3578ZM257.211 70.767C259.515 72.9379 261.285 75.4354 262.606 78.442L307.406 58.7572C303.468 49.7963 297.895 41.8676 290.77 35.1535L257.211 70.767ZM262.732 78.7241C263.881 81.2518 264.619 84.3322 264.619 88.3188H313.553C313.553 77.9807 311.571 67.9149 307.28 58.4752L262.732 78.7241ZM264.619 88.3188C264.619 92.3013 263.882 95.4804 262.675 98.1753L307.336 118.173C311.57 108.719 313.553 98.6612 313.553 88.3188H264.619ZM262.606 98.3316C261.285 101.338 259.515 103.836 257.211 106.007L290.77 141.62C297.895 134.906 303.468 126.977 307.406 118.016L262.606 98.3316ZM257.211 106.007C254.977 108.111 252.195 109.9 248.566 111.28L265.96 157.018C275.205 153.502 283.574 148.401 290.77 141.62L257.211 106.007ZM248.458 111.321C245.269 112.552 241.276 113.354 236.184 113.354V162.288C246.504 162.288 256.564 160.642 266.068 156.977L248.458 111.321ZM236.184 139.985C242.724 139.985 249.275 138.827 255.563 136.238L236.932 90.9898C236.964 90.9765 236.955 90.9855 236.871 91.0014C236.783 91.018 236.565 91.0509 236.184 91.0509V139.985ZM255.334 136.331C261.585 133.83 267.26 130.108 272.044 125.132L236.771 91.2158C236.865 91.118 236.981 91.0207 237.095 90.9442C237.207 90.8697 237.246 90.8628 237.161 90.8969L255.334 136.331ZM272.031 125.145C276.812 120.18 280.355 114.407 282.73 108.129L236.963 90.8118C236.87 91.0584 236.802 91.1709 236.787 91.1948C236.778 91.2096 236.775 91.2131 236.778 91.2093C236.781 91.2055 236.783 91.2025 236.783 91.2028L272.031 125.145ZM282.521 108.663C285.206 102.04 286.354 95.1508 286.354 88.3188H237.42C237.42 89.6466 237.207 90.1918 237.173 90.278L282.521 108.663ZM286.354 88.3188C286.354 81.4885 285.236 74.4875 282.432 67.7569L237.262 86.5777C237.178 86.3748 237.42 86.8082 237.42 88.3188H286.354ZM282.73 68.5087C280.328 62.1602 276.7 56.2907 271.708 51.299L237.106 85.9003C237.057 85.8505 237.009 85.7977 236.968 85.7454C236.926 85.6932 236.897 85.6508 236.88 85.6239C236.863 85.5973 236.863 85.5946 236.877 85.6228C236.891 85.6513 236.922 85.7166 236.963 85.8259L282.73 68.5087ZM272.36 51.9766C267.565 46.7984 261.793 42.8906 255.334 40.3069L237.161 85.7408C237.161 85.7408 237.153 85.7376 237.137 85.7303C237.121 85.7231 237.099 85.7124 237.072 85.6977C237.015 85.6677 236.944 85.6256 236.863 85.5707C236.691 85.4533 236.55 85.3257 236.454 85.2226L272.36 51.9766ZM255.563 40.3999C249.275 37.8106 242.724 36.6531 236.184 36.6531V85.5868C236.565 85.5868 236.783 85.6197 236.871 85.6363C236.955 85.6521 236.964 85.6612 236.932 85.6478L255.563 40.3999ZM236.184 36.6531C229.637 36.6531 223.134 37.8122 216.897 40.3069L235.071 85.7408C235.181 85.6969 235.477 85.5868 236.184 85.5868V36.6531ZM216.669 40.3999C210.393 42.9837 204.859 46.7904 200.201 51.6284L235.449 85.5709C235.479 85.5389 235.492 85.5283 235.487 85.5329C235.481 85.5377 235.464 85.5517 235.436 85.5707C235.409 85.5898 235.379 85.6079 235.35 85.6233C235.322 85.6387 235.303 85.6465 235.3 85.6478L216.669 40.3999ZM200.188 51.6414C195.544 56.4713 192.115 62.0434 189.71 67.975L235.059 86.3596C235.224 85.9534 235.356 85.7247 235.42 85.6239C235.481 85.5273 235.498 85.5193 235.461 85.5578L200.188 51.6414ZM189.582 68.2994C187.025 74.8741 186.014 81.6809 186.014 88.3188H234.948C234.948 86.6158 235.206 85.9882 235.188 86.0352L189.582 68.2994ZM186.014 88.3188C186.014 94.9542 187.051 101.655 189.501 108.129L235.268 90.8118C235.18 90.5771 234.948 89.8431 234.948 88.3188H186.014ZM189.71 108.663C192.087 114.525 195.43 120 199.872 124.797L235.777 91.551C235.686 91.4519 235.402 91.1245 235.059 90.2781L189.71 108.663ZM200.524 125.475C205.165 130.116 210.599 133.739 216.669 136.238L235.3 90.9898C235.256 90.9716 235.23 90.9586 235.219 90.9528C235.208 90.947 235.204 90.9443 235.204 90.9443C235.204 90.9442 235.2 90.9416 235.191 90.9338C235.181 90.9259 235.159 90.9073 235.125 90.8734L200.524 125.475ZM216.897 136.331C223.134 138.825 229.637 139.985 236.184 139.985V91.0509C235.477 91.0509 235.181 90.9408 235.071 90.8969L216.897 136.331ZM303.189 135.917H278.722V160.384H303.189V135.917ZM303.189 40.7207V16.2539H278.722V40.7207H303.189ZM325.356 40.7207L344.198 25.1132L336.86 16.2539H325.356V40.7207ZM377.85 104.094V128.561H429.887L396.692 88.4866L377.85 104.094ZM367.378 104.094H342.911V128.561H367.378V104.094ZM367.378 40.7207V16.2539H342.911V40.7207H367.378ZM393.761 40.7207H418.228V16.2539H393.761V40.7207ZM393.761 135.917V160.384H418.228V135.917H393.761ZM371.594 135.917L352.752 151.524L360.09 160.384H371.594V135.917ZM319.1 72.5435V48.0766H267.063L300.258 88.151L319.1 72.5435ZM329.572 72.5435H354.039V48.0766H329.572V72.5435ZM329.572 135.917V160.384H354.039V135.917H329.572ZM327.656 135.917V40.7207H278.722V135.917H327.656ZM303.189 65.1876H325.356V16.2539H303.189V65.1876ZM306.514 56.3283L359.007 119.702L396.692 88.4866L344.198 25.1132L306.514 56.3283ZM377.85 79.6273H367.378V128.561H377.85V79.6273ZM391.845 104.094V40.7207H342.911V104.094H391.845ZM367.378 65.1876H393.761V16.2539H367.378V65.1876ZM369.294 40.7207V135.917H418.228V40.7207H369.294ZM393.761 111.45H371.594V160.384H393.761V111.45ZM390.436 120.309L337.942 56.9359L300.258 88.151L352.752 151.524L390.436 120.309ZM319.1 97.0103H329.572V48.0766H319.1V97.0103ZM305.105 72.5435V135.917H354.039V72.5435H305.105ZM329.572 111.45H303.189V160.384H329.572V111.45ZM423.77 126.261L440.869 108.761V108.761L423.77 126.261ZM411.939 40.7207V16.2539H387.472V40.7207H411.939ZM438.866 40.7207H463.333V16.2539H438.866V40.7207ZM443.625 110.214L425.416 126.556L425.531 126.683L425.647 126.809L443.625 110.214ZM474.904 40.7207V16.2539H450.437V40.7207H474.904ZM501.423 40.7207H525.89V16.2539H501.423V40.7207ZM489.592 126.261L472.493 108.761L489.592 126.261ZM456.681 113.354C447.185 113.354 443.023 110.866 440.869 108.761L406.672 143.762C420.293 157.07 438.071 162.288 456.681 162.288V113.354ZM440.869 108.761C438.929 106.866 436.406 102.999 436.406 93.4866H387.472C387.472 112.261 392.836 130.244 406.672 143.762L440.869 108.761ZM436.406 93.4866V40.7207H387.472V93.4866H436.406ZM411.939 65.1876H438.866V16.2539H411.939V65.1876ZM414.399 40.7207V92.6707H463.333V40.7207H414.399ZM414.399 92.6707C414.399 102.886 416.176 116.259 425.416 126.556L461.835 93.8723C463.405 95.6223 463.729 96.9914 463.669 96.7696C463.645 96.6806 463.555 96.3146 463.475 95.6032C463.394 94.8956 463.333 93.9302 463.333 92.6707H414.399ZM425.647 126.809C434.331 136.217 445.759 139.985 456.953 139.985V91.0509C456.706 91.0509 457.336 91.015 458.452 91.4589C459.652 91.9364 460.771 92.7166 461.604 93.6186L425.647 126.809ZM456.953 139.985C468.13 139.985 479.685 136.215 488.354 126.556L451.935 93.8723C452.843 92.8606 454.055 92.0075 455.34 91.4911C456.529 91.013 457.207 91.0509 456.953 91.0509V139.985ZM488.354 126.556C497.594 116.259 499.371 102.886 499.371 92.6707H450.437C450.437 93.9302 450.375 94.8956 450.295 95.6032C450.215 96.3146 450.125 96.6806 450.101 96.7696C450.041 96.9914 450.365 95.6223 451.935 93.8723L488.354 126.556ZM499.371 92.6707V40.7207H450.437V92.6707H499.371ZM474.904 65.1876H501.423V16.2539H474.904V65.1876ZM476.956 40.7207V93.4866H525.89V40.7207H476.956ZM476.956 93.4866C476.956 102.999 474.433 106.866 472.493 108.761L506.69 143.762C520.526 130.244 525.89 112.261 525.89 93.4866H476.956ZM472.493 108.761C470.339 110.866 466.177 113.354 456.681 113.354V162.288C475.291 162.288 493.069 157.07 506.69 143.762L472.493 108.761ZM530.544 134.965L523.98 158.535L524.156 158.584L524.332 158.63L530.544 134.965ZM513.001 127.349L490.649 117.398L482.331 136.082L499.243 147.582L513.001 127.349ZM521.84 107.494L535.004 86.8704L511.048 71.579L499.489 97.5429L521.84 107.494ZM536.528 114.294L528.905 137.543L529.131 137.617L529.359 137.687L536.528 114.294ZM562.231 115.926L568.828 139.486L569.26 139.365L569.688 139.229L562.231 115.926ZM567.127 113.206L549.148 96.6105L549.119 96.6417L549.091 96.673L567.127 113.206ZM565.767 103.958L552.631 124.6L552.631 124.6L565.767 103.958ZM558.015 100.83L564.108 77.1343L558.015 100.83ZM547.407 98.3824L542.281 122.306L542.338 122.318L542.395 122.33L547.407 98.3824ZM535.848 95.2546L528.111 118.466L528.192 118.493L528.273 118.519L535.848 95.2546ZM525.376 90.3588L511.94 110.806L512.146 110.942L512.356 111.073L525.376 90.3588ZM517.625 82.3351L496.594 94.8395L496.67 94.9669L496.747 95.0933L517.625 82.3351ZM519.256 54.1842L499.083 40.3398L498.99 40.4755L498.899 40.6124L519.256 54.1842ZM533.4 43.0327L523.373 20.7147L533.4 43.0327ZM575.15 40.9927L569.386 64.7709L569.595 64.8216L569.805 64.8686L575.15 40.9927ZM591.334 47.1125L613.932 56.4901L622.164 36.6525L603.56 25.9196L591.334 47.1125ZM583.038 67.1037L571.413 88.6322L595.252 101.506L605.636 76.4813L583.038 67.1037ZM569.574 61.6639L562.853 85.1894L563.076 85.2532L563.3 85.3127L569.574 61.6639ZM547.679 60.9839L555.136 84.2868L555.554 84.1531L555.967 84.0045L547.679 60.9839ZM542.784 63.9758L523.545 48.8596V48.8597L542.784 63.9758ZM544.143 73.3594L530.572 93.7171L531.124 94.0856L531.696 94.4236L544.143 73.3594ZM551.895 76.3513L545.802 100.047L546.193 100.148L546.588 100.236L551.895 76.3513ZM562.503 78.6632L557.376 102.587L557.433 102.599L557.49 102.611L562.503 78.6632ZM574.062 81.7911L566.325 105.002L566.652 105.111L566.982 105.211L574.062 81.7911ZM584.67 86.6869L571.233 107.134L571.44 107.27L571.649 107.401L584.67 86.6869ZM592.286 94.7106L571.007 106.788L571.202 107.131L571.408 107.469L592.286 94.7106ZM590.518 122.453L570.22 108.792L570.19 108.837L570.16 108.882L590.518 122.453ZM576.51 133.605L566.483 111.287L566.422 111.315L566.361 111.342L576.51 133.605ZM553.119 113.354C547.335 113.354 541.902 112.651 536.756 111.3L524.332 158.63C533.692 161.087 543.309 162.288 553.119 162.288V113.354ZM537.108 111.395C531.659 109.877 528.464 108.277 526.759 107.117L499.243 147.582C506.604 152.587 515.105 156.063 523.98 158.535L537.108 111.395ZM535.353 137.3L544.192 117.445L499.489 97.5429L490.649 117.398L535.353 137.3ZM508.676 128.118C514.905 132.093 521.712 135.185 528.905 137.543L544.15 91.0447C540.283 89.7765 537.298 88.3346 535.004 86.8704L508.676 128.118ZM529.359 137.687C537.156 140.076 545.146 141.345 553.255 141.345V92.4108C550.303 92.4108 547.141 91.9564 543.697 90.9007L529.359 137.687ZM553.255 141.345C558.073 141.345 563.546 140.965 568.828 139.486L555.634 92.365C556.119 92.2292 556.198 92.2571 555.706 92.3093C555.239 92.3589 554.443 92.4108 553.255 92.4108V141.345ZM569.688 139.229C573.778 137.92 580.037 135.33 585.162 129.739L549.091 96.673C550.768 94.8431 552.37 93.8153 553.272 93.3139C554.187 92.8058 554.769 92.6246 554.774 92.6229L569.688 139.229ZM585.105 129.801C590.178 124.306 593.225 117.088 593.225 109.126H544.292C544.292 106.949 544.69 104.575 545.634 102.215C546.571 99.8721 547.861 98.0053 549.148 96.6105L585.105 129.801ZM593.225 109.126C593.225 97.7554 587.225 88.6126 578.902 83.3165L552.631 124.6C550.934 123.52 548.643 121.582 546.836 118.461C544.98 115.255 544.292 111.93 544.292 109.126H593.225ZM578.902 83.3165C574.078 80.2463 568.887 78.3632 564.108 77.1343L551.922 124.526C552.642 124.712 553.038 124.857 553.177 124.914C553.321 124.972 553.095 124.895 552.631 124.6L578.902 83.3165ZM564.108 77.1343C560.51 76.2092 556.606 75.3108 552.42 74.4345L542.395 122.33C546.005 123.086 549.173 123.82 551.922 124.526L564.108 77.1343ZM552.534 74.4587C549.595 73.8289 546.559 73.0109 543.422 71.9897L528.273 118.519C532.934 120.037 537.604 121.304 542.281 122.306L552.534 74.4587ZM543.585 72.0432C541.501 71.3486 539.802 70.5277 538.397 69.6442L512.356 111.073C517.297 114.179 522.579 116.622 528.111 118.466L543.585 72.0432ZM538.813 69.9117C538.704 69.8401 538.665 69.8001 538.655 69.789C538.644 69.7775 538.591 69.7227 538.502 69.5768L496.747 95.0933C500.61 101.414 505.726 106.723 511.94 110.806L538.813 69.9117ZM538.655 69.8307C538.851 70.1616 538.984 70.4483 539.07 70.665C539.155 70.8794 539.186 71.0076 539.19 71.0249C539.195 71.0462 539.1 70.6449 539.1 69.6876H490.166C490.166 77.8714 491.77 86.7255 496.594 94.8395L538.655 69.8307ZM539.1 69.6876C539.1 68.6636 539.289 68.2437 539.614 67.756L498.899 40.6124C493.059 49.3724 490.166 59.288 490.166 69.6876H539.1ZM539.43 68.0286C539.55 67.8531 540.354 66.7312 543.427 65.3506L523.373 20.7147C513.935 24.9552 505.309 31.2676 499.083 40.3398L539.43 68.0286ZM543.427 65.3506C545.608 64.3707 549.731 63.2837 556.791 63.2837V14.35C545.174 14.35 533.704 16.0735 523.373 20.7147L543.427 65.3506ZM556.791 63.2837C561.136 63.2837 565.32 63.7851 569.386 64.7709L580.915 17.2146C573.013 15.2991 564.957 14.35 556.791 14.35V63.2837ZM569.805 64.8686C573.804 65.7638 576.82 66.9859 579.107 68.3053L603.56 25.9196C596.418 21.7993 588.646 18.9416 580.496 17.1169L569.805 64.8686ZM568.735 37.7349L560.439 57.7261L605.636 76.4813L613.932 56.4901L568.735 37.7349ZM594.663 45.5752C588.637 42.3208 582.36 39.7428 575.849 38.0152L563.3 85.3127C565.674 85.9423 568.373 86.9907 571.413 88.6322L594.663 45.5752ZM576.296 38.1384C569.9 36.3111 563.329 35.2931 556.655 35.2931V84.2269C558.322 84.2269 560.364 84.4782 562.853 85.1894L576.296 38.1384ZM556.655 35.2931C551.477 35.2931 545.353 35.8173 539.392 37.9634L555.967 84.0045C555.537 84.1592 555.224 84.2405 555.062 84.2783C554.898 84.3164 554.847 84.3196 554.929 84.3085C555.01 84.2975 555.192 84.2763 555.488 84.2582C555.784 84.2403 556.17 84.2269 556.655 84.2269V35.2931ZM540.222 37.6811C535.388 39.228 528.682 42.3218 523.545 48.8596L562.022 79.092C558.88 83.0913 555.437 84.1905 555.136 84.2868L540.222 37.6811ZM523.545 48.8597C519.12 54.4908 516.821 61.2789 516.821 68.3276H565.754C565.754 70.0444 565.485 71.9759 564.8 73.9694C564.113 75.9661 563.126 77.6876 562.022 79.092L523.545 48.8597ZM516.821 68.3276C516.821 79.4909 522.643 88.4315 530.572 93.7171L557.715 53.0018C559.354 54.0946 561.548 56.0212 563.28 59.0726C565.062 62.2124 565.754 65.491 565.754 68.3276H516.821ZM531.696 94.4236C536.306 97.1474 541.241 98.8745 545.802 100.047L557.988 52.6553C557.162 52.4429 556.648 52.2664 556.387 52.1657C556.119 52.0621 556.227 52.0807 556.59 52.2952L531.696 94.4236ZM546.588 100.236C549.921 100.976 553.518 101.76 557.376 102.587L567.629 54.7395C563.872 53.9344 560.397 53.177 557.203 52.4671L546.588 100.236ZM557.49 102.611C560.46 103.233 563.404 104.029 566.325 105.002L581.799 58.5798C577.105 57.015 572.342 55.7256 567.515 54.7153L557.49 102.611ZM566.982 105.211C568.793 105.759 570.162 106.43 571.233 107.134L598.107 66.2398C592.831 62.7731 587.129 60.1809 581.143 58.3711L566.982 105.211ZM571.649 107.401C571.534 107.329 571.369 107.202 571.208 107.032C571.049 106.865 570.99 106.757 571.007 106.788L613.564 82.6336C609.724 75.8681 604.39 70.1836 597.69 65.9724L571.649 107.401ZM571.408 107.469C570.942 106.706 570.782 106.144 570.748 106.002C570.72 105.888 570.811 106.202 570.811 107.086H619.744C619.744 98.9362 618.117 90.0587 613.163 81.9523L571.408 107.469ZM570.811 107.086C570.811 107.609 570.755 107.997 570.22 108.792L610.815 136.115C616.626 127.481 619.744 117.624 619.744 107.086H570.811ZM570.16 108.882C570.126 108.932 569.961 109.172 569.465 109.568C568.945 109.982 568.019 110.597 566.483 111.287L586.537 155.923C596.008 151.668 604.702 145.285 610.875 136.025L570.16 108.882ZM566.361 111.342C564.374 112.249 560.33 113.354 553.119 113.354V162.288C564.766 162.288 576.317 160.583 586.659 155.868L566.361 111.342Z" fill="#FFC940" fill-opacity="0.2" mask="url(#path-1-outside-1_41_11)"/>
</g>
<mask id="path-3-outside-2_41_11" maskUnits="userSpaceOnUse" x="72.4113" y="22.9169" width="543" height="130" fill="black">
<rect fill="white" x="72.4113" y="22.9169" width="543" height="130"/>
<path d="M87.9309 135.917V40.7207H136.617C149.128 40.7207 158.467 43.0327 164.632 47.6565C170.797 52.1896 173.879 58.1734 173.879 65.6078C173.879 70.5036 172.565 74.81 169.936 78.5272C167.397 82.1538 163.77 85.055 159.056 87.2309C154.432 89.3161 148.902 90.3588 142.465 90.3588L145.185 83.831C151.894 83.831 157.741 84.8736 162.728 86.9589C167.714 88.9535 171.568 91.9 174.287 95.7985C177.098 99.6064 178.503 104.276 178.503 109.806C178.503 118.056 175.149 124.493 168.44 129.117C161.821 133.65 152.12 135.917 139.337 135.917H87.9309ZM114.586 116.47H137.161C141.785 116.47 145.275 115.699 147.632 114.158C150.08 112.526 151.304 110.078 151.304 106.814C151.304 103.55 150.08 101.148 147.632 99.6064C145.275 97.9745 141.785 97.1585 137.161 97.1585H112.682V78.5272H133.081C137.614 78.5272 141.014 77.7566 143.281 76.2153C145.547 74.6741 146.681 72.3621 146.681 69.2796C146.681 66.1971 145.547 63.9305 143.281 62.4799C141.014 60.9386 137.614 60.168 133.081 60.168H114.586V116.47ZM240.456 137.821C232.84 137.821 225.814 136.597 219.377 134.149C212.94 131.701 207.319 128.256 202.514 123.813C197.799 119.28 194.127 114.022 191.498 108.038C188.869 102.054 187.554 95.4812 187.554 88.3188C187.554 81.1565 188.869 74.5834 191.498 68.5996C194.127 62.6159 197.799 57.4027 202.514 52.9603C207.319 48.4271 212.94 44.9366 219.377 42.4887C225.814 40.0408 232.84 38.8168 240.456 38.8168C248.163 38.8168 255.189 40.0408 261.535 42.4887C267.972 44.9366 273.548 48.4271 278.263 52.9603C282.977 57.4027 286.649 62.6159 289.278 68.5996C291.998 74.5834 293.358 81.1565 293.358 88.3188C293.358 95.4812 291.998 102.1 289.278 108.174C286.649 114.158 282.977 119.371 278.263 123.813C273.548 128.256 267.972 131.701 261.535 134.149C255.189 136.597 248.163 137.821 240.456 137.821ZM240.456 115.518C244.083 115.518 247.437 114.883 250.52 113.614C253.693 112.345 256.413 110.531 258.679 108.174C261.037 105.726 262.85 102.825 264.119 99.4704C265.479 96.1159 266.159 92.3987 266.159 88.3188C266.159 84.1483 265.479 80.4312 264.119 77.1673C262.85 73.8128 261.037 70.9569 258.679 68.5996C256.413 66.1517 253.693 64.2931 250.52 63.0239C247.437 61.7546 244.083 61.1199 240.456 61.1199C236.83 61.1199 233.43 61.7546 230.257 63.0239C227.174 64.2931 224.454 66.1517 222.097 68.5996C219.83 70.9569 218.017 73.8128 216.657 77.1673C215.388 80.4312 214.753 84.1483 214.753 88.3188C214.753 92.3987 215.388 96.1159 216.657 99.4704C218.017 102.825 219.83 105.726 222.097 108.174C224.454 110.531 227.174 112.345 230.257 113.614C233.43 114.883 236.83 115.518 240.456 115.518ZM307.461 135.917V40.7207H329.628L382.122 104.094H371.651V40.7207H398.033V135.917H375.866L323.372 72.5435H333.844V135.917H307.461ZM460.953 137.821C446.901 137.821 435.93 133.968 428.043 126.261C420.155 118.555 416.211 107.63 416.211 93.4866V40.7207H443.138V92.6707C443.138 100.83 444.725 106.678 447.898 110.214C451.162 113.75 455.604 115.518 461.225 115.518C466.846 115.518 471.244 113.75 474.417 110.214C477.59 106.678 479.177 100.83 479.177 92.6707V40.7207H505.695V93.4866C505.695 107.63 501.752 118.555 493.864 126.261C485.976 133.968 475.006 137.821 460.953 137.821ZM557.391 137.821C549.594 137.821 542.069 136.869 534.816 134.965C527.654 132.97 521.806 130.432 517.273 127.349L526.113 107.494C530.374 110.214 535.27 112.481 540.8 114.294C546.421 116.016 551.997 116.878 557.527 116.878C561.245 116.878 564.237 116.56 566.503 115.926C568.77 115.2 570.402 114.294 571.399 113.206C572.487 112.027 573.031 110.667 573.031 109.126C573.031 106.95 572.034 105.227 570.039 103.958C568.044 102.689 565.46 101.646 562.287 100.83C559.114 100.014 555.578 99.1984 551.68 98.3824C547.872 97.5665 544.019 96.5238 540.12 95.2546C536.312 93.9853 532.822 92.3533 529.649 90.3588C526.475 88.2735 523.891 85.599 521.897 82.3351C519.902 78.9805 518.905 74.7647 518.905 69.6876C518.905 63.9758 520.446 58.808 523.529 54.1842C526.702 49.5604 531.416 45.8432 537.672 43.0327C543.928 40.2221 551.725 38.8168 561.063 38.8168C567.319 38.8168 573.439 39.5421 579.423 40.9927C585.497 42.3527 590.891 44.3926 595.606 47.1125L587.31 67.1037C582.777 64.6558 578.289 62.8425 573.847 61.6639C569.404 60.3946 565.098 59.76 560.927 59.76C557.21 59.76 554.218 60.168 551.952 60.9839C549.685 61.7092 548.053 62.7065 547.056 63.9758C546.059 65.2451 545.56 66.6957 545.56 68.3276C545.56 70.4129 546.512 72.0902 548.416 73.3594C550.41 74.5381 552.994 75.5354 556.167 76.3513C559.431 77.0766 562.967 77.8473 566.775 78.6632C570.674 79.4792 574.527 80.5218 578.335 81.7911C582.233 82.9697 585.769 84.6017 588.942 86.6869C592.115 88.6815 594.654 91.3561 596.558 94.7106C598.552 97.9745 599.55 102.1 599.55 107.086C599.55 112.617 597.963 117.739 594.79 122.453C591.707 127.077 587.038 130.794 580.783 133.605C574.617 136.416 566.82 137.821 557.391 137.821Z"/>
</mask>
<path d="M87.9309 135.917V40.7207H136.617C149.128 40.7207 158.467 43.0327 164.632 47.6565C170.797 52.1896 173.879 58.1734 173.879 65.6078C173.879 70.5036 172.565 74.81 169.936 78.5272C167.397 82.1538 163.77 85.055 159.056 87.2309C154.432 89.3161 148.902 90.3588 142.465 90.3588L145.185 83.831C151.894 83.831 157.741 84.8736 162.728 86.9589C167.714 88.9535 171.568 91.9 174.287 95.7985C177.098 99.6064 178.503 104.276 178.503 109.806C178.503 118.056 175.149 124.493 168.44 129.117C161.821 133.65 152.12 135.917 139.337 135.917H87.9309ZM114.586 116.47H137.161C141.785 116.47 145.275 115.699 147.632 114.158C150.08 112.526 151.304 110.078 151.304 106.814C151.304 103.55 150.08 101.148 147.632 99.6064C145.275 97.9745 141.785 97.1585 137.161 97.1585H112.682V78.5272H133.081C137.614 78.5272 141.014 77.7566 143.281 76.2153C145.547 74.6741 146.681 72.3621 146.681 69.2796C146.681 66.1971 145.547 63.9305 143.281 62.4799C141.014 60.9386 137.614 60.168 133.081 60.168H114.586V116.47ZM240.456 137.821C232.84 137.821 225.814 136.597 219.377 134.149C212.94 131.701 207.319 128.256 202.514 123.813C197.799 119.28 194.127 114.022 191.498 108.038C188.869 102.054 187.554 95.4812 187.554 88.3188C187.554 81.1565 188.869 74.5834 191.498 68.5996C194.127 62.6159 197.799 57.4027 202.514 52.9603C207.319 48.4271 212.94 44.9366 219.377 42.4887C225.814 40.0408 232.84 38.8168 240.456 38.8168C248.163 38.8168 255.189 40.0408 261.535 42.4887C267.972 44.9366 273.548 48.4271 278.263 52.9603C282.977 57.4027 286.649 62.6159 289.278 68.5996C291.998 74.5834 293.358 81.1565 293.358 88.3188C293.358 95.4812 291.998 102.1 289.278 108.174C286.649 114.158 282.977 119.371 278.263 123.813C273.548 128.256 267.972 131.701 261.535 134.149C255.189 136.597 248.163 137.821 240.456 137.821ZM240.456 115.518C244.083 115.518 247.437 114.883 250.52 113.614C253.693 112.345 256.413 110.531 258.679 108.174C261.037 105.726 262.85 102.825 264.119 99.4704C265.479 96.1159 266.159 92.3987 266.159 88.3188C266.159 84.1483 265.479 80.4312 264.119 77.1673C262.85 73.8128 261.037 70.9569 258.679 68.5996C256.413 66.1517 253.693 64.2931 250.52 63.0239C247.437 61.7546 244.083 61.1199 240.456 61.1199C236.83 61.1199 233.43 61.7546 230.257 63.0239C227.174 64.2931 224.454 66.1517 222.097 68.5996C219.83 70.9569 218.017 73.8128 216.657 77.1673C215.388 80.4312 214.753 84.1483 214.753 88.3188C214.753 92.3987 215.388 96.1159 216.657 99.4704C218.017 102.825 219.83 105.726 222.097 108.174C224.454 110.531 227.174 112.345 230.257 113.614C233.43 114.883 236.83 115.518 240.456 115.518ZM307.461 135.917V40.7207H329.628L382.122 104.094H371.651V40.7207H398.033V135.917H375.866L323.372 72.5435H333.844V135.917H307.461ZM460.953 137.821C446.901 137.821 435.93 133.968 428.043 126.261C420.155 118.555 416.211 107.63 416.211 93.4866V40.7207H443.138V92.6707C443.138 100.83 444.725 106.678 447.898 110.214C451.162 113.75 455.604 115.518 461.225 115.518C466.846 115.518 471.244 113.75 474.417 110.214C477.59 106.678 479.177 100.83 479.177 92.6707V40.7207H505.695V93.4866C505.695 107.63 501.752 118.555 493.864 126.261C485.976 133.968 475.006 137.821 460.953 137.821ZM557.391 137.821C549.594 137.821 542.069 136.869 534.816 134.965C527.654 132.97 521.806 130.432 517.273 127.349L526.113 107.494C530.374 110.214 535.27 112.481 540.8 114.294C546.421 116.016 551.997 116.878 557.527 116.878C561.245 116.878 564.237 116.56 566.503 115.926C568.77 115.2 570.402 114.294 571.399 113.206C572.487 112.027 573.031 110.667 573.031 109.126C573.031 106.95 572.034 105.227 570.039 103.958C568.044 102.689 565.46 101.646 562.287 100.83C559.114 100.014 555.578 99.1984 551.68 98.3824C547.872 97.5665 544.019 96.5238 540.12 95.2546C536.312 93.9853 532.822 92.3533 529.649 90.3588C526.475 88.2735 523.891 85.599 521.897 82.3351C519.902 78.9805 518.905 74.7647 518.905 69.6876C518.905 63.9758 520.446 58.808 523.529 54.1842C526.702 49.5604 531.416 45.8432 537.672 43.0327C543.928 40.2221 551.725 38.8168 561.063 38.8168C567.319 38.8168 573.439 39.5421 579.423 40.9927C585.497 42.3527 590.891 44.3926 595.606 47.1125L587.31 67.1037C582.777 64.6558 578.289 62.8425 573.847 61.6639C569.404 60.3946 565.098 59.76 560.927 59.76C557.21 59.76 554.218 60.168 551.952 60.9839C549.685 61.7092 548.053 62.7065 547.056 63.9758C546.059 65.2451 545.56 66.6957 545.56 68.3276C545.56 70.4129 546.512 72.0902 548.416 73.3594C550.41 74.5381 552.994 75.5354 556.167 76.3513C559.431 77.0766 562.967 77.8473 566.775 78.6632C570.674 79.4792 574.527 80.5218 578.335 81.7911C582.233 82.9697 585.769 84.6017 588.942 86.6869C592.115 88.6815 594.654 91.3561 596.558 94.7106C598.552 97.9745 599.55 102.1 599.55 107.086C599.55 112.617 597.963 117.739 594.79 122.453C591.707 127.077 587.038 130.794 580.783 133.605C574.617 136.416 566.82 137.821 557.391 137.821Z" fill="black"/>
<path d="M87.9309 135.917H72.8743V150.973H87.9309V135.917ZM87.9309 40.7207V25.6642H72.8743V40.7207H87.9309ZM164.632 47.6565L155.598 59.7017L155.655 59.7445L155.712 59.7868L164.632 47.6565ZM169.936 78.5272L157.643 69.8326L157.622 69.8627L157.601 69.8929L169.936 78.5272ZM159.056 87.2309L165.246 100.956L165.306 100.929L165.366 100.902L159.056 87.2309ZM142.465 90.3588L128.566 84.5678L119.88 105.415H142.465V90.3588ZM145.185 83.831V68.7745H135.147L131.286 78.04L145.185 83.831ZM162.728 86.9589L156.919 100.85L157.027 100.895L157.136 100.939L162.728 86.9589ZM174.287 95.7985L161.939 104.414L162.054 104.578L162.173 104.74L174.287 95.7985ZM168.44 129.117L176.948 141.539L176.966 141.527L176.984 141.515L168.44 129.117ZM114.586 116.47H99.5293V131.526H114.586V116.47ZM147.632 114.158L155.872 126.76L155.928 126.723L155.984 126.686L147.632 114.158ZM147.632 99.6064L139.062 111.986L139.332 112.173L139.61 112.348L147.632 99.6064ZM112.682 97.1585H97.6253V112.215H112.682V97.1585ZM112.682 78.5272V63.4707H97.6253V78.5272H112.682ZM143.281 76.2153L151.747 88.666H151.747L143.281 76.2153ZM143.281 62.4799L134.814 74.9305L134.988 75.0485L135.164 75.1616L143.281 62.4799ZM114.586 60.168V45.1114H99.5293V60.168H114.586ZM102.987 135.917V40.7207H72.8743V135.917H102.987ZM87.9309 55.7773H136.617V25.6642H87.9309V55.7773ZM136.617 55.7773C147.74 55.7773 153.217 57.9163 155.598 59.7017L173.666 35.6112C163.716 28.149 150.517 25.6642 136.617 25.6642V55.7773ZM155.712 59.7868C158.152 61.5808 158.823 63.126 158.823 65.6078H188.936C188.936 53.2207 183.441 42.7984 173.551 35.5262L155.712 59.7868ZM158.823 65.6078C158.823 67.6365 158.336 68.8527 157.643 69.8326L182.228 87.2218C186.793 80.7674 188.936 73.3706 188.936 65.6078H158.823ZM157.601 69.8929C156.836 70.9855 155.464 72.3057 152.746 73.5602L165.366 100.902C172.077 97.8042 177.958 93.322 182.27 87.1616L157.601 69.8929ZM152.866 73.5055C150.637 74.5109 147.322 75.3022 142.465 75.3022V105.415C150.482 105.415 158.228 104.121 165.246 100.956L152.866 73.5055ZM156.363 96.1497L159.083 89.622L131.286 78.04L128.566 84.5678L156.363 96.1497ZM145.185 98.8876C150.365 98.8876 154.159 99.6954 156.919 100.85L168.537 73.068C161.324 70.0519 153.422 68.7745 145.185 68.7745V98.8876ZM157.136 100.939C159.761 101.988 161.112 103.228 161.939 104.414L186.636 87.1835C182.023 80.5724 175.668 75.9186 168.32 72.9792L157.136 100.939ZM162.173 104.74C162.764 105.54 163.447 106.932 163.447 109.806H193.56C193.56 101.619 191.432 93.6723 186.402 86.8572L162.173 104.74ZM163.447 109.806C163.447 113.179 162.466 114.948 159.895 116.72L176.984 141.515C187.831 134.039 193.56 122.934 193.56 109.806H163.447ZM159.931 116.695C156.904 118.769 150.739 120.86 139.337 120.86V150.973C153.502 150.973 166.739 148.532 176.948 141.539L159.931 116.695ZM139.337 120.86H87.9309V150.973H139.337V120.86ZM114.586 131.526H137.161V101.413H114.586V131.526ZM137.161 131.526C143.016 131.526 149.953 130.63 155.872 126.76L139.393 101.556C140.087 101.102 140.426 101.095 140.001 101.189C139.579 101.282 138.681 101.413 137.161 101.413V131.526ZM155.984 126.686C163.133 121.92 166.361 114.464 166.361 106.814H136.248C136.248 106.555 136.303 105.597 136.919 104.364C137.567 103.07 138.493 102.155 139.281 101.63L155.984 126.686ZM166.361 106.814C166.361 99.1625 163.107 91.5571 155.655 86.8651L139.61 112.348C138.71 111.781 137.681 110.793 136.97 109.399C136.3 108.083 136.248 107.064 136.248 106.814H166.361ZM156.203 87.227C150.212 83.0796 143.131 82.1019 137.161 82.1019V112.215C138.633 112.215 139.467 112.349 139.819 112.432C140.166 112.513 139.775 112.479 139.062 111.986L156.203 87.227ZM137.161 82.1019H112.682V112.215H137.161V82.1019ZM127.738 97.1585V78.5272H97.6253V97.1585H127.738ZM112.682 93.5838H133.081V63.4707H112.682V93.5838ZM133.081 93.5838C138.85 93.5838 145.832 92.6885 151.747 88.666L134.814 63.7647C135.599 63.2313 136.043 63.1879 135.702 63.2652C135.364 63.342 134.542 63.4707 133.081 63.4707V93.5838ZM151.747 88.666C158.702 83.9367 161.737 76.6219 161.737 69.2796H131.624C131.624 68.9716 131.686 67.973 132.311 66.6982C132.969 65.3553 133.931 64.3655 134.814 63.7647L151.747 88.666ZM161.737 69.2796C161.737 61.9405 158.678 54.4583 151.397 49.7982L135.164 75.1616C134.158 74.5173 133.087 73.4488 132.364 72.0013C131.683 70.6395 131.624 69.5772 131.624 69.2796H161.737ZM151.747 50.0292C145.832 46.0068 138.85 45.1114 133.081 45.1114V75.2245C134.542 75.2245 135.364 75.3532 135.702 75.43C136.043 75.5073 135.599 75.4639 134.814 74.9305L151.747 50.0292ZM133.081 45.1114H114.586V75.2245H133.081V45.1114ZM99.5293 60.168V116.47H129.642V60.168H99.5293ZM219.377 134.149L214.025 148.222L219.377 134.149ZM202.514 123.813L192.078 134.667L192.184 134.769L192.293 134.869L202.514 123.813ZM191.498 108.038L177.714 114.095V114.095L191.498 108.038ZM191.498 68.5996L177.714 62.5428L191.498 68.5996ZM202.514 52.9603L212.839 63.9182L212.846 63.9123L202.514 52.9603ZM219.377 42.4887L214.025 28.4154L219.377 42.4887ZM261.535 42.4887L256.117 56.5365L256.15 56.5493L256.184 56.562L261.535 42.4887ZM278.263 52.9603L267.827 63.8135L267.882 63.8662L267.937 63.9182L278.263 52.9603ZM289.278 68.5996L275.494 74.6565L275.532 74.7435L275.571 74.8301L289.278 68.5996ZM289.278 108.174L275.536 102.021L275.515 102.069L275.494 102.117L289.278 108.174ZM278.263 123.813L288.588 134.771L278.263 123.813ZM261.535 134.149L256.184 120.076L256.15 120.088L256.117 120.101L261.535 134.149ZM250.52 113.614L244.928 99.6342L244.857 99.6624L244.787 99.6914L250.52 113.614ZM258.679 108.174L247.834 97.7302L247.826 97.7382L258.679 108.174ZM264.119 99.4704L250.166 93.8136L250.099 93.977L250.037 94.142L264.119 99.4704ZM264.119 77.1673L250.037 82.4957L250.125 82.7285L250.221 82.9583L264.119 77.1673ZM258.679 68.5996L247.632 78.8292L247.828 79.0415L248.033 79.2462L258.679 68.5996ZM250.52 63.0239L244.787 76.9463L244.857 76.9753L244.928 77.0035L250.52 63.0239ZM230.257 63.0239L224.665 49.0442L224.594 49.0725L224.524 49.1014L230.257 63.0239ZM222.097 68.5996L211.251 58.1558L211.244 58.1638L222.097 68.5996ZM216.657 77.1673L202.704 71.5105L202.663 71.61L202.624 71.7101L216.657 77.1673ZM216.657 99.4704L202.575 104.799L202.637 104.964L202.704 105.127L216.657 99.4704ZM222.097 108.174L211.049 118.404L211.246 118.616L211.45 118.821L222.097 108.174ZM230.257 113.614L224.524 127.536L224.594 127.565L224.665 127.593L230.257 113.614ZM240.456 122.764C234.476 122.764 229.285 121.808 224.729 120.076L214.025 148.222C222.343 151.386 231.205 152.877 240.456 152.877V122.764ZM224.729 120.076C219.997 118.276 216.052 115.824 212.735 112.758L192.293 134.869C198.586 140.688 205.883 145.126 214.025 148.222L224.729 120.076ZM212.95 112.96C209.653 109.791 207.119 106.161 205.283 101.981L177.714 114.095C181.135 121.882 185.945 128.77 192.078 134.667L212.95 112.96ZM205.283 101.981C203.57 98.0828 202.611 93.5975 202.611 88.3188H172.498C172.498 97.365 174.168 106.026 177.714 114.095L205.283 101.981ZM202.611 88.3188C202.611 83.0402 203.57 78.5549 205.283 74.6565L177.714 62.5428C174.168 70.6119 172.498 79.2727 172.498 88.3188H202.611ZM205.283 74.6565C207.107 70.5048 209.609 66.9628 212.839 63.9182L192.188 42.0023C185.99 47.8427 181.148 54.7269 177.714 62.5428L205.283 74.6565ZM212.846 63.9123C216.151 60.7942 220.061 58.3372 224.729 56.562L214.025 28.4154C205.819 31.536 198.487 36.06 192.182 42.0082L212.846 63.9123ZM224.729 56.562C229.285 54.8294 234.476 53.8734 240.456 53.8734V23.7603C231.205 23.7603 222.343 25.2521 214.025 28.4154L224.729 56.562ZM240.456 53.8734C246.554 53.8734 251.713 54.8379 256.117 56.5365L266.954 28.4409C258.665 25.2436 249.771 23.7603 240.456 23.7603V53.8734ZM256.184 56.562C260.829 58.3284 264.65 60.7587 267.827 63.8135L288.698 42.107C282.447 36.0956 275.116 31.5448 266.887 28.4154L256.184 56.562ZM267.937 63.9182C271.168 66.9628 273.669 70.5048 275.494 74.6565L303.063 62.5428C299.629 54.7269 294.786 47.8427 288.588 42.0023L267.937 63.9182ZM275.571 74.8301C277.324 78.687 278.302 83.1108 278.302 88.3188H308.415C308.415 79.2022 306.672 70.4797 302.985 62.3692L275.571 74.8301ZM278.302 88.3188C278.302 93.5243 277.325 98.0262 275.536 102.021L303.02 114.327C306.671 106.173 308.415 97.4381 308.415 88.3188H278.302ZM275.494 102.117C273.669 106.269 271.168 109.811 267.937 112.855L288.588 134.771C294.786 128.931 299.629 122.047 303.063 114.231L275.494 102.117ZM267.937 112.855C264.749 115.859 260.892 118.285 256.184 120.076L266.887 148.222C275.052 145.117 282.347 140.653 288.588 134.771L267.937 112.855ZM256.117 120.101C251.713 121.8 246.554 122.764 240.456 122.764V152.877C249.771 152.877 258.665 151.394 266.954 148.197L256.117 120.101ZM240.456 130.574C245.875 130.574 251.197 129.618 256.253 127.536L244.787 99.6914C243.677 100.148 242.29 100.461 240.456 100.461V130.574ZM256.112 127.593C261.179 125.567 265.717 122.578 269.533 118.61L247.826 97.7382C247.109 98.4844 246.207 99.1225 244.928 99.6342L256.112 127.593ZM269.525 118.618C273.374 114.621 276.251 109.953 278.201 104.799L250.037 94.142C249.449 95.6973 248.7 96.8313 247.834 97.7302L269.525 118.618ZM278.073 105.127C280.248 99.7614 281.216 94.0923 281.216 88.3188H251.103C251.103 90.7051 250.71 92.4703 250.166 93.8136L278.073 105.127ZM281.216 88.3188C281.216 82.5115 280.266 76.7735 278.018 71.3763L250.221 82.9583C250.692 84.0888 251.103 85.7852 251.103 88.3188H281.216ZM278.201 71.8389C276.235 66.6419 273.305 61.9316 269.326 57.9531L248.033 79.2462C248.769 79.9822 249.465 80.9836 250.037 82.4957L278.201 71.8389ZM269.727 58.3701C265.905 54.242 261.307 51.1223 256.112 49.0442L244.928 77.0035C246.079 77.464 246.921 78.0615 247.632 78.8292L269.727 58.3701ZM256.253 49.1014C251.197 47.0198 245.875 46.0634 240.456 46.0634V76.1765C242.29 76.1765 243.677 76.4893 244.787 76.9463L256.253 49.1014ZM240.456 46.0634C235.033 46.0634 229.723 47.0208 224.665 49.0442L235.848 77.0035C237.136 76.4883 238.627 76.1765 240.456 76.1765V46.0634ZM224.524 49.1014C219.477 51.1797 215.025 54.237 211.251 58.1558L232.942 79.0435C233.883 78.0664 234.871 77.4066 235.989 76.9463L224.524 49.1014ZM211.244 58.1638C207.514 62.0427 204.707 66.5701 202.704 71.5105L230.611 82.8241C231.328 81.0555 232.147 79.8711 232.95 79.0354L211.244 58.1638ZM202.624 71.7101C200.563 77.0114 199.697 82.6299 199.697 88.3188H229.81C229.81 85.6668 230.213 83.8509 230.69 82.6245L202.624 71.7101ZM199.697 88.3188C199.697 93.9713 200.579 99.5243 202.575 104.799L230.739 94.142C230.196 92.7074 229.81 90.826 229.81 88.3188H199.697ZM202.704 105.127C204.689 110.025 207.444 114.51 211.049 118.404L233.145 97.9445C232.217 96.942 231.345 95.6246 230.611 93.8136L202.704 105.127ZM211.45 118.821C215.213 122.583 219.603 125.51 224.524 127.536L235.989 99.6914C234.745 99.179 233.695 98.4791 232.744 97.5275L211.45 118.821ZM224.665 127.593C229.723 129.617 235.033 130.574 240.456 130.574V100.461C238.627 100.461 237.136 100.149 235.848 99.6342L224.665 127.593ZM307.461 135.917H292.405V150.973H307.461V135.917ZM307.461 40.7207V25.6642H292.405V40.7207H307.461ZM329.628 40.7207L341.223 31.1161L336.708 25.6642H329.628V40.7207ZM382.122 104.094V119.151H414.145L393.717 94.4896L382.122 104.094ZM371.651 104.094H356.594V119.151H371.651V104.094ZM371.651 40.7207V25.6642H356.594V40.7207H371.651ZM398.033 40.7207H413.09V25.6642H398.033V40.7207ZM398.033 135.917V150.973H413.09V135.917H398.033ZM375.866 135.917L364.271 145.522L368.787 150.973H375.866V135.917ZM323.372 72.5435V57.4869H291.35L311.777 82.1481L323.372 72.5435ZM333.844 72.5435H348.901V57.4869H333.844V72.5435ZM333.844 135.917V150.973H348.901V135.917H333.844ZM322.518 135.917V40.7207H292.405V135.917H322.518ZM307.461 55.7773H329.628V25.6642H307.461V55.7773ZM318.033 50.3254L370.527 113.699L393.717 94.4896L341.223 31.1161L318.033 50.3254ZM382.122 89.0377H371.651V119.151H382.122V89.0377ZM386.707 104.094V40.7207H356.594V104.094H386.707ZM371.651 55.7773H398.033V25.6642H371.651V55.7773ZM382.977 40.7207V135.917H413.09V40.7207H382.977ZM398.033 120.86H375.866V150.973H398.033V120.86ZM387.462 126.312L334.968 62.9388L311.777 82.1481L364.271 145.522L387.462 126.312ZM323.372 87.6H333.844V57.4869H323.372V87.6ZM318.788 72.5435V135.917H348.901V72.5435H318.788ZM333.844 120.86H307.461V150.973H333.844V120.86ZM428.043 126.261L438.565 115.492L428.043 126.261ZM416.211 40.7207V25.6642H401.155V40.7207H416.211ZM443.138 40.7207H458.195V25.6642H443.138V40.7207ZM447.898 110.214L436.692 120.27L436.763 120.349L436.834 120.427L447.898 110.214ZM479.177 40.7207V25.6642H464.12V40.7207H479.177ZM505.695 40.7207H520.752V25.6642H505.695V40.7207ZM493.864 126.261L483.342 115.492L493.864 126.261ZM460.953 122.764C449.705 122.764 442.924 119.751 438.565 115.492L417.521 137.031C428.936 148.184 444.096 152.877 460.953 152.877V122.764ZM438.565 115.492C434.338 111.362 431.268 104.78 431.268 93.4866H401.155C401.155 110.48 405.972 125.748 417.521 137.031L438.565 115.492ZM431.268 93.4866V40.7207H401.155V93.4866H431.268ZM416.211 55.7773H443.138V25.6642H416.211V55.7773ZM428.081 40.7207V92.6707H458.195V40.7207H428.081ZM428.081 92.6707C428.081 102.096 429.785 112.574 436.692 120.27L459.104 100.158C459.46 100.554 459.201 100.495 458.859 99.2337C458.511 97.9512 458.195 95.8469 458.195 92.6707H428.081ZM436.834 120.427C443.433 127.576 452.174 130.574 461.225 130.574V100.461C459.992 100.461 459.413 100.269 459.245 100.202C459.129 100.156 459.077 100.126 458.961 100.001L436.834 120.427ZM461.225 130.574C470.265 130.574 479.067 127.575 485.622 120.27L463.211 100.158C463.162 100.212 463.149 100.216 463.168 100.203C463.187 100.19 463.182 100.198 463.122 100.222C463.008 100.268 462.462 100.461 461.225 100.461V130.574ZM485.622 120.27C492.529 112.574 494.233 102.096 494.233 92.6707H464.12C464.12 95.8469 463.803 97.9512 463.455 99.2337C463.113 100.495 462.855 100.554 463.211 100.158L485.622 120.27ZM494.233 92.6707V40.7207H464.12V92.6707H494.233ZM479.177 55.7773H505.695V25.6642H479.177V55.7773ZM490.639 40.7207V93.4866H520.752V40.7207H490.639ZM490.639 93.4866C490.639 104.78 487.569 111.362 483.342 115.492L504.386 137.031C515.934 125.748 520.752 110.48 520.752 93.4866H490.639ZM483.342 115.492C478.982 119.751 472.202 122.764 460.953 122.764V152.877C477.81 152.877 492.97 148.184 504.386 137.031L483.342 115.492ZM534.816 134.965L530.777 149.47L530.885 149.5L530.994 149.528L534.816 134.965ZM517.273 127.349L503.518 121.225L498.399 132.723L508.807 139.8L517.273 127.349ZM526.113 107.494L534.214 94.8026L519.471 85.3925L512.358 101.37L526.113 107.494ZM540.8 114.294L536.109 128.601L536.248 128.647L536.389 128.69L540.8 114.294ZM566.503 115.926L570.563 130.425L570.829 130.35L571.092 130.266L566.503 115.926ZM571.399 113.206L560.335 102.993L560.318 103.012L560.3 103.032L571.399 113.206ZM570.039 103.958L561.955 116.661H561.955L570.039 103.958ZM562.287 100.83L566.037 86.2482V86.2482L562.287 100.83ZM551.68 98.3824L548.525 113.105L548.56 113.112L548.595 113.12L551.68 98.3824ZM540.12 95.2546L535.359 109.538L535.409 109.555L535.459 109.571L540.12 95.2546ZM529.649 90.3588L521.38 102.942L521.507 103.025L521.636 103.106L529.649 90.3588ZM521.897 82.3351L508.955 90.0301L509.002 90.1085L509.049 90.1863L521.897 82.3351ZM523.529 54.1842L511.115 45.6646L511.057 45.7481L511.001 45.8323L523.529 54.1842ZM537.672 43.0327L531.502 29.2986L537.672 43.0327ZM579.423 40.9927L575.875 55.6254L576.004 55.6566L576.133 55.6856L579.423 40.9927ZM595.606 47.1125L609.513 52.8833L614.578 40.6756L603.13 34.0707L595.606 47.1125ZM587.31 67.1037L580.156 80.352L594.827 88.2741L601.217 72.8745L587.31 67.1037ZM573.847 61.6639L569.71 76.1411L569.848 76.1804L569.986 76.217L573.847 61.6639ZM551.952 60.9839L556.541 75.3242L556.798 75.2419L557.052 75.1504L551.952 60.9839ZM547.056 63.9758L535.217 54.6736V54.6736L547.056 63.9758ZM548.416 73.3594L540.064 85.8872L540.404 86.114L540.756 86.322L548.416 73.3594ZM556.168 76.3513L552.418 90.9335L552.659 90.9954L552.901 91.0493L556.168 76.3513ZM566.775 78.6632L563.62 93.3855L563.655 93.3931L563.691 93.4004L566.775 78.6632ZM578.335 81.7911L573.573 96.075L573.774 96.142L573.977 96.2034L578.335 81.7911ZM588.942 86.6869L580.673 99.2697L580.801 99.3533L580.93 99.4343L588.942 86.6869ZM596.558 94.7106L583.463 102.143L583.584 102.354L583.71 102.562L596.558 94.7106ZM594.79 122.453L582.299 114.046L582.281 114.074L582.262 114.102L594.79 122.453ZM580.783 133.605L574.612 119.871L574.574 119.888L574.537 119.905L580.783 133.605ZM557.391 122.764C550.833 122.764 544.596 121.965 538.639 120.402L530.994 149.528C539.543 151.772 548.356 152.877 557.391 152.877V122.764ZM538.856 120.46C532.748 118.759 528.532 116.798 525.74 114.899L508.807 139.8C515.08 144.066 522.56 147.181 530.777 149.47L538.856 120.46ZM531.028 133.473L539.868 113.618L512.358 101.37L503.518 121.225L531.028 133.473ZM518.012 120.186C523.484 123.678 529.556 126.452 536.109 128.601L545.491 99.9866C540.984 98.5088 537.264 96.7497 534.214 94.8026L518.012 120.186ZM536.389 128.69C543.349 130.823 550.41 131.934 557.527 131.934V101.821C553.584 101.821 549.493 101.21 545.212 99.8981L536.389 128.69ZM557.527 131.934C561.922 131.934 566.441 131.579 570.563 130.425L562.443 101.427C562.032 101.542 560.567 101.821 557.527 101.821V131.934ZM571.092 130.266C574.481 129.181 578.96 127.239 582.498 123.38L560.3 103.032C561.14 102.115 561.873 101.674 562.115 101.54C562.364 101.402 562.347 101.447 561.914 101.586L571.092 130.266ZM582.462 123.418C586.003 119.583 588.087 114.619 588.087 109.126H557.974C557.974 108.083 558.167 106.9 558.643 105.71C559.115 104.53 559.752 103.625 560.335 102.993L582.462 123.418ZM588.087 109.126C588.087 101.292 584.011 95.003 578.122 91.2556L561.955 116.661C561.295 116.24 560.173 115.335 559.253 113.746C558.302 112.104 557.974 110.433 557.974 109.126H588.087ZM578.122 91.2556C574.386 88.8781 570.198 87.3182 566.037 86.2482L558.538 115.412C560.723 115.974 561.702 116.5 561.955 116.661L578.122 91.2556ZM566.037 86.2482C562.602 85.365 558.84 84.4983 554.764 83.6452L548.595 113.12C552.316 113.898 555.626 114.664 558.538 115.412L566.037 86.2482ZM554.834 83.6601C551.561 82.9587 548.211 82.0543 544.781 80.9377L535.459 109.571C539.826 110.993 544.182 112.174 548.525 113.105L554.834 83.6601ZM544.881 80.9707C542.134 80.055 539.747 78.9222 537.661 77.6113L521.636 103.106C525.897 105.785 530.49 107.916 535.359 109.538L544.881 80.9707ZM537.917 77.7759C536.615 76.9201 535.589 75.8665 534.744 74.4838L509.049 90.1863C512.194 95.3314 516.336 99.627 521.38 102.942L537.917 77.7759ZM534.839 74.6401C534.585 74.2144 533.962 72.8529 533.962 69.6876H503.848C503.848 76.6765 505.219 83.7467 508.955 90.0301L534.839 74.6401ZM533.962 69.6876C533.962 66.8606 534.671 64.6146 536.057 62.5361L511.001 45.8323C506.222 53.0015 503.848 61.091 503.848 69.6876H533.962ZM535.943 62.7038C537.238 60.8175 539.545 58.6974 543.843 56.7668L531.502 29.2986C523.288 32.989 516.166 38.3033 511.115 45.6646L535.943 62.7038ZM543.843 56.7668C547.591 55.0828 553.127 53.8734 561.063 53.8734V23.7603C550.323 23.7603 540.265 25.3614 531.502 29.2986L543.843 56.7668ZM561.063 53.8734C566.143 53.8734 571.072 54.4609 575.875 55.6254L582.97 26.36C575.806 24.6234 568.495 23.7603 561.063 23.7603V53.8734ZM576.133 55.6856C580.93 56.7595 584.861 58.2962 588.082 60.1542L603.13 34.0707C596.922 30.489 590.064 27.9458 582.712 26.2999L576.133 55.6856ZM581.699 41.3417L573.404 61.3329L601.217 72.8745L609.513 52.8833L581.699 41.3417ZM594.464 53.8554C589.012 50.9112 583.424 48.6273 577.708 47.1108L569.986 76.217C573.155 77.0578 576.542 78.4004 580.156 80.352L594.464 53.8554ZM577.983 47.1867C572.339 45.574 566.638 44.7035 560.927 44.7035V74.8165C563.557 74.8165 566.47 75.2153 569.71 76.1411L577.983 47.1867ZM560.927 44.7035C556.311 44.7035 551.392 45.1829 546.852 46.8174L557.052 75.1504C556.98 75.1763 557.229 75.08 557.93 74.9845C558.619 74.8905 559.6 74.8165 560.927 74.8165V44.7035ZM547.363 46.6437C543.516 47.8746 538.761 50.1621 535.217 54.6736L558.895 73.2781C558.102 74.2871 557.317 74.856 556.879 75.1234C556.458 75.3808 556.285 75.4059 556.541 75.3242L547.363 46.6437ZM535.217 54.6736C532.11 58.6271 530.503 63.3623 530.503 68.3276H560.616C560.616 69.0703 560.498 69.9625 560.173 70.9103C559.846 71.8601 559.382 72.658 558.895 73.2781L535.217 54.6736ZM530.503 68.3276C530.503 75.9994 534.453 82.1464 540.064 85.8872L556.768 60.8317C557.41 61.26 558.486 62.1623 559.368 63.7175C560.282 65.3272 560.616 66.983 560.616 68.3276H530.503ZM540.756 86.322C544.36 88.4515 548.391 89.8979 552.418 90.9335L559.917 61.7692C557.598 61.1728 556.461 60.6246 556.076 60.3969L540.756 86.322ZM552.901 91.0493C556.208 91.7841 559.781 92.5629 563.62 93.3855L569.93 63.9409C566.153 63.1316 562.655 62.3692 559.434 61.6533L552.901 91.0493ZM563.691 93.4004C567.017 94.0968 570.311 94.9875 573.573 96.075L583.096 67.5072C578.743 66.0561 574.33 64.8616 569.86 63.926L563.691 93.4004ZM573.977 96.2034C576.591 96.9936 578.794 98.0346 580.673 99.2697L597.211 74.1041C592.744 71.1687 587.875 68.9458 582.692 67.3788L573.977 96.2034ZM580.93 99.4343C581.933 100.065 582.751 100.887 583.463 102.143L609.652 87.2786C606.557 81.825 602.298 77.2982 596.955 73.9395L580.93 99.4343ZM583.71 102.562C583.884 102.846 584.493 104.046 584.493 107.086H614.606C614.606 100.153 613.221 93.1032 609.405 86.8593L583.71 102.562ZM584.493 107.086C584.493 109.535 583.849 111.744 582.299 114.046L607.281 130.861C612.077 123.734 614.606 115.698 614.606 107.086H584.493ZM582.262 114.102C581.082 115.873 578.889 117.949 574.612 119.871L586.953 147.339C595.187 143.64 602.333 138.282 607.318 130.805L582.262 114.102ZM574.537 119.905C570.943 121.544 565.455 122.764 557.391 122.764V152.877C568.185 152.877 578.292 151.288 587.028 147.305L574.537 119.905Z" fill="#FFF438" mask="url(#path-3-outside-2_41_11)"/>
<defs>
<filter id="filter0_ddi_41_11" x="0.471149" y="0.799088" width="680.413" height="265.379" filterUnits="userSpaceOnUse" color-interpolation-filters="sRGB">
<feFlood flood-opacity="0" result="BackgroundImageFix"/>
<feColorMatrix in="SourceAlpha" type="matrix" values="0 0 0 0 0 0 0 0 0 0 0 0 0 0 0 0 0 0 127 0" result="hardAlpha"/>
<feOffset dy="24.4669"/>
<feGaussianBlur stdDeviation="9.41034"/>
<feColorMatrix type="matrix" values="0 0 0 0 0.224 0 0 0 0 0.15 0 0 0 0 0 0 0 0 0.7 0"/>
<feBlend mode="multiply" in2="BackgroundImageFix" result="effect1_dropShadow_41_11"/>
<feColorMatrix in="SourceAlpha" type="matrix" values="0 0 0 0 0 0 0 0 0 0 0 0 0 0 0 0 0 0 127 0" result="hardAlpha"/>
<feOffset dy="45.1696"/>
<feGaussianBlur stdDeviation="29.3603"/>
<feColorMatrix type="matrix" values="0 0 0 0 0.56 0 0 0 0 0.44 0 0 0 0 0 0 0 0 1 0"/>
<feBlend mode="color-dodge" in2="effect1_dropShadow_41_11" result="effect2_dropShadow_41_11"/>
<feBlend mode="normal" in="SourceGraphic" in2="effect2_dropShadow_41_11" result="shape"/>
<feColorMatrix in="SourceAlpha" type="matrix" values="0 0 0 0 0 0 0 0 0 0 0 0 0 0 0 0 0 0 127 0" result="hardAlpha"/>
<feOffset dx="-2.44669" dy="4.89337"/>
<feGaussianBlur stdDeviation="1.22334"/>
<feComposite in2="hardAlpha" operator="arithmetic" k2="-1" k3="1"/>
<feColorMatrix type="matrix" values="0 0 0 0 1 0 0 0 0 1 0 0 0 0 1 0 0 0 0.5 0"/>
<feBlend mode="normal" in2="shape" result="effect3_innerShadow_41_11"/>
</filter>
</defs>
</svg>
