<svg width="632" height="154" viewBox="0 0 632 154" fill="none" xmlns="http://www.w3.org/2000/svg">
<g style="mix-blend-mode:hard-light" filter="url(#filter0_ddi_41_9)">
<mask id="path-1-outside-1_41_9" maskUnits="userSpaceOnUse" x="30.0885" y="7.26373" width="572" height="94" fill="black">
<rect fill="white" x="30.0885" y="7.26373" width="572" height="94"/>
<path d="M53.9229 82.2637V33.92H76.0229C80.4429 33.92 84.2413 34.6336 87.4182 36.0609C90.6411 37.4882 93.1274 39.5601 94.8769 42.2765C96.6265 44.947 97.5013 48.1238 97.5013 51.8072C97.5013 55.4445 96.6265 58.5983 94.8769 61.2687C93.1274 63.8931 90.6411 65.9189 87.4182 67.3462C84.2413 68.7275 80.4429 69.4181 76.0229 69.4181H61.5198L67.5972 63.6859V82.2637H53.9229ZM83.8269 82.2637L71.8101 64.6528H86.3822L98.4682 82.2637H83.8269ZM67.5972 65.1362L61.5198 58.8515H75.1941C78.0487 58.8515 80.1666 58.23 81.5479 56.9869C82.9752 55.7437 83.6888 54.0172 83.6888 51.8072C83.6888 49.5511 82.9752 47.8015 81.5479 46.5584C80.1666 45.3153 78.0487 44.6937 75.1941 44.6937H61.5198L67.5972 38.409V65.1362ZM117.615 52.6359H140.06V62.8572H117.615V52.6359ZM118.582 71.6972H143.858V82.2637H105.045V33.92H142.961V44.4865H118.582V71.6972ZM164.154 55.1222H186.461V65.6887H164.154V55.1222ZM165.121 82.2637H151.447V33.92H189.362V44.4865H165.121V82.2637ZM208.327 52.6359H230.772V62.8572H208.327V52.6359ZM209.294 71.6972H234.57V82.2637H195.757V33.92H233.673V44.4865H209.294V71.6972ZM242.159 82.2637V33.92H264.259C268.679 33.92 272.477 34.6336 275.654 36.0609C278.877 37.4882 281.363 39.5601 283.113 42.2765C284.862 44.947 285.737 48.1238 285.737 51.8072C285.737 55.4445 284.862 58.5983 283.113 61.2687C281.363 63.8931 278.877 65.9189 275.654 67.3462C272.477 68.7275 268.679 69.4181 264.259 69.4181H249.756L255.833 63.6859V82.2637H242.159ZM272.063 82.2637L260.046 64.6528H274.618L286.704 82.2637H272.063ZM255.833 65.1362L249.756 58.8515H263.43C266.284 58.8515 268.402 58.23 269.784 56.9869C271.211 55.7437 271.925 54.0172 271.925 51.8072C271.925 49.5511 271.211 47.8015 269.784 46.5584C268.402 45.3153 266.284 44.6937 263.43 44.6937H249.756L255.833 38.409V65.1362ZM329.954 83.2306C326.271 83.2306 322.979 82.6551 320.078 81.504C317.178 80.307 314.876 78.6725 313.172 76.6006C311.515 74.5287 310.686 72.2036 310.686 69.6253C310.686 67.093 311.238 64.837 312.343 62.8572C313.494 60.8774 315.244 59.0587 317.592 57.4012C319.986 55.7437 323.025 54.1553 326.708 52.6359C329.149 51.577 331.059 50.6331 332.441 49.8044C333.822 48.9756 334.789 48.1929 335.341 47.4562C335.94 46.6735 336.239 45.8908 336.239 45.1081C336.239 44.1412 335.917 43.3585 335.272 42.76C334.628 42.1614 333.661 41.8622 332.372 41.8622C331.036 41.8622 329.977 42.2075 329.195 42.8981C328.458 43.5887 328.09 44.4405 328.09 45.4534C328.09 46.052 328.205 46.6505 328.435 47.249C328.711 47.8476 329.218 48.5382 329.954 49.3209C330.737 50.1036 331.819 51.1165 333.2 52.3597L358.684 75.0122L351.64 83.0925L322.91 57.4703C321.345 56.089 320.055 54.7538 319.042 53.4647C318.076 52.1755 317.339 50.8863 316.832 49.5972C316.372 48.308 316.142 46.9958 316.142 45.6606C316.142 43.1744 316.809 41.0104 318.145 39.1687C319.48 37.281 321.368 35.8307 323.808 34.8178C326.248 33.7588 329.103 33.2294 332.372 33.2294C335.364 33.2294 337.966 33.6898 340.176 34.6106C342.432 35.5314 344.181 36.8667 345.424 38.6162C346.667 40.3658 347.289 42.4377 347.289 44.8319C347.289 46.9498 346.737 48.8835 345.632 50.6331C344.573 52.3827 342.915 53.9942 340.659 55.4675C338.449 56.9408 335.617 58.3911 332.164 59.8184C330.046 60.6932 328.343 61.568 327.054 62.4428C325.811 63.3176 324.913 64.2154 324.36 65.1362C323.808 66.011 323.532 67.0239 323.532 68.175C323.532 69.0958 323.831 69.9476 324.429 70.7303C325.028 71.513 325.88 72.1346 326.985 72.595C328.09 73.0094 329.402 73.2165 330.921 73.2165C333.592 73.2165 336.055 72.572 338.311 71.2828C340.567 69.9476 342.501 68.0138 344.112 65.4815C345.77 62.9493 346.898 59.8875 347.496 56.2962L358.063 59.4731C357.05 64.2154 355.208 68.3592 352.538 71.9044C349.913 75.4496 346.667 78.2351 342.8 80.2609C338.978 82.2407 334.697 83.2306 329.954 83.2306ZM397.979 52.6359H420.424V62.8572H397.979V52.6359ZM398.946 71.6972H424.222V82.2637H385.409V33.92H423.325V44.4865H398.946V71.6972ZM426.009 82.2637L447.35 33.92H460.817L482.226 82.2637H467.999L451.286 40.619H456.673L439.96 82.2637H426.009ZM437.681 72.8712L441.203 62.7881H464.823L468.345 72.8712H437.681ZM486.103 82.2637V33.92H508.203C512.623 33.92 516.421 34.6336 519.598 36.0609C522.821 37.4882 525.307 39.5601 527.057 42.2765C528.807 44.947 529.681 48.1238 529.681 51.8072C529.681 55.4445 528.807 58.5983 527.057 61.2687C525.307 63.8931 522.821 65.9189 519.598 67.3462C516.421 68.7275 512.623 69.4181 508.203 69.4181H493.7L499.777 63.6859V82.2637H486.103ZM516.007 82.2637L503.99 64.6528H518.562L530.648 82.2637H516.007ZM499.777 65.1362L493.7 58.8515H507.374C510.229 58.8515 512.347 58.23 513.728 56.9869C515.155 55.7437 515.869 54.0172 515.869 51.8072C515.869 49.5511 515.155 47.8015 513.728 46.5584C512.347 45.3153 510.229 44.6937 507.374 44.6937H493.7L499.777 38.409V65.1362ZM537.225 82.2637V33.92H548.483L575.141 66.1031H569.823V33.92H583.221V82.2637H571.964L545.306 50.0806H550.624V82.2637H537.225Z"/>
</mask>
<path d="M53.9229 82.2637H41.4978V94.6888H53.9229V82.2637ZM53.9229 33.92V21.4949H41.4978V33.92H53.9229ZM87.4182 36.0609L82.3262 47.3947L82.3565 47.4083L82.3869 47.4218L87.4182 36.0609ZM94.8769 42.2765L84.431 49.0045L84.4573 49.0452L84.4838 49.0858L94.8769 42.2765ZM94.8769 61.2687L105.215 68.1609L105.243 68.1196L105.27 68.078L94.8769 61.2687ZM87.4182 67.3462L92.3724 78.7409L92.411 78.7241L92.4494 78.7071L87.4182 67.3462ZM61.5197 69.4181L52.9944 60.3792L30.2374 81.8432H61.5197V69.4181ZM67.5972 63.6859H80.0223V34.887L59.0719 54.647L67.5972 63.6859ZM67.5972 82.2637V94.6888H80.0223V82.2637H67.5972ZM83.8269 82.2637L73.5635 89.267L77.2631 94.6888H83.8269V82.2637ZM71.8101 64.6528V52.2277H48.2897L61.5467 71.656L71.8101 64.6528ZM86.3822 64.6528L96.6269 57.6222L92.9248 52.2277H86.3822V64.6528ZM98.4682 82.2637V94.6888H122.065L108.713 75.2331L98.4682 82.2637ZM67.5972 65.1362L58.6654 73.7736L80.0223 95.8587V65.1362H67.5972ZM61.5197 58.8515V46.4265H32.2198L52.5879 67.4889L61.5197 58.8515ZM81.5479 56.9869L73.3873 47.6173L73.3111 47.6837L73.2359 47.7514L81.5479 56.9869ZM81.5479 46.5584L73.2359 55.7939L73.3111 55.8615L73.3873 55.928L81.5479 46.5584ZM61.5197 44.6937L52.5879 36.0563L32.2198 57.1188H61.5197V44.6937ZM67.5972 38.409H80.0223V7.68663L58.6654 29.7716L67.5972 38.409ZM53.9229 82.2637H66.348V33.92H53.9229H41.4978V82.2637H53.9229ZM53.9229 33.92V46.3451H76.0229V33.92V21.4949H53.9229V33.92ZM76.0229 33.92V46.3451C79.1435 46.3451 81.1199 46.8527 82.3262 47.3947L87.4182 36.0609L92.5102 24.7272C87.3627 22.4145 81.7422 21.4949 76.0229 21.4949V33.92ZM87.4182 36.0609L82.3869 47.4218C83.6015 47.9597 84.1144 48.5129 84.431 49.0045L94.8769 42.2765L105.323 35.5486C102.14 30.6072 97.6807 27.0168 92.4494 24.7001L87.4182 36.0609ZM94.8769 42.2765L84.4838 49.0858C84.7131 49.4357 85.0762 50.1617 85.0762 51.8072H97.5013H109.926C109.926 46.086 108.54 40.4582 105.27 35.4673L94.8769 42.2765ZM97.5013 51.8072H85.0762C85.0762 53.3721 84.7296 54.0844 84.4838 54.4595L94.8769 61.2687L105.27 68.078C108.523 63.1122 109.926 57.5168 109.926 51.8072H97.5013ZM94.8769 61.2687L84.5386 54.3765C84.248 54.8125 83.714 55.3977 82.3869 55.9854L87.4182 67.3462L92.4494 78.7071C97.5682 76.4402 102.007 72.9738 105.215 68.1609L94.8769 61.2687ZM87.4182 67.3462L82.464 55.9516C81.2178 56.4934 79.1907 56.993 76.0229 56.993V69.4181V81.8432C81.6951 81.8432 87.2648 80.9616 92.3724 78.7409L87.4182 67.3462ZM76.0229 69.4181V56.993H61.5197V69.4181V81.8432H76.0229V69.4181ZM61.5197 69.4181L70.0451 78.457L76.1226 72.7248L67.5972 63.6859L59.0719 54.647L52.9944 60.3792L61.5197 69.4181ZM67.5972 63.6859H55.1722V82.2637H67.5972H80.0223V63.6859H67.5972ZM67.5972 82.2637V69.8386H53.9229V82.2637V94.6888H67.5972V82.2637ZM83.8269 82.2637L94.0903 75.2605L82.0735 57.6495L71.8101 64.6528L61.5467 71.656L73.5635 89.267L83.8269 82.2637ZM71.8101 64.6528V77.0779H86.3822V64.6528V52.2277H71.8101V64.6528ZM86.3822 64.6528L76.1376 71.6834L88.2235 89.2944L98.4682 82.2637L108.713 75.2331L96.6269 57.6222L86.3822 64.6528ZM98.4682 82.2637V69.8386H83.8269V82.2637V94.6888H98.4682V82.2637ZM67.5972 65.1362L76.5291 56.4988L70.4516 50.2141L61.5197 58.8515L52.5879 67.4889L58.6654 73.7736L67.5972 65.1362ZM61.5197 58.8515V71.2766H75.1941V58.8515V46.4265H61.5197V58.8515ZM75.1941 58.8515V71.2766C79.532 71.2766 85.2431 70.3774 89.8598 66.2224L81.5479 56.9869L73.2359 47.7514C74.1642 46.9159 75.0302 46.5789 75.4246 46.4631C75.7782 46.3593 75.7643 46.4265 75.1941 46.4265V58.8515ZM81.5479 56.9869L89.7084 66.3564C94.3091 62.3493 96.1139 56.9451 96.1139 51.8072H83.6888H71.2637C71.2637 51.5764 71.3026 50.9039 71.6707 50.0133C72.0585 49.0751 72.6704 48.2417 73.3873 47.6173L81.5479 56.9869ZM83.6888 51.8072H96.1139C96.1139 46.7149 94.3677 41.247 89.7084 37.1889L81.5479 46.5584L73.3873 55.928C72.6385 55.2758 72.027 54.4231 71.6488 53.4957C71.2922 52.6216 71.2637 51.9826 71.2637 51.8072H83.6888ZM81.5479 46.5584L89.8598 37.3229C85.2431 33.1679 79.532 32.2687 75.1941 32.2687V44.6937V57.1188C75.7643 57.1188 75.7782 57.186 75.4246 57.0822C75.0302 56.9664 74.1642 56.6294 73.2359 55.7939L81.5479 46.5584ZM75.1941 44.6937V32.2687H61.5197V44.6937V57.1188H75.1941V44.6937ZM61.5197 44.6937L70.4516 53.3311L76.5291 47.0464L67.5972 38.409L58.6654 29.7716L52.5879 36.0563L61.5197 44.6937ZM67.5972 38.409H55.1722V65.1362H67.5972H80.0223V38.409H67.5972ZM117.615 52.6359V40.2108H105.19V52.6359H117.615ZM140.06 52.6359H152.485V40.2108H140.06V52.6359ZM140.06 62.8572V75.2823H152.485V62.8572H140.06ZM117.615 62.8572H105.19V75.2823H117.615V62.8572ZM118.582 71.6972H106.156V84.1223H118.582V71.6972ZM143.858 71.6972H156.284V59.2721H143.858V71.6972ZM143.858 82.2637V94.6888H156.284V82.2637H143.858ZM105.045 82.2637H92.6202V94.6888H105.045V82.2637ZM105.045 33.92V21.4949H92.6202V33.92H105.045ZM142.961 33.92H155.386V21.4949H142.961V33.92ZM142.961 44.4865V56.9116H155.386V44.4865H142.961ZM118.582 44.4865V32.0615H106.156V44.4865H118.582ZM117.615 52.6359V65.061H140.06V52.6359V40.2108H117.615V52.6359ZM140.06 52.6359H127.635V62.8572H140.06H152.485V52.6359H140.06ZM140.06 62.8572V50.4321H117.615V62.8572V75.2823H140.06V62.8572ZM117.615 62.8572H130.04V52.6359H117.615H105.19V62.8572H117.615ZM118.582 71.6972V84.1223H143.858V71.6972V59.2721H118.582V71.6972ZM143.858 71.6972H131.433V82.2637H143.858H156.284V71.6972H143.858ZM143.858 82.2637V69.8386H105.045V82.2637V94.6888H143.858V82.2637ZM105.045 82.2637H117.47V33.92H105.045H92.6202V82.2637H105.045ZM105.045 33.92V46.3451H142.961V33.92V21.4949H105.045V33.92ZM142.961 33.92H130.536V44.4865H142.961H155.386V33.92H142.961ZM142.961 44.4865V32.0615H118.582V44.4865V56.9116H142.961V44.4865ZM118.582 44.4865H106.156V71.6972H118.582H131.007V44.4865H118.582ZM164.154 55.1222V42.6971H151.729V55.1222H164.154ZM186.461 55.1222H198.886V42.6971H186.461V55.1222ZM186.461 65.6887V78.1138H198.886V65.6887H186.461ZM164.154 65.6887H151.729V78.1138H164.154V65.6887ZM165.121 82.2637V94.6888H177.546V82.2637H165.121ZM151.447 82.2637H139.022V94.6888H151.447V82.2637ZM151.447 33.92V21.4949H139.022V33.92H151.447ZM189.362 33.92H201.787V21.4949H189.362V33.92ZM189.362 44.4865V56.9116H201.787V44.4865H189.362ZM165.121 44.4865V32.0615H152.696V44.4865H165.121ZM164.154 55.1222V67.5473H186.461V55.1222V42.6971H164.154V55.1222ZM186.461 55.1222H174.036V65.6887H186.461H198.886V55.1222H186.461ZM186.461 65.6887V53.2636H164.154V65.6887V78.1138H186.461V65.6887ZM164.154 65.6887H176.579V55.1222H164.154H151.729V65.6887H164.154ZM165.121 82.2637V69.8386H151.447V82.2637V94.6888H165.121V82.2637ZM151.447 82.2637H163.872V33.92H151.447H139.022V82.2637H151.447ZM151.447 33.92V46.3451H189.362V33.92V21.4949H151.447V33.92ZM189.362 33.92H176.937V44.4865H189.362H201.787V33.92H189.362ZM189.362 44.4865V32.0615H165.121V44.4865V56.9116H189.362V44.4865ZM165.121 44.4865H152.696V82.2637H165.121H177.546V44.4865H165.121ZM208.327 52.6359V40.2108H195.902V52.6359H208.327ZM230.772 52.6359H243.197V40.2108H230.772V52.6359ZM230.772 62.8572V75.2823H243.197V62.8572H230.772ZM208.327 62.8572H195.902V75.2823H208.327V62.8572ZM209.294 71.6972H196.868V84.1223H209.294V71.6972ZM234.57 71.6972H246.995V59.2721H234.57V71.6972ZM234.57 82.2637V94.6888H246.995V82.2637H234.57ZM195.757 82.2637H183.332V94.6888H195.757V82.2637ZM195.757 33.92V21.4949H183.332V33.92H195.757ZM233.673 33.92H246.098V21.4949H233.673V33.92ZM233.673 44.4865V56.9116H246.098V44.4865H233.673ZM209.294 44.4865V32.0615H196.868V44.4865H209.294ZM208.327 52.6359V65.061H230.772V52.6359V40.2108H208.327V52.6359ZM230.772 52.6359H218.347V62.8572H230.772H243.197V52.6359H230.772ZM230.772 62.8572V50.4321H208.327V62.8572V75.2823H230.772V62.8572ZM208.327 62.8572H220.752V52.6359H208.327H195.902V62.8572H208.327ZM209.294 71.6972V84.1223H234.57V71.6972V59.2721H209.294V71.6972ZM234.57 71.6972H222.145V82.2637H234.57H246.995V71.6972H234.57ZM234.57 82.2637V69.8386H195.757V82.2637V94.6888H234.57V82.2637ZM195.757 82.2637H208.182V33.92H195.757H183.332V82.2637H195.757ZM195.757 33.92V46.3451H233.673V33.92V21.4949H195.757V33.92ZM233.673 33.92H221.247V44.4865H233.673H246.098V33.92H233.673ZM233.673 44.4865V32.0615H209.294V44.4865V56.9116H233.673V44.4865ZM209.294 44.4865H196.868V71.6972H209.294H221.719V44.4865H209.294ZM242.159 82.2637H229.734V94.6888H242.159V82.2637ZM242.159 33.92V21.4949H229.734V33.92H242.159ZM275.654 36.0609L270.562 47.3947L270.592 47.4083L270.623 47.4218L275.654 36.0609ZM283.113 42.2765L272.667 49.0045L272.693 49.0452L272.72 49.0858L283.113 42.2765ZM283.113 61.2687L293.451 68.1609L293.479 68.1196L293.506 68.078L283.113 61.2687ZM275.654 67.3462L280.608 78.7409L280.647 78.7241L280.685 78.7071L275.654 67.3462ZM249.756 69.4181L241.23 60.3792L218.473 81.8432H249.756V69.4181ZM255.833 63.6859H268.258V34.887L247.308 54.647L255.833 63.6859ZM255.833 82.2637V94.6888H268.258V82.2637H255.833ZM272.063 82.2637L261.799 89.267L265.499 94.6888H272.063V82.2637ZM260.046 64.6528V52.2277H236.525L249.782 71.656L260.046 64.6528ZM274.618 64.6528L284.863 57.6222L281.161 52.2277H274.618V64.6528ZM286.704 82.2637V94.6888H310.301L296.949 75.2331L286.704 82.2637ZM255.833 65.1362L246.901 73.7736L268.258 95.8587V65.1362H255.833ZM249.756 58.8515V46.4265H220.456L240.824 67.4889L249.756 58.8515ZM269.784 56.9869L261.623 47.6173L261.547 47.6837L261.472 47.7514L269.784 56.9869ZM269.784 46.5584L261.472 55.7939L261.547 55.8615L261.623 55.928L269.784 46.5584ZM249.756 44.6937L240.824 36.0563L220.456 57.1188H249.756V44.6937ZM255.833 38.409H268.258V7.68663L246.901 29.7716L255.833 38.409ZM242.159 82.2637H254.584V33.92H242.159H229.734V82.2637H242.159ZM242.159 33.92V46.3451H264.259V33.92V21.4949H242.159V33.92ZM264.259 33.92V46.3451C267.379 46.3451 269.356 46.8527 270.562 47.3947L275.654 36.0609L280.746 24.7272C275.598 22.4145 269.978 21.4949 264.259 21.4949V33.92ZM275.654 36.0609L270.623 47.4218C271.837 47.9597 272.35 48.5129 272.667 49.0045L283.113 42.2765L293.559 35.5486C290.376 30.6072 285.916 27.0168 280.685 24.7001L275.654 36.0609ZM283.113 42.2765L272.72 49.0858C272.949 49.4357 273.312 50.1617 273.312 51.8072H285.737H298.162C298.162 46.086 296.776 40.4582 293.506 35.4673L283.113 42.2765ZM285.737 51.8072H273.312C273.312 53.3721 272.965 54.0844 272.72 54.4595L283.113 61.2687L293.506 68.078C296.759 63.1122 298.162 57.5168 298.162 51.8072H285.737ZM283.113 61.2687L272.774 54.3765C272.484 54.8125 271.95 55.3977 270.623 55.9854L275.654 67.3462L280.685 78.7071C285.804 76.4402 290.242 72.9738 293.451 68.1609L283.113 61.2687ZM275.654 67.3462L270.7 55.9516C269.454 56.4934 267.426 56.993 264.259 56.993V69.4181V81.8432C269.931 81.8432 275.501 80.9616 280.608 78.7409L275.654 67.3462ZM264.259 69.4181V56.993H249.756V69.4181V81.8432H264.259V69.4181ZM249.756 69.4181L258.281 78.457L264.358 72.7248L255.833 63.6859L247.308 54.647L241.23 60.3792L249.756 69.4181ZM255.833 63.6859H243.408V82.2637H255.833H268.258V63.6859H255.833ZM255.833 82.2637V69.8386H242.159V82.2637V94.6888H255.833V82.2637ZM272.063 82.2637L282.326 75.2605L270.309 57.6495L260.046 64.6528L249.782 71.656L261.799 89.267L272.063 82.2637ZM260.046 64.6528V77.0779H274.618V64.6528V52.2277H260.046V64.6528ZM274.618 64.6528L264.373 71.6834L276.459 89.2944L286.704 82.2637L296.949 75.2331L284.863 57.6222L274.618 64.6528ZM286.704 82.2637V69.8386H272.063V82.2637V94.6888H286.704V82.2637ZM255.833 65.1362L264.765 56.4988L258.687 50.2141L249.756 58.8515L240.824 67.4889L246.901 73.7736L255.833 65.1362ZM249.756 58.8515V71.2766H263.43V58.8515V46.4265H249.756V58.8515ZM263.43 58.8515V71.2766C267.768 71.2766 273.479 70.3774 278.096 66.2224L269.784 56.9869L261.472 47.7514C262.4 46.9159 263.266 46.5789 263.66 46.4631C264.014 46.3593 264 46.4265 263.43 46.4265V58.8515ZM269.784 56.9869L277.944 66.3564C282.545 62.3493 284.35 56.9451 284.35 51.8072H271.925H259.499C259.499 51.5764 259.538 50.9039 259.906 50.0133C260.294 49.0751 260.906 48.2417 261.623 47.6173L269.784 56.9869ZM271.925 51.8072H284.35C284.35 46.7149 282.603 41.247 277.944 37.1889L269.784 46.5584L261.623 55.928C260.874 55.2758 260.263 54.4231 259.885 53.4957C259.528 52.6216 259.499 51.9826 259.499 51.8072H271.925ZM269.784 46.5584L278.096 37.3229C273.479 33.1679 267.768 32.2687 263.43 32.2687V44.6937V57.1188C264 57.1188 264.014 57.186 263.66 57.0822C263.266 56.9664 262.4 56.6294 261.472 55.7939L269.784 46.5584ZM263.43 44.6937V32.2687H249.756V44.6937V57.1188H263.43V44.6937ZM249.756 44.6937L258.687 53.3311L264.765 47.0464L255.833 38.409L246.901 29.7716L240.824 36.0563L249.756 44.6937ZM255.833 38.409H243.408V65.1362H255.833H268.258V38.409H255.833ZM320.078 81.504L315.338 92.9895L315.417 93.0218L315.495 93.053L320.078 81.504ZM313.172 76.6006L303.47 84.3625L303.522 84.4275L303.575 84.4918L313.172 76.6006ZM312.343 62.8572L301.602 56.6121L301.547 56.7064L301.494 56.8016L312.343 62.8572ZM317.592 57.4012L310.52 47.1854L310.473 47.2177L310.427 47.2503L317.592 57.4012ZM326.708 52.6359L331.446 64.1222L331.551 64.079L331.655 64.034L326.708 52.6359ZM335.341 47.4562L325.471 39.9086L325.436 39.9547L325.401 40.0012L335.341 47.4562ZM329.195 42.8981L320.974 33.5813L320.833 33.7053L320.697 33.8336L329.195 42.8981ZM328.435 47.249L316.838 51.7094L316.984 52.0878L317.153 52.4559L328.435 47.249ZM329.954 49.3209L320.906 57.8366L321.035 57.9737L321.168 58.1068L329.954 49.3209ZM333.2 52.3597L324.888 61.5952L324.917 61.6208L324.945 61.6463L333.2 52.3597ZM358.684 75.0122L368.05 83.1771L376.137 73.9012L366.939 65.7255L358.684 75.0122ZM351.64 83.0925L343.37 92.3656L352.748 100.729L361.006 91.2574L351.64 83.0925ZM322.91 57.4703L331.18 48.1972L331.155 48.1753L331.131 48.1535L322.91 57.4703ZM319.042 53.4647L309.102 60.9197L309.186 61.0314L309.272 61.1412L319.042 53.4647ZM316.832 49.5972L305.131 53.7762L305.197 53.9594L305.268 54.1404L316.832 49.5972ZM318.145 39.1687L328.204 46.4619L328.247 46.4031L328.289 46.3438L318.145 39.1687ZM323.808 34.8178L328.571 46.2935L328.663 46.2554L328.754 46.2159L323.808 34.8178ZM340.176 34.6106L335.397 46.0799L335.438 46.0973L335.48 46.1143L340.176 34.6106ZM345.632 50.6331L335.126 43.9982L335.063 44.0982L335.002 44.1994L345.632 50.6331ZM340.659 55.4675L333.865 45.0643L333.816 45.0965L333.767 45.1292L340.659 55.4675ZM332.164 59.8184L336.908 71.3024L336.911 71.3013L332.164 59.8184ZM327.054 62.4428L320.077 52.1613L319.99 52.2207L319.903 52.2815L327.054 62.4428ZM324.36 65.1362L334.866 71.7711L334.941 71.6509L335.015 71.5289L324.36 65.1362ZM324.429 70.7303L314.559 78.2779V78.2779L324.429 70.7303ZM326.985 72.595L322.206 84.0643L322.412 84.1504L322.622 84.229L326.985 72.595ZM338.311 71.2828L344.475 82.0708L344.558 82.0238L344.639 81.9755L338.311 71.2828ZM344.112 65.4815L333.716 58.6768L333.672 58.7436L333.63 58.8108L344.112 65.4815ZM347.496 56.2962L351.074 44.3973L337.56 40.3344L335.24 54.2536L347.496 56.2962ZM358.063 59.4731L370.214 62.0685L372.605 50.8709L361.64 47.5742L358.063 59.4731ZM352.538 71.9044L342.613 64.4287L342.582 64.4701L342.551 64.5117L352.538 71.9044ZM342.8 80.2609L348.516 91.2934L348.54 91.2805L348.565 91.2674L342.8 80.2609ZM329.954 83.2306V70.8055C327.563 70.8055 325.866 70.433 324.661 69.955L320.078 81.504L315.495 93.053C320.092 94.8772 324.979 95.6557 329.954 95.6557V83.2306ZM320.078 81.504L324.818 70.0186C323.486 69.4688 322.97 68.953 322.77 68.7094L313.172 76.6006L303.575 84.4918C306.781 88.392 310.869 91.1451 315.338 92.9895L320.078 81.504ZM313.172 76.6006L322.875 68.8387C322.843 68.7992 322.929 68.9001 323.011 69.1312C323.095 69.3667 323.111 69.5569 323.111 69.6253H310.686H298.261C298.261 75.1126 300.105 80.1569 303.47 84.3625L313.172 76.6006ZM310.686 69.6253H323.111C323.111 69.2663 323.15 69.0677 323.169 68.9896C323.179 68.9487 323.187 68.9278 323.189 68.9215C323.191 68.9155 323.192 68.9138 323.193 68.9127L312.343 62.8572L301.494 56.8016C299.239 60.8412 298.261 65.2258 298.261 69.6253H310.686ZM312.343 62.8572L323.085 69.1023C323.14 69.0074 323.507 68.4346 324.757 67.5521L317.592 57.4012L310.427 47.2503C306.981 49.6829 303.849 52.7474 301.602 56.6121L312.343 62.8572ZM317.592 57.4012L324.665 67.617C326.117 66.6116 328.307 65.4173 331.446 64.1222L326.708 52.6359L321.97 41.1497C317.743 42.8933 313.856 44.8759 310.52 47.1854L317.592 57.4012ZM326.708 52.6359L331.655 64.034C334.317 62.8786 336.785 61.6875 338.833 60.4588L332.441 49.8044L326.048 39.1499C325.333 39.5788 323.98 40.2754 321.762 41.2378L326.708 52.6359ZM332.441 49.8044L338.833 60.4588C340.716 59.3292 343.298 57.5558 345.281 54.9113L335.341 47.4562L325.401 40.0012C325.668 39.6451 325.904 39.3906 326.063 39.2315C326.224 39.0708 326.339 38.9746 326.384 38.9384C326.46 38.8764 326.377 38.9522 326.048 39.1499L332.441 49.8044ZM335.341 47.4562L345.211 55.0039C347.031 52.6235 348.664 49.2582 348.664 45.1081H336.239H323.814C323.814 42.5234 324.848 40.7236 325.471 39.9086L335.341 47.4562ZM336.239 45.1081H348.664C348.664 41.0673 347.17 36.8518 343.727 33.655L335.272 42.76L326.817 51.865C325.877 50.9917 325.057 49.861 324.508 48.5268C323.97 47.2191 323.814 46.0184 323.814 45.1081H336.239ZM335.272 42.76L343.727 33.655C339.91 30.1112 335.357 29.4371 332.372 29.4371V41.8622V54.2873C331.965 54.2873 329.345 54.2117 326.817 51.865L335.272 42.76ZM332.372 41.8622V29.4371C328.878 29.4371 324.603 30.3788 320.974 33.5813L329.195 42.8981L337.415 52.2149C335.351 54.0362 333.194 54.2873 332.372 54.2873V41.8622ZM329.195 42.8981L320.697 33.8336C317.446 36.8814 315.665 41.0183 315.665 45.4534H328.09H340.515C340.515 46.4868 340.319 47.718 339.77 48.9866C339.221 50.256 338.456 51.2475 337.693 51.9627L329.195 42.8981ZM328.09 45.4534H315.665C315.665 47.683 316.1 49.7899 316.838 51.7094L328.435 47.249L340.032 42.7887C340.31 43.5111 340.515 44.421 340.515 45.4534H328.09ZM328.435 47.249L317.153 52.4559C318.232 54.7935 319.754 56.6121 320.906 57.8366L329.954 49.3209L339.002 40.8052C338.898 40.6945 338.931 40.7172 339.042 40.8682C339.142 41.0056 339.421 41.4027 339.716 42.0422L328.435 47.249ZM329.954 49.3209L321.168 58.1068C322.173 59.1117 323.438 60.2896 324.888 61.5952L333.2 52.3597L341.512 43.1242C340.2 41.9435 339.301 41.0956 338.74 40.5351L329.954 49.3209ZM333.2 52.3597L324.945 61.6463L350.43 84.2988L358.684 75.0122L366.939 65.7255L341.455 43.073L333.2 52.3597ZM358.684 75.0122L349.319 66.8472L342.274 74.9275L351.64 83.0925L361.006 91.2574L368.05 83.1771L358.684 75.0122ZM351.64 83.0925L359.91 73.8194L331.18 48.1972L322.91 57.4703L314.64 66.7434L343.37 92.3656L351.64 83.0925ZM322.91 57.4703L331.131 48.1535C329.985 47.143 329.254 46.3499 328.813 45.7882L319.042 53.4647L309.272 61.1412C310.857 63.1577 312.704 65.0351 314.689 66.7871L322.91 57.4703ZM319.042 53.4647L328.983 46.0096C328.579 45.4717 328.435 45.1507 328.397 45.0539L316.832 49.5972L305.268 54.1404C306.243 56.6219 307.572 58.8793 309.102 60.9197L319.042 53.4647ZM316.832 49.5972L328.534 45.4182C328.533 45.4163 328.543 45.4452 328.553 45.4991C328.562 45.5535 328.567 45.6101 328.567 45.6606H316.142H303.717C303.717 48.4561 304.204 51.1802 305.131 53.7762L316.832 49.5972ZM316.142 45.6606H328.567C328.567 45.5386 328.582 45.6214 328.515 45.8359C328.446 46.0611 328.332 46.2852 328.204 46.4619L318.145 39.1687L308.085 31.8756C305.068 36.0368 303.717 40.8112 303.717 45.6606H316.142ZM318.145 39.1687L328.289 46.3438C328.257 46.3886 328.222 46.4303 328.188 46.4654C328.172 46.4821 328.158 46.4951 328.148 46.5044C328.137 46.5137 328.132 46.5181 328.132 46.5181C328.132 46.518 328.139 46.5127 328.154 46.5027C328.169 46.4927 328.193 46.4776 328.227 46.4581C328.296 46.4191 328.407 46.3617 328.571 46.2935L323.808 34.8178L319.044 23.3421C314.757 25.1217 310.873 27.9326 308.001 31.9937L318.145 39.1687ZM323.808 34.8178L328.754 46.2159C329.319 45.9706 330.425 45.6544 332.372 45.6544V33.2294V20.8043C327.78 20.8043 323.177 21.5471 318.861 23.4197L323.808 34.8178ZM332.372 33.2294V45.6544C334.12 45.6544 335.028 45.9264 335.397 46.0799L340.176 34.6106L344.954 23.1413C340.903 21.4532 336.608 20.8043 332.372 20.8043V33.2294ZM340.176 34.6106L335.48 46.1143C335.7 46.2042 335.726 46.2444 335.642 46.18C335.601 46.149 335.544 46.1006 335.479 46.0335C335.414 45.9661 335.351 45.8913 335.296 45.8129L345.424 38.6162L355.553 31.4195C352.766 27.4971 349.007 24.7949 344.871 23.1069L340.176 34.6106ZM345.424 38.6162L335.296 45.8129C335.126 45.5748 334.997 45.3037 334.922 45.0527C334.85 44.814 334.864 44.7163 334.864 44.8319H347.289H359.714C359.714 40.1698 358.461 35.5117 355.553 31.4195L345.424 38.6162ZM347.289 44.8319H334.864C334.864 44.7977 334.87 44.6579 334.928 44.4572C334.986 44.2544 335.066 44.094 335.126 43.9982L345.632 50.6331L356.137 57.268C358.527 53.484 359.714 49.2402 359.714 44.8319H347.289ZM345.632 50.6331L335.002 44.1994C335.163 43.9325 335.035 44.3001 333.865 45.0643L340.659 55.4675L347.453 65.8706C350.795 63.6882 353.982 60.8329 356.261 57.0668L345.632 50.6331ZM340.659 55.4675L333.767 45.1292C332.444 46.0113 330.397 47.1041 327.418 48.3356L332.164 59.8184L336.911 71.3013C340.837 69.6782 344.454 67.8704 347.551 65.8058L340.659 55.4675ZM332.164 59.8184L327.421 48.3344C324.849 49.3967 322.311 50.6452 320.077 52.1613L327.054 62.4428L334.03 72.7243C334.374 72.4908 335.244 71.9897 336.908 71.3024L332.164 59.8184ZM327.054 62.4428L319.903 52.2815C317.789 53.7691 315.44 55.8529 313.706 58.7436L324.36 65.1362L335.015 71.5289C334.684 72.0807 334.377 72.4151 334.234 72.5581C334.091 72.7008 334.056 72.7083 334.204 72.6041L327.054 62.4428ZM324.36 65.1362L313.855 58.5013C311.91 61.5805 311.106 64.9481 311.106 68.175H323.532H335.957C335.957 69.0998 335.705 70.4415 334.866 71.7711L324.36 65.1362ZM323.532 68.175H311.106C311.106 72.0209 312.427 75.4899 314.559 78.2779L324.429 70.7303L334.299 63.1827C334.722 63.7352 335.157 64.4709 335.479 65.3857C335.803 66.3098 335.957 67.2611 335.957 68.175H323.532ZM324.429 70.7303L314.559 78.2779C316.739 81.1283 319.52 82.9453 322.206 84.0643L326.985 72.595L331.764 61.1257C332.239 61.3238 333.317 61.8977 334.299 63.1827L324.429 70.7303ZM326.985 72.595L322.622 84.229C325.459 85.2927 328.32 85.6416 330.921 85.6416V73.2165V60.7915C330.72 60.7915 330.667 60.7773 330.735 60.7881C330.806 60.7992 331.024 60.8399 331.347 60.961L326.985 72.595ZM330.921 73.2165V85.6416C335.691 85.6416 340.288 84.4634 344.475 82.0708L338.311 71.2828L332.146 60.4948C331.821 60.6805 331.492 60.7915 330.921 60.7915V73.2165ZM338.311 71.2828L344.639 81.9755C348.806 79.5095 352.087 76.0931 354.595 72.1523L344.112 65.4815L333.63 58.8108C332.914 59.9346 332.328 60.3857 331.983 60.5901L338.311 71.2828ZM344.112 65.4815L354.508 72.2863C357.28 68.051 358.927 63.291 359.752 58.3389L347.496 56.2962L335.24 54.2536C334.868 56.484 334.259 57.8475 333.716 58.6768L344.112 65.4815ZM347.496 56.2962L343.919 68.1952L354.485 71.372L358.063 59.4731L361.64 47.5742L351.074 44.3973L347.496 56.2962ZM358.063 59.4731L345.912 56.8778C345.241 60.0164 344.097 62.4583 342.613 64.4287L352.538 71.9044L362.462 79.38C366.319 74.26 368.858 68.4144 370.214 62.0685L358.063 59.4731ZM352.538 71.9044L342.551 64.5117C341.031 66.5651 339.223 68.1083 337.035 69.2544L342.8 80.2609L348.565 91.2674C354.112 88.3619 358.796 84.334 362.524 79.297L352.538 71.9044ZM342.8 80.2609L337.084 69.2285C335.204 70.2029 332.914 70.8055 329.954 70.8055V83.2306V95.6557C336.48 95.6557 342.753 94.2786 348.516 91.2934L342.8 80.2609ZM397.979 52.6359V40.2108H385.554V52.6359H397.979ZM420.424 52.6359H432.849V40.2108H420.424V52.6359ZM420.424 62.8572V75.2823H432.849V62.8572H420.424ZM397.979 62.8572H385.554V75.2823H397.979V62.8572ZM398.946 71.6972H386.521V84.1223H398.946V71.6972ZM424.222 71.6972H436.648V59.2721H424.222V71.6972ZM424.222 82.2637V94.6888H436.648V82.2637H424.222ZM385.409 82.2637H372.984V94.6888H385.409V82.2637ZM385.409 33.92V21.4949H372.984V33.92H385.409ZM423.325 33.92H435.75V21.4949H423.325V33.92ZM423.325 44.4865V56.9116H435.75V44.4865H423.325ZM398.946 44.4865V32.0615H386.521V44.4865H398.946ZM397.979 52.6359V65.061H420.424V52.6359V40.2108H397.979V52.6359ZM420.424 52.6359H407.999V62.8572H420.424H432.849V52.6359H420.424ZM420.424 62.8572V50.4321H397.979V62.8572V75.2823H420.424V62.8572ZM397.979 62.8572H410.404V52.6359H397.979H385.554V62.8572H397.979ZM398.946 71.6972V84.1223H424.222V71.6972V59.2721H398.946V71.6972ZM424.222 71.6972H411.797V82.2637H424.222H436.648V71.6972H424.222ZM424.222 82.2637V69.8386H385.409V82.2637V94.6888H424.222V82.2637ZM385.409 82.2637H397.834V33.92H385.409H372.984V82.2637H385.409ZM385.409 33.92V46.3451H423.325V33.92V21.4949H385.409V33.92ZM423.325 33.92H410.9V44.4865H423.325H435.75V33.92H423.325ZM423.325 44.4865V32.0615H398.946V44.4865V56.9116H423.325V44.4865ZM398.946 44.4865H386.521V71.6972H398.946H411.371V44.4865H398.946ZM426.009 82.2637L414.643 77.2461L406.943 94.6888H426.009V82.2637ZM447.35 33.92V21.4949H439.253L435.983 28.9023L447.35 33.92ZM460.817 33.92L472.178 28.8887L468.903 21.4949H460.817V33.92ZM482.226 82.2637V94.6888H501.318L493.587 77.2325L482.226 82.2637ZM467.999 82.2637L456.468 86.8915L459.598 94.6888H467.999V82.2637ZM451.286 40.619V28.194H432.911L439.755 45.2468L451.286 40.619ZM456.673 40.619L468.204 45.2468L475.048 28.194H456.673V40.619ZM439.96 82.2637V94.6888H448.362L451.491 86.8915L439.96 82.2637ZM437.681 72.8712L425.951 68.7738L420.179 85.2963H437.681V72.8712ZM441.203 62.7881V50.363H432.382L429.473 58.6906L441.203 62.7881ZM464.823 62.7881L476.553 58.6906L473.644 50.363H464.823V62.7881ZM468.345 72.8712V85.2963H485.846L480.075 68.7738L468.345 72.8712ZM426.009 82.2637L437.376 87.2814L458.717 38.9376L447.35 33.92L435.983 28.9023L414.643 77.2461L426.009 82.2637ZM447.35 33.92V46.3451H460.817V33.92V21.4949H447.35V33.92ZM460.817 33.92L449.456 38.9512L470.865 87.295L482.226 82.2637L493.587 77.2325L472.178 28.8887L460.817 33.92ZM482.226 82.2637V69.8386H467.999V82.2637V94.6888H482.226V82.2637ZM467.999 82.2637L479.531 77.636L462.817 35.9913L451.286 40.619L439.755 45.2468L456.468 86.8915L467.999 82.2637ZM451.286 40.619V53.0441H456.673V40.619V28.194H451.286V40.619ZM456.673 40.619L445.142 35.9913L428.429 77.636L439.96 82.2637L451.491 86.8915L468.204 45.2468L456.673 40.619ZM439.96 82.2637V69.8386H426.009V82.2637V94.6888H439.96V82.2637ZM437.681 72.8712L449.411 76.9687L452.933 66.8856L441.203 62.7881L429.473 58.6906L425.951 68.7738L437.681 72.8712ZM441.203 62.7881V75.2132H464.823V62.7881V50.363H441.203V62.7881ZM464.823 62.7881L453.093 66.8856L456.615 76.9687L468.345 72.8712L480.075 68.7738L476.553 58.6906L464.823 62.7881ZM468.345 72.8712V60.4461H437.681V72.8712V85.2963H468.345V72.8712ZM486.103 82.2637H473.678V94.6888H486.103V82.2637ZM486.103 33.92V21.4949H473.678V33.92H486.103ZM519.598 36.0609L514.506 47.3947L514.537 47.4083L514.567 47.4218L519.598 36.0609ZM527.057 42.2765L516.611 49.0045L516.637 49.0452L516.664 49.0858L527.057 42.2765ZM527.057 61.2687L537.395 68.1609L537.423 68.1196L537.45 68.078L527.057 61.2687ZM519.598 67.3462L524.553 78.7409L524.591 78.7241L524.63 78.7071L519.598 67.3462ZM493.7 69.4181L485.175 60.3792L462.418 81.8432H493.7V69.4181ZM499.777 63.6859H512.202V34.887L491.252 54.647L499.777 63.6859ZM499.777 82.2637V94.6888H512.202V82.2637H499.777ZM516.007 82.2637L505.744 89.267L509.443 94.6888H516.007V82.2637ZM503.99 64.6528V52.2277H480.47L493.727 71.656L503.99 64.6528ZM518.562 64.6528L528.807 57.6222L525.105 52.2277H518.562V64.6528ZM530.648 82.2637V94.6888H554.245L540.893 75.2331L530.648 82.2637ZM499.777 65.1362L490.846 73.7736L512.202 95.8587V65.1362H499.777ZM493.7 58.8515V46.4265H464.4L484.768 67.4889L493.7 58.8515ZM513.728 56.9869L505.567 47.6173L505.491 47.6837L505.416 47.7514L513.728 56.9869ZM513.728 46.5584L505.416 55.7939L505.491 55.8615L505.567 55.928L513.728 46.5584ZM493.7 44.6937L484.768 36.0563L464.4 57.1188H493.7V44.6937ZM499.777 38.409H512.202V7.68663L490.846 29.7716L499.777 38.409ZM486.103 82.2637H498.528V33.92H486.103H473.678V82.2637H486.103ZM486.103 33.92V46.3451H508.203V33.92V21.4949H486.103V33.92ZM508.203 33.92V46.3451C511.324 46.3451 513.3 46.8527 514.506 47.3947L519.598 36.0609L524.69 24.7272C519.543 22.4145 513.922 21.4949 508.203 21.4949V33.92ZM519.598 36.0609L514.567 47.4218C515.782 47.9597 516.295 48.5129 516.611 49.0045L527.057 42.2765L537.503 35.5486C534.32 30.6072 529.861 27.0168 524.63 24.7001L519.598 36.0609ZM527.057 42.2765L516.664 49.0858C516.893 49.4357 517.256 50.1617 517.256 51.8072H529.681H542.107C542.107 46.086 540.72 40.4582 537.45 35.4673L527.057 42.2765ZM529.681 51.8072H517.256C517.256 53.3721 516.91 54.0844 516.664 54.4595L527.057 61.2687L537.45 68.078C540.704 63.1122 542.107 57.5168 542.107 51.8072H529.681ZM527.057 61.2687L516.719 54.3765C516.428 54.8125 515.894 55.3977 514.567 55.9854L519.598 67.3462L524.63 78.7071C529.748 76.4402 534.187 72.9738 537.395 68.1609L527.057 61.2687ZM519.598 67.3462L514.644 55.9516C513.398 56.4934 511.371 56.993 508.203 56.993V69.4181V81.8432C513.875 81.8432 519.445 80.9616 524.553 78.7409L519.598 67.3462ZM508.203 69.4181V56.993H493.7V69.4181V81.8432H508.203V69.4181ZM493.7 69.4181L502.225 78.457L508.303 72.7248L499.777 63.6859L491.252 54.647L485.175 60.3792L493.7 69.4181ZM499.777 63.6859H487.352V82.2637H499.777H512.202V63.6859H499.777ZM499.777 82.2637V69.8386H486.103V82.2637V94.6888H499.777V82.2637ZM516.007 82.2637L526.27 75.2605L514.254 57.6495L503.99 64.6528L493.727 71.656L505.744 89.267L516.007 82.2637ZM503.99 64.6528V77.0779H518.562V64.6528V52.2277H503.99V64.6528ZM518.562 64.6528L508.318 71.6834L520.404 89.2944L530.648 82.2637L540.893 75.2331L528.807 57.6222L518.562 64.6528ZM530.648 82.2637V69.8386H516.007V82.2637V94.6888H530.648V82.2637ZM499.777 65.1362L508.709 56.4988L502.632 50.2141L493.7 58.8515L484.768 67.4889L490.846 73.7736L499.777 65.1362ZM493.7 58.8515V71.2766H507.374V58.8515V46.4265H493.7V58.8515ZM507.374 58.8515V71.2766C511.712 71.2766 517.423 70.3774 522.04 66.2224L513.728 56.9869L505.416 47.7514C506.344 46.9159 507.21 46.5789 507.605 46.4631C507.958 46.3593 507.944 46.4265 507.374 46.4265V58.8515ZM513.728 56.9869L521.889 66.3564C526.489 62.3493 528.294 56.9451 528.294 51.8072H515.869H503.444C503.444 51.5764 503.483 50.9039 503.851 50.0133C504.239 49.0751 504.851 48.2417 505.567 47.6173L513.728 56.9869ZM515.869 51.8072H528.294C528.294 46.7149 526.548 41.247 521.889 37.1889L513.728 46.5584L505.567 55.928C504.819 55.2758 504.207 54.4231 503.829 53.4957C503.472 52.6216 503.444 51.9826 503.444 51.8072H515.869ZM513.728 46.5584L522.04 37.3229C517.423 33.1679 511.712 32.2687 507.374 32.2687V44.6937V57.1188C507.944 57.1188 507.958 57.186 507.605 57.0822C507.21 56.9664 506.344 56.6294 505.416 55.7939L513.728 46.5584ZM507.374 44.6937V32.2687H493.7V44.6937V57.1188H507.374V44.6937ZM493.7 44.6937L502.632 53.3311L508.709 47.0464L499.777 38.409L490.846 29.7716L484.768 36.0563L493.7 44.6937ZM499.777 38.409H487.352V65.1362H499.777H512.202V38.409H499.777ZM537.225 82.2637H524.8V94.6888H537.225V82.2637ZM537.225 33.92V21.4949H524.8V33.92H537.225ZM548.483 33.92L558.051 25.994L554.325 21.4949H548.483V33.92ZM575.141 66.1031V78.5282H601.567L584.709 58.1771L575.141 66.1031ZM569.823 66.1031H557.398V78.5282H569.823V66.1031ZM569.823 33.92V21.4949H557.398V33.92H569.823ZM583.221 33.92H595.646V21.4949H583.221V33.92ZM583.221 82.2637V94.6888H595.646V82.2637H583.221ZM571.964 82.2637L562.395 90.1898L566.122 94.6888H571.964V82.2637ZM545.306 50.0806V37.6555H518.88L535.737 58.0066L545.306 50.0806ZM550.624 50.0806H563.049V37.6555H550.624V50.0806ZM550.624 82.2637V94.6888H563.049V82.2637H550.624ZM537.225 82.2637H549.651V33.92H537.225H524.8V82.2637H537.225ZM537.225 33.92V46.3451H548.483V33.92V21.4949H537.225V33.92ZM548.483 33.92L538.914 41.846L565.572 74.0291L575.141 66.1031L584.709 58.1771L558.051 25.994L548.483 33.92ZM575.141 66.1031V53.678H569.823V66.1031V78.5282H575.141V66.1031ZM569.823 66.1031H582.248V33.92H569.823H557.398V66.1031H569.823ZM569.823 33.92V46.3451H583.221V33.92V21.4949H569.823V33.92ZM583.221 33.92H570.796V82.2637H583.221H595.646V33.92H583.221ZM583.221 82.2637V69.8386H571.964V82.2637V94.6888H583.221V82.2637ZM571.964 82.2637L581.533 74.3377L554.874 42.1546L545.306 50.0806L535.737 58.0066L562.395 90.1898L571.964 82.2637ZM545.306 50.0806V62.5057H550.624V50.0806V37.6555H545.306V50.0806ZM550.624 50.0806H538.198V82.2637H550.624H563.049V50.0806H550.624ZM550.624 82.2637V69.8386H537.225V82.2637V94.6888H550.624V82.2637Z" fill="#FFC940" fill-opacity="0.2" mask="url(#path-1-outside-1_41_9)"/>
</g>
<mask id="path-3-outside-2_41_9" maskUnits="userSpaceOnUse" x="44.2592" y="19.2637" width="550" height="75" fill="black">
<rect fill="white" x="44.2592" y="19.2637" width="550" height="75"/>
<path d="M56.0936 82.2637V33.92H78.1936C82.6136 33.92 86.412 34.6336 89.5889 36.0609C92.8118 37.4882 95.2981 39.5601 97.0477 42.2765C98.7972 44.947 99.672 48.1238 99.672 51.8072C99.672 55.4445 98.7972 58.5983 97.0477 61.2687C95.2981 63.8931 92.8118 65.9189 89.5889 67.3462C86.412 68.7275 82.6136 69.4181 78.1936 69.4181H63.6905L69.768 63.6859V82.2637H56.0936ZM85.9977 82.2637L73.9808 64.6528H88.553L100.639 82.2637H85.9977ZM69.768 65.1362L63.6905 58.8515H77.3648C80.2194 58.8515 82.3373 58.23 83.7186 56.9869C85.1459 55.7437 85.8595 54.0172 85.8595 51.8072C85.8595 49.5511 85.1459 47.8015 83.7186 46.5584C82.3373 45.3153 80.2194 44.6937 77.3648 44.6937H63.6905L69.768 38.409V65.1362ZM119.785 52.6359H142.231V62.8572H119.785V52.6359ZM120.752 71.6972H146.029V82.2637H107.216V33.92H145.131V44.4865H120.752V71.6972ZM166.325 55.1222H188.632V65.6887H166.325V55.1222ZM167.292 82.2637H153.617V33.92H191.533V44.4865H167.292V82.2637ZM210.497 52.6359H232.943V62.8572H210.497V52.6359ZM211.464 71.6972H236.741V82.2637H197.928V33.92H235.843V44.4865H211.464V71.6972ZM244.329 82.2637V33.92H266.429C270.849 33.92 274.648 34.6336 277.825 36.0609C281.048 37.4882 283.534 39.5601 285.283 42.2765C287.033 44.947 287.908 48.1238 287.908 51.8072C287.908 55.4445 287.033 58.5983 285.283 61.2687C283.534 63.8931 281.048 65.9189 277.825 67.3462C274.648 68.7275 270.849 69.4181 266.429 69.4181H251.926L258.004 63.6859V82.2637H244.329ZM274.233 82.2637L262.217 64.6528H276.789L288.875 82.2637H274.233ZM258.004 65.1362L251.926 58.8515H265.601C268.455 58.8515 270.573 58.23 271.954 56.9869C273.382 55.7437 274.095 54.0172 274.095 51.8072C274.095 49.5511 273.382 47.8015 271.954 46.5584C270.573 45.3153 268.455 44.6937 265.601 44.6937H251.926L258.004 38.409V65.1362ZM332.125 83.2306C328.442 83.2306 325.15 82.6551 322.249 81.504C319.348 80.307 317.046 78.6725 315.343 76.6006C313.685 74.5287 312.857 72.2036 312.857 69.6253C312.857 67.093 313.409 64.837 314.514 62.8572C315.665 60.8774 317.415 59.0587 319.763 57.4012C322.157 55.7437 325.196 54.1553 328.879 52.6359C331.319 51.577 333.23 50.6331 334.611 49.8044C335.993 48.9756 336.959 48.1929 337.512 47.4562C338.11 46.6735 338.41 45.8908 338.41 45.1081C338.41 44.1412 338.087 43.3585 337.443 42.76C336.798 42.1614 335.831 41.8622 334.542 41.8622C333.207 41.8622 332.148 42.2075 331.365 42.8981C330.629 43.5887 330.26 44.4405 330.26 45.4534C330.26 46.052 330.375 46.6505 330.606 47.249C330.882 47.8476 331.388 48.5382 332.125 49.3209C332.908 50.1036 333.99 51.1165 335.371 52.3597L360.855 75.0122L353.811 83.0925L325.081 57.4703C323.515 56.089 322.226 54.7538 321.213 53.4647C320.246 52.1755 319.51 50.8863 319.003 49.5972C318.543 48.308 318.313 46.9958 318.313 45.6606C318.313 43.1744 318.98 41.0104 320.315 39.1687C321.651 37.281 323.538 35.8307 325.978 34.8178C328.419 33.7588 331.273 33.2294 334.542 33.2294C337.535 33.2294 340.136 33.6898 342.346 34.6106C344.602 35.5314 346.352 36.8667 347.595 38.6162C348.838 40.3658 349.46 42.4377 349.46 44.8319C349.46 46.9498 348.907 48.8835 347.802 50.6331C346.743 52.3827 345.086 53.9942 342.83 55.4675C340.62 56.9408 337.788 58.3911 334.335 59.8184C332.217 60.6932 330.514 61.568 329.224 62.4428C327.981 63.3176 327.083 64.2154 326.531 65.1362C325.978 66.011 325.702 67.0239 325.702 68.175C325.702 69.0958 326.001 69.9476 326.6 70.7303C327.199 71.513 328.05 72.1346 329.155 72.595C330.26 73.0094 331.573 73.2165 333.092 73.2165C335.762 73.2165 338.226 72.572 340.482 71.2828C342.738 69.9476 344.671 68.0138 346.283 65.4815C347.94 62.9493 349.068 59.8875 349.667 56.2962L360.233 59.4731C359.221 64.2154 357.379 68.3592 354.708 71.9044C352.084 75.4496 348.838 78.2351 344.971 80.2609C341.149 82.2407 336.867 83.2306 332.125 83.2306ZM400.149 52.6359H422.595V62.8572H400.149V52.6359ZM401.116 71.6972H426.393V82.2637H387.58V33.92H425.495V44.4865H401.116V71.6972ZM428.18 82.2637L449.521 33.92H462.988L484.397 82.2637H470.17L453.457 40.619H458.844L442.131 82.2637H428.18ZM439.852 72.8712L443.374 62.7881H466.993L470.515 72.8712H439.852ZM488.274 82.2637V33.92H510.374C514.794 33.92 518.592 34.6336 521.769 36.0609C524.992 37.4882 527.478 39.5601 529.228 42.2765C530.977 44.947 531.852 48.1238 531.852 51.8072C531.852 55.4445 530.977 58.5983 529.228 61.2687C527.478 63.8931 524.992 65.9189 521.769 67.3462C518.592 68.7275 514.794 69.4181 510.374 69.4181H495.871L501.948 63.6859V82.2637H488.274ZM518.178 82.2637L506.161 64.6528H520.733L532.819 82.2637H518.178ZM501.948 65.1362L495.871 58.8515H509.545C512.4 58.8515 514.517 58.23 515.899 56.9869C517.326 55.7437 518.04 54.0172 518.04 51.8072C518.04 49.5511 517.326 47.8015 515.899 46.5584C514.517 45.3153 512.4 44.6937 509.545 44.6937H495.871L501.948 38.409V65.1362ZM539.396 82.2637V33.92H550.653L577.311 66.1031H571.994V33.92H585.392V82.2637H574.135L547.476 50.0806H552.794V82.2637H539.396Z"/>
</mask>
<path d="M56.0936 82.2637V33.92H78.1936C82.6136 33.92 86.412 34.6336 89.5889 36.0609C92.8118 37.4882 95.2981 39.5601 97.0477 42.2765C98.7972 44.947 99.672 48.1238 99.672 51.8072C99.672 55.4445 98.7972 58.5983 97.0477 61.2687C95.2981 63.8931 92.8118 65.9189 89.5889 67.3462C86.412 68.7275 82.6136 69.4181 78.1936 69.4181H63.6905L69.768 63.6859V82.2637H56.0936ZM85.9977 82.2637L73.9808 64.6528H88.553L100.639 82.2637H85.9977ZM69.768 65.1362L63.6905 58.8515H77.3648C80.2194 58.8515 82.3373 58.23 83.7186 56.9869C85.1459 55.7437 85.8595 54.0172 85.8595 51.8072C85.8595 49.5511 85.1459 47.8015 83.7186 46.5584C82.3373 45.3153 80.2194 44.6937 77.3648 44.6937H63.6905L69.768 38.409V65.1362ZM119.785 52.6359H142.231V62.8572H119.785V52.6359ZM120.752 71.6972H146.029V82.2637H107.216V33.92H145.131V44.4865H120.752V71.6972ZM166.325 55.1222H188.632V65.6887H166.325V55.1222ZM167.292 82.2637H153.617V33.92H191.533V44.4865H167.292V82.2637ZM210.497 52.6359H232.943V62.8572H210.497V52.6359ZM211.464 71.6972H236.741V82.2637H197.928V33.92H235.843V44.4865H211.464V71.6972ZM244.329 82.2637V33.92H266.429C270.849 33.92 274.648 34.6336 277.825 36.0609C281.048 37.4882 283.534 39.5601 285.283 42.2765C287.033 44.947 287.908 48.1238 287.908 51.8072C287.908 55.4445 287.033 58.5983 285.283 61.2687C283.534 63.8931 281.048 65.9189 277.825 67.3462C274.648 68.7275 270.849 69.4181 266.429 69.4181H251.926L258.004 63.6859V82.2637H244.329ZM274.233 82.2637L262.217 64.6528H276.789L288.875 82.2637H274.233ZM258.004 65.1362L251.926 58.8515H265.601C268.455 58.8515 270.573 58.23 271.954 56.9869C273.382 55.7437 274.095 54.0172 274.095 51.8072C274.095 49.5511 273.382 47.8015 271.954 46.5584C270.573 45.3153 268.455 44.6937 265.601 44.6937H251.926L258.004 38.409V65.1362ZM332.125 83.2306C328.442 83.2306 325.15 82.6551 322.249 81.504C319.348 80.307 317.046 78.6725 315.343 76.6006C313.685 74.5287 312.857 72.2036 312.857 69.6253C312.857 67.093 313.409 64.837 314.514 62.8572C315.665 60.8774 317.415 59.0587 319.763 57.4012C322.157 55.7437 325.196 54.1553 328.879 52.6359C331.319 51.577 333.23 50.6331 334.611 49.8044C335.993 48.9756 336.959 48.1929 337.512 47.4562C338.11 46.6735 338.41 45.8908 338.41 45.1081C338.41 44.1412 338.087 43.3585 337.443 42.76C336.798 42.1614 335.831 41.8622 334.542 41.8622C333.207 41.8622 332.148 42.2075 331.365 42.8981C330.629 43.5887 330.26 44.4405 330.26 45.4534C330.26 46.052 330.375 46.6505 330.606 47.249C330.882 47.8476 331.388 48.5382 332.125 49.3209C332.908 50.1036 333.99 51.1165 335.371 52.3597L360.855 75.0122L353.811 83.0925L325.081 57.4703C323.515 56.089 322.226 54.7538 321.213 53.4647C320.246 52.1755 319.51 50.8863 319.003 49.5972C318.543 48.308 318.313 46.9958 318.313 45.6606C318.313 43.1744 318.98 41.0104 320.315 39.1687C321.651 37.281 323.538 35.8307 325.978 34.8178C328.419 33.7588 331.273 33.2294 334.542 33.2294C337.535 33.2294 340.136 33.6898 342.346 34.6106C344.602 35.5314 346.352 36.8667 347.595 38.6162C348.838 40.3658 349.46 42.4377 349.46 44.8319C349.46 46.9498 348.907 48.8835 347.802 50.6331C346.743 52.3827 345.086 53.9942 342.83 55.4675C340.62 56.9408 337.788 58.3911 334.335 59.8184C332.217 60.6932 330.514 61.568 329.224 62.4428C327.981 63.3176 327.083 64.2154 326.531 65.1362C325.978 66.011 325.702 67.0239 325.702 68.175C325.702 69.0958 326.001 69.9476 326.6 70.7303C327.199 71.513 328.05 72.1346 329.155 72.595C330.26 73.0094 331.573 73.2165 333.092 73.2165C335.762 73.2165 338.226 72.572 340.482 71.2828C342.738 69.9476 344.671 68.0138 346.283 65.4815C347.94 62.9493 349.068 59.8875 349.667 56.2962L360.233 59.4731C359.221 64.2154 357.379 68.3592 354.708 71.9044C352.084 75.4496 348.838 78.2351 344.971 80.2609C341.149 82.2407 336.867 83.2306 332.125 83.2306ZM400.149 52.6359H422.595V62.8572H400.149V52.6359ZM401.116 71.6972H426.393V82.2637H387.58V33.92H425.495V44.4865H401.116V71.6972ZM428.18 82.2637L449.521 33.92H462.988L484.397 82.2637H470.17L453.457 40.619H458.844L442.131 82.2637H428.18ZM439.852 72.8712L443.374 62.7881H466.993L470.515 72.8712H439.852ZM488.274 82.2637V33.92H510.374C514.794 33.92 518.592 34.6336 521.769 36.0609C524.992 37.4882 527.478 39.5601 529.228 42.2765C530.977 44.947 531.852 48.1238 531.852 51.8072C531.852 55.4445 530.977 58.5983 529.228 61.2687C527.478 63.8931 524.992 65.9189 521.769 67.3462C518.592 68.7275 514.794 69.4181 510.374 69.4181H495.871L501.948 63.6859V82.2637H488.274ZM518.178 82.2637L506.161 64.6528H520.733L532.819 82.2637H518.178ZM501.948 65.1362L495.871 58.8515H509.545C512.4 58.8515 514.517 58.23 515.899 56.9869C517.326 55.7437 518.04 54.0172 518.04 51.8072C518.04 49.5511 517.326 47.8015 515.899 46.5584C514.517 45.3153 512.4 44.6937 509.545 44.6937H495.871L501.948 38.409V65.1362ZM539.396 82.2637V33.92H550.653L577.311 66.1031H571.994V33.92H585.392V82.2637H574.135L547.476 50.0806H552.794V82.2637H539.396Z" fill="black"/>
<path d="M56.0936 82.2637H48.4436V89.9137H56.0936V82.2637ZM56.0936 33.92V26.27H48.4436V33.92H56.0936ZM89.5889 36.0609L86.4538 43.039L86.4725 43.0474L86.4912 43.0557L89.5889 36.0609ZM97.0477 42.2765L90.6162 46.4189L90.6324 46.444L90.6487 46.4689L97.0477 42.2765ZM97.0477 61.2687L103.413 65.5122L103.43 65.4867L103.447 65.4611L97.0477 61.2687ZM89.5889 67.3462L92.6392 74.3618L92.6629 74.3515L92.6866 74.341L89.5889 67.3462ZM63.6905 69.4181L58.4415 63.853L44.4303 77.0681H63.6905V69.4181ZM69.768 63.6859H77.418V45.9547L64.519 58.1208L69.768 63.6859ZM69.768 82.2637V89.9137H77.418V82.2637H69.768ZM85.9977 82.2637L79.6786 86.5756L81.9564 89.9137H85.9977V82.2637ZM73.9808 64.6528V57.0028H59.4995L67.6617 68.9646L73.9808 64.6528ZM88.553 64.6528L94.8605 60.3241L92.5812 57.0028H88.553V64.6528ZM100.639 82.2637V89.9137H115.167L106.946 77.935L100.639 82.2637ZM69.768 65.1362L64.2687 70.4542L77.418 84.0517V65.1362H69.768ZM63.6905 58.8515V51.2015H45.6508L58.1912 64.1695L63.6905 58.8515ZM83.7186 56.9869L78.6942 51.2181L78.6473 51.259L78.601 51.3007L83.7186 56.9869ZM83.7186 46.5584L78.601 52.2446L78.6473 52.2863L78.6942 52.3271L83.7186 46.5584ZM63.6905 44.6937L58.1912 39.3758L45.6508 52.3437H63.6905V44.6937ZM69.768 38.409H77.418V19.4936L64.2687 33.0911L69.768 38.409ZM56.0936 82.2637H63.7436V33.92H56.0936H48.4436V82.2637H56.0936ZM56.0936 33.92V41.57H78.1936V33.92V26.27H56.0936V33.92ZM78.1936 33.92V41.57C81.8136 41.57 84.4902 42.1568 86.4538 43.039L89.5889 36.0609L92.724 29.0828C88.3338 27.1104 83.4136 26.27 78.1936 26.27V33.92ZM89.5889 36.0609L86.4912 43.0557C88.4776 43.9354 89.7489 45.0723 90.6162 46.4189L97.0477 42.2765L103.479 38.1342C100.847 34.0479 97.146 31.041 92.6866 29.0662L89.5889 36.0609ZM97.0477 42.2765L90.6487 46.4689C91.4622 47.7106 92.022 49.3785 92.022 51.8072H99.672H107.322C107.322 46.8692 106.132 42.1833 103.447 38.0841L97.0477 42.2765ZM99.672 51.8072H92.022C92.022 54.1686 91.4724 55.8192 90.6487 57.0763L97.0477 61.2687L103.447 65.4611C106.122 61.3775 107.322 56.7204 107.322 51.8072H99.672ZM97.0477 61.2687L90.6825 57.0253C89.8312 58.3022 88.5469 59.4411 86.4912 60.3515L89.5889 67.3462L92.6866 74.341C97.0767 72.3968 100.765 69.484 103.413 65.5122L97.0477 61.2687ZM89.5889 67.3462L86.5386 60.3307C84.5505 61.1951 81.8426 61.7681 78.1936 61.7681V69.4181V77.0681C83.3846 77.0681 88.2736 76.2599 92.6392 74.3618L89.5889 67.3462ZM78.1936 69.4181V61.7681H63.6905V69.4181V77.0681H78.1936V69.4181ZM63.6905 69.4181L68.9394 74.9833L75.0169 69.2511L69.768 63.6859L64.519 58.1208L58.4415 63.853L63.6905 69.4181ZM69.768 63.6859H62.118V82.2637H69.768H77.418V63.6859H69.768ZM69.768 82.2637V74.6137H56.0936V82.2637V89.9137H69.768V82.2637ZM85.9977 82.2637L92.3167 77.9519L80.2998 60.341L73.9808 64.6528L67.6617 68.9646L79.6786 86.5756L85.9977 82.2637ZM73.9808 64.6528V72.3028H88.553V64.6528V57.0028H73.9808V64.6528ZM88.553 64.6528L82.2454 68.9815L94.3314 86.5924L100.639 82.2637L106.946 77.935L94.8605 60.3241L88.553 64.6528ZM100.639 82.2637V74.6137H85.9977V82.2637V89.9137H100.639V82.2637ZM69.768 65.1362L75.2672 59.8183L69.1897 53.5336L63.6905 58.8515L58.1912 64.1695L64.2687 70.4542L69.768 65.1362ZM63.6905 58.8515V66.5015H77.3648V58.8515V51.2015H63.6905V58.8515ZM77.3648 58.8515V66.5015C81.1327 66.5015 85.4629 65.709 88.8362 62.6731L83.7186 56.9869L78.601 51.3007C78.9071 51.0252 79.1041 50.9968 78.94 51.045C78.7507 51.1005 78.2644 51.2015 77.3648 51.2015V58.8515ZM83.7186 56.9869L88.743 62.7556C92.1241 59.8107 93.5095 55.8198 93.5095 51.8072H85.8595H78.2095C78.2095 52.0897 78.1649 52.0539 78.2544 51.8374C78.2982 51.7314 78.3629 51.6107 78.4498 51.4901C78.5364 51.3699 78.6241 51.2792 78.6942 51.2181L83.7186 56.9869ZM85.8595 51.8072H93.5095C93.5095 47.8049 92.1602 43.766 88.743 40.7897L83.7186 46.5584L78.6942 52.3271C78.6149 52.2581 78.5222 52.1608 78.4334 52.0367C78.3447 51.9126 78.2817 51.7923 78.2409 51.6922C78.1585 51.4902 78.2095 51.4817 78.2095 51.8072H85.8595ZM83.7186 46.5584L88.8362 40.8722C85.4629 37.8363 81.1327 37.0437 77.3648 37.0437V44.6937V52.3437C78.2644 52.3437 78.7507 52.4448 78.94 52.5003C79.1041 52.5485 78.9071 52.5201 78.601 52.2446L83.7186 46.5584ZM77.3648 44.6937V37.0437H63.6905V44.6937V52.3437H77.3648V44.6937ZM63.6905 44.6937L69.1897 50.0117L75.2672 43.727L69.768 38.409L64.2687 33.0911L58.1912 39.3758L63.6905 44.6937ZM69.768 38.409H62.118V65.1362H69.768H77.418V38.409H69.768ZM119.785 52.6359V44.9859H112.135V52.6359H119.785ZM142.231 52.6359H149.881V44.9859H142.231V52.6359ZM142.231 62.8572V70.5072H149.881V62.8572H142.231ZM119.785 62.8572H112.135V70.5072H119.785V62.8572ZM120.752 71.6972H113.102V79.3472H120.752V71.6972ZM146.029 71.6972H153.679V64.0472H146.029V71.6972ZM146.029 82.2637V89.9137H153.679V82.2637H146.029ZM107.216 82.2637H99.566V89.9137H107.216V82.2637ZM107.216 33.92V26.27H99.566V33.92H107.216ZM145.131 33.92H152.781V26.27H145.131V33.92ZM145.131 44.4865V52.1365H152.781V44.4865H145.131ZM120.752 44.4865V36.8365H113.102V44.4865H120.752ZM119.785 52.6359V60.2859H142.231V52.6359V44.9859H119.785V52.6359ZM142.231 52.6359H134.581V62.8572H142.231H149.881V52.6359H142.231ZM142.231 62.8572V55.2072H119.785V62.8572V70.5072H142.231V62.8572ZM119.785 62.8572H127.435V52.6359H119.785H112.135V62.8572H119.785ZM120.752 71.6972V79.3472H146.029V71.6972V64.0472H120.752V71.6972ZM146.029 71.6972H138.379V82.2637H146.029H153.679V71.6972H146.029ZM146.029 82.2637V74.6137H107.216V82.2637V89.9137H146.029V82.2637ZM107.216 82.2637H114.866V33.92H107.216H99.566V82.2637H107.216ZM107.216 33.92V41.57H145.131V33.92V26.27H107.216V33.92ZM145.131 33.92H137.481V44.4865H145.131H152.781V33.92H145.131ZM145.131 44.4865V36.8365H120.752V44.4865V52.1365H145.131V44.4865ZM120.752 44.4865H113.102V71.6972H120.752H128.402V44.4865H120.752ZM166.325 55.1222V47.4722H158.675V55.1222H166.325ZM188.632 55.1222H196.282V47.4722H188.632V55.1222ZM188.632 65.6887V73.3387H196.282V65.6887H188.632ZM166.325 65.6887H158.675V73.3387H166.325V65.6887ZM167.292 82.2637V89.9137H174.942V82.2637H167.292ZM153.617 82.2637H145.967V89.9137H153.617V82.2637ZM153.617 33.92V26.27H145.967V33.92H153.617ZM191.533 33.92H199.183V26.27H191.533V33.92ZM191.533 44.4865V52.1365H199.183V44.4865H191.533ZM167.292 44.4865V36.8365H159.642V44.4865H167.292ZM166.325 55.1222V62.7722H188.632V55.1222V47.4722H166.325V55.1222ZM188.632 55.1222H180.982V65.6887H188.632H196.282V55.1222H188.632ZM188.632 65.6887V58.0387H166.325V65.6887V73.3387H188.632V65.6887ZM166.325 65.6887H173.975V55.1222H166.325H158.675V65.6887H166.325ZM167.292 82.2637V74.6137H153.617V82.2637V89.9137H167.292V82.2637ZM153.617 82.2637H161.267V33.92H153.617H145.967V82.2637H153.617ZM153.617 33.92V41.57H191.533V33.92V26.27H153.617V33.92ZM191.533 33.92H183.883V44.4865H191.533H199.183V33.92H191.533ZM191.533 44.4865V36.8365H167.292V44.4865V52.1365H191.533V44.4865ZM167.292 44.4865H159.642V82.2637H167.292H174.942V44.4865H167.292ZM210.497 52.6359V44.9859H202.847V52.6359H210.497ZM232.943 52.6359H240.593V44.9859H232.943V52.6359ZM232.943 62.8572V70.5072H240.593V62.8572H232.943ZM210.497 62.8572H202.847V70.5072H210.497V62.8572ZM211.464 71.6972H203.814V79.3472H211.464V71.6972ZM236.741 71.6972H244.391V64.0472H236.741V71.6972ZM236.741 82.2637V89.9137H244.391V82.2637H236.741ZM197.928 82.2637H190.278V89.9137H197.928V82.2637ZM197.928 33.92V26.27H190.278V33.92H197.928ZM235.843 33.92H243.493V26.27H235.843V33.92ZM235.843 44.4865V52.1365H243.493V44.4865H235.843ZM211.464 44.4865V36.8365H203.814V44.4865H211.464ZM210.497 52.6359V60.2859H232.943V52.6359V44.9859H210.497V52.6359ZM232.943 52.6359H225.293V62.8572H232.943H240.593V52.6359H232.943ZM232.943 62.8572V55.2072H210.497V62.8572V70.5072H232.943V62.8572ZM210.497 62.8572H218.147V52.6359H210.497H202.847V62.8572H210.497ZM211.464 71.6972V79.3472H236.741V71.6972V64.0472H211.464V71.6972ZM236.741 71.6972H229.091V82.2637H236.741H244.391V71.6972H236.741ZM236.741 82.2637V74.6137H197.928V82.2637V89.9137H236.741V82.2637ZM197.928 82.2637H205.578V33.92H197.928H190.278V82.2637H197.928ZM197.928 33.92V41.57H235.843V33.92V26.27H197.928V33.92ZM235.843 33.92H228.193V44.4865H235.843H243.493V33.92H235.843ZM235.843 44.4865V36.8365H211.464V44.4865V52.1365H235.843V44.4865ZM211.464 44.4865H203.814V71.6972H211.464H219.114V44.4865H211.464ZM244.329 82.2637H236.679V89.9137H244.329V82.2637ZM244.329 33.92V26.27H236.679V33.92H244.329ZM277.825 36.0609L274.69 43.039L274.708 43.0474L274.727 43.0557L277.825 36.0609ZM285.283 42.2765L278.852 46.4189L278.868 46.444L278.884 46.4689L285.283 42.2765ZM285.283 61.2687L291.649 65.5122L291.666 65.4867L291.682 65.4611L285.283 61.2687ZM277.825 67.3462L280.875 74.3618L280.899 74.3515L280.922 74.341L277.825 67.3462ZM251.926 69.4181L246.677 63.853L232.666 77.0681H251.926V69.4181ZM258.004 63.6859H265.654V45.9547L252.755 58.1208L258.004 63.6859ZM258.004 82.2637V89.9137H265.654V82.2637H258.004ZM274.233 82.2637L267.914 86.5756L270.192 89.9137H274.233V82.2637ZM262.217 64.6528V57.0028H247.735L255.897 68.9646L262.217 64.6528ZM276.789 64.6528L283.096 60.3241L280.817 57.0028H276.789V64.6528ZM288.875 82.2637V89.9137H303.403L295.182 77.935L288.875 82.2637ZM258.004 65.1362L252.504 70.4542L265.654 84.0517V65.1362H258.004ZM251.926 58.8515V51.2015H233.887L246.427 64.1695L251.926 58.8515ZM271.954 56.9869L266.93 51.2181L266.883 51.259L266.837 51.3007L271.954 56.9869ZM271.954 46.5584L266.837 52.2446L266.883 52.2863L266.93 52.3271L271.954 46.5584ZM251.926 44.6937L246.427 39.3758L233.887 52.3437H251.926V44.6937ZM258.004 38.409H265.654V19.4936L252.504 33.0911L258.004 38.409ZM244.329 82.2637H251.979V33.92H244.329H236.679V82.2637H244.329ZM244.329 33.92V41.57H266.429V33.92V26.27H244.329V33.92ZM266.429 33.92V41.57C270.049 41.57 272.726 42.1568 274.69 43.039L277.825 36.0609L280.96 29.0828C276.57 27.1104 271.649 26.27 266.429 26.27V33.92ZM277.825 36.0609L274.727 43.0557C276.713 43.9354 277.985 45.0723 278.852 46.4189L285.283 42.2765L291.715 38.1342C289.083 34.0479 285.382 31.041 280.922 29.0662L277.825 36.0609ZM285.283 42.2765L278.884 46.4689C279.698 47.7106 280.258 49.3785 280.258 51.8072H287.908H295.558C295.558 46.8692 294.368 42.1833 291.682 38.0841L285.283 42.2765ZM287.908 51.8072H280.258C280.258 54.1686 279.708 55.8192 278.884 57.0763L285.283 61.2687L291.682 65.4611C294.358 61.3775 295.558 56.7204 295.558 51.8072H287.908ZM285.283 61.2687L278.918 57.0253C278.067 58.3022 276.783 59.4411 274.727 60.3515L277.825 67.3462L280.922 74.341C285.312 72.3968 289.001 69.484 291.649 65.5122L285.283 61.2687ZM277.825 67.3462L274.774 60.3307C272.786 61.1951 270.078 61.7681 266.429 61.7681V69.4181V77.0681C271.62 77.0681 276.509 76.2599 280.875 74.3618L277.825 67.3462ZM266.429 69.4181V61.7681H251.926V69.4181V77.0681H266.429V69.4181ZM251.926 69.4181L257.175 74.9833L263.253 69.2511L258.004 63.6859L252.755 58.1208L246.677 63.853L251.926 69.4181ZM258.004 63.6859H250.354V82.2637H258.004H265.654V63.6859H258.004ZM258.004 82.2637V74.6137H244.329V82.2637V89.9137H258.004V82.2637ZM274.233 82.2637L280.552 77.9519L268.536 60.341L262.217 64.6528L255.897 68.9646L267.914 86.5756L274.233 82.2637ZM262.217 64.6528V72.3028H276.789V64.6528V57.0028H262.217V64.6528ZM276.789 64.6528L270.481 68.9815L282.567 86.5924L288.875 82.2637L295.182 77.935L283.096 60.3241L276.789 64.6528ZM288.875 82.2637V74.6137H274.233V82.2637V89.9137H288.875V82.2637ZM258.004 65.1362L263.503 59.8183L257.425 53.5336L251.926 58.8515L246.427 64.1695L252.504 70.4542L258.004 65.1362ZM251.926 58.8515V66.5015H265.601V58.8515V51.2015H251.926V58.8515ZM265.601 58.8515V66.5015C269.368 66.5015 273.699 65.709 277.072 62.6731L271.954 56.9869L266.837 51.3007C267.143 51.0252 267.34 50.9968 267.176 51.045C266.986 51.1005 266.5 51.2015 265.601 51.2015V58.8515ZM271.954 56.9869L276.979 62.7556C280.36 59.8107 281.745 55.8198 281.745 51.8072H274.095H266.445C266.445 52.0897 266.401 52.0539 266.49 51.8374C266.534 51.7314 266.599 51.6107 266.686 51.4901C266.772 51.3699 266.86 51.2792 266.93 51.2181L271.954 56.9869ZM274.095 51.8072H281.745C281.745 47.8049 280.396 43.766 276.979 40.7897L271.954 46.5584L266.93 52.3271C266.851 52.2581 266.758 52.1608 266.669 52.0367C266.58 51.9126 266.517 51.7923 266.477 51.6922C266.394 51.4902 266.445 51.4817 266.445 51.8072H274.095ZM271.954 46.5584L277.072 40.8722C273.699 37.8363 269.368 37.0437 265.601 37.0437V44.6937V52.3437C266.5 52.3437 266.986 52.4448 267.176 52.5003C267.34 52.5485 267.143 52.5201 266.837 52.2446L271.954 46.5584ZM265.601 44.6937V37.0437H251.926V44.6937V52.3437H265.601V44.6937ZM251.926 44.6937L257.425 50.0117L263.503 43.727L258.004 38.409L252.504 33.0911L246.427 39.3758L251.926 44.6937ZM258.004 38.409H250.354V65.1362H258.004H265.654V38.409H258.004ZM322.249 81.504L319.331 88.5755L319.379 88.5954L319.427 88.6146L322.249 81.504ZM315.343 76.6006L309.369 81.3795L309.401 81.4196L309.434 81.4592L315.343 76.6006ZM314.514 62.8572L307.901 59.0121L307.867 59.0702L307.834 59.1288L314.514 62.8572ZM319.763 57.4012L315.408 51.1115L315.38 51.1313L315.351 51.1514L319.763 57.4012ZM328.879 52.6359L331.796 59.7079L331.861 59.6813L331.925 59.6536L328.879 52.6359ZM337.512 47.4562L331.435 42.8092L331.413 42.8376L331.392 42.8662L337.512 47.4562ZM331.365 42.8981L326.304 37.1618L326.217 37.2382L326.133 37.3172L331.365 42.8981ZM330.606 47.249L323.466 49.9952L323.555 50.2282L323.66 50.4548L330.606 47.249ZM332.125 49.3209L326.554 54.564L326.634 54.6483L326.716 54.7303L332.125 49.3209ZM335.371 52.3597L330.253 58.0459L330.271 58.0617L330.289 58.0774L335.371 52.3597ZM360.855 75.0122L366.621 80.0393L371.6 74.3282L365.937 69.2945L360.855 75.0122ZM353.811 83.0925L348.719 88.8018L354.493 93.9513L359.577 88.1196L353.811 83.0925ZM325.081 57.4703L330.172 51.761L330.157 51.7475L330.142 51.734L325.081 57.4703ZM321.213 53.4647L315.093 58.0547L315.145 58.1234L315.198 58.191L321.213 53.4647ZM319.003 49.5972L311.799 52.1701L311.839 52.2829L311.883 52.3944L319.003 49.5972ZM320.315 39.1687L326.509 43.659L326.535 43.6228L326.561 43.5863L320.315 39.1687ZM325.978 34.8178L328.911 41.8833L328.968 41.8598L329.024 41.8355L325.978 34.8178ZM342.346 34.6106L339.404 41.6721L339.43 41.6828L339.455 41.6933L342.346 34.6106ZM347.802 50.6331L341.334 46.5481L341.295 46.6096L341.258 46.6719L347.802 50.6331ZM342.83 55.4675L338.647 49.0624L338.616 49.0822L338.586 49.1023L342.83 55.4675ZM334.335 59.8184L337.255 66.889L337.257 66.8883L334.335 59.8184ZM329.224 62.4428L324.929 56.1126L324.875 56.1491L324.822 56.1866L329.224 62.4428ZM326.531 65.1362L332.999 69.2213L333.046 69.1472L333.091 69.0721L326.531 65.1362ZM326.6 70.7303L320.523 75.3773V75.3773L326.6 70.7303ZM329.155 72.595L326.213 79.6565L326.34 79.7095L326.469 79.7579L329.155 72.595ZM340.482 71.2828L344.277 77.9249L344.328 77.8959L344.378 77.8662L340.482 71.2828ZM346.283 65.4815L339.882 61.292L339.855 61.333L339.829 61.3744L346.283 65.4815ZM349.667 56.2962L351.87 48.9702L343.549 46.4687L342.121 55.0386L349.667 56.2962ZM360.233 59.4731L367.715 61.071L369.187 54.1768L362.436 52.1471L360.233 59.4731ZM354.708 71.9044L348.598 67.3017L348.579 67.3271L348.56 67.3528L354.708 71.9044ZM344.971 80.2609L348.49 87.0535L348.505 87.0455L348.52 87.0375L344.971 80.2609ZM332.125 83.2306V75.5806C329.237 75.5806 326.927 75.1301 325.071 74.3934L322.249 81.504L319.427 88.6146C323.372 90.1801 327.646 90.8806 332.125 90.8806V83.2306ZM322.249 81.504L325.167 74.4326C323.232 73.634 322.03 72.6883 321.252 71.7421L315.343 76.6006L309.434 81.4592C312.063 84.6567 315.464 86.9799 319.331 88.5755L322.249 81.504ZM315.343 76.6006L321.316 71.8217C320.71 71.0635 320.507 70.4126 320.507 69.6253H312.857H305.207C305.207 73.9947 306.661 77.9939 309.369 81.3795L315.343 76.6006ZM312.857 69.6253H320.507C320.507 68.2426 320.797 67.2971 321.194 66.5855L314.514 62.8572L307.834 59.1288C306.021 62.3768 305.207 65.9434 305.207 69.6253H312.857ZM314.514 62.8572L321.128 66.7022C321.604 65.8829 322.502 64.8314 324.174 63.651L319.763 57.4012L315.351 51.1514C312.327 53.2861 309.726 55.8718 307.901 59.0121L314.514 62.8572ZM319.763 57.4012L324.117 63.691C325.932 62.4349 328.448 61.0892 331.796 59.7079L328.879 52.6359L325.962 45.564C321.944 47.2214 318.382 49.0525 315.408 51.1115L319.763 57.4012ZM328.879 52.6359L331.925 59.6536C334.502 58.5353 336.756 57.4392 338.547 56.3642L334.611 49.8044L330.675 43.2445C329.705 43.8271 328.137 44.6187 325.834 45.6182L328.879 52.6359ZM334.611 49.8044L338.547 56.3642C340.237 55.3502 342.198 53.9575 343.632 52.0462L337.512 47.4562L331.392 42.8662C331.503 42.7178 331.586 42.633 331.61 42.608C331.636 42.5821 331.624 42.5969 331.559 42.6498C331.42 42.762 331.144 42.9636 330.675 43.2445L334.611 49.8044ZM337.512 47.4562L343.589 52.1032C344.94 50.3369 346.06 47.9641 346.06 45.1081H338.41H330.76C330.76 43.8175 331.281 43.0102 331.435 42.8092L337.512 47.4562ZM338.41 45.1081H346.06C346.06 42.2487 345.016 39.3524 342.648 37.1541L337.443 42.76L332.237 48.3659C331.782 47.9432 331.371 47.3798 331.094 46.7087C330.825 46.054 330.76 45.4828 330.76 45.1081H338.41ZM337.443 42.76L342.648 37.1541C340.051 34.7422 336.876 34.2122 334.542 34.2122V41.8622V49.5122C334.787 49.5122 333.546 49.5807 332.237 48.3659L337.443 42.76ZM334.542 41.8622V34.2122C331.878 34.2122 328.839 34.9247 326.304 37.1618L331.365 42.8981L336.427 48.6344C335.984 49.0249 335.513 49.2654 335.118 49.3942C334.747 49.5152 334.525 49.5122 334.542 49.5122V41.8622ZM331.365 42.8981L326.133 37.3172C323.848 39.4591 322.61 42.3335 322.61 45.4534H330.26H337.91C337.91 45.895 337.825 46.4739 337.558 47.0913C337.291 47.7092 336.926 48.1714 336.598 48.4791L331.365 42.8981ZM330.26 45.4534H322.61C322.61 47.0562 322.923 48.5834 323.466 49.9952L330.606 47.249L337.746 44.5029C337.828 44.7176 337.91 45.0478 337.91 45.4534H330.26ZM330.606 47.249L323.66 50.4548C324.43 52.1241 325.562 53.5092 326.554 54.564L332.125 49.3209L337.696 44.0779C337.596 43.9717 337.519 43.8851 337.463 43.8179C337.406 43.7503 337.374 43.7085 337.362 43.692C337.349 43.6749 337.363 43.6929 337.395 43.745C337.426 43.7965 337.484 43.8965 337.552 44.0433L330.606 47.249ZM332.125 49.3209L326.716 54.7303C327.635 55.6498 328.829 56.7643 330.253 58.0459L335.371 52.3597L340.489 46.6735C339.15 45.4688 338.18 44.5575 337.534 43.9116L332.125 49.3209ZM335.371 52.3597L330.289 58.0774L355.773 80.7299L360.855 75.0122L365.937 69.2945L340.453 46.642L335.371 52.3597ZM360.855 75.0122L355.089 69.9851L348.044 78.0654L353.811 83.0925L359.577 88.1196L366.621 80.0393L360.855 75.0122ZM353.811 83.0925L358.902 77.3831L330.172 51.761L325.081 57.4703L319.989 63.1796L348.719 88.8018L353.811 83.0925ZM325.081 57.4703L330.142 51.734C328.835 50.581 327.89 49.5796 327.229 48.7383L321.213 53.4647L315.198 58.191C316.563 59.928 318.195 61.597 320.019 63.2066L325.081 57.4703ZM321.213 53.4647L327.333 48.8747C326.713 48.048 326.341 47.355 326.123 46.7999L319.003 49.5972L311.883 52.3944C312.678 54.4177 313.779 56.303 315.093 58.0547L321.213 53.4647ZM319.003 49.5972L326.207 47.0242C326.034 46.5396 325.963 46.0967 325.963 45.6606H318.313H310.663C310.663 47.8949 311.051 50.0764 311.799 52.1701L319.003 49.5972ZM318.313 45.6606H325.963C325.963 44.6293 326.209 44.0726 326.509 43.659L320.315 39.1687L314.122 34.6784C311.751 37.9482 310.663 41.7194 310.663 45.6606H318.313ZM320.315 39.1687L326.561 43.5863C326.95 43.0367 327.608 42.4242 328.911 41.8833L325.978 34.8178L323.046 27.7523C319.468 29.2373 316.351 31.5253 314.07 34.7511L320.315 39.1687ZM325.978 34.8178L329.024 41.8355C330.31 41.2775 332.088 40.8794 334.542 40.8794V33.2294V25.5794C330.459 25.5794 326.528 26.2402 322.933 27.8001L325.978 34.8178ZM334.542 33.2294V40.8794C336.769 40.8794 338.328 41.2237 339.404 41.6721L342.346 34.6106L345.289 27.5491C341.945 26.1558 338.301 25.5794 334.542 25.5794V33.2294ZM342.346 34.6106L339.455 41.6933C340.554 42.1418 341.066 42.6354 341.359 43.0472L347.595 38.6162L353.831 34.1853C351.637 31.0979 348.651 28.9211 345.237 27.5279L342.346 34.6106ZM347.595 38.6162L341.359 43.0472C341.577 43.3544 341.81 43.834 341.81 44.8319H349.46H357.11C357.11 41.0414 356.099 37.3772 353.831 34.1853L347.595 38.6162ZM349.46 44.8319H341.81C341.81 45.5396 341.648 46.0511 341.334 46.5481L347.802 50.6331L354.27 54.7182C356.166 51.716 357.11 48.3599 357.11 44.8319H349.46ZM347.802 50.6331L341.258 46.6719C340.95 47.18 340.234 48.0256 338.647 49.0624L342.83 55.4675L347.013 61.8726C349.937 59.9627 352.536 57.5854 354.347 54.5943L347.802 50.6331ZM342.83 55.4675L338.586 49.1023C336.922 50.2116 334.574 51.4418 331.413 52.7485L334.335 59.8184L337.257 66.8883C341.002 65.3404 344.317 63.67 347.073 61.8327L342.83 55.4675ZM334.335 59.8184L331.415 52.7478C329.017 53.7381 326.8 54.8429 324.929 56.1126L329.224 62.4428L333.52 68.773C334.227 68.2931 335.417 67.6484 337.255 66.889L334.335 59.8184ZM329.224 62.4428L324.822 56.1866C323.043 57.4387 321.251 59.0667 319.971 61.2003L326.531 65.1362L333.091 69.0721C332.993 69.2349 332.944 69.2661 333.028 69.1816C333.113 69.0969 333.297 68.9312 333.627 68.699L329.224 62.4428ZM326.531 65.1362L320.063 61.0512C318.653 63.2832 318.052 65.7458 318.052 68.175H325.702H333.352C333.352 68.2146 333.347 68.3556 333.29 68.5649C333.231 68.7796 333.134 69.0075 332.999 69.2213L326.531 65.1362ZM325.702 68.175H318.052C318.052 70.8968 318.981 73.3599 320.523 75.3773L326.6 70.7303L332.677 66.0833C332.822 66.2731 333.004 66.569 333.144 66.9686C333.287 67.3739 333.352 67.7893 333.352 68.175H325.702ZM326.6 70.7303L320.523 75.3773C322.095 77.433 324.135 78.7906 326.213 79.6565L329.155 72.595L332.098 65.5334C332.027 65.504 332.077 65.5162 332.197 65.6039C332.323 65.6958 332.5 65.8517 332.677 66.0833L326.6 70.7303ZM329.155 72.595L326.469 79.7579C328.64 80.5721 330.906 80.8665 333.092 80.8665V73.2165V65.5665C332.239 65.5665 331.88 65.4466 331.841 65.4321L329.155 72.595ZM333.092 73.2165V80.8665C337.055 80.8665 340.832 79.8934 344.277 77.9249L340.482 71.2828L336.686 64.6407C335.619 65.2505 334.47 65.5665 333.092 65.5665V73.2165ZM340.482 71.2828L344.378 77.8662C347.81 75.8347 350.574 72.9882 352.737 69.5886L346.283 65.4815L339.829 61.3744C338.769 63.0395 337.665 64.0604 336.585 64.6994L340.482 71.2828ZM346.283 65.4815L352.684 69.6711C355.027 66.0904 356.475 61.983 357.213 57.5539L349.667 56.2962L342.121 55.0386C341.662 57.792 340.853 59.8081 339.882 61.292L346.283 65.4815ZM349.667 56.2962L347.464 63.6223L358.031 66.7992L360.233 59.4731L362.436 52.1471L351.87 48.9702L349.667 56.2962ZM360.233 59.4731L352.752 57.8752C351.95 61.6301 350.538 64.7261 348.598 67.3017L354.708 71.9044L360.819 76.507C364.22 71.9922 366.491 66.8007 367.715 61.071L360.233 59.4731ZM354.708 71.9044L348.56 67.3528C346.615 69.9795 344.254 72.0001 341.421 73.4843L344.971 80.2609L348.52 87.0375C353.422 84.4701 357.553 80.9196 360.857 76.4559L354.708 71.9044ZM344.971 80.2609L341.452 73.4684C338.825 74.8291 335.77 75.5806 332.125 75.5806V83.2306V90.8806C337.965 90.8806 343.473 89.6523 348.49 87.0535L344.971 80.2609ZM400.149 52.6359V44.9859H392.499V52.6359H400.149ZM422.595 52.6359H430.245V44.9859H422.595V52.6359ZM422.595 62.8572V70.5072H430.245V62.8572H422.595ZM400.149 62.8572H392.499V70.5072H400.149V62.8572ZM401.116 71.6972H393.466V79.3472H401.116V71.6972ZM426.393 71.6972H434.043V64.0472H426.393V71.6972ZM426.393 82.2637V89.9137H434.043V82.2637H426.393ZM387.58 82.2637H379.93V89.9137H387.58V82.2637ZM387.58 33.92V26.27H379.93V33.92H387.58ZM425.495 33.92H433.145V26.27H425.495V33.92ZM425.495 44.4865V52.1365H433.145V44.4865H425.495ZM401.116 44.4865V36.8365H393.466V44.4865H401.116ZM400.149 52.6359V60.2859H422.595V52.6359V44.9859H400.149V52.6359ZM422.595 52.6359H414.945V62.8572H422.595H430.245V52.6359H422.595ZM422.595 62.8572V55.2072H400.149V62.8572V70.5072H422.595V62.8572ZM400.149 62.8572H407.799V52.6359H400.149H392.499V62.8572H400.149ZM401.116 71.6972V79.3472H426.393V71.6972V64.0472H401.116V71.6972ZM426.393 71.6972H418.743V82.2637H426.393H434.043V71.6972H426.393ZM426.393 82.2637V74.6137H387.58V82.2637V89.9137H426.393V82.2637ZM387.58 82.2637H395.23V33.92H387.58H379.93V82.2637H387.58ZM387.58 33.92V41.57H425.495V33.92V26.27H387.58V33.92ZM425.495 33.92H417.845V44.4865H425.495H433.145V33.92H425.495ZM425.495 44.4865V36.8365H401.116V44.4865V52.1365H425.495V44.4865ZM401.116 44.4865H393.466V71.6972H401.116H408.766V44.4865H401.116ZM428.18 82.2637L421.182 79.1744L416.441 89.9137H428.18V82.2637ZM449.521 33.92V26.27H444.535L442.522 30.8307L449.521 33.92ZM462.988 33.92L469.982 30.8223L467.966 26.27H462.988V33.92ZM484.397 82.2637V89.9137H496.152L491.392 79.166L484.397 82.2637ZM470.17 82.2637L463.071 85.113L464.997 89.9137H470.17V82.2637ZM453.457 40.619V32.969H442.144L446.357 43.4683L453.457 40.619ZM458.844 40.619L465.944 43.4683L470.157 32.969H458.844V40.619ZM442.131 82.2637V89.9137H447.304L449.23 85.113L442.131 82.2637ZM439.852 72.8712L432.63 70.3485L429.076 80.5212H439.852V72.8712ZM443.374 62.7881V55.1381H437.943L436.152 60.2653L443.374 62.7881ZM466.993 62.7881L474.215 60.2653L472.424 55.1381H466.993V62.7881ZM470.516 72.8712V80.5212H481.291L477.738 70.3485L470.516 72.8712ZM428.18 82.2637L435.179 85.3531L456.519 37.0093L449.521 33.92L442.522 30.8307L421.182 79.1744L428.18 82.2637ZM449.521 33.92V41.57H462.988V33.92V26.27H449.521V33.92ZM462.988 33.92L455.993 37.0177L477.402 85.3614L484.397 82.2637L491.392 79.166L469.982 30.8223L462.988 33.92ZM484.397 82.2637V74.6137H470.17V82.2637V89.9137H484.397V82.2637ZM470.17 82.2637L477.27 79.4145L460.557 37.7698L453.457 40.619L446.357 43.4683L463.071 85.113L470.17 82.2637ZM453.457 40.619V48.269H458.844V40.619V32.969H453.457V40.619ZM458.844 40.619L451.744 37.7698L435.031 79.4145L442.131 82.2637L449.23 85.113L465.944 43.4683L458.844 40.619ZM442.131 82.2637V74.6137H428.18V82.2637V89.9137H442.131V82.2637ZM439.852 72.8712L447.074 75.394L450.596 65.3109L443.374 62.7881L436.152 60.2653L432.63 70.3485L439.852 72.8712ZM443.374 62.7881V70.4381H466.993V62.7881V55.1381H443.374V62.7881ZM466.993 62.7881L459.771 65.3109L463.293 75.394L470.516 72.8712L477.738 70.3485L474.215 60.2653L466.993 62.7881ZM470.516 72.8712V65.2212H439.852V72.8712V80.5212H470.516V72.8712ZM488.274 82.2637H480.624V89.9137H488.274V82.2637ZM488.274 33.92V26.27H480.624V33.92H488.274ZM521.769 36.0609L518.634 43.039L518.653 43.0474L518.671 43.0557L521.769 36.0609ZM529.228 42.2765L522.796 46.4189L522.812 46.444L522.829 46.4689L529.228 42.2765ZM529.228 61.2687L535.593 65.5122L535.61 65.4867L535.627 65.4611L529.228 61.2687ZM521.769 67.3462L524.819 74.3618L524.843 74.3515L524.867 74.341L521.769 67.3462ZM495.871 69.4181L490.622 63.853L476.61 77.0681H495.871V69.4181ZM501.948 63.6859H509.598V45.9547L496.699 58.1208L501.948 63.6859ZM501.948 82.2637V89.9137H509.598V82.2637H501.948ZM518.178 82.2637L511.859 86.5756L514.137 89.9137H518.178V82.2637ZM506.161 64.6528V57.0028H491.68L499.842 68.9646L506.161 64.6528ZM520.733 64.6528L527.041 60.3241L524.761 57.0028H520.733V64.6528ZM532.819 82.2637V89.9137H547.347L539.127 77.935L532.819 82.2637ZM501.948 65.1362L496.449 70.4542L509.598 84.0517V65.1362H501.948ZM495.871 58.8515V51.2015H477.831L490.371 64.1695L495.871 58.8515ZM515.899 56.9869L510.874 51.2181L510.827 51.259L510.781 51.3007L515.899 56.9869ZM515.899 46.5584L510.781 52.2446L510.827 52.2863L510.874 52.3271L515.899 46.5584ZM495.871 44.6937L490.371 39.3758L477.831 52.3437H495.871V44.6937ZM501.948 38.409H509.598V19.4936L496.449 33.0911L501.948 38.409ZM488.274 82.2637H495.924V33.92H488.274H480.624V82.2637H488.274ZM488.274 33.92V41.57H510.374V33.92V26.27H488.274V33.92ZM510.374 33.92V41.57C513.994 41.57 516.67 42.1568 518.634 43.039L521.769 36.0609L524.904 29.0828C520.514 27.1104 515.594 26.27 510.374 26.27V33.92ZM521.769 36.0609L518.671 43.0557C520.658 43.9354 521.929 45.0723 522.796 46.4189L529.228 42.2765L535.659 38.1342C533.027 34.0479 529.326 31.041 524.867 29.0662L521.769 36.0609ZM529.228 42.2765L522.829 46.4689C523.642 47.7106 524.202 49.3785 524.202 51.8072H531.852H539.502C539.502 46.8692 538.312 42.1833 535.627 38.0841L529.228 42.2765ZM531.852 51.8072H524.202C524.202 54.1686 523.653 55.8192 522.829 57.0763L529.228 61.2687L535.627 65.4611C538.302 61.3775 539.502 56.7204 539.502 51.8072H531.852ZM529.228 61.2687L522.863 57.0253C522.011 58.3022 520.727 59.4411 518.671 60.3515L521.769 67.3462L524.867 74.341C529.257 72.3968 532.945 69.484 535.593 65.5122L529.228 61.2687ZM521.769 67.3462L518.719 60.3307C516.731 61.1951 514.023 61.7681 510.374 61.7681V69.4181V77.0681C515.565 77.0681 520.454 76.2599 524.819 74.3618L521.769 67.3462ZM510.374 69.4181V61.7681H495.871V69.4181V77.0681H510.374V69.4181ZM495.871 69.4181L501.12 74.9833L507.197 69.2511L501.948 63.6859L496.699 58.1208L490.622 63.853L495.871 69.4181ZM501.948 63.6859H494.298V82.2637H501.948H509.598V63.6859H501.948ZM501.948 82.2637V74.6137H488.274V82.2637V89.9137H501.948V82.2637ZM518.178 82.2637L524.497 77.9519L512.48 60.341L506.161 64.6528L499.842 68.9646L511.859 86.5756L518.178 82.2637ZM506.161 64.6528V72.3028H520.733V64.6528V57.0028H506.161V64.6528ZM520.733 64.6528L514.426 68.9815L526.512 86.5924L532.819 82.2637L539.127 77.935L527.041 60.3241L520.733 64.6528ZM532.819 82.2637V74.6137H518.178V82.2637V89.9137H532.819V82.2637ZM501.948 65.1362L507.447 59.8183L501.37 53.5336L495.871 58.8515L490.371 64.1695L496.449 70.4542L501.948 65.1362ZM495.871 58.8515V66.5015H509.545V58.8515V51.2015H495.871V58.8515ZM509.545 58.8515V66.5015C513.313 66.5015 517.643 65.709 521.016 62.6731L515.899 56.9869L510.781 51.3007C511.087 51.0252 511.284 50.9968 511.12 51.045C510.931 51.1005 510.445 51.2015 509.545 51.2015V58.8515ZM515.899 56.9869L520.923 62.7556C524.304 59.8107 525.69 55.8198 525.69 51.8072H518.04H510.39C510.39 52.0897 510.345 52.0539 510.435 51.8374C510.478 51.7314 510.543 51.6107 510.63 51.4901C510.717 51.3699 510.804 51.2792 510.874 51.2181L515.899 56.9869ZM518.04 51.8072H525.69C525.69 47.8049 524.34 43.766 520.923 40.7897L515.899 46.5584L510.874 52.3271C510.795 52.2581 510.702 52.1608 510.614 52.0367C510.525 51.9126 510.462 51.7923 510.421 51.6922C510.339 51.4902 510.39 51.4817 510.39 51.8072H518.04ZM515.899 46.5584L521.016 40.8722C517.643 37.8363 513.313 37.0437 509.545 37.0437V44.6937V52.3437C510.445 52.3437 510.931 52.4448 511.12 52.5003C511.284 52.5485 511.087 52.5201 510.781 52.2446L515.899 46.5584ZM509.545 44.6937V37.0437H495.871V44.6937V52.3437H509.545V44.6937ZM495.871 44.6937L501.37 50.0117L507.447 43.727L501.948 38.409L496.449 33.0911L490.371 39.3758L495.871 44.6937ZM501.948 38.409H494.298V65.1362H501.948H509.598V38.409H501.948ZM539.396 82.2637H531.746V89.9137H539.396V82.2637ZM539.396 33.92V26.27H531.746V33.92H539.396ZM550.653 33.92L556.545 29.04L554.25 26.27H550.653V33.92ZM577.311 66.1031V73.7531H593.582L583.203 61.2231L577.311 66.1031ZM571.994 66.1031H564.344V73.7531H571.994V66.1031ZM571.994 33.92V26.27H564.344V33.92H571.994ZM585.392 33.92H593.042V26.27H585.392V33.92ZM585.392 82.2637V89.9137H593.042V82.2637H585.392ZM574.135 82.2637L568.243 87.1437L570.538 89.9137H574.135V82.2637ZM547.476 50.0806V42.4306H531.206L541.585 54.9606L547.476 50.0806ZM552.794 50.0806H560.444V42.4306H552.794V50.0806ZM552.794 82.2637V89.9137H560.444V82.2637H552.794ZM539.396 82.2637H547.046V33.92H539.396H531.746V82.2637H539.396ZM539.396 33.92V41.57H550.653V33.92V26.27H539.396V33.92ZM550.653 33.92L544.762 38.8L571.42 70.9831L577.311 66.1031L583.203 61.2231L556.545 29.04L550.653 33.92ZM577.311 66.1031V58.4531H571.994V66.1031V73.7531H577.311V66.1031ZM571.994 66.1031H579.644V33.92H571.994H564.344V66.1031H571.994ZM571.994 33.92V41.57H585.392V33.92V26.27H571.994V33.92ZM585.392 33.92H577.742V82.2637H585.392H593.042V33.92H585.392ZM585.392 82.2637V74.6137H574.135V82.2637V89.9137H585.392V82.2637ZM574.135 82.2637L580.026 77.3838L553.368 45.2006L547.476 50.0806L541.585 54.9606L568.243 87.1437L574.135 82.2637ZM547.476 50.0806V57.7306H552.794V50.0806V42.4306H547.476V50.0806ZM552.794 50.0806H545.144V82.2637H552.794H560.444V50.0806H552.794ZM552.794 82.2637V74.6137H539.396V82.2637V89.9137H552.794V82.2637Z" fill="#FFF438" mask="url(#path-3-outside-2_41_9)"/>
<defs>
<filter id="filter0_ddi_41_9" x="0.417223" y="0.805042" width="630.97" height="152.683" filterUnits="userSpaceOnUse" color-interpolation-filters="sRGB">
<feFlood flood-opacity="0" result="BackgroundImageFix"/>
<feColorMatrix in="SourceAlpha" type="matrix" values="0 0 0 0 0 0 0 0 0 0 0 0 0 0 0 0 0 0 127 0" result="hardAlpha"/>
<feOffset dy="12.4251"/>
<feGaussianBlur stdDeviation="4.77888"/>
<feColorMatrix type="matrix" values="0 0 0 0 0.224 0 0 0 0 0.15 0 0 0 0 0 0 0 0 0.7 0"/>
<feBlend mode="multiply" in2="BackgroundImageFix" result="effect1_dropShadow_41_9"/>
<feColorMatrix in="SourceAlpha" type="matrix" values="0 0 0 0 0 0 0 0 0 0 0 0 0 0 0 0 0 0 127 0" result="hardAlpha"/>
<feOffset dy="22.9386"/>
<feGaussianBlur stdDeviation="14.9101"/>
<feColorMatrix type="matrix" values="0 0 0 0 0.56 0 0 0 0 0.44 0 0 0 0 0 0 0 0 1 0"/>
<feBlend mode="color-dodge" in2="effect1_dropShadow_41_9" result="effect2_dropShadow_41_9"/>
<feBlend mode="normal" in="SourceGraphic" in2="effect2_dropShadow_41_9" result="shape"/>
<feColorMatrix in="SourceAlpha" type="matrix" values="0 0 0 0 0 0 0 0 0 0 0 0 0 0 0 0 0 0 127 0" result="hardAlpha"/>
<feOffset dx="-1.24251" dy="2.48502"/>
<feGaussianBlur stdDeviation="0.621254"/>
<feComposite in2="hardAlpha" operator="arithmetic" k2="-1" k3="1"/>
<feColorMatrix type="matrix" values="0 0 0 0 1 0 0 0 0 1 0 0 0 0 1 0 0 0 0.5 0"/>
<feBlend mode="normal" in2="shape" result="effect3_innerShadow_41_9"/>
</filter>
</defs>
</svg>
