<svg width="660" height="252" viewBox="0 0 660 252" fill="none" xmlns="http://www.w3.org/2000/svg">
<g style="mix-blend-mode:hard-light" filter="url(#filter0_ddi_41_10)">
<mask id="path-1-outside-1_41_10" maskUnits="userSpaceOnUse" x="50.9238" y="12.5585" width="558" height="149" fill="black">
<rect fill="white" x="50.9238" y="12.5585" width="558" height="149"/>
<path d="M75.2268 111.107V92.9593H98.2381C104.169 92.9593 108.36 91.6941 110.811 89.1637C113.263 86.6332 114.488 83.5492 114.488 79.9117C114.488 75.8788 113.184 72.5576 110.574 69.9481C108.044 67.2595 103.813 65.9152 97.8822 65.9152H72.7359V54.4095H147.107V65.9152H119.826L123.74 59.6286C128.485 61.9218 132.083 65.2035 134.534 69.4736C136.986 73.6647 138.211 78.1325 138.211 82.8771C138.211 88.8078 136.709 93.9083 133.704 98.1784C130.699 102.369 126.429 105.572 120.893 107.786C115.437 110 108.913 111.107 101.322 111.107H75.2268ZM114.726 137.559L93.1376 103.991H118.047L139.872 137.559H114.726ZM72.7359 82.4026V70.897H147.107V82.4026H72.7359ZM203.639 137.559V62.9498L213.722 72.6762H188.219V54.5282H227.125V137.559H203.639ZM276.264 139.219C269.147 139.219 262.821 137.519 257.286 134.119C251.829 130.718 247.52 125.816 244.357 119.41C241.194 113.005 239.612 105.216 239.612 96.0433C239.612 86.8705 241.194 79.0814 244.357 72.6762C247.52 66.271 251.829 61.3683 257.286 57.968C262.821 54.5677 269.147 52.8675 276.264 52.8675C283.302 52.8675 289.549 54.5677 295.005 57.968C300.541 61.3683 304.89 66.271 308.053 72.6762C311.216 79.0814 312.797 86.8705 312.797 96.0433C312.797 105.216 311.216 113.005 308.053 119.41C304.89 125.816 300.541 130.718 295.005 134.119C289.549 137.519 283.302 139.219 276.264 139.219ZM276.264 120.004C278.794 120.004 281.009 119.213 282.906 117.631C284.883 116.05 286.425 113.519 287.532 110.04C288.64 106.481 289.193 101.816 289.193 96.0433C289.193 90.1917 288.64 85.5262 287.532 82.0468C286.425 78.5674 284.883 76.037 282.906 74.4554C281.009 72.8739 278.794 72.0831 276.264 72.0831C273.734 72.0831 271.48 72.8739 269.503 74.4554C267.605 76.037 266.063 78.5674 264.877 82.0468C263.77 85.5262 263.216 90.1917 263.216 96.0433C263.216 101.816 263.77 106.481 264.877 110.04C266.063 113.519 267.605 116.05 269.503 117.631C271.48 119.213 273.734 120.004 276.264 120.004ZM331.882 138.626C328.087 138.626 324.884 137.361 322.275 134.83C319.665 132.3 318.36 129.097 318.36 125.223C318.36 121.19 319.665 117.987 322.275 115.615C324.884 113.163 328.087 111.938 331.882 111.938C335.678 111.938 338.881 113.163 341.49 115.615C344.1 117.987 345.404 121.19 345.404 125.223C345.404 129.097 344.1 132.3 341.49 134.83C338.881 137.361 335.678 138.626 331.882 138.626ZM387.813 139.219C380.696 139.219 374.37 137.519 368.835 134.119C363.378 130.718 359.069 125.816 355.906 119.41C352.742 113.005 351.161 105.216 351.161 96.0433C351.161 86.8705 352.742 79.0814 355.906 72.6762C359.069 66.271 363.378 61.3683 368.835 57.968C374.37 54.5677 380.696 52.8675 387.813 52.8675C394.851 52.8675 401.098 54.5677 406.554 57.968C412.089 61.3683 416.439 66.271 419.602 72.6762C422.765 79.0814 424.346 86.8705 424.346 96.0433C424.346 105.216 422.765 113.005 419.602 119.41C416.439 125.816 412.089 130.718 406.554 134.119C401.098 137.519 394.851 139.219 387.813 139.219ZM387.813 120.004C390.343 120.004 392.557 119.213 394.455 117.631C396.432 116.05 397.974 113.519 399.081 110.04C400.188 106.481 400.742 101.816 400.742 96.0433C400.742 90.1917 400.188 85.5262 399.081 82.0468C397.974 78.5674 396.432 76.037 394.455 74.4554C392.557 72.8739 390.343 72.0831 387.813 72.0831C385.282 72.0831 383.029 72.8739 381.052 74.4554C379.154 76.037 377.612 78.5674 376.426 82.0468C375.319 85.5262 374.765 90.1917 374.765 96.0433C374.765 101.816 375.319 106.481 376.426 110.04C377.612 113.519 379.154 116.05 381.052 117.631C383.029 119.213 385.282 120.004 387.813 120.004ZM469.013 139.219C461.896 139.219 455.57 137.519 450.035 134.119C444.578 130.718 440.269 125.816 437.106 119.41C433.943 113.005 432.361 105.216 432.361 96.0433C432.361 86.8705 433.943 79.0814 437.106 72.6762C440.269 66.271 444.578 61.3683 450.035 57.968C455.57 54.5677 461.896 52.8675 469.013 52.8675C476.051 52.8675 482.298 54.5677 487.754 57.968C493.29 61.3683 497.639 66.271 500.802 72.6762C503.965 79.0814 505.546 86.8705 505.546 96.0433C505.546 105.216 503.965 113.005 500.802 119.41C497.639 125.816 493.29 130.718 487.754 134.119C482.298 137.519 476.051 139.219 469.013 139.219ZM469.013 120.004C471.543 120.004 473.758 119.213 475.655 117.631C477.632 116.05 479.174 113.519 480.281 110.04C481.389 106.481 481.942 101.816 481.942 96.0433C481.942 90.1917 481.389 85.5262 480.281 82.0468C479.174 78.5674 477.632 76.037 475.655 74.4554C473.758 72.8739 471.543 72.0831 469.013 72.0831C466.483 72.0831 464.229 72.8739 462.252 74.4554C460.354 76.037 458.812 78.5674 457.626 82.0468C456.519 85.5262 455.965 90.1917 455.965 96.0433C455.965 101.816 456.519 106.481 457.626 110.04C458.812 113.519 460.354 116.05 462.252 117.631C464.229 119.213 466.483 120.004 469.013 120.004ZM550.213 139.219C543.096 139.219 536.77 137.519 531.235 134.119C525.779 130.718 521.469 125.816 518.306 119.41C515.143 113.005 513.561 105.216 513.561 96.0433C513.561 86.8705 515.143 79.0814 518.306 72.6762C521.469 66.271 525.779 61.3683 531.235 57.968C536.77 54.5677 543.096 52.8675 550.213 52.8675C557.251 52.8675 563.498 54.5677 568.954 57.968C574.49 61.3683 578.839 66.271 582.002 72.6762C585.165 79.0814 586.747 86.8705 586.747 96.0433C586.747 105.216 585.165 113.005 582.002 119.41C578.839 125.816 574.49 130.718 568.954 134.119C563.498 137.519 557.251 139.219 550.213 139.219ZM550.213 120.004C552.744 120.004 554.958 119.213 556.856 117.631C558.833 116.05 560.375 113.519 561.482 110.04C562.589 106.481 563.142 101.816 563.142 96.0433C563.142 90.1917 562.589 85.5262 561.482 82.0468C560.375 78.5674 558.833 76.037 556.856 74.4554C554.958 72.8739 552.744 72.0831 550.213 72.0831C547.683 72.0831 545.429 72.8739 543.452 74.4554C541.554 76.037 540.012 78.5674 538.826 82.0468C537.719 85.5262 537.166 90.1917 537.166 96.0433C537.166 101.816 537.719 106.481 538.826 110.04C540.012 113.519 541.554 116.05 543.452 117.631C545.429 119.213 547.683 120.004 550.213 120.004Z"/>
</mask>
<path d="M75.2268 111.107H53.8867V132.447H75.2268V111.107ZM75.2268 92.9593V71.6193H53.8867V92.9593H75.2268ZM110.811 89.1637L95.4839 74.3153L95.4839 74.3154L110.811 89.1637ZM110.574 69.9481L95.0342 84.5738L95.2557 84.8092L95.4843 85.0378L110.574 69.9481ZM72.7359 65.9152H51.3958V87.2552H72.7359V65.9152ZM72.7359 54.4095V33.0695H51.3958V54.4095H72.7359ZM147.107 54.4095H168.447V33.0695H147.107V54.4095ZM147.107 65.9152V87.2552H168.447V65.9152H147.107ZM119.826 65.9152L101.71 54.6357L81.4001 87.2552H119.826V65.9152ZM123.74 59.6286L133.027 40.4151L115.761 32.0699L105.625 48.3491L123.74 59.6286ZM134.534 69.4736L116.027 80.0981L116.07 80.1732L116.114 80.2479L134.534 69.4736ZM133.704 98.1784L151.047 110.613L151.102 110.536L151.156 110.459L133.704 98.1784ZM120.893 107.786L112.968 87.9724L112.919 87.9922L112.869 88.0122L120.893 107.786ZM114.726 137.559L96.7768 149.102L103.077 158.899H114.726V137.559ZM93.1376 103.991V82.6504H54.0415L75.1889 115.534L93.1376 103.991ZM118.047 103.991L135.938 92.3582L129.626 82.6504H118.047V103.991ZM139.872 137.559V158.899H179.201L157.763 125.926L139.872 137.559ZM72.7359 82.4026H51.3958V103.743H72.7359V82.4026ZM72.7359 70.897V49.5569H51.3958V70.897H72.7359ZM147.107 70.897H168.447V49.5569H147.107V70.897ZM147.107 82.4026V103.743H168.447V82.4026H147.107ZM96.5669 111.107V92.9593H53.8867V111.107H96.5669ZM75.2268 114.299H98.2381V71.6193H75.2268V114.299ZM98.2381 114.299C106.211 114.299 117.654 112.77 126.139 104.012L95.4839 74.3154C97.3299 72.4099 99.1118 71.7471 99.662 71.581C100.133 71.4389 99.8019 71.6193 98.2381 71.6193V114.299ZM126.139 104.012C132.583 97.3592 135.828 88.8915 135.828 79.9117H93.1482C93.1482 79.2915 93.2621 78.2682 93.7378 77.0712C94.2186 75.8614 94.8884 74.9301 95.4839 74.3153L126.139 104.012ZM135.828 79.9117C135.828 70.7972 132.666 61.861 125.664 54.8584L95.4843 85.0378C94.7868 84.3403 94.105 83.3638 93.6474 82.1992C93.2045 81.0717 93.1482 80.2204 93.1482 79.9117H135.828ZM126.114 55.3223C117.673 46.3535 106.237 44.5751 97.8822 44.5751V87.2552C99.343 87.2552 99.5832 87.4338 99.0407 87.2614C98.3919 87.0552 96.7174 86.3622 95.0342 84.5738L126.114 55.3223ZM97.8822 44.5751H72.7359V87.2552H97.8822V44.5751ZM94.076 65.9152V54.4095H51.3958V65.9152H94.076ZM72.7359 75.7496H147.107V33.0695H72.7359V75.7496ZM125.767 54.4095V65.9152H168.447V54.4095H125.767ZM147.107 44.5751H119.826V87.2552H147.107V44.5751ZM137.941 77.1947L141.856 70.9081L105.625 48.3491L101.71 54.6357L137.941 77.1947ZM114.454 78.8421C115.616 79.404 115.867 79.8202 116.027 80.0981L153.041 58.8491C148.298 50.5868 141.353 44.4396 133.027 40.4151L114.454 78.8421ZM116.114 80.2479C116.7 81.2501 116.871 82.0109 116.871 82.8771H159.551C159.551 74.254 157.271 66.0792 152.955 58.6994L116.114 80.2479ZM116.871 82.8771C116.871 85.0313 116.392 85.6984 116.252 85.8973L151.156 110.459C157.026 102.118 159.551 92.5844 159.551 82.8771H116.871ZM116.361 85.7438C116.079 86.1368 115.327 87.0287 112.968 87.9724L128.819 127.6C137.53 124.115 145.319 118.602 151.047 110.613L116.361 85.7438ZM112.869 88.0122C110.582 88.9403 106.922 89.7673 101.322 89.7673V132.447C110.904 132.447 120.292 131.06 128.918 127.56L112.869 88.0122ZM101.322 89.7673H75.2268V132.447H101.322V89.7673ZM132.674 126.015L111.086 92.4475L75.1889 115.534L96.7768 149.102L132.674 126.015ZM93.1376 125.331H118.047V82.6504H93.1376V125.331ZM100.156 115.623L121.981 149.191L157.763 125.926L135.938 92.3582L100.156 115.623ZM139.872 116.218H114.726V158.899H139.872V116.218ZM94.076 82.4026V70.897H51.3958V82.4026H94.076ZM72.7359 92.2371H147.107V49.5569H72.7359V92.2371ZM125.767 70.897V82.4026H168.447V70.897H125.767ZM147.107 61.0626H72.7359V103.743H147.107V61.0626ZM203.639 137.559H182.299V158.899H203.639V137.559ZM203.639 62.9498L218.456 47.5915L182.299 12.7113V62.9498H203.639ZM213.722 72.6762V94.0163H266.579L228.538 57.3179L213.722 72.6762ZM188.219 72.6762H166.879V94.0163H188.219V72.6762ZM188.219 54.5282V33.1881H166.879V54.5282H188.219ZM227.125 54.5282H248.465V33.1881H227.125V54.5282ZM227.125 137.559V158.899H248.465V137.559H227.125ZM224.979 137.559V62.9498H182.299V137.559H224.979ZM188.823 78.3081L198.905 88.0345L228.538 57.3179L218.456 47.5915L188.823 78.3081ZM213.722 51.3361H188.219V94.0163H213.722V51.3361ZM209.559 72.6762V54.5282H166.879V72.6762H209.559ZM188.219 75.8682H227.125V33.1881H188.219V75.8682ZM205.785 54.5282V137.559H248.465V54.5282H205.785ZM227.125 116.218H203.639V158.899H227.125V116.218ZM257.286 134.119L245.999 152.23L246.057 152.266L246.116 152.302L257.286 134.119ZM244.357 119.41L225.223 128.859L244.357 119.41ZM244.357 72.6762L225.223 63.2272V63.2273L244.357 72.6762ZM257.286 57.968L246.116 39.7846L246.057 39.8206L245.999 39.8569L257.286 57.968ZM295.005 57.968L283.719 76.0791L283.777 76.1154L283.835 76.1513L295.005 57.968ZM308.053 72.6762L288.919 82.1252V82.1252L308.053 72.6762ZM308.053 119.41L288.919 109.961V109.961L308.053 119.41ZM295.005 134.119L283.835 115.935L283.777 115.971L283.719 116.008L295.005 134.119ZM282.906 117.631L269.575 100.967L269.409 101.101L269.245 101.237L282.906 117.631ZM287.532 110.04L307.868 116.51L307.889 116.445L307.909 116.379L287.532 110.04ZM282.906 74.4554L269.245 90.8493L269.409 90.9859L269.575 91.1192L282.906 74.4554ZM269.503 74.4554L256.172 57.7917L256.005 57.9249L255.841 58.0615L269.503 74.4554ZM264.877 82.0468L244.678 75.1609L244.608 75.3679L244.542 75.5764L264.877 82.0468ZM264.877 110.04L244.5 116.379L244.586 116.654L244.678 116.926L264.877 110.04ZM269.503 117.631L255.841 134.025L256.005 134.162L256.172 134.295L269.503 117.631ZM276.264 117.879C272.701 117.879 270.314 117.077 268.455 115.935L246.116 152.302C255.328 157.961 265.593 160.559 276.264 160.559V117.879ZM268.572 116.008C266.853 114.936 265.097 113.213 263.491 109.961L225.223 128.859C229.943 138.418 236.805 146.5 245.999 152.23L268.572 116.008ZM263.491 109.961C262.131 107.208 260.952 102.84 260.952 96.0433H218.272C218.272 107.593 220.256 118.803 225.223 128.859L263.491 109.961ZM260.952 96.0433C260.952 89.247 262.131 84.8788 263.491 82.1252L225.223 63.2273C220.256 73.284 218.272 84.4939 218.272 96.0433H260.952ZM263.491 82.1252C265.097 78.8733 266.853 77.1502 268.572 76.0791L245.999 39.8569C236.805 45.5863 229.943 53.6687 225.223 63.2272L263.491 82.1252ZM268.455 76.1513C270.314 75.0099 272.701 74.2076 276.264 74.2076V31.5275C265.593 31.5275 255.328 34.1255 246.116 39.7846L268.455 76.1513ZM276.264 74.2076C279.703 74.2076 281.966 74.9869 283.719 76.0791L306.292 39.8569C297.132 34.1485 286.901 31.5275 276.264 31.5275V74.2076ZM283.835 76.1513C285.61 77.2412 287.351 78.9515 288.919 82.1252L327.187 63.2273C322.428 53.5905 315.471 45.4953 306.175 39.7846L283.835 76.1513ZM288.919 82.1252C290.278 84.8788 291.457 89.247 291.457 96.0433H334.137C334.137 84.4939 332.153 73.284 327.187 63.2272L288.919 82.1252ZM291.457 96.0433C291.457 102.84 290.278 107.208 288.919 109.961L327.187 128.859C332.153 118.803 334.137 107.593 334.137 96.0433H291.457ZM288.919 109.961C287.351 113.135 285.61 114.845 283.835 115.935L306.175 152.302C315.471 146.591 322.428 138.496 327.187 128.859L288.919 109.961ZM283.719 116.008C281.966 117.1 279.703 117.879 276.264 117.879V160.559C286.901 160.559 297.132 157.938 306.292 152.23L283.719 116.008ZM276.264 141.344C283.654 141.344 290.735 138.886 296.568 134.025L269.245 101.237C270.124 100.505 271.272 99.8041 272.645 99.3136C274.011 98.8256 275.27 98.6634 276.264 98.6634V141.344ZM296.237 134.295C302.66 129.157 306.022 122.313 307.868 116.51L267.197 103.569C267.046 104.045 267.03 103.922 267.322 103.442C267.63 102.939 268.322 101.97 269.575 100.967L296.237 134.295ZM307.909 116.379C309.904 109.966 310.533 102.923 310.533 96.0433H267.853C267.853 100.709 267.375 102.997 267.156 103.7L307.909 116.379ZM310.533 96.0433C310.533 89.1502 309.918 82.0197 307.868 75.5764L267.197 88.5172C267.361 89.0326 267.853 91.2331 267.853 96.0433H310.533ZM307.868 75.5764C306.022 69.7734 302.66 62.9297 296.237 57.7916L269.575 91.1192C268.322 90.1163 267.63 89.1481 267.322 88.6442C267.03 88.1645 267.046 88.0419 267.197 88.5172L307.868 75.5764ZM296.568 58.0616C290.735 53.2004 283.654 50.7431 276.264 50.7431V93.4232C275.27 93.4232 274.011 93.261 272.645 92.773C271.272 92.2826 270.124 91.582 269.245 90.8493L296.568 58.0616ZM276.264 50.7431C268.885 50.7431 261.931 53.1846 256.172 57.7917L282.834 91.1192C282.058 91.7401 281.017 92.3651 279.741 92.8127C278.466 93.2603 277.261 93.4232 276.264 93.4232V50.7431ZM255.841 58.0615C249.807 63.0905 246.553 69.6611 244.678 75.1609L285.076 88.9327C285.281 88.3307 285.352 88.3068 285.146 88.6442C284.934 88.9932 284.335 89.8744 283.165 90.8493L255.841 58.0615ZM244.542 75.5764C242.491 82.0197 241.876 89.1502 241.876 96.0433H284.556C284.556 91.2331 285.049 89.0326 285.213 88.5172L244.542 75.5764ZM241.876 96.0433C241.876 102.923 242.505 109.966 244.5 116.379L285.254 103.7C285.035 102.997 284.556 100.709 284.556 96.0433H241.876ZM244.678 116.926C246.553 122.426 249.807 128.996 255.841 134.025L283.165 101.237C284.335 102.212 284.934 103.093 285.146 103.442C285.352 103.78 285.281 103.756 285.076 103.154L244.678 116.926ZM256.172 134.295C261.931 138.902 268.885 141.344 276.264 141.344V98.6634C277.261 98.6634 278.466 98.8263 279.741 99.274C281.017 99.7215 282.058 100.347 282.834 100.967L256.172 134.295ZM322.275 134.83L337.13 119.51V119.51L322.275 134.83ZM322.275 115.615L336.629 131.405L336.758 131.288L336.886 131.168L322.275 115.615ZM341.49 115.615L326.879 131.168L327.006 131.288L327.135 131.405L341.49 115.615ZM341.49 134.83L326.634 119.51L341.49 134.83ZM331.882 117.286C332.394 117.286 333.336 117.38 334.475 117.83C335.63 118.286 336.532 118.93 337.13 119.51L307.419 150.15C314.201 156.727 322.813 159.966 331.882 159.966V117.286ZM337.13 119.51C337.836 120.195 338.583 121.205 339.102 122.479C339.609 123.725 339.7 124.731 339.7 125.223H297.02C297.02 134.447 300.369 143.315 307.419 150.15L337.13 119.51ZM339.7 125.223C339.7 125.514 339.649 126.504 339.102 127.847C338.527 129.257 337.634 130.492 336.629 131.405L307.92 99.8244C300.202 106.84 297.02 116.129 297.02 125.223H339.7ZM336.886 131.168C336.26 131.756 335.364 132.365 334.261 132.787C333.181 133.201 332.314 133.278 331.882 133.278V90.5976C323.017 90.5976 314.484 93.6539 307.663 100.061L336.886 131.168ZM331.882 133.278C331.451 133.278 330.584 133.201 329.503 132.787C328.401 132.365 327.505 131.756 326.879 131.168L356.101 100.061C349.281 93.6539 340.748 90.5976 331.882 90.5976V133.278ZM327.135 131.405C326.13 130.492 325.237 129.257 324.663 127.847C324.116 126.504 324.064 125.514 324.064 125.223H366.744C366.744 116.129 363.562 106.84 355.845 99.8244L327.135 131.405ZM324.064 125.223C324.064 124.731 324.155 123.725 324.663 122.479C325.182 121.205 325.928 120.195 326.634 119.51L356.346 150.15C363.395 143.315 366.744 134.447 366.744 125.223H324.064ZM326.634 119.51C327.233 118.93 328.134 118.286 329.29 117.83C330.429 117.38 331.371 117.286 331.882 117.286V159.966C340.952 159.966 349.564 156.727 356.346 150.15L326.634 119.51ZM368.835 134.119L357.548 152.23L357.606 152.266L357.665 152.302L368.835 134.119ZM355.906 119.41L336.771 128.859L355.906 119.41ZM355.906 72.6762L336.771 63.2272V63.2273L355.906 72.6762ZM368.835 57.968L357.665 39.7846L357.606 39.8206L357.548 39.8569L368.835 57.968ZM406.554 57.968L395.267 76.0791L395.326 76.1154L395.384 76.1513L406.554 57.968ZM419.602 72.6762L400.467 82.1252V82.1252L419.602 72.6762ZM419.602 119.41L400.467 109.961V109.961L419.602 119.41ZM406.554 134.119L395.384 115.935L395.326 115.971L395.267 116.008L406.554 134.119ZM394.455 117.631L381.124 100.967L380.958 101.101L380.794 101.237L394.455 117.631ZM399.081 110.04L419.417 116.51L419.438 116.445L419.458 116.379L399.081 110.04ZM394.455 74.4554L380.794 90.8493L380.958 90.9859L381.124 91.1192L394.455 74.4554ZM381.052 74.4554L367.721 57.7917L367.554 57.9249L367.39 58.0615L381.052 74.4554ZM376.426 82.0468L356.227 75.1609L356.157 75.3679L356.09 75.5764L376.426 82.0468ZM376.426 110.04L356.049 116.379L356.135 116.654L356.227 116.926L376.426 110.04ZM381.052 117.631L367.39 134.025L367.554 134.162L367.721 134.295L381.052 117.631ZM387.813 117.879C384.25 117.879 381.862 117.077 380.004 115.935L357.665 152.302C366.877 157.961 377.142 160.559 387.813 160.559V117.879ZM380.121 116.008C378.402 114.936 376.646 113.213 375.04 109.961L336.771 128.859C341.492 138.418 348.354 146.5 357.548 152.23L380.121 116.008ZM375.04 109.961C373.68 107.208 372.501 102.84 372.501 96.0433H329.821C329.821 107.593 331.805 118.803 336.771 128.859L375.04 109.961ZM372.501 96.0433C372.501 89.247 373.68 84.8788 375.04 82.1252L336.771 63.2273C331.805 73.284 329.821 84.4939 329.821 96.0433H372.501ZM375.04 82.1252C376.646 78.8733 378.402 77.1502 380.121 76.0791L357.548 39.8569C348.354 45.5863 341.492 53.6687 336.771 63.2272L375.04 82.1252ZM380.004 76.1513C381.862 75.0099 384.25 74.2076 387.813 74.2076V31.5275C377.142 31.5275 366.877 34.1255 357.665 39.7846L380.004 76.1513ZM387.813 74.2076C391.252 74.2076 393.515 74.9869 395.267 76.0791L417.841 39.8569C408.681 34.1485 398.449 31.5275 387.813 31.5275V74.2076ZM395.384 76.1513C397.158 77.2412 398.9 78.9515 400.467 82.1252L438.736 63.2273C433.977 53.5905 427.02 45.4953 417.724 39.7846L395.384 76.1513ZM400.467 82.1252C401.827 84.8788 403.006 89.247 403.006 96.0433H445.686C445.686 84.4939 443.702 73.284 438.736 63.2272L400.467 82.1252ZM403.006 96.0433C403.006 102.84 401.827 107.208 400.467 109.961L438.736 128.859C443.702 118.803 445.686 107.593 445.686 96.0433H403.006ZM400.467 109.961C398.9 113.135 397.158 114.845 395.384 115.935L417.724 152.302C427.02 146.591 433.977 138.496 438.736 128.859L400.467 109.961ZM395.267 116.008C393.515 117.1 391.252 117.879 387.813 117.879V160.559C398.449 160.559 408.681 157.938 417.841 152.23L395.267 116.008ZM387.813 141.344C395.203 141.344 402.284 138.886 408.117 134.025L380.794 101.237C381.673 100.505 382.821 99.8041 384.194 99.3136C385.56 98.8256 386.819 98.6634 387.813 98.6634V141.344ZM407.786 134.295C414.209 129.157 417.57 122.313 419.417 116.51L378.746 103.569C378.595 104.045 378.579 103.922 378.871 103.442C379.178 102.939 379.871 101.97 381.124 100.967L407.786 134.295ZM419.458 116.379C421.453 109.966 422.082 102.923 422.082 96.0433H379.402C379.402 100.709 378.924 102.997 378.705 103.7L419.458 116.379ZM422.082 96.0433C422.082 89.1502 421.467 82.0197 419.417 75.5764L378.746 88.5172C378.91 89.0326 379.402 91.2331 379.402 96.0433H422.082ZM419.417 75.5764C417.57 69.7734 414.209 62.9297 407.786 57.7916L381.124 91.1192C379.871 90.1163 379.178 89.1481 378.871 88.6442C378.579 88.1645 378.595 88.0419 378.746 88.5172L419.417 75.5764ZM408.117 58.0616C402.284 53.2004 395.203 50.7431 387.813 50.7431V93.4232C386.819 93.4232 385.56 93.261 384.194 92.773C382.821 92.2826 381.673 91.582 380.794 90.8493L408.117 58.0616ZM387.813 50.7431C380.434 50.7431 373.48 53.1846 367.721 57.7917L394.383 91.1192C393.607 91.7401 392.566 92.3651 391.29 92.8127C390.015 93.2603 388.81 93.4232 387.813 93.4232V50.7431ZM367.39 58.0615C361.355 63.0905 358.102 69.6611 356.227 75.1609L396.624 88.9327C396.83 88.3307 396.901 88.3068 396.695 88.6442C396.482 88.9932 395.883 89.8744 394.713 90.8493L367.39 58.0615ZM356.09 75.5764C354.04 82.0197 353.425 89.1502 353.425 96.0433H396.105C396.105 91.2331 396.597 89.0326 396.761 88.5172L356.09 75.5764ZM353.425 96.0433C353.425 102.923 354.054 109.966 356.049 116.379L396.803 103.7C396.584 102.997 396.105 100.709 396.105 96.0433H353.425ZM356.227 116.926C358.102 122.426 361.355 128.996 367.39 134.025L394.713 101.237C395.883 102.212 396.482 103.093 396.695 103.442C396.901 103.78 396.83 103.756 396.624 103.154L356.227 116.926ZM367.721 134.295C373.48 138.902 380.434 141.344 387.813 141.344V98.6634C388.81 98.6634 390.015 98.8263 391.29 99.274C392.566 99.7215 393.607 100.347 394.383 100.967L367.721 134.295ZM450.035 134.119L438.748 152.23L438.806 152.266L438.865 152.302L450.035 134.119ZM437.106 119.41L417.971 128.859L437.106 119.41ZM437.106 72.6762L417.971 63.2272V63.2273L437.106 72.6762ZM450.035 57.968L438.865 39.7846L438.806 39.8206L438.748 39.8569L450.035 57.968ZM487.754 57.968L476.468 76.0791L476.526 76.1154L476.584 76.1513L487.754 57.968ZM500.802 72.6762L481.668 82.1252V82.1252L500.802 72.6762ZM500.802 119.41L481.668 109.961V109.961L500.802 119.41ZM487.754 134.119L476.584 115.935L476.526 115.971L476.468 116.008L487.754 134.119ZM475.655 117.631L462.324 100.967L462.158 101.101L461.994 101.237L475.655 117.631ZM480.281 110.04L500.617 116.51L500.638 116.445L500.658 116.379L480.281 110.04ZM475.655 74.4554L461.994 90.8493L462.158 90.9859L462.324 91.1192L475.655 74.4554ZM462.252 74.4554L448.921 57.7917L448.754 57.9249L448.59 58.0615L462.252 74.4554ZM457.626 82.0468L437.427 75.1609L437.357 75.3679L437.29 75.5764L457.626 82.0468ZM457.626 110.04L437.249 116.379L437.335 116.654L437.427 116.926L457.626 110.04ZM462.252 117.631L448.59 134.025L448.754 134.162L448.921 134.295L462.252 117.631ZM469.013 117.879C465.45 117.879 463.063 117.077 461.204 115.935L438.865 152.302C448.077 157.961 458.342 160.559 469.013 160.559V117.879ZM461.321 116.008C459.602 114.936 457.846 113.213 456.24 109.961L417.971 128.859C422.692 138.418 429.554 146.5 438.748 152.23L461.321 116.008ZM456.24 109.961C454.88 107.208 453.701 102.84 453.701 96.0433H411.021C411.021 107.593 413.005 118.803 417.971 128.859L456.24 109.961ZM453.701 96.0433C453.701 89.247 454.88 84.8788 456.24 82.1252L417.971 63.2273C413.005 73.284 411.021 84.4939 411.021 96.0433H453.701ZM456.24 82.1252C457.846 78.8733 459.602 77.1502 461.321 76.0791L438.748 39.8569C429.554 45.5863 422.692 53.6687 417.971 63.2272L456.24 82.1252ZM461.204 76.1513C463.063 75.0099 465.45 74.2076 469.013 74.2076V31.5275C458.342 31.5275 448.077 34.1255 438.865 39.7846L461.204 76.1513ZM469.013 74.2076C472.452 74.2076 474.715 74.9869 476.468 76.0791L499.041 39.8569C489.881 34.1485 479.65 31.5275 469.013 31.5275V74.2076ZM476.584 76.1513C478.359 77.2412 480.1 78.9515 481.668 82.1252L519.936 63.2273C515.177 53.5905 508.22 45.4953 498.924 39.7846L476.584 76.1513ZM481.668 82.1252C483.027 84.8788 484.206 89.247 484.206 96.0433H526.886C526.886 84.4939 524.902 73.284 519.936 63.2272L481.668 82.1252ZM484.206 96.0433C484.206 102.84 483.027 107.208 481.668 109.961L519.936 128.859C524.902 118.803 526.886 107.593 526.886 96.0433H484.206ZM481.668 109.961C480.1 113.135 478.359 114.845 476.584 115.935L498.924 152.302C508.22 146.591 515.177 138.496 519.936 128.859L481.668 109.961ZM476.468 116.008C474.715 117.1 472.452 117.879 469.013 117.879V160.559C479.65 160.559 489.881 157.938 499.041 152.23L476.468 116.008ZM469.013 141.344C476.403 141.344 483.484 138.886 489.317 134.025L461.994 101.237C462.873 100.505 464.021 99.8041 465.394 99.3136C466.76 98.8256 468.019 98.6634 469.013 98.6634V141.344ZM488.986 134.295C495.409 129.157 498.771 122.313 500.617 116.51L459.946 103.569C459.795 104.045 459.779 103.922 460.071 103.442C460.379 102.939 461.071 101.97 462.324 100.967L488.986 134.295ZM500.658 116.379C502.653 109.966 503.282 102.923 503.282 96.0433H460.602C460.602 100.709 460.124 102.997 459.905 103.7L500.658 116.379ZM503.282 96.0433C503.282 89.1502 502.667 82.0197 500.617 75.5764L459.946 88.5172C460.11 89.0326 460.602 91.2331 460.602 96.0433H503.282ZM500.617 75.5764C498.771 69.7734 495.409 62.9297 488.986 57.7916L462.324 91.1192C461.071 90.1163 460.379 89.1481 460.071 88.6442C459.779 88.1645 459.795 88.0419 459.946 88.5172L500.617 75.5764ZM489.317 58.0616C483.484 53.2004 476.403 50.7431 469.013 50.7431V93.4232C468.019 93.4232 466.76 93.261 465.394 92.773C464.021 92.2826 462.873 91.582 461.994 90.8493L489.317 58.0616ZM469.013 50.7431C461.634 50.7431 454.68 53.1846 448.921 57.7917L475.583 91.1192C474.807 91.7401 473.766 92.3651 472.49 92.8127C471.215 93.2603 470.01 93.4232 469.013 93.4232V50.7431ZM448.59 58.0615C442.556 63.0905 439.302 69.6611 437.427 75.1609L477.825 88.9327C478.03 88.3307 478.101 88.3068 477.895 88.6442C477.683 88.9932 477.084 89.8744 475.914 90.8493L448.59 58.0615ZM437.29 75.5764C435.24 82.0197 434.625 89.1502 434.625 96.0433H477.305C477.305 91.2331 477.798 89.0326 477.962 88.5172L437.29 75.5764ZM434.625 96.0433C434.625 102.923 435.254 109.966 437.249 116.379L478.003 103.7C477.784 102.997 477.305 100.709 477.305 96.0433H434.625ZM437.427 116.926C439.302 122.426 442.556 128.996 448.59 134.025L475.914 101.237C477.084 102.212 477.683 103.093 477.895 103.442C478.101 103.78 478.03 103.756 477.825 103.154L437.427 116.926ZM448.921 134.295C454.68 138.902 461.634 141.344 469.013 141.344V98.6634C470.01 98.6634 471.215 98.8263 472.49 99.274C473.766 99.7215 474.807 100.347 475.583 100.967L448.921 134.295ZM531.235 134.119L519.948 152.23L520.007 152.266L520.065 152.302L531.235 134.119ZM518.306 119.41L499.172 128.859L518.306 119.41ZM518.306 72.6762L499.172 63.2272V63.2273L518.306 72.6762ZM531.235 57.968L520.065 39.7846L520.007 39.8206L519.948 39.8569L531.235 57.968ZM568.954 57.968L557.668 76.0791L557.726 76.1154L557.785 76.1513L568.954 57.968ZM582.002 72.6762L562.868 82.1252V82.1252L582.002 72.6762ZM582.002 119.41L562.868 109.961V109.961L582.002 119.41ZM568.954 134.119L557.785 115.935L557.726 115.971L557.668 116.008L568.954 134.119ZM556.856 117.631L543.525 100.967L543.358 101.101L543.194 101.237L556.856 117.631ZM561.482 110.04L581.817 116.51L581.838 116.445L581.858 116.379L561.482 110.04ZM556.856 74.4554L543.194 90.8493L543.358 90.9859L543.525 91.1192L556.856 74.4554ZM543.452 74.4554L530.121 57.7917L529.954 57.9249L529.791 58.0615L543.452 74.4554ZM538.826 82.0468L518.628 75.1609L518.557 75.3679L518.491 75.5764L538.826 82.0468ZM538.826 110.04L518.449 116.379L518.535 116.654L518.628 116.926L538.826 110.04ZM543.452 117.631L529.791 134.025L529.954 134.162L530.121 134.295L543.452 117.631ZM550.213 117.879C546.65 117.879 544.263 117.077 542.405 115.935L520.065 152.302C529.278 157.961 539.542 160.559 550.213 160.559V117.879ZM542.521 116.008C540.803 114.936 539.046 113.213 537.44 109.961L499.172 128.859C503.892 138.418 510.754 146.5 519.948 152.23L542.521 116.008ZM537.44 109.961C536.08 107.208 534.901 102.84 534.901 96.0433H492.221C492.221 107.593 494.205 118.803 499.172 128.859L537.44 109.961ZM534.901 96.0433C534.901 89.247 536.08 84.8788 537.44 82.1252L499.172 63.2273C494.205 73.284 492.221 84.4939 492.221 96.0433H534.901ZM537.44 82.1252C539.046 78.8733 540.803 77.1502 542.521 76.0791L519.948 39.8569C510.754 45.5863 503.892 53.6687 499.172 63.2272L537.44 82.1252ZM542.405 76.1513C544.263 75.0099 546.65 74.2076 550.213 74.2076V31.5275C539.542 31.5275 529.278 34.1255 520.065 39.7846L542.405 76.1513ZM550.213 74.2076C553.652 74.2076 555.915 74.9869 557.668 76.0791L580.241 39.8569C571.081 34.1485 560.85 31.5275 550.213 31.5275V74.2076ZM557.785 76.1513C559.559 77.2412 561.301 78.9515 562.868 82.1252L601.136 63.2273C596.377 53.5905 589.421 45.4953 580.124 39.7846L557.785 76.1513ZM562.868 82.1252C564.228 84.8788 565.406 89.247 565.406 96.0433H608.087C608.087 84.4939 606.102 73.284 601.136 63.2272L562.868 82.1252ZM565.406 96.0433C565.406 102.84 564.228 107.208 562.868 109.961L601.136 128.859C606.102 118.803 608.087 107.593 608.087 96.0433H565.406ZM562.868 109.961C561.301 113.135 559.559 114.845 557.785 115.935L580.124 152.302C589.421 146.591 596.377 138.496 601.136 128.859L562.868 109.961ZM557.668 116.008C555.915 117.1 553.652 117.879 550.213 117.879V160.559C560.85 160.559 571.081 157.938 580.241 152.23L557.668 116.008ZM550.213 141.344C557.604 141.344 564.684 138.886 570.517 134.025L543.194 101.237C544.073 100.505 545.221 99.8041 546.594 99.3136C547.961 98.8256 549.219 98.6634 550.213 98.6634V141.344ZM570.187 134.295C576.609 129.157 579.971 122.313 581.817 116.51L541.146 103.569C540.995 104.045 540.979 103.922 541.272 103.442C541.579 102.939 542.271 101.97 543.525 100.967L570.187 134.295ZM581.858 116.379C583.854 109.966 584.482 102.923 584.482 96.0433H541.802C541.802 100.709 541.324 102.997 541.105 103.7L581.858 116.379ZM584.482 96.0433C584.482 89.1502 583.867 82.0197 581.817 75.5764L541.146 88.5172C541.31 89.0326 541.802 91.2331 541.802 96.0433H584.482ZM581.817 75.5764C579.971 69.7734 576.609 62.9297 570.187 57.7916L543.525 91.1192C542.271 90.1163 541.579 89.1481 541.272 88.6442C540.979 88.1645 540.995 88.0419 541.146 88.5172L581.817 75.5764ZM570.517 58.0616C564.684 53.2004 557.604 50.7431 550.213 50.7431V93.4232C549.219 93.4232 547.961 93.261 546.594 92.773C545.221 92.2826 544.073 91.582 543.194 90.8493L570.517 58.0616ZM550.213 50.7431C542.834 50.7431 535.88 53.1846 530.121 57.7917L556.783 91.1192C556.007 91.7401 554.966 92.3651 553.691 92.8127C552.415 93.2603 551.21 93.4232 550.213 93.4232V50.7431ZM529.791 58.0615C523.756 63.0905 520.503 69.6611 518.628 75.1609L559.025 88.9327C559.23 88.3307 559.301 88.3068 559.095 88.6442C558.883 88.9932 558.284 89.8744 557.114 90.8493L529.791 58.0615ZM518.491 75.5764C516.441 82.0197 515.826 89.1502 515.826 96.0433H558.506C558.506 91.2331 558.998 89.0326 559.162 88.5172L518.491 75.5764ZM515.826 96.0433C515.826 102.923 516.454 109.966 518.449 116.379L559.203 103.7C558.984 102.997 558.506 100.709 558.506 96.0433H515.826ZM518.628 116.926C520.503 122.426 523.756 128.996 529.791 134.025L557.114 101.237C558.284 102.212 558.883 103.093 559.095 103.442C559.301 103.78 559.23 103.756 559.025 103.154L518.628 116.926ZM530.121 134.295C535.88 138.902 542.834 141.344 550.213 141.344V98.6634C551.21 98.6634 552.415 98.8263 553.691 99.274C554.966 99.7215 556.007 100.347 556.783 100.967L530.121 134.295Z" fill="#FFC940" fill-opacity="0.2" mask="url(#path-1-outside-1_41_10)"/>
</g>
<mask id="path-3-outside-2_41_10" maskUnits="userSpaceOnUse" x="62.652" y="31.5585" width="541" height="121" fill="black">
<rect fill="white" x="62.652" y="31.5585" width="541" height="121"/>
<path d="M78.955 111.107V92.9593H101.966C107.897 92.9593 112.088 91.6941 114.539 89.1637C116.991 86.6332 118.217 83.5492 118.217 79.9117C118.217 75.8788 116.912 72.5576 114.302 69.9481C111.772 67.2595 107.541 65.9152 101.61 65.9152H76.4641V54.4095H150.836V65.9152H123.554L127.468 59.6286C132.213 61.9218 135.811 65.2035 138.262 69.4736C140.714 73.6647 141.939 78.1325 141.939 82.8771C141.939 88.8078 140.437 93.9083 137.432 98.1784C134.427 102.369 130.157 105.572 124.622 107.786C119.165 110 112.642 111.107 105.05 111.107H78.955ZM118.454 137.559L96.8658 103.991H121.775L143.6 137.559H118.454ZM76.4641 82.4026V70.897H150.836V82.4026H76.4641ZM207.368 137.559V62.9498L217.45 72.6762H191.948V54.5282H230.853V137.559H207.368ZM279.992 139.219C272.875 139.219 266.549 137.519 261.014 134.119C255.558 130.718 251.248 125.816 248.085 119.41C244.922 113.005 243.34 105.216 243.34 96.0433C243.34 86.8705 244.922 79.0814 248.085 72.6762C251.248 66.271 255.558 61.3683 261.014 57.968C266.549 54.5677 272.875 52.8675 279.992 52.8675C287.03 52.8675 293.277 54.5677 298.733 57.968C304.269 61.3683 308.618 66.271 311.781 72.6762C314.944 79.0814 316.526 86.8705 316.526 96.0433C316.526 105.216 314.944 113.005 311.781 119.41C308.618 125.816 304.269 130.718 298.733 134.119C293.277 137.519 287.03 139.219 279.992 139.219ZM279.992 120.004C282.523 120.004 284.737 119.213 286.635 117.631C288.612 116.05 290.154 113.519 291.261 110.04C292.368 106.481 292.921 101.816 292.921 96.0433C292.921 90.1917 292.368 85.5262 291.261 82.0468C290.154 78.5674 288.612 76.037 286.635 74.4554C284.737 72.8739 282.523 72.0831 279.992 72.0831C277.462 72.0831 275.208 72.8739 273.231 74.4554C271.333 76.037 269.791 78.5674 268.605 82.0468C267.498 85.5262 266.945 90.1917 266.945 96.0433C266.945 101.816 267.498 106.481 268.605 110.04C269.791 113.519 271.333 116.05 273.231 117.631C275.208 119.213 277.462 120.004 279.992 120.004ZM335.611 138.626C331.815 138.626 328.612 137.361 326.003 134.83C323.393 132.3 322.088 129.097 322.088 125.223C322.088 121.19 323.393 117.987 326.003 115.615C328.612 113.163 331.815 111.938 335.611 111.938C339.406 111.938 342.609 113.163 345.218 115.615C347.828 117.987 349.133 121.19 349.133 125.223C349.133 129.097 347.828 132.3 345.218 134.83C342.609 137.361 339.406 138.626 335.611 138.626ZM391.541 139.219C384.424 139.219 378.098 137.519 372.563 134.119C367.106 130.718 362.797 125.816 359.634 119.41C356.471 113.005 354.889 105.216 354.889 96.0433C354.889 86.8705 356.471 79.0814 359.634 72.6762C362.797 66.271 367.106 61.3683 372.563 57.968C378.098 54.5677 384.424 52.8675 391.541 52.8675C398.579 52.8675 404.826 54.5677 410.282 57.968C415.818 61.3683 420.167 66.271 423.33 72.6762C426.493 79.0814 428.074 86.8705 428.074 96.0433C428.074 105.216 426.493 113.005 423.33 119.41C420.167 125.816 415.818 130.718 410.282 134.119C404.826 137.519 398.579 139.219 391.541 139.219ZM391.541 120.004C394.072 120.004 396.286 119.213 398.184 117.631C400.16 116.05 401.702 113.519 402.81 110.04C403.917 106.481 404.47 101.816 404.47 96.0433C404.47 90.1917 403.917 85.5262 402.81 82.0468C401.702 78.5674 400.16 76.037 398.184 74.4554C396.286 72.8739 394.072 72.0831 391.541 72.0831C389.011 72.0831 386.757 72.8739 384.78 74.4554C382.882 76.037 381.34 78.5674 380.154 82.0468C379.047 85.5262 378.493 90.1917 378.493 96.0433C378.493 101.816 379.047 106.481 380.154 110.04C381.34 113.519 382.882 116.05 384.78 117.631C386.757 119.213 389.011 120.004 391.541 120.004ZM472.741 139.219C465.624 139.219 459.298 137.519 453.763 134.119C448.307 130.718 443.997 125.816 440.834 119.41C437.671 113.005 436.089 105.216 436.089 96.0433C436.089 86.8705 437.671 79.0814 440.834 72.6762C443.997 66.271 448.307 61.3683 453.763 57.968C459.298 54.5677 465.624 52.8675 472.741 52.8675C479.779 52.8675 486.026 54.5677 491.482 57.968C497.018 61.3683 501.367 66.271 504.53 72.6762C507.693 79.0814 509.275 86.8705 509.275 96.0433C509.275 105.216 507.693 113.005 504.53 119.41C501.367 125.816 497.018 130.718 491.482 134.119C486.026 137.519 479.779 139.219 472.741 139.219ZM472.741 120.004C475.272 120.004 477.486 119.213 479.384 117.631C481.361 116.05 482.903 113.519 484.01 110.04C485.117 106.481 485.67 101.816 485.67 96.0433C485.67 90.1917 485.117 85.5262 484.01 82.0468C482.903 78.5674 481.361 76.037 479.384 74.4554C477.486 72.8739 475.272 72.0831 472.741 72.0831C470.211 72.0831 467.957 72.8739 465.98 74.4554C464.082 76.037 462.54 78.5674 461.354 82.0468C460.247 85.5262 459.694 90.1917 459.694 96.0433C459.694 101.816 460.247 106.481 461.354 110.04C462.54 113.519 464.082 116.05 465.98 117.631C467.957 119.213 470.211 120.004 472.741 120.004ZM553.941 139.219C546.825 139.219 540.498 137.519 534.963 134.119C529.507 130.718 525.197 125.816 522.034 119.41C518.871 113.005 517.289 105.216 517.289 96.0433C517.289 86.8705 518.871 79.0814 522.034 72.6762C525.197 66.271 529.507 61.3683 534.963 57.968C540.498 54.5677 546.825 52.8675 553.941 52.8675C560.979 52.8675 567.226 54.5677 572.683 57.968C578.218 61.3683 582.567 66.271 585.73 72.6762C588.893 79.0814 590.475 86.8705 590.475 96.0433C590.475 105.216 588.893 113.005 585.73 119.41C582.567 125.816 578.218 130.718 572.683 134.119C567.226 137.519 560.979 139.219 553.941 139.219ZM553.941 120.004C556.472 120.004 558.686 119.213 560.584 117.631C562.561 116.05 564.103 113.519 565.21 110.04C566.317 106.481 566.87 101.816 566.87 96.0433C566.87 90.1917 566.317 85.5262 565.21 82.0468C564.103 78.5674 562.561 76.037 560.584 74.4554C558.686 72.8739 556.472 72.0831 553.941 72.0831C551.411 72.0831 549.157 72.8739 547.18 74.4554C545.283 76.037 543.741 78.5674 542.554 82.0468C541.447 85.5262 540.894 90.1917 540.894 96.0433C540.894 101.816 541.447 106.481 542.554 110.04C543.741 113.519 545.283 116.05 547.18 117.631C549.157 119.213 551.411 120.004 553.941 120.004Z"/>
</mask>
<path d="M78.955 111.107V92.9593H101.966C107.897 92.9593 112.088 91.6941 114.539 89.1637C116.991 86.6332 118.217 83.5492 118.217 79.9117C118.217 75.8788 116.912 72.5576 114.302 69.9481C111.772 67.2595 107.541 65.9152 101.61 65.9152H76.4641V54.4095H150.836V65.9152H123.554L127.468 59.6286C132.213 61.9218 135.811 65.2035 138.262 69.4736C140.714 73.6647 141.939 78.1325 141.939 82.8771C141.939 88.8078 140.437 93.9083 137.432 98.1784C134.427 102.369 130.157 105.572 124.622 107.786C119.165 110 112.642 111.107 105.05 111.107H78.955ZM118.454 137.559L96.8658 103.991H121.775L143.6 137.559H118.454ZM76.4641 82.4026V70.897H150.836V82.4026H76.4641ZM207.368 137.559V62.9498L217.45 72.6762H191.948V54.5282H230.853V137.559H207.368ZM279.992 139.219C272.875 139.219 266.549 137.519 261.014 134.119C255.558 130.718 251.248 125.816 248.085 119.41C244.922 113.005 243.34 105.216 243.34 96.0433C243.34 86.8705 244.922 79.0814 248.085 72.6762C251.248 66.271 255.558 61.3683 261.014 57.968C266.549 54.5677 272.875 52.8675 279.992 52.8675C287.03 52.8675 293.277 54.5677 298.733 57.968C304.269 61.3683 308.618 66.271 311.781 72.6762C314.944 79.0814 316.526 86.8705 316.526 96.0433C316.526 105.216 314.944 113.005 311.781 119.41C308.618 125.816 304.269 130.718 298.733 134.119C293.277 137.519 287.03 139.219 279.992 139.219ZM279.992 120.004C282.523 120.004 284.737 119.213 286.635 117.631C288.612 116.05 290.154 113.519 291.261 110.04C292.368 106.481 292.921 101.816 292.921 96.0433C292.921 90.1917 292.368 85.5262 291.261 82.0468C290.154 78.5674 288.612 76.037 286.635 74.4554C284.737 72.8739 282.523 72.0831 279.992 72.0831C277.462 72.0831 275.208 72.8739 273.231 74.4554C271.333 76.037 269.791 78.5674 268.605 82.0468C267.498 85.5262 266.945 90.1917 266.945 96.0433C266.945 101.816 267.498 106.481 268.605 110.04C269.791 113.519 271.333 116.05 273.231 117.631C275.208 119.213 277.462 120.004 279.992 120.004ZM335.611 138.626C331.815 138.626 328.612 137.361 326.003 134.83C323.393 132.3 322.088 129.097 322.088 125.223C322.088 121.19 323.393 117.987 326.003 115.615C328.612 113.163 331.815 111.938 335.611 111.938C339.406 111.938 342.609 113.163 345.218 115.615C347.828 117.987 349.133 121.19 349.133 125.223C349.133 129.097 347.828 132.3 345.218 134.83C342.609 137.361 339.406 138.626 335.611 138.626ZM391.541 139.219C384.424 139.219 378.098 137.519 372.563 134.119C367.106 130.718 362.797 125.816 359.634 119.41C356.471 113.005 354.889 105.216 354.889 96.0433C354.889 86.8705 356.471 79.0814 359.634 72.6762C362.797 66.271 367.106 61.3683 372.563 57.968C378.098 54.5677 384.424 52.8675 391.541 52.8675C398.579 52.8675 404.826 54.5677 410.282 57.968C415.818 61.3683 420.167 66.271 423.33 72.6762C426.493 79.0814 428.074 86.8705 428.074 96.0433C428.074 105.216 426.493 113.005 423.33 119.41C420.167 125.816 415.818 130.718 410.282 134.119C404.826 137.519 398.579 139.219 391.541 139.219ZM391.541 120.004C394.072 120.004 396.286 119.213 398.184 117.631C400.16 116.05 401.702 113.519 402.81 110.04C403.917 106.481 404.47 101.816 404.47 96.0433C404.47 90.1917 403.917 85.5262 402.81 82.0468C401.702 78.5674 400.16 76.037 398.184 74.4554C396.286 72.8739 394.072 72.0831 391.541 72.0831C389.011 72.0831 386.757 72.8739 384.78 74.4554C382.882 76.037 381.34 78.5674 380.154 82.0468C379.047 85.5262 378.493 90.1917 378.493 96.0433C378.493 101.816 379.047 106.481 380.154 110.04C381.34 113.519 382.882 116.05 384.78 117.631C386.757 119.213 389.011 120.004 391.541 120.004ZM472.741 139.219C465.624 139.219 459.298 137.519 453.763 134.119C448.307 130.718 443.997 125.816 440.834 119.41C437.671 113.005 436.089 105.216 436.089 96.0433C436.089 86.8705 437.671 79.0814 440.834 72.6762C443.997 66.271 448.307 61.3683 453.763 57.968C459.298 54.5677 465.624 52.8675 472.741 52.8675C479.779 52.8675 486.026 54.5677 491.482 57.968C497.018 61.3683 501.367 66.271 504.53 72.6762C507.693 79.0814 509.275 86.8705 509.275 96.0433C509.275 105.216 507.693 113.005 504.53 119.41C501.367 125.816 497.018 130.718 491.482 134.119C486.026 137.519 479.779 139.219 472.741 139.219ZM472.741 120.004C475.272 120.004 477.486 119.213 479.384 117.631C481.361 116.05 482.903 113.519 484.01 110.04C485.117 106.481 485.67 101.816 485.67 96.0433C485.67 90.1917 485.117 85.5262 484.01 82.0468C482.903 78.5674 481.361 76.037 479.384 74.4554C477.486 72.8739 475.272 72.0831 472.741 72.0831C470.211 72.0831 467.957 72.8739 465.98 74.4554C464.082 76.037 462.54 78.5674 461.354 82.0468C460.247 85.5262 459.694 90.1917 459.694 96.0433C459.694 101.816 460.247 106.481 461.354 110.04C462.54 113.519 464.082 116.05 465.98 117.631C467.957 119.213 470.211 120.004 472.741 120.004ZM553.941 139.219C546.825 139.219 540.498 137.519 534.963 134.119C529.507 130.718 525.197 125.816 522.034 119.41C518.871 113.005 517.289 105.216 517.289 96.0433C517.289 86.8705 518.871 79.0814 522.034 72.6762C525.197 66.271 529.507 61.3683 534.963 57.968C540.498 54.5677 546.825 52.8675 553.941 52.8675C560.979 52.8675 567.226 54.5677 572.683 57.968C578.218 61.3683 582.567 66.271 585.73 72.6762C588.893 79.0814 590.475 86.8705 590.475 96.0433C590.475 105.216 588.893 113.005 585.73 119.41C582.567 125.816 578.218 130.718 572.683 134.119C567.226 137.519 560.979 139.219 553.941 139.219ZM553.941 120.004C556.472 120.004 558.686 119.213 560.584 117.631C562.561 116.05 564.103 113.519 565.21 110.04C566.317 106.481 566.87 101.816 566.87 96.0433C566.87 90.1917 566.317 85.5262 565.21 82.0468C564.103 78.5674 562.561 76.037 560.584 74.4554C558.686 72.8739 556.472 72.0831 553.941 72.0831C551.411 72.0831 549.157 72.8739 547.18 74.4554C545.283 76.037 543.741 78.5674 542.554 82.0468C541.447 85.5262 540.894 90.1917 540.894 96.0433C540.894 101.816 541.447 106.481 542.554 110.04C543.741 113.519 545.283 116.05 547.18 117.631C549.157 119.213 551.411 120.004 553.941 120.004Z" fill="black"/>
<path d="M78.955 111.107H65.8227V124.24H78.955V111.107ZM78.955 92.9593V79.827H65.8227V92.9593H78.955ZM114.539 89.1637L105.107 80.0262L105.107 80.0262L114.539 89.1637ZM114.302 69.9481L104.739 78.9485L104.876 79.0934L105.016 79.234L114.302 69.9481ZM76.4641 65.9152H63.3317V79.0475H76.4641V65.9152ZM76.4641 54.4095V41.2772H63.3317V54.4095H76.4641ZM150.836 54.4095H163.968V41.2772H150.836V54.4095ZM150.836 65.9152V79.0475H163.968V65.9152H150.836ZM123.554 65.9152L112.406 58.974L99.9075 79.0475H123.554V65.9152ZM127.468 59.6286L133.183 47.8049L122.558 42.6694L116.32 52.6874L127.468 59.6286ZM138.262 69.4736L126.873 76.0118L126.9 76.058L126.927 76.1039L138.262 69.4736ZM137.432 98.1784L148.105 105.83L148.138 105.783L148.172 105.736L137.432 98.1784ZM124.622 107.786L119.744 95.5931L119.714 95.6053L119.684 95.6176L124.622 107.786ZM118.454 137.559L107.408 144.662L111.286 150.691H118.454V137.559ZM96.8658 103.991V90.8582H72.8067L85.8205 111.094L96.8658 103.991ZM121.775 103.991L132.785 96.8322L128.901 90.8582H121.775V103.991ZM143.6 137.559V150.691H167.802L154.61 130.4L143.6 137.559ZM76.4641 82.4026H63.3317V95.535H76.4641V82.4026ZM76.4641 70.897V57.7646H63.3317V70.897H76.4641ZM150.836 70.897H163.968V57.7646H150.836V70.897ZM150.836 82.4026V95.535H163.968V82.4026H150.836ZM78.955 111.107H92.0874V92.9593H78.955H65.8227V111.107H78.955ZM78.955 92.9593V106.092H101.966V92.9593V79.827H78.955V92.9593ZM101.966 92.9593V106.092C109.154 106.092 117.808 104.664 123.972 98.3011L114.539 89.1637L105.107 80.0262C105.772 79.3403 106.23 79.2974 105.762 79.4385C105.246 79.5943 104.069 79.827 101.966 79.827V92.9593ZM114.539 89.1637L123.972 98.3011C128.881 93.2338 131.349 86.8368 131.349 79.9117H118.217H105.084C105.084 80.0817 105.07 80.1656 105.067 80.1802C105.066 80.1884 105.066 80.1835 105.071 80.1678C105.075 80.152 105.083 80.1296 105.093 80.1026C105.104 80.0756 105.116 80.0487 105.13 80.0235C105.143 79.9983 105.154 79.9793 105.162 79.967C105.18 79.94 105.171 79.9609 105.107 80.0262L114.539 89.1637ZM118.217 79.9117H131.349C131.349 72.7517 128.901 65.9751 123.588 60.6621L114.302 69.9481L105.016 79.234C105.067 79.2847 105.071 79.2979 105.054 79.2725C105.037 79.2461 105.022 79.2165 105.015 79.198C104.993 79.1429 105.084 79.3261 105.084 79.9117H118.217ZM114.302 69.9481L123.865 60.9476C117.697 54.3942 109.033 52.7828 101.61 52.7828V65.9152V79.0475C103.65 79.0475 104.775 79.2867 105.254 79.4391C105.669 79.5707 105.288 79.5321 104.739 78.9485L114.302 69.9481ZM101.61 65.9152V52.7828H76.4641V65.9152V79.0475H101.61V65.9152ZM76.4641 65.9152H89.5965V54.4095H76.4641H63.3317V65.9152H76.4641ZM76.4641 54.4095V67.5419H150.836V54.4095V41.2772H76.4641V54.4095ZM150.836 54.4095H137.703V65.9152H150.836H163.968V54.4095H150.836ZM150.836 65.9152V52.7828H123.554V65.9152V79.0475H150.836V65.9152ZM123.554 65.9152L134.702 72.8564L138.616 66.5698L127.468 59.6286L116.32 52.6874L112.406 58.974L123.554 65.9152ZM127.468 59.6286L121.754 71.4523C124.294 72.6801 125.832 74.1984 126.873 76.0118L138.262 69.4736L149.651 62.9354C145.79 56.2086 140.132 51.1635 133.183 47.8049L127.468 59.6286ZM138.262 69.4736L126.927 76.1039C128.23 78.3327 128.807 80.5192 128.807 82.8771H141.939H155.072C155.072 75.7458 153.197 68.9967 149.598 62.8433L138.262 69.4736ZM141.939 82.8771H128.807C128.807 86.4838 127.934 88.856 126.692 90.6208L137.432 98.1784L148.172 105.736C152.94 98.9605 155.072 91.1318 155.072 82.8771H141.939ZM137.432 98.1784L126.759 90.5263C125.43 92.3801 123.325 94.1607 119.744 95.5931L124.622 107.786L129.499 119.979C136.989 116.983 143.424 112.359 148.105 105.83L137.432 98.1784ZM124.622 107.786L119.684 95.6176C116.178 97.0403 111.416 97.9751 105.05 97.9751V111.107V124.24C113.867 124.24 122.153 122.96 129.56 119.955L124.622 107.786ZM105.05 111.107V97.9751H78.955V111.107V124.24H105.05V111.107ZM118.454 137.559L129.499 130.455L107.911 96.8871L96.8658 103.991L85.8205 111.094L107.408 144.662L118.454 137.559ZM96.8658 103.991V117.123H121.775V103.991V90.8582H96.8658V103.991ZM121.775 103.991L110.765 111.149L132.59 144.717L143.6 137.559L154.61 130.4L132.785 96.8322L121.775 103.991ZM143.6 137.559V124.426H118.454V137.559V150.691H143.6V137.559ZM76.4641 82.4026H89.5965V70.897H76.4641H63.3317V82.4026H76.4641ZM76.4641 70.897V84.0293H150.836V70.897V57.7646H76.4641V70.897ZM150.836 70.897H137.703V82.4026H150.836H163.968V70.897H150.836ZM150.836 82.4026V69.2703H76.4641V82.4026V95.535H150.836V82.4026ZM207.368 137.559H194.235V150.691H207.368V137.559ZM207.368 62.9498L216.485 53.4985L194.235 32.0338V62.9498H207.368ZM217.45 72.6762V85.8086H249.977L226.568 63.2249L217.45 72.6762ZM191.948 72.6762H178.815V85.8086H191.948V72.6762ZM191.948 54.5282V41.3958H178.815V54.5282H191.948ZM230.853 54.5282H243.986V41.3958H230.853V54.5282ZM230.853 137.559V150.691H243.986V137.559H230.853ZM207.368 137.559H220.5V62.9498H207.368H194.235V137.559H207.368ZM207.368 62.9498L198.25 72.4011L208.332 82.1275L217.45 72.6762L226.568 63.2249L216.485 53.4985L207.368 62.9498ZM217.45 72.6762V59.5439H191.948V72.6762V85.8086H217.45V72.6762ZM191.948 72.6762H205.08V54.5282H191.948H178.815V72.6762H191.948ZM191.948 54.5282V67.6605H230.853V54.5282V41.3958H191.948V54.5282ZM230.853 54.5282H217.721V137.559H230.853H243.986V54.5282H230.853ZM230.853 137.559V124.426H207.368V137.559V150.691H230.853V137.559ZM261.014 134.119L254.068 145.264L254.104 145.286L254.14 145.308L261.014 134.119ZM248.085 119.41L236.31 125.225L248.085 119.41ZM248.085 72.6762L236.31 66.8615L236.31 66.8615L248.085 72.6762ZM261.014 57.968L254.14 46.7782L254.104 46.8004L254.068 46.8227L261.014 57.968ZM298.733 57.968L291.788 69.1133L291.824 69.1356L291.86 69.1577L298.733 57.968ZM311.781 72.6762L300.006 78.491L311.781 72.6762ZM311.781 119.41L300.006 113.596V113.596L311.781 119.41ZM298.733 134.119L291.86 122.929L291.824 122.951L291.788 122.973L298.733 134.119ZM286.635 117.631L278.431 107.377L278.328 107.459L278.228 107.543L286.635 117.631ZM291.261 110.04L303.775 114.022L303.788 113.981L303.8 113.941L291.261 110.04ZM286.635 74.4554L278.228 84.544L278.328 84.6281L278.431 84.7101L286.635 74.4554ZM273.231 74.4554L265.027 64.2008L264.925 64.2828L264.824 64.3669L273.231 74.4554ZM268.605 82.0468L256.175 77.8093L256.132 77.9367L256.091 78.065L268.605 82.0468ZM268.605 110.04L256.066 113.941L256.118 114.11L256.175 114.277L268.605 110.04ZM273.231 117.631L264.824 127.72L264.925 127.804L265.027 127.886L273.231 117.631ZM279.992 139.219V126.087C275.062 126.087 271.16 124.939 267.888 122.929L261.014 134.119L254.14 145.308C261.938 150.099 270.688 152.351 279.992 152.351V139.219ZM261.014 134.119L267.959 122.973C264.803 121.006 262.064 118.06 259.86 113.596L248.085 119.41L236.31 125.225C240.431 133.571 246.312 140.43 254.068 145.264L261.014 134.119ZM248.085 119.41L259.86 113.596C257.806 109.438 256.473 103.754 256.473 96.0433H243.34H230.208C230.208 106.679 232.037 116.573 236.31 125.225L248.085 119.41ZM243.34 96.0433H256.473C256.473 88.3329 257.806 82.6491 259.86 78.491L248.085 72.6762L236.31 66.8615C232.037 75.5138 230.208 85.408 230.208 96.0433H243.34ZM248.085 72.6762L259.86 78.491C262.064 74.0263 264.803 71.0802 267.959 69.1133L261.014 57.968L254.068 46.8227C246.312 51.6563 240.431 58.5157 236.31 66.8615L248.085 72.6762ZM261.014 57.968L267.888 69.1577C271.16 67.1475 275.062 65.9999 279.992 65.9999V52.8675V39.7352C270.688 39.7352 261.938 41.9879 254.14 46.7782L261.014 57.968ZM279.992 52.8675V65.9999C284.815 65.9999 288.611 67.1334 291.788 69.1133L298.733 57.968L305.679 46.8227C297.943 42.002 289.245 39.7352 279.992 39.7352V52.8675ZM298.733 57.968L291.86 69.1577C295.08 71.1362 297.825 74.0744 300.006 78.491L311.781 72.6762L323.556 66.8615C319.411 58.4676 313.457 51.6003 305.607 46.7782L298.733 57.968ZM311.781 72.6762L300.006 78.491C302.06 82.6491 303.393 88.3329 303.393 96.0433H316.526H329.658C329.658 85.408 327.829 75.5138 323.556 66.8615L311.781 72.6762ZM316.526 96.0433H303.393C303.393 103.754 302.06 109.438 300.006 113.596L311.781 119.41L323.556 125.225C327.829 116.573 329.658 106.679 329.658 96.0433H316.526ZM311.781 119.41L300.006 113.596C297.825 118.012 295.08 120.95 291.86 122.929L298.733 134.119L305.607 145.308C313.457 140.486 319.411 133.619 323.556 125.225L311.781 119.41ZM298.733 134.119L291.788 122.973C288.611 124.953 284.815 126.087 279.992 126.087V139.219V152.351C289.245 152.351 297.943 150.085 305.679 145.264L298.733 134.119ZM279.992 120.004V133.136C285.513 133.136 290.722 131.32 295.042 127.72L286.635 117.631L278.228 107.543C278.404 107.396 278.714 107.193 279.134 107.043C279.549 106.895 279.867 106.871 279.992 106.871V120.004ZM286.635 117.631L294.838 127.886C299.551 124.116 302.213 118.931 303.775 114.022L291.261 110.04L278.746 106.058C278.441 107.02 278.176 107.522 278.06 107.714C277.952 107.89 278.04 107.69 278.431 107.377L286.635 117.631ZM291.261 110.04L303.8 113.941C305.454 108.626 306.054 102.497 306.054 96.0433H292.921H279.789C279.789 101.135 279.282 104.337 278.721 106.139L291.261 110.04ZM292.921 96.0433H306.054C306.054 89.5508 305.462 83.3684 303.775 78.065L291.261 82.0468L278.746 86.0286C279.273 87.6839 279.789 90.8325 279.789 96.0433H292.921ZM291.261 82.0468L303.775 78.065C302.213 73.1557 299.551 67.971 294.838 64.2008L286.635 74.4554L278.431 84.7101C278.04 84.3971 277.952 84.1966 278.06 84.3731C278.176 84.5645 278.441 85.067 278.746 86.0286L291.261 82.0468ZM286.635 74.4554L295.042 64.3669C290.722 60.7671 285.513 58.9508 279.992 58.9508V72.0831V85.2155C279.867 85.2155 279.549 85.1917 279.134 85.0435C278.714 84.8937 278.404 84.6907 278.228 84.544L286.635 74.4554ZM279.992 72.0831V58.9508C274.478 58.9508 269.332 60.7574 265.027 64.2008L273.231 74.4554L281.435 84.7101C281.338 84.788 281.104 84.9445 280.752 85.0679C280.4 85.1913 280.119 85.2155 279.992 85.2155V72.0831ZM273.231 74.4554L264.824 64.3669C260.38 68.0699 257.785 73.0866 256.175 77.8093L268.605 82.0468L281.035 86.2843C281.39 85.2447 281.696 84.6521 281.866 84.3731C282.031 84.1013 281.993 84.2481 281.638 84.544L273.231 74.4554ZM268.605 82.0468L256.091 78.065C254.404 83.3684 253.812 89.5508 253.812 96.0433H266.945H280.077C280.077 90.8325 280.593 87.6839 281.119 86.0286L268.605 82.0468ZM266.945 96.0433H253.812C253.812 102.497 254.412 108.626 256.066 113.941L268.605 110.04L281.145 106.139C280.584 104.337 280.077 101.135 280.077 96.0433H266.945ZM268.605 110.04L256.175 114.277C257.785 119 260.38 124.017 264.824 127.72L273.231 117.631L281.638 107.543C281.993 107.839 282.031 107.985 281.866 107.714C281.696 107.435 281.39 106.842 281.035 105.802L268.605 110.04ZM273.231 117.631L265.027 127.886C269.332 131.329 274.478 133.136 279.992 133.136V120.004V106.871C280.119 106.871 280.4 106.895 280.752 107.019C281.104 107.142 281.337 107.299 281.435 107.377L273.231 117.631ZM326.003 134.83L335.145 125.403L326.003 134.83ZM326.003 115.615L334.836 125.332L334.916 125.26L334.994 125.186L326.003 115.615ZM345.218 115.615L336.227 125.186L336.305 125.26L336.385 125.332L345.218 115.615ZM345.218 134.83L336.076 125.403L345.218 134.83ZM335.611 138.626V125.494C335.393 125.494 335.265 125.476 335.211 125.466C335.16 125.457 335.158 125.452 335.187 125.463C335.217 125.475 335.242 125.489 335.252 125.496C335.26 125.501 335.223 125.479 335.145 125.403L326.003 134.83L316.861 144.258C322.038 149.278 328.569 151.758 335.611 151.758V138.626ZM326.003 134.83L335.145 125.403C335.097 125.356 335.104 125.355 335.136 125.402C335.151 125.423 335.168 125.451 335.185 125.483C335.202 125.515 335.217 125.547 335.229 125.576C335.254 125.638 335.255 125.661 335.248 125.622C335.24 125.58 335.221 125.453 335.221 125.223H322.088H308.956C308.956 132.389 311.519 139.078 316.861 144.258L326.003 134.83ZM322.088 125.223H335.221C335.221 124.921 335.245 124.749 335.257 124.684C335.268 124.622 335.268 124.654 335.229 124.751C335.188 124.85 335.125 124.972 335.038 125.096C334.952 125.219 334.875 125.297 334.836 125.332L326.003 115.615L317.169 105.898C311.416 111.127 308.956 118.076 308.956 125.223H322.088ZM326.003 115.615L334.994 125.186C335.065 125.12 335.098 125.1 335.092 125.104C335.086 125.108 335.07 125.116 335.056 125.122C335.043 125.127 335.065 125.116 335.141 125.103C335.218 125.089 335.37 125.07 335.611 125.07V111.938V98.8054C328.695 98.8054 322.212 101.158 317.011 106.043L326.003 115.615ZM335.611 111.938V125.07C335.851 125.07 336.003 125.089 336.081 125.103C336.156 125.116 336.178 125.127 336.165 125.122C336.151 125.116 336.135 125.108 336.129 125.104C336.123 125.1 336.157 125.12 336.227 125.186L345.218 115.615L354.21 106.043C349.009 101.158 342.526 98.8054 335.611 98.8054V111.938ZM345.218 115.615L336.385 125.332C336.346 125.297 336.269 125.219 336.183 125.096C336.096 124.972 336.033 124.85 335.992 124.751C335.953 124.654 335.953 124.622 335.964 124.684C335.976 124.749 336 124.921 336 125.223H349.133H362.265C362.265 118.076 359.805 111.127 354.052 105.898L345.218 115.615ZM349.133 125.223H336C336 125.453 335.981 125.58 335.973 125.622C335.966 125.661 335.967 125.638 335.992 125.576C336.004 125.547 336.019 125.515 336.036 125.483C336.053 125.451 336.07 125.423 336.085 125.402C336.117 125.355 336.124 125.356 336.076 125.403L345.218 134.83L354.36 144.258C359.702 139.078 362.265 132.389 362.265 125.223H349.133ZM345.218 134.83L336.076 125.403C335.998 125.479 335.961 125.501 335.969 125.496C335.979 125.489 336.004 125.475 336.034 125.463C336.063 125.452 336.061 125.457 336.01 125.466C335.956 125.476 335.828 125.494 335.611 125.494V138.626V151.758C342.652 151.758 349.183 149.278 354.36 144.258L345.218 134.83ZM372.563 134.119L365.617 145.264L365.653 145.286L365.689 145.308L372.563 134.119ZM359.634 119.41L347.859 125.225L359.634 119.41ZM359.634 72.6762L347.859 66.8615V66.8615L359.634 72.6762ZM372.563 57.968L365.689 46.7782L365.653 46.8004L365.617 46.8227L372.563 57.968ZM410.282 57.968L403.337 69.1133L403.372 69.1356L403.409 69.1577L410.282 57.968ZM423.33 72.6762L411.555 78.491L423.33 72.6762ZM423.33 119.41L411.555 113.596V113.596L423.33 119.41ZM410.282 134.119L403.409 122.929L403.372 122.951L403.337 122.973L410.282 134.119ZM398.184 117.631L389.98 107.377L389.877 107.459L389.776 107.543L398.184 117.631ZM402.81 110.04L415.324 114.022L415.336 113.981L415.349 113.941L402.81 110.04ZM398.184 74.4554L389.776 84.544L389.877 84.6281L389.98 84.7101L398.184 74.4554ZM384.78 74.4554L376.576 64.2008L376.474 64.2828L376.373 64.3669L384.78 74.4554ZM380.154 82.0468L367.724 77.8093L367.681 77.9367L367.64 78.065L380.154 82.0468ZM380.154 110.04L367.615 113.941L367.667 114.11L367.724 114.277L380.154 110.04ZM384.78 117.631L376.373 127.72L376.474 127.804L376.576 127.886L384.78 117.631ZM391.541 139.219V126.087C386.611 126.087 382.709 124.939 379.436 122.929L372.563 134.119L365.689 145.308C373.487 150.099 382.237 152.351 391.541 152.351V139.219ZM372.563 134.119L379.508 122.973C376.352 121.006 373.613 118.06 371.409 113.596L359.634 119.41L347.859 125.225C351.98 133.571 357.861 140.43 365.617 145.264L372.563 134.119ZM359.634 119.41L371.409 113.596C369.355 109.438 368.021 103.754 368.021 96.0433H354.889H341.757C341.757 106.679 343.586 116.573 347.859 125.225L359.634 119.41ZM354.889 96.0433H368.021C368.021 88.3329 369.355 82.6491 371.409 78.491L359.634 72.6762L347.859 66.8615C343.586 75.5138 341.757 85.408 341.757 96.0433H354.889ZM359.634 72.6762L371.409 78.491C373.613 74.0263 376.352 71.0802 379.508 69.1133L372.563 57.968L365.617 46.8227C357.861 51.6563 351.98 58.5157 347.859 66.8615L359.634 72.6762ZM372.563 57.968L379.436 69.1577C382.709 67.1475 386.611 65.9999 391.541 65.9999V52.8675V39.7352C382.237 39.7352 373.487 41.9879 365.689 46.7782L372.563 57.968ZM391.541 52.8675V65.9999C396.364 65.9999 400.16 67.1334 403.337 69.1133L410.282 57.968L417.228 46.8227C409.492 42.002 400.794 39.7352 391.541 39.7352V52.8675ZM410.282 57.968L403.409 69.1577C406.629 71.1362 409.374 74.0744 411.555 78.491L423.33 72.6762L435.105 66.8615C430.96 58.4676 425.006 51.6003 417.156 46.7782L410.282 57.968ZM423.33 72.6762L411.555 78.491C413.608 82.6491 414.942 88.3329 414.942 96.0433H428.074H441.207C441.207 85.408 439.377 75.5138 435.105 66.8615L423.33 72.6762ZM428.074 96.0433H414.942C414.942 103.754 413.608 109.438 411.555 113.596L423.33 119.41L435.105 125.225C439.377 116.573 441.207 106.679 441.207 96.0433H428.074ZM423.33 119.41L411.555 113.596C409.374 118.012 406.629 120.95 403.409 122.929L410.282 134.119L417.156 145.308C425.006 140.486 430.96 133.619 435.105 125.225L423.33 119.41ZM410.282 134.119L403.337 122.973C400.16 124.953 396.364 126.087 391.541 126.087V139.219V152.351C400.794 152.351 409.492 150.085 417.228 145.264L410.282 134.119ZM391.541 120.004V133.136C397.062 133.136 402.271 131.32 406.591 127.72L398.184 117.631L389.776 107.543C389.952 107.396 390.263 107.193 390.683 107.043C391.098 106.895 391.416 106.871 391.541 106.871V120.004ZM398.184 117.631L406.387 127.886C411.1 124.116 413.762 118.931 415.324 114.022L402.81 110.04L390.295 106.058C389.989 107.02 389.725 107.522 389.608 107.714C389.501 107.89 389.589 107.69 389.98 107.377L398.184 117.631ZM402.81 110.04L415.349 113.941C417.003 108.626 417.602 102.497 417.602 96.0433H404.47H391.338C391.338 101.135 390.831 104.337 390.27 106.139L402.81 110.04ZM404.47 96.0433H417.602C417.602 89.5508 417.011 83.3684 415.324 78.065L402.81 82.0468L390.295 86.0286C390.822 87.6839 391.338 90.8325 391.338 96.0433H404.47ZM402.81 82.0468L415.324 78.065C413.762 73.1557 411.1 67.971 406.387 64.2008L398.184 74.4554L389.98 84.7101C389.589 84.3971 389.501 84.1966 389.608 84.3731C389.725 84.5645 389.989 85.067 390.295 86.0286L402.81 82.0468ZM398.184 74.4554L406.591 64.3669C402.271 60.7671 397.062 58.9508 391.541 58.9508V72.0831V85.2155C391.416 85.2155 391.098 85.1917 390.683 85.0435C390.263 84.8937 389.952 84.6907 389.776 84.544L398.184 74.4554ZM391.541 72.0831V58.9508C386.027 58.9508 380.881 60.7574 376.576 64.2008L384.78 74.4554L392.984 84.7101C392.886 84.788 392.653 84.9445 392.301 85.0679C391.949 85.1913 391.668 85.2155 391.541 85.2155V72.0831ZM384.78 74.4554L376.373 64.3669C371.929 68.0699 369.334 73.0866 367.724 77.8093L380.154 82.0468L392.584 86.2843C392.938 85.2447 393.244 84.6521 393.414 84.3731C393.58 84.1013 393.542 84.2481 393.187 84.544L384.78 74.4554ZM380.154 82.0468L367.64 78.065C365.952 83.3684 365.361 89.5508 365.361 96.0433H378.493H391.626C391.626 90.8325 392.142 87.6839 392.668 86.0286L380.154 82.0468ZM378.493 96.0433H365.361C365.361 102.497 365.961 108.626 367.615 113.941L380.154 110.04L392.694 106.139C392.133 104.337 391.626 101.135 391.626 96.0433H378.493ZM380.154 110.04L367.724 114.277C369.334 119 371.929 124.017 376.373 127.72L384.78 117.631L393.187 107.543C393.542 107.839 393.58 107.985 393.414 107.714C393.244 107.435 392.938 106.842 392.584 105.802L380.154 110.04ZM384.78 117.631L376.576 127.886C380.881 131.329 386.027 133.136 391.541 133.136V120.004V106.871C391.668 106.871 391.949 106.895 392.301 107.019C392.653 107.142 392.886 107.299 392.984 107.377L384.78 117.631ZM453.763 134.119L446.817 145.264L446.853 145.286L446.889 145.308L453.763 134.119ZM440.834 119.41L429.059 125.225L440.834 119.41ZM440.834 72.6762L429.059 66.8615V66.8615L440.834 72.6762ZM453.763 57.968L446.889 46.7782L446.853 46.8004L446.817 46.8227L453.763 57.968ZM491.482 57.968L484.537 69.1133L484.573 69.1356L484.609 69.1577L491.482 57.968ZM504.53 72.6762L492.755 78.491L504.53 72.6762ZM504.53 119.41L492.755 113.596V113.596L504.53 119.41ZM491.482 134.119L484.609 122.929L484.573 122.951L484.537 122.973L491.482 134.119ZM479.384 117.631L471.18 107.377L471.077 107.459L470.977 107.543L479.384 117.631ZM484.01 110.04L496.524 114.022L496.537 113.981L496.549 113.941L484.01 110.04ZM479.384 74.4554L470.977 84.544L471.077 84.6281L471.18 84.7101L479.384 74.4554ZM465.98 74.4554L457.776 64.2008L457.674 64.2828L457.573 64.3669L465.98 74.4554ZM461.354 82.0468L448.924 77.8093L448.881 77.9367L448.84 78.065L461.354 82.0468ZM461.354 110.04L448.815 113.941L448.867 114.11L448.924 114.277L461.354 110.04ZM465.98 117.631L457.573 127.72L457.674 127.804L457.776 127.886L465.98 117.631ZM472.741 139.219V126.087C467.811 126.087 463.909 124.939 460.637 122.929L453.763 134.119L446.889 145.308C454.687 150.099 463.437 152.351 472.741 152.351V139.219ZM453.763 134.119L460.708 122.973C457.552 121.006 454.814 118.06 452.609 113.596L440.834 119.41L429.059 125.225C433.18 133.571 439.061 140.43 446.817 145.264L453.763 134.119ZM440.834 119.41L452.609 113.596C450.555 109.438 449.222 103.754 449.222 96.0433H436.089H422.957C422.957 106.679 424.786 116.573 429.059 125.225L440.834 119.41ZM436.089 96.0433H449.222C449.222 88.3329 450.555 82.6491 452.609 78.491L440.834 72.6762L429.059 66.8615C424.786 75.5138 422.957 85.408 422.957 96.0433H436.089ZM440.834 72.6762L452.609 78.491C454.814 74.0263 457.552 71.0802 460.708 69.1133L453.763 57.968L446.817 46.8227C439.061 51.6563 433.18 58.5157 429.059 66.8615L440.834 72.6762ZM453.763 57.968L460.637 69.1577C463.909 67.1475 467.811 65.9999 472.741 65.9999V52.8675V39.7352C463.437 39.7352 454.687 41.9879 446.889 46.7782L453.763 57.968ZM472.741 52.8675V65.9999C477.564 65.9999 481.36 67.1334 484.537 69.1133L491.482 57.968L498.428 46.8227C490.692 42.002 481.994 39.7352 472.741 39.7352V52.8675ZM491.482 57.968L484.609 69.1577C487.829 71.1362 490.574 74.0744 492.755 78.491L504.53 72.6762L516.305 66.8615C512.16 58.4676 506.206 51.6003 498.356 46.7782L491.482 57.968ZM504.53 72.6762L492.755 78.491C494.809 82.6491 496.142 88.3329 496.142 96.0433H509.275H522.407C522.407 85.408 520.578 75.5138 516.305 66.8615L504.53 72.6762ZM509.275 96.0433H496.142C496.142 103.754 494.809 109.438 492.755 113.596L504.53 119.41L516.305 125.225C520.578 116.573 522.407 106.679 522.407 96.0433H509.275ZM504.53 119.41L492.755 113.596C490.574 118.012 487.829 120.95 484.609 122.929L491.482 134.119L498.356 145.308C506.206 140.486 512.16 133.619 516.305 125.225L504.53 119.41ZM491.482 134.119L484.537 122.973C481.36 124.953 477.564 126.087 472.741 126.087V139.219V152.351C481.994 152.351 490.692 150.085 498.428 145.264L491.482 134.119ZM472.741 120.004V133.136C478.262 133.136 483.471 131.32 487.791 127.72L479.384 117.631L470.977 107.543C471.153 107.396 471.463 107.193 471.883 107.043C472.298 106.895 472.616 106.871 472.741 106.871V120.004ZM479.384 117.631L487.587 127.886C492.3 124.116 494.962 118.931 496.524 114.022L484.01 110.04L471.495 106.058C471.19 107.02 470.925 107.522 470.809 107.714C470.701 107.89 470.789 107.69 471.18 107.377L479.384 117.631ZM484.01 110.04L496.549 113.941C498.203 108.626 498.803 102.497 498.803 96.0433H485.67H472.538C472.538 101.135 472.031 104.337 471.47 106.139L484.01 110.04ZM485.67 96.0433H498.803C498.803 89.5508 498.211 83.3684 496.524 78.065L484.01 82.0468L471.495 86.0286C472.022 87.6839 472.538 90.8325 472.538 96.0433H485.67ZM484.01 82.0468L496.524 78.065C494.962 73.1557 492.3 67.971 487.587 64.2008L479.384 74.4554L471.18 84.7101C470.789 84.3971 470.701 84.1966 470.809 84.3731C470.925 84.5645 471.19 85.067 471.495 86.0286L484.01 82.0468ZM479.384 74.4554L487.791 64.3669C483.471 60.7671 478.262 58.9508 472.741 58.9508V72.0831V85.2155C472.616 85.2155 472.298 85.1917 471.883 85.0435C471.463 84.8937 471.153 84.6907 470.977 84.544L479.384 74.4554ZM472.741 72.0831V58.9508C467.227 58.9508 462.081 60.7574 457.776 64.2008L465.98 74.4554L474.184 84.7101C474.086 84.788 473.853 84.9445 473.501 85.0679C473.149 85.1913 472.868 85.2155 472.741 85.2155V72.0831ZM465.98 74.4554L457.573 64.3669C453.129 68.0699 450.534 73.0866 448.924 77.8093L461.354 82.0468L473.784 86.2843C474.139 85.2447 474.445 84.6521 474.615 84.3731C474.78 84.1013 474.742 84.2481 474.387 84.544L465.98 74.4554ZM461.354 82.0468L448.84 78.065C447.153 83.3684 446.561 89.5508 446.561 96.0433H459.694H472.826C472.826 90.8325 473.342 87.6839 473.868 86.0286L461.354 82.0468ZM459.694 96.0433H446.561C446.561 102.497 447.161 108.626 448.815 113.941L461.354 110.04L473.894 106.139C473.333 104.337 472.826 101.135 472.826 96.0433H459.694ZM461.354 110.04L448.924 114.277C450.534 119 453.129 124.017 457.573 127.72L465.98 117.631L474.387 107.543C474.742 107.839 474.78 107.985 474.615 107.714C474.445 107.435 474.139 106.842 473.784 105.802L461.354 110.04ZM465.98 117.631L457.776 127.886C462.081 131.329 467.227 133.136 472.741 133.136V120.004V106.871C472.868 106.871 473.149 106.895 473.501 107.019C473.853 107.142 474.086 107.299 474.184 107.377L465.98 117.631ZM534.963 134.119L528.017 145.264L528.053 145.286L528.089 145.308L534.963 134.119ZM522.034 119.41L510.259 125.225L522.034 119.41ZM522.034 72.6762L510.259 66.8615V66.8615L522.034 72.6762ZM534.963 57.968L528.089 46.7782L528.053 46.8004L528.017 46.8227L534.963 57.968ZM572.683 57.968L565.737 69.1133L565.773 69.1356L565.809 69.1577L572.683 57.968ZM585.73 72.6762L573.955 78.491L585.73 72.6762ZM585.73 119.41L573.955 113.596V113.596L585.73 119.41ZM572.683 134.119L565.809 122.929L565.773 122.951L565.737 122.973L572.683 134.119ZM560.584 117.631L552.38 107.377L552.278 107.459L552.177 107.543L560.584 117.631ZM565.21 110.04L577.724 114.022L577.737 113.981L577.749 113.941L565.21 110.04ZM560.584 74.4554L552.177 84.544L552.278 84.6281L552.38 84.7101L560.584 74.4554ZM547.18 74.4554L538.977 64.2008L538.874 64.2828L538.773 64.3669L547.18 74.4554ZM542.554 82.0468L530.124 77.8093L530.081 77.9367L530.04 78.065L542.554 82.0468ZM542.554 110.04L530.015 113.941L530.067 114.11L530.124 114.277L542.554 110.04ZM547.18 117.631L538.773 127.72L538.874 127.804L538.977 127.886L547.18 117.631ZM553.941 139.219V126.087C549.011 126.087 545.109 124.939 541.837 122.929L534.963 134.119L528.089 145.308C535.888 150.099 544.638 152.351 553.941 152.351V139.219ZM534.963 134.119L541.909 122.973C538.752 121.006 536.014 118.06 533.809 113.596L522.034 119.41L510.259 125.225C514.381 133.571 520.261 140.43 528.017 145.264L534.963 134.119ZM522.034 119.41L533.809 113.596C531.755 109.438 530.422 103.754 530.422 96.0433H517.289H504.157C504.157 106.679 505.986 116.573 510.259 125.225L522.034 119.41ZM517.289 96.0433H530.422C530.422 88.3329 531.755 82.6491 533.809 78.491L522.034 72.6762L510.259 66.8615C505.986 75.5138 504.157 85.408 504.157 96.0433H517.289ZM522.034 72.6762L533.809 78.491C536.014 74.0263 538.752 71.0802 541.909 69.1133L534.963 57.968L528.017 46.8227C520.261 51.6563 514.381 58.5157 510.259 66.8615L522.034 72.6762ZM534.963 57.968L541.837 69.1577C545.109 67.1475 549.012 65.9999 553.941 65.9999V52.8675V39.7352C544.638 39.7352 535.888 41.9879 528.089 46.7782L534.963 57.968ZM553.941 52.8675V65.9999C558.765 65.9999 562.56 67.1334 565.737 69.1133L572.683 57.968L579.628 46.8227C571.893 42.002 563.194 39.7352 553.941 39.7352V52.8675ZM572.683 57.968L565.809 69.1577C569.03 71.1362 571.774 74.0744 573.955 78.491L585.73 72.6762L597.505 66.8615C593.36 58.4676 587.406 51.6003 579.556 46.7782L572.683 57.968ZM585.73 72.6762L573.955 78.491C576.009 82.6491 577.342 88.3329 577.342 96.0433H590.475H603.607C603.607 85.408 601.778 75.5138 597.505 66.8615L585.73 72.6762ZM590.475 96.0433H577.342C577.342 103.754 576.009 109.438 573.955 113.596L585.73 119.41L597.505 125.225C601.778 116.573 603.607 106.679 603.607 96.0433H590.475ZM585.73 119.41L573.955 113.596C571.774 118.012 569.03 120.95 565.809 122.929L572.683 134.119L579.556 145.308C587.406 140.486 593.36 133.619 597.505 125.225L585.73 119.41ZM572.683 134.119L565.737 122.973C562.56 124.953 558.765 126.087 553.941 126.087V139.219V152.351C563.194 152.351 571.893 150.085 579.628 145.264L572.683 134.119ZM553.941 120.004V133.136C559.463 133.136 564.671 131.32 568.991 127.72L560.584 117.631L552.177 107.543C552.353 107.396 552.664 107.193 553.083 107.043C553.498 106.895 553.817 106.871 553.941 106.871V120.004ZM560.584 117.631L568.788 127.886C573.5 124.116 576.162 118.931 577.724 114.022L565.21 110.04L552.696 106.058C552.39 107.02 552.125 107.522 552.009 107.714C551.901 107.89 551.989 107.69 552.38 107.377L560.584 117.631ZM565.21 110.04L577.749 113.941C579.403 108.626 580.003 102.497 580.003 96.0433H566.87H553.738C553.738 101.135 553.231 104.337 552.67 106.139L565.21 110.04ZM566.87 96.0433H580.003C580.003 89.5508 579.411 83.3684 577.724 78.065L565.21 82.0468L552.696 86.0286C553.222 87.6839 553.738 90.8325 553.738 96.0433H566.87ZM565.21 82.0468L577.724 78.065C576.162 73.1557 573.5 67.971 568.788 64.2008L560.584 74.4554L552.38 84.7101C551.989 84.3971 551.901 84.1966 552.009 84.3731C552.125 84.5645 552.39 85.067 552.696 86.0286L565.21 82.0468ZM560.584 74.4554L568.991 64.3669C564.671 60.7671 559.463 58.9508 553.941 58.9508V72.0831V85.2155C553.817 85.2155 553.498 85.1917 553.083 85.0435C552.664 84.8937 552.353 84.6907 552.177 84.544L560.584 74.4554ZM553.941 72.0831V58.9508C548.427 58.9508 543.281 60.7574 538.977 64.2008L547.18 74.4554L555.384 84.7101C555.287 84.788 555.053 84.9445 554.701 85.0679C554.35 85.1913 554.068 85.2155 553.941 85.2155V72.0831ZM547.18 74.4554L538.773 64.3669C534.33 68.0699 531.734 73.0866 530.124 77.8093L542.554 82.0468L554.984 86.2843C555.339 85.2447 555.645 84.6521 555.815 84.3731C555.98 84.1013 555.943 84.2481 555.587 84.544L547.18 74.4554ZM542.554 82.0468L530.04 78.065C528.353 83.3684 527.761 89.5508 527.761 96.0433H540.894H554.026C554.026 90.8325 554.542 87.6839 555.069 86.0286L542.554 82.0468ZM540.894 96.0433H527.761C527.761 102.497 528.361 108.626 530.015 113.941L542.554 110.04L555.094 106.139C554.533 104.337 554.026 101.135 554.026 96.0433H540.894ZM542.554 110.04L530.124 114.277C531.734 119 534.33 124.017 538.773 127.72L547.18 117.631L555.587 107.543C555.943 107.839 555.98 107.985 555.815 107.714C555.645 107.435 555.339 106.842 554.984 105.802L542.554 110.04ZM547.18 117.631L538.977 127.886C543.281 131.329 548.427 133.136 553.941 133.136V120.004V106.871C554.068 106.871 554.35 106.895 554.701 107.019C555.053 107.142 555.287 107.299 555.384 107.377L547.18 117.631Z" fill="#FFF438" mask="url(#path-3-outside-2_41_10)"/>
<defs>
<filter id="filter0_ddi_41_10" x="0.179638" y="0.892178" width="659.123" height="250.28" filterUnits="userSpaceOnUse" color-interpolation-filters="sRGB">
<feFlood flood-opacity="0" result="BackgroundImageFix"/>
<feColorMatrix in="SourceAlpha" type="matrix" values="0 0 0 0 0 0 0 0 0 0 0 0 0 0 0 0 0 0 127 0" result="hardAlpha"/>
<feOffset dy="21.3401"/>
<feGaussianBlur stdDeviation="8.20772"/>
<feColorMatrix type="matrix" values="0 0 0 0 0.224 0 0 0 0 0.15 0 0 0 0 0 0 0 0 0.7 0"/>
<feBlend mode="multiply" in2="BackgroundImageFix" result="effect1_dropShadow_41_10"/>
<feColorMatrix in="SourceAlpha" type="matrix" values="0 0 0 0 0 0 0 0 0 0 0 0 0 0 0 0 0 0 127 0" result="hardAlpha"/>
<feOffset dy="39.397"/>
<feGaussianBlur stdDeviation="25.6081"/>
<feColorMatrix type="matrix" values="0 0 0 0 0.56 0 0 0 0 0.44 0 0 0 0 0 0 0 0 1 0"/>
<feBlend mode="color-dodge" in2="effect1_dropShadow_41_10" result="effect2_dropShadow_41_10"/>
<feBlend mode="normal" in="SourceGraphic" in2="effect2_dropShadow_41_10" result="shape"/>
<feColorMatrix in="SourceAlpha" type="matrix" values="0 0 0 0 0 0 0 0 0 0 0 0 0 0 0 0 0 0 127 0" result="hardAlpha"/>
<feOffset dx="-2.13401" dy="4.26801"/>
<feGaussianBlur stdDeviation="1.067"/>
<feComposite in2="hardAlpha" operator="arithmetic" k2="-1" k3="1"/>
<feColorMatrix type="matrix" values="0 0 0 0 1 0 0 0 0 1 0 0 0 0 1 0 0 0 0.5 0"/>
<feBlend mode="normal" in2="shape" result="effect3_innerShadow_41_10"/>
</filter>
</defs>
</svg>
